<svg xmlns="http://www.w3.org/2000/svg" width="64.843" height="79.656" viewBox="0 0 64.843 79.656">
  <path id="Ghurza" d="M135.3,56.951a8.56,8.56,0,0,0-3.142-2.583c-1.178-8.526-5.2-13.037-12.981-12.454l.543-2.5a1.207,1.207,0,0,0-2.359-.513l-.729,3.351c-4.2.786-8.878,2.643-13.7,4.557-8.841,3.512-17.984,7.143-23.067,3.074a4.379,4.379,0,0,1-1.551-5.44c.915-2.259,3.066-3.688,4.422-3.559a24.8,24.8,0,0,1,5.408,1.732A1.209,1.209,0,0,0,89.752,41.6a22.077,22.077,0,0,1,.687-5.213,3.964,3.964,0,0,1,2.782-2.747,3.039,3.039,0,0,1,2.823.906c1.368,1.445,1.768,7.4,1.432,10.7a1.207,1.207,0,1,0,2.4.244c.2-1.985.439-9.939-2.081-12.6a5.44,5.44,0,0,0-5.054-1.612,6.359,6.359,0,0,0-4.564,4.265,14.682,14.682,0,0,0-.715,4.231,17.39,17.39,0,0,0-4.5-1.283c-2.612-.252-5.638,1.972-6.887,5.056a6.851,6.851,0,0,0,2.28,8.231c6.179,4.945,15.984,1.051,25.467-2.715a86.352,86.352,0,0,1,12.24-4.2L113.07,58.621a4.5,4.5,0,0,0-3.673-1.707l-9.637.314a5.94,5.94,0,0,0-5.246,3.422,17.554,17.554,0,0,0-1.851,9.488,4.473,4.473,0,0,0-1.437.965h0a4.465,4.465,0,0,0-1.31,3.345A4.494,4.494,0,0,0,85.458,77.6l-5.923-5.923a4.5,4.5,0,1,0-6.362,6.367l19.4,19.278a5.9,5.9,0,0,0,5.193,1.668l2.407-.384a3.467,3.467,0,0,1,2.625.594l3.974,2.738a2.688,2.688,0,0,0,.045,3.755l4.34,4.34a2.693,2.693,0,0,0,3.8,0l16.143-16.143a2.693,2.693,0,0,0,0-3.8l-4.341-4.341a2.686,2.686,0,0,0-3.017-.543l-2.115-18.549a4.5,4.5,0,0,0-7.152-3.163l4.147-19.074a10.189,10.189,0,0,1,6.5,1c2.256,1.362,3.722,4.035,4.455,8.142a6.3,6.3,0,0,0-4.992,1.243,4.812,4.812,0,0,0-.637,6.941,3.74,3.74,0,0,0,3.268,1.229,6.015,6.015,0,0,0,4.058-3.184,8,8,0,0,0,.886-2.594,5.664,5.664,0,0,1,1.178,1.178c1.613,2.215.953,3.765-.351,6.315a23.644,23.644,0,0,0-1.014,2.158,29.045,29.045,0,0,0-1.532,9.395,26.691,26.691,0,0,0,.325,4.394,1.207,1.207,0,0,0,2.383-.38,24.288,24.288,0,0,1-.295-4,26.975,26.975,0,0,1,1.366-8.534c.251-.642.573-1.272.915-1.938,1.212-2.367,2.72-5.313.154-8.835ZM112.68,67.56l.738,7.277a31.787,31.787,0,0,1-10.49-8.707l6.763-.22a4.457,4.457,0,0,0,2.783-1.087,1.2,1.2,0,0,0,.686.222,4.473,4.473,0,0,0-.48,2.515ZM92.328,74.284a2.086,2.086,0,0,1,3.558-1.475l6.413,6.413a2.086,2.086,0,0,1-2.951,2.951l-6.413-6.413A2.07,2.07,0,0,1,92.328,74.284ZM87.67,78.941a2.082,2.082,0,0,1,3.557-1.475l6.413,6.413A2.086,2.086,0,0,1,94.69,86.83l-6.413-6.413A2.072,2.072,0,0,1,87.67,78.941ZM125.06,87.45l4.341,4.341a.28.28,0,0,1,0,.39l-16.143,16.143a.279.279,0,0,1-.39,0l-4.341-4.341a.28.28,0,0,1,0-.39L124.669,87.45A.279.279,0,0,1,125.06,87.45Zm-8.113-22.42a2.093,2.093,0,0,1,2.288,1.88l2.309,20.252L108.508,100.2,104.17,97.21a5.854,5.854,0,0,0-4.374-.99l-2.407.384a3.5,3.5,0,0,1-3.114-1l-19.4-19.273a2.086,2.086,0,1,1,2.951-2.951L92.984,88.537a4.5,4.5,0,0,0,7.676-3.345,4.5,4.5,0,0,0,3.345-7.677L97.592,71.1a4.478,4.478,0,0,0-2.533-1.269,15.226,15.226,0,0,1,1.632-8.139A3.52,3.52,0,0,1,99.84,59.64l9.637-.314a2.087,2.087,0,0,1,.136,4.171l-9.12.3a1.211,1.211,0,0,0-.934,1.921c3.96,5.394,8.318,9.179,13.281,11.524a9.556,9.556,0,0,0-1.451,8.266,1.207,1.207,0,0,0,2.348-.56,7.127,7.127,0,0,1,1.935-7.286,1.22,1.22,0,0,0,.359-.986l-.949-9.355a2.089,2.089,0,0,1,1.865-2.287Zm12.222-6.412a3.657,3.657,0,0,1-2.266,1.961,1.359,1.359,0,0,1-1.218-.521c-1.318-1.354-.136-4.584,3.428-4.128a5.875,5.875,0,0,1,.753.147A5.942,5.942,0,0,1,129.169,58.618Z" transform="translate(-71.855 -31.161)" fill="#ffc200" fill-rule="evenodd"/>
</svg>
