<svg id="health" xmlns="http://www.w3.org/2000/svg" width="65.599" height="65.91" viewBox="0 0 65.599 65.91">
  <path id="Path_77673" data-name="Path 77673" d="M39.328,13.409H36.021V10.1a1.1,1.1,0,0,0-1.1-1.1H30.511a1.1,1.1,0,0,0-1.1,1.1v3.306H26.1a1.1,1.1,0,0,0-1.1,1.1v4.409a1.1,1.1,0,0,0,1.1,1.1h3.306v3.306a1.1,1.1,0,0,0,1.1,1.1h4.409a1.1,1.1,0,0,0,1.1-1.1V20.021h3.306a1.1,1.1,0,0,0,1.1-1.1V14.511A1.1,1.1,0,0,0,39.328,13.409Zm-1.1,4.409H34.919a1.1,1.1,0,0,0-1.1,1.1v3.306h-2.2V18.919a1.1,1.1,0,0,0-1.1-1.1H27.2v-2.2h3.306a1.1,1.1,0,0,0,1.1-1.1V11.2h2.2v3.306a1.1,1.1,0,0,0,1.1,1.1h3.306Z" transform="translate(0.085 -1.504)" fill="#ed3c8a"/>
  <path id="Path_77674" data-name="Path 77674" d="M62.46,18.821a5.046,5.046,0,0,0,.033-.584,4.431,4.431,0,0,0-3.5-4.309,4.487,4.487,0,0,0-5.18,3.273L48.959,31.154a1.8,1.8,0,0,0-.209.1l-9.743,5.709a9.938,9.938,0,0,0-4.9,8.553V55.9A1.1,1.1,0,0,0,33,57v8.817a1.1,1.1,0,0,0,1.1,1.1h15.43a1.1,1.1,0,0,0,1.1-1.1V57a1.1,1.1,0,0,0-1.1-1.1V53.472A3.349,3.349,0,0,1,50.634,51l7.45-6.624a5.435,5.435,0,0,0,1.675-2.7l4.783-17.888a4.359,4.359,0,0,0,.154-1.146,4.43,4.43,0,0,0-2.237-3.824Zm-6.547-.97a2.329,2.329,0,0,1,2.623-1.763,2.2,2.2,0,0,1,1.752,2.149v.022A4.519,4.519,0,0,0,56,21.631l-3.075,9.489A4.629,4.629,0,0,0,51.45,30.7ZM48.43,64.714H35.2V58.1H48.43Zm13.986-41.5-4.794,17.9a3.285,3.285,0,0,1-.992,1.609L49.168,49.35a5.572,5.572,0,0,0-1.841,4.122V55.9H36.306V45.515a7.772,7.772,0,0,1,3.813-6.657l9.732-5.7a2.2,2.2,0,0,1,3.02.8,2.27,2.27,0,0,1,.22,1.675,2.2,2.2,0,0,1-1.036,1.334l-6.315,3.648a1.1,1.1,0,0,0,1.1,1.907l6.315-3.648A4.351,4.351,0,0,0,55.219,36.2a4.416,4.416,0,0,0-.441-3.339l-.066-.1,3.406-10.5A2.329,2.329,0,0,1,60.741,20.5a2.2,2.2,0,0,1,1.752,2.149A1.9,1.9,0,0,1,62.416,23.218Z" transform="translate(0.902 -1.009)" fill="#ed3c8a"/>
  <path id="Path_77675" data-name="Path 77675" d="M32.835,55.9V45.514a9.938,9.938,0,0,0-4.9-8.553l-9.743-5.72c-.066-.033-.143-.055-.209-.088L13.162,17.278a4.526,4.526,0,0,0-5.213-3.351,4.431,4.431,0,0,0-3.5,4.309,5.045,5.045,0,0,0,.033.584A4.43,4.43,0,0,0,2.24,22.645a4.873,4.873,0,0,0,.143,1.146L7.178,41.668a5.418,5.418,0,0,0,1.675,2.711L16.292,51a3.32,3.32,0,0,1,1.113,2.469V55.9A1.1,1.1,0,0,0,16.3,57v8.817a1.1,1.1,0,0,0,1.1,1.1h15.43a1.1,1.1,0,0,0,1.1-1.1V57A1.1,1.1,0,0,0,32.835,55.9ZM6.649,18.236A2.2,2.2,0,0,1,8.39,16.087a2.382,2.382,0,0,1,2.667,1.841L15.488,30.7a4.629,4.629,0,0,0-1.477.419l-3.053-9.434a4.573,4.573,0,0,0-4.309-3.428ZM17.758,49.35l-7.45-6.624a3.268,3.268,0,0,1-.992-1.62L4.51,23.218a2.338,2.338,0,0,1-.066-.573A2.2,2.2,0,0,1,6.186,20.5a2.363,2.363,0,0,1,2.656,1.819l3.384,10.448-.066.1a4.416,4.416,0,0,0-.441,3.339,4.351,4.351,0,0,0,2.061,2.678l6.315,3.648a1.1,1.1,0,0,0,1.1-1.907l-6.315-3.648a2.2,2.2,0,0,1-1.036-1.334,2.27,2.27,0,0,1,.22-1.675,2.2,2.2,0,0,1,3.009-.816l9.743,5.709a7.772,7.772,0,0,1,3.813,6.657V55.9H19.61V53.472A5.544,5.544,0,0,0,17.758,49.35ZM31.733,64.714H18.508V58.1H31.733Z" transform="translate(-2.24 -1.008)" fill="#ed3c8a"/>
  <path id="Path_77676" data-name="Path 77676" d="M49.335,5.432a11.015,11.015,0,0,0-15.591,0h0A11.02,11.02,0,1,0,18.153,21.01L32.965,35.823a1.1,1.1,0,0,0,1.558,0L49.337,21.01a11.028,11.028,0,0,0,0-15.579ZM33.743,33.486,19.71,19.452A8.817,8.817,0,0,1,25.951,4.4a8.725,8.725,0,0,1,6.23,2.587l.783.783a1.1,1.1,0,0,0,1.558,0l.785-.785A8.814,8.814,0,0,1,47.777,19.45Z" transform="translate(-0.944 -2.199)" fill="#ed3c8a"/>
</svg>
