<svg id="market" xmlns="http://www.w3.org/2000/svg" width="62.78" height="54.814" viewBox="0 0 62.78 54.814">
  <g id="Group_54605" data-name="Group 54605" transform="translate(0 0)">
    <path id="Path_77678" data-name="Path 77678" d="M260.964,263.75h-8.531a4.237,4.237,0,0,0-4.233,4.233v6.542a4.237,4.237,0,0,0,4.233,4.233h8.531a4.237,4.237,0,0,0,4.233-4.233v-6.542A4.237,4.237,0,0,0,260.964,263.75Zm1.155,10.776a1.158,1.158,0,0,1-1.155,1.154h-8.531a1.158,1.158,0,0,1-1.155-1.154v-6.542a1.158,1.158,0,0,1,1.155-1.155h8.531a1.158,1.158,0,0,1,1.155,1.155Z" transform="translate(-216.361 -233.899)" fill="#ffc200"/>
    <path id="Path_77679" data-name="Path 77679" d="M62.78,49.009a1.429,1.429,0,0,0-.205-.757l-9.339-16.42A1.548,1.548,0,0,0,51.9,31.05H10.865a1.521,1.521,0,0,0-1.334.783L.205,48.252A1.556,1.556,0,0,0,0,49.009a9,9,0,0,0,5.388,8.236v27.08a1.544,1.544,0,0,0,1.539,1.539H55.84a1.544,1.544,0,0,0,1.539-1.539V57.437a.678.678,0,0,0-.013-.167A9.03,9.03,0,0,0,62.78,49.009ZM11.763,34.142H51l7.3,12.841H4.477ZM44.68,50.048a5.916,5.916,0,0,1-11.648,0Zm-14.919,0a5.924,5.924,0,0,1-11.661,0Zm-26.58,0H14.842a5.924,5.924,0,0,1-11.661,0Zm22.68,32.737H17.01V66.173A2.193,2.193,0,0,1,19.2,63.98h4.477a2.193,2.193,0,0,1,2.194,2.194V82.785Zm28.44,0H28.94V66.173A5.28,5.28,0,0,0,23.668,60.9H19.191a5.28,5.28,0,0,0-5.272,5.272V82.8H8.466V58c.18.013.359.013.539.013a8.994,8.994,0,0,0,7.466-3.977,9,9,0,0,0,14.932,0,8.973,8.973,0,0,0,14.906,0,8.994,8.994,0,0,0,7.466,3.977c.18,0,.346-.013.526-.013V82.785Zm-.526-27.85a5.913,5.913,0,0,1-5.824-4.875H59.612A5.949,5.949,0,0,1,53.775,54.936Z" transform="translate(0 -31.05)" fill="#ffc200"/>
  </g>
</svg>
