<svg id="mazaya" xmlns="http://www.w3.org/2000/svg" width="65.468" height="55.854" viewBox="0 0 65.468 55.854">
  <path id="Path_77781" data-name="Path 77781" d="M542.956,172.453c1.056,0,1.857-.393,1.927-1.667q.06-1.061.028-9.86a.2.2,0,0,1,.226-.226h4.975a.172.172,0,0,1,.2.2q-.017,4.214,0,11.508c.008,3.156-1.291,4.882-4.588,4.876q-6.965-.014-9.1-.025c-3.911-.02-4.254-2.989-4.237-6.085s.023-9.883.017-20.338a.374.374,0,0,1,.374-.374h4.777a.283.283,0,0,1,.283.283q0,12.136,0,18.691a7.552,7.552,0,0,0,.292,2.425.371.371,0,0,0,.178.2,2.728,2.728,0,0,0,1.05.34Q540.389,172.465,542.956,172.453Z" transform="translate(-531.225 -150.457)"/>
  <rect id="Rectangle_6195" data-name="Rectangle 6195" width="5.445" height="26.796" rx="1.04" transform="translate(23.972)"/>
  <rect id="Rectangle_6199" data-name="Rectangle 6199" width="5.547" height="4.664" rx="0.91" transform="translate(35.783 1.62) rotate(0.1)"/>
  <path id="Path_77779" data-name="Path 77779" d="M650.43,200.4q-.4-.507-.413.141a17.644,17.644,0,0,1-.572,4.364c-1.194,4.359-4.916,4.755-8.859,4.5a.2.2,0,0,1-.207-.224v-4.24a.222.222,0,0,1,.207-.224c1.534-.1,3.153-.023,3.64-1.738a9.206,9.206,0,0,0,.277-2.4q.054-10.52.006-15.515a.205.205,0,0,1,.232-.232h5.077a.139.139,0,0,1,.139.139q.045,3.965.028,7.956a6.69,6.69,0,0,0,.232,2.261c.7,1.616,3.014,1.463,4.525,1.387,2.674-.136,2.386-3.221,2.462-5.052a7.074,7.074,0,0,1,5.977-7.146,12.122,12.122,0,0,1,4.9.014,6.865,6.865,0,0,1,5.731,5.813c1.01,4.992-.294,10.46-6.147,11.318-2.762.408-6.458.178-8.4-2.14a.118.118,0,0,0-.2,0c-1.8,2-4.061,2.162-6.71,1.956A2.6,2.6,0,0,1,650.43,200.4Zm18.276-8.591a2.847,2.847,0,0,0-2.872-2.822l-.47,0a2.847,2.847,0,0,0-2.822,2.872l.019,2.19a2.847,2.847,0,0,0,2.872,2.822l.47,0A2.847,2.847,0,0,0,668.725,194Z" transform="translate(-608.653 -174.607)"/>
  <rect id="Rectangle_6197" data-name="Rectangle 6197" width="4.625" height="4.625" rx="0.97" transform="translate(10.475 30.201)"/>
  <rect id="Rectangle_6196" data-name="Rectangle 6196" width="4.664" height="4.664" rx="1.15" transform="translate(16.351 30.177) rotate(0.1)"/>
  <path id="Path_77775" data-name="Path 77775" d="M616.286,314.31a.146.146,0,0,0,.033.12.152.152,0,0,0,.114.053h4.5a.26.26,0,0,1,.294.294v1.772a.3.3,0,0,1-.334.334h-7.46a.274.274,0,0,1-.308-.3,4.058,4.058,0,0,1,.362-2.556q2.318-3.246,4.56-6.7a.192.192,0,0,0-.161-.3h-4.319a.238.238,0,0,1-.269-.269v-1.783a.269.269,0,0,1,.269-.269h7.472a.155.155,0,0,1,.173.158,3.917,3.917,0,0,1-.583,3.065q-1.659,2.411-4.163,5.992A.988.988,0,0,0,616.286,314.31Z" transform="translate(-589.085 -261.051)"/>
  <path id="Path_77776" data-name="Path 77776" d="M650.549,304.66q.617,0,1.013.023a.406.406,0,0,1,.362.272l3.962,11.516q.136.393-.28.393H653.75a.527.527,0,0,1-.5-.357l-.631-1.834a.227.227,0,0,0-.215-.153q-.962.006-1.851.006t-1.851,0a.228.228,0,0,0-.215.153l-.628,1.834a.527.527,0,0,1-.5.357l-1.857,0q-.416,0-.28-.393l3.945-11.519a.406.406,0,0,1,.362-.275Q649.929,304.66,650.549,304.66Zm-1.319,7.435a.153.153,0,0,0,.144.2l2.315.028a.153.153,0,0,0,.147-.2l-1.112-3.668a.153.153,0,0,0-.291,0Z" transform="translate(-612.104 -261.015)"/>
  <path id="Path_77773" data-name="Path 77773" d="M687.873,304.693h2.222a.167.167,0,0,1,.15.241l-3.45,7.175a.165.165,0,0,0-.017.071v4.52a.167.167,0,0,1-.167.167H684.4a.167.167,0,0,1-.167-.167V312.06a.167.167,0,0,0-.017-.074l-3.492-7.056a.167.167,0,0,1,.15-.241h2.451a.167.167,0,0,1,.153.1l1.862,4.31a.167.167,0,0,0,.3.006l2.077-4.322a.167.167,0,0,1,.15-.093Z" transform="translate(-637.569 -261.037)"/>
  <path id="Path_77783" data-name="Path 77783" d="M530.83,310.283q-.187-.41-.187.042v6.292a.233.233,0,0,1-.263.263h-1.823a.246.246,0,0,1-.277-.28V304.993a.25.25,0,0,1,.283-.283h1.961a.36.36,0,0,1,.331.218l2.878,6.671a.141.141,0,0,0,.26,0l2.754-6.688a.277.277,0,0,1,.277-.187h2.111a.178.178,0,0,1,.178.178v11.7a.248.248,0,0,1-.277.283h-1.8a.258.258,0,0,1-.291-.292v-6.28q0-.611-.232-.045l-1.82,4.421a.741.741,0,0,1-.45.43,1.312,1.312,0,0,1-1.826-.608Q531.7,312.213,530.83,310.283Z" transform="translate(-528.28 -261.051)"/>
  <path id="Path_77780" data-name="Path 77780" d="M577.529,314.546l-1.848,0a.226.226,0,0,0-.215.153l-.628,1.828a.526.526,0,0,1-.5.357l-1.854,0q-.413,0-.28-.391l3.94-11.5a.4.4,0,0,1,.362-.275q.393-.023,1.013-.023t1.013.023a.4.4,0,0,1,.359.272l3.954,11.493q.136.391-.28.391h-1.854a.526.526,0,0,1-.5-.357l-.631-1.828a.226.226,0,0,0-.215-.153Q578.415,314.546,577.529,314.546Zm.17-5.935a.17.17,0,0,0-.323,0l-1.174,3.5a.17.17,0,0,0,.161.224h2.38a.17.17,0,0,0,.161-.226Z" transform="translate(-559.752 -261.044)"/>
  <path id="Path_77774" data-name="Path 77774" d="M717.923,314.541q-.886,0-1.842-.008a.226.226,0,0,0-.218.153l-.631,1.828a.525.525,0,0,1-.5.354l-1.851,0q-.413,0-.277-.393l3.965-11.476a.4.4,0,0,1,.362-.272q.393-.023,1.013-.023t1.01.025a.4.4,0,0,1,.359.275l3.923,11.493q.133.393-.283.391l-1.851,0a.525.525,0,0,1-.5-.357l-.625-1.831a.226.226,0,0,0-.215-.153Q718.811,314.544,717.923,314.541Zm-1.313-2.44a.173.173,0,0,0,.164.224h2.315a.173.173,0,0,0,.164-.224l-1.157-3.662a.173.173,0,0,0-.328,0Z" transform="translate(-660.413 -261.044)"/>
</svg>
