<svg xmlns="http://www.w3.org/2000/svg" width="39.182" height="39.132" viewBox="0 0 39.182 39.132">
  <path id="Vacancies" d="M22.438,40.847A18.338,18.338,0,0,0,34.613,36.22l6.6,6.6a1.154,1.154,0,1,0,1.632-1.632l-6.6-6.6a18.412,18.412,0,1,0-13.807,6.26Zm0-34.57A16.133,16.133,0,1,1,6.305,22.41,16.133,16.133,0,0,1,22.438,6.277ZM13.219,31.052a1.152,1.152,0,1,0,2.3,0,6.914,6.914,0,1,1,13.828,0,1.152,1.152,0,0,0,2.3,0,9.2,9.2,0,0,0-5.176-8.244,6.914,6.914,0,1,0-8.085,0,9.2,9.2,0,0,0-5.176,8.244Zm4.609-13.828a4.609,4.609,0,1,1,4.609,4.609A4.609,4.609,0,0,1,17.829,17.224Z" transform="translate(-4 -4.021)" fill="#79aafa"/>
</svg>
