<svg xmlns="http://www.w3.org/2000/svg" width="63.442" height="64.162" viewBox="0 0 63.442 64.162">
  <path id="Well_Being" data-name="Well Being" d="M96.022,77.5a2.319,2.319,0,0,1-1.2,1.329L80.183,85.768c-3.307,1.568-4.645,1.553-8.215,1.511-5.694-.066-10.574-1.1-16.028-1.942a.978.978,0,0,0-.622.111L51.61,87.51l-5.135-9.246,7.354-4.38c4.244-3.216,8.582-3.224,14.063-.025a.959.959,0,0,0,.415.129l10.682.819a2.189,2.189,0,0,1,2,2.334,2.136,2.136,0,0,1-.361,1.036.974.974,0,0,0-.241.2,2.187,2.187,0,0,1-1.817.757l-9.525-.731a.972.972,0,1,0-.147,1.938l9.524.731a4.2,4.2,0,0,0,3.19-1.162L92.822,74.6a2.339,2.339,0,0,1,3.2,2.9Zm-44.953,13.1a.03.03,0,0,0,.009-.035L43.574,77.042a.03.03,0,0,0-.035-.009L36.62,80.873a.031.031,0,0,0-.01.035l7.506,13.518a.03.03,0,0,0,.035.009ZM97.693,74.877a4.3,4.3,0,0,0-5.7-2.035l-9.05,4.292a4.13,4.13,0,0,0-3.8-4.264l-10.462-.8A17.012,17.012,0,0,0,60.9,69.546,12.623,12.623,0,0,0,52.7,72.3L45.53,76.563l-.257-.466a1.971,1.971,0,0,0-2.678-.765l-6.918,3.841a1.971,1.971,0,0,0-.766,2.679l7.505,13.518a1.973,1.973,0,0,0,2.679.766l6.918-3.842a1.971,1.971,0,0,0,.766-2.678l-.226-.406,3.418-1.9c.936.146,1.876.3,2.788.453a85.624,85.624,0,0,0,13.186,1.461c3.677.043,5.358.062,9.071-1.7L95.66,80.582a4.3,4.3,0,0,0,2.033-5.705Zm-48-18.514a7.753,7.753,0,0,1,8.449,0L62,58.794a6.905,6.905,0,0,0,0,2.531l-3.853,2.43a7.754,7.754,0,0,1-8.449,0l-5.858-3.7Zm4.336-11.244c-.224.226-.261,1.169.56,2.847a26.157,26.157,0,0,0,8.075,8.874,7.052,7.052,0,0,1,3.055-3.026l-.552-.875a27.578,27.578,0,0,0-2.577-2.957,22.722,22.722,0,0,0-5.715-4.3C55.2,44.857,54.255,44.894,54.029,45.119Zm11.156-4.247,3.7-5.858,3.7,5.858a7.752,7.752,0,0,1,0,8.449l-1.587,2.518q-.494.664-.914,1.321a6.906,6.906,0,0,0-2.389,0c-.279-.437-.585-.88-.914-1.323l-1.587-2.516A7.752,7.752,0,0,1,65.185,40.872Zm18.547,4.247c-.226-.225-1.169-.262-2.847.559a22.7,22.7,0,0,0-5.714,4.3,27.491,27.491,0,0,0-2.578,2.957l-.552.875A7.048,7.048,0,0,1,75.1,56.839a26.172,26.172,0,0,0,8.077-8.874C83.994,46.288,83.958,45.344,83.732,45.119Zm4.337,11.244,5.858,3.7-5.858,3.7a7.755,7.755,0,0,1-8.449,0l-3.851-2.43a6.956,6.956,0,0,0,0-2.531l3.851-2.431a7.756,7.756,0,0,1,8.449,0ZM68.881,65.118a5.059,5.059,0,1,1,5.06-5.059A5.064,5.064,0,0,1,68.881,65.118ZM41.5,60.881l7.16,4.518a9.659,9.659,0,0,0,10.526,0l3.453-2.18a7,7,0,0,0,12.493,0l3.454,2.18a9.656,9.656,0,0,0,10.524,0l7.161-4.518a.973.973,0,0,0,0-1.644l-7.161-4.518A9.662,9.662,0,0,0,81.8,53.385c3.17-3.682,5.143-7.808,3.311-9.641-1.81-1.81-5.861.1-9.51,3.2a9.679,9.679,0,0,0-1.376-7.111L69.7,32.674a.973.973,0,0,0-1.645,0l-4.517,7.16a9.676,9.676,0,0,0-1.376,7.111c-3.649-3.106-7.7-5.011-9.509-3.2-1.833,1.833.141,5.958,3.311,9.641a9.666,9.666,0,0,0-7.312,1.334L41.5,59.237A.972.972,0,0,0,41.5,60.881Z" transform="translate(-34.663 -32.221)" fill="#79aafa" fill-rule="evenodd"/>
</svg>
