<?xml version="1.0" standalone="no"?>
<!DOCTYPE svg PUBLIC "-//W3C//DTD SVG 1.1//EN" "http://www.w3.org/Graphics/SVG/1.1/DTD/svg11.dtd" >
<svg xmlns="http://www.w3.org/2000/svg">
<metadata>Generated by IcoMoon</metadata>
<defs>
<font id="icomoon" horiz-adv-x="1024">
<font-face units-per-em="1024" ascent="960" descent="-64" />
<missing-glyph horiz-adv-x="1024" />
<glyph unicode="&#x20;" horiz-adv-x="512" d="" />
<glyph unicode="&#xe900;" glyph-name="Arrow---Down-3" horiz-adv-x="610" d="M305.096 368.926c-23.429 0-42.422 18.993-42.422 42.422v0 506.231c0 23.429 18.993 42.422 42.422 42.422s42.422-18.993 42.422-42.422v0-506.231c0-23.429-18.993-42.422-42.422-42.422v0zM305.435-63.774c-16.29 0-59.503 0-158.374 132.129-47.501 61.843-89.881 131.963-124.079 206.612l-2.79 6.797c-17.704 42.591-33.881 95.646-2.093 127.434 13.009 12.896 36.652 27.263 115.443 36.426 46.951 5.203 101.392 8.17 156.526 8.17 3.076 0 6.15-0.009 9.221-0.028l-0.472 0.002c2.284 0.012 4.984 0.018 7.687 0.018 58.611 0 116.501-3.088 173.516-9.111l-7.105 0.608c82.92-9.333 106.846-22.625 119.798-36.030 30.204-30.204 15.611-79.187-2.602-123.249-37.233-82.103-79.283-152.699-128.072-217.963l2.165 3.027c-98.984-134.844-142.423-134.844-158.77-134.844zM85.918 351.222c22.325-66.901 52.491-124.993 90.23-177.255l-1.314 1.912c35.39-59.744 78.79-110.512 129.501-152.811l0.931-0.756c51.493 43.272 94.552 94.551 127.731 152.233l1.456 2.747c35.272 50.024 65.268 107.46 87.18 168.74l1.566 5.019c-58.85 11.615-126.516 18.262-195.734 18.262-10.073 0-20.114-0.141-30.12-0.42l1.472 0.033c-9.057 0.318-19.698 0.5-30.382 0.5-64.597 0-127.647-6.628-188.505-19.241l5.987 1.037z" />
<glyph unicode="&#xe901;" glyph-name="Arrow---Left-3" horiz-adv-x="1719" d="M726.587 447.953c0 39.321 31.876 71.197 71.197 71.197v0h849.615c39.321 0 71.197-31.876 71.197-71.197s-31.876-71.197-71.197-71.197v0h-849.615c-39.321 0-71.197 31.876-71.197 71.197v0zM0.38 447.383c0 27.34 0 99.865 221.754 265.801 103.793 79.722 221.475 150.849 346.76 208.243l11.407 4.682c71.482 29.713 160.525 56.863 213.875 3.512 21.644-21.834 45.756-61.514 61.134-193.75 8.732-78.799 13.713-170.168 13.713-262.7 0-5.162-0.016-10.321-0.046-15.476l0.004 0.793c0.019-3.833 0.030-8.365 0.030-12.901 0-98.368-5.183-195.526-15.291-291.215l1.021 11.924c-15.663-139.166-37.972-179.321-60.47-201.060-50.692-50.692-132.901-26.2-206.85 4.367-137.795 62.489-256.277 133.061-365.811 214.945l5.080-3.633c-226.311 166.126-226.311 239.031-226.311 266.466zM696.874 815.803c-112.28-37.468-209.777-88.097-297.49-151.434l3.21 2.206c-100.27-59.395-185.475-132.234-256.464-217.343l-1.268-1.563c72.625-86.421 158.687-158.688 255.496-214.374l4.61-2.444c83.955-59.197 180.352-109.54 283.199-146.315l8.423-2.628c19.494 98.769 30.649 212.334 30.649 328.503 0 16.906-0.236 33.757-0.706 50.55l0.055-2.47c0.534 15.2 0.838 33.060 0.838 50.99 0 108.415-11.124 214.231-32.292 316.371l1.741-10.048z" />
<glyph unicode="&#xe902;" glyph-name="Arrow---Up-3" horiz-adv-x="610" d="M305.039 527.074c23.429 0 42.422-18.993 42.422-42.422v0-506.231c0-23.429-18.993-42.422-42.422-42.422s-42.422 18.993-42.422 42.422v0 506.231c0 23.429 18.993 42.422 42.422 42.422v0zM304.7 959.774c16.29 0 59.503 0 158.374-132.129 47.501-61.843 89.881-131.963 124.079-206.612l2.79-6.797c17.704-42.591 33.881-95.646 2.093-127.434-13.009-12.896-36.652-27.263-115.443-36.426-46.951-5.203-101.392-8.17-156.526-8.17-3.076 0-6.15 0.009-9.221 0.028l0.472-0.002c-2.284-0.012-4.984-0.018-7.687-0.018-58.611 0-116.501 3.088-173.516 9.111l7.105-0.608c-82.92 9.333-106.846 22.625-119.798 36.030-30.204 30.204-15.611 79.187 2.602 123.249 37.233 82.103 79.283 152.699 128.072 217.963l-2.165-3.027c98.984 134.844 142.423 134.844 158.77 134.844zM524.217 544.778c-22.325 66.901-52.491 124.993-90.23 177.255l1.314-1.912c-35.39 59.744-78.79 110.512-129.501 152.811l-0.931 0.756c-51.493-43.272-94.552-94.551-127.731-152.233l-1.456-2.747c-35.272-50.024-65.268-107.46-87.18-168.74l-1.566-5.019c58.85-11.615 126.516-18.262 195.734-18.262 10.073 0 20.114 0.141 30.12 0.42l-1.472-0.033c9.057-0.318 19.698-0.5 30.382-0.5 64.597 0 127.647 6.628 188.505 19.241l-5.987-1.037z" />
<glyph unicode="&#xe903;" glyph-name="Arrow---Right-3" horiz-adv-x="1719" d="M992.009 448.047c0-39.321-31.876-71.197-71.197-71.197v0h-849.615c-39.321 0-71.197 31.876-71.197 71.197s31.876 71.197 71.197 71.197v0h849.615c39.321 0 71.197-31.876 71.197-71.197v0zM1718.216 448.617c0-27.34 0-99.865-221.754-265.801-103.793-79.722-221.475-150.849-346.76-208.243l-11.407-4.682c-71.482-29.713-160.525-56.863-213.875-3.512-21.644 21.834-45.756 61.514-61.134 193.75-8.732 78.799-13.713 170.168-13.713 262.7 0 5.162 0.016 10.321 0.046 15.476l-0.004-0.793c-0.019 3.833-0.030 8.365-0.030 12.901 0 98.368 5.183 195.526 15.291 291.215l-1.021-11.924c15.663 139.166 37.972 179.321 60.47 201.060 50.692 50.692 132.901 26.2 206.85-4.367 137.795-62.489 256.277-133.061 365.811-214.945l-5.080 3.633c226.311-166.126 226.311-239.031 226.311-266.466zM1021.722 80.197c112.28 37.468 209.777 88.097 297.49 151.434l-3.21-2.206c100.27 59.395 185.475 132.234 256.464 217.343l1.268 1.563c-72.625 86.421-158.687 158.688-255.496 214.374l-4.61 2.444c-83.955 59.197-180.352 109.54-283.199 146.315l-8.423 2.628c-19.494-98.769-30.649-212.334-30.649-328.503 0-16.906 0.236-33.757 0.706-50.55l-0.055 2.47c-0.534-15.2-0.838-33.060-0.838-50.99 0-108.415 11.124-214.231 32.292-316.371l-1.741 10.048z" />
<glyph unicode="&#xe904;" glyph-name="Arrow---Down-2" horiz-adv-x="1867" d="M933.647-64c-173.96 0-377.193 149.022-621.267 455.74-100.093 125.614-198.946 266.55-289.15 413.371l-10.581 18.516c-7.91 13.156-12.589 29.034-12.589 46.004 0 32.899 17.583 61.691 43.864 77.491l0.408 0.228c13.156 7.91 29.034 12.589 46.004 12.589 32.899 0 61.691-17.583 77.491-43.864l0.228-0.408c96.734-158.176 191.285-292.89 293.286-421.425l-6.566 8.572c277.805-348.521 427.43-386.108 478.871-386.108s201.547 37.707 479.955 387.554c95.017 119.519 189.173 253.764 275.258 393.511l10.257 17.896c16.028 26.689 44.82 44.273 77.719 44.273 16.971 0 32.848-4.679 46.414-12.817l-0.41 0.228c26.74-16.017 44.362-44.837 44.362-77.772 0-16.949-4.667-32.808-12.786-46.362l0.228 0.411c-100.777-165.334-199.63-306.27-306.425-440.609l6.694 8.722c-243.953-306.718-447.307-455.74-621.267-455.74z" />
<glyph unicode="&#xe905;" glyph-name="Arrow---Left-2" horiz-adv-x="562" d="M0 448c0 95.397 81.722 206.848 249.922 340.695 68.885 54.89 146.173 109.099 226.687 158.566l10.154 5.803c7.214 4.338 15.922 6.904 25.228 6.904 18.041 0 33.83-9.642 42.495-24.055l0.125-0.224c4.338-7.214 6.904-15.922 6.904-25.228 0-18.041-9.642-33.83-24.055-42.495l-0.224-0.125c-86.742-53.048-160.617-104.898-231.104-160.834l4.701 3.601c-191.125-152.345-211.737-234.397-211.737-262.606s20.678-110.526 212.53-263.201c65.543-52.106 139.161-103.74 215.796-150.948l9.814-5.625c14.636-8.79 24.278-24.579 24.278-42.62 0-9.306-2.566-18.014-7.029-25.453l0.125 0.225c-8.784-14.664-24.588-24.327-42.649-24.327-9.295 0-17.992 2.559-25.424 7.011l0.225-0.125c-90.667 55.265-167.955 109.474-241.624 168.040l4.783-3.671c-168.2 133.781-249.922 245.298-249.922 340.695z" />
<glyph unicode="&#xe906;" glyph-name="Arrow---Up-2" horiz-adv-x="1867" d="M933.647 960c173.96 0 377.193-149.022 621.267-455.74 100.093-125.614 198.946-266.55 289.15-413.371l10.581-18.516c7.91-13.156 12.589-29.034 12.589-46.004 0-32.899-17.583-61.691-43.864-77.491l-0.408-0.228c-13.156-7.91-29.034-12.589-46.004-12.589-32.899 0-61.691 17.583-77.491 43.864l-0.228 0.408c-96.734 158.176-191.285 292.89-293.286 421.425l6.566-8.572c-277.805 348.521-427.43 386.108-478.871 386.108s-201.547-37.707-479.955-387.554c-95.017-119.519-189.173-253.764-275.258-393.511l-10.257-17.896c-16.028-26.689-44.82-44.273-77.719-44.273-16.971 0-32.848 4.679-46.414 12.817l0.41-0.228c-26.74 16.017-44.362 44.837-44.362 77.772 0 16.949 4.667 32.808 12.786 46.362l-0.228-0.411c100.777 165.334 199.63 306.27 306.425 440.609l-6.694-8.722c243.953 306.718 447.307 455.74 621.267 455.74z" />
<glyph unicode="&#xe907;" glyph-name="Arrow---Right-2" horiz-adv-x="562" d="M561.548 448c0-95.397-81.722-206.848-249.922-340.695-68.885-54.89-146.173-109.099-226.687-158.566l-10.154-5.803c-7.214-4.338-15.922-6.904-25.228-6.904-18.041 0-33.83 9.642-42.495 24.055l-0.125 0.224c-4.338 7.214-6.904 15.922-6.904 25.228 0 18.041 9.642 33.83 24.055 42.495l0.224 0.125c86.742 53.048 160.617 104.898 231.104 160.834l-4.701-3.601c191.125 152.345 211.737 234.397 211.737 262.606s-20.678 110.526-212.53 263.201c-65.543 52.106-139.161 103.74-215.796 150.948l-9.814 5.625c-14.636 8.79-24.278 24.579-24.278 42.62 0 9.306 2.566 18.014 7.029 25.453l-0.125-0.225c8.784 14.664 24.588 24.327 42.649 24.327 9.295 0 17.992-2.559 25.424-7.011l-0.225 0.125c90.667-55.265 167.955-109.474 241.624-168.040l-4.783 3.671c168.2-133.781 249.922-245.298 249.922-340.695z" />
<glyph unicode="&#xe908;" glyph-name="Arrow---Down" horiz-adv-x="841" d="M420.399-64c-25.706 0-46.545 20.839-46.545 46.545v0 930.909c0 25.706 20.839 46.545 46.545 46.545s46.545-20.839 46.545-46.545v0-930.909c0-25.706-20.839-46.545-46.545-46.545v0zM420.523-64c-86.388 0-183.327 69.26-288.209 205.917-43.232 56.221-85.165 119.621-122.544 185.929l-4.184 8.072c-3.511 6.387-5.576 13.998-5.576 22.091 0 17.609 9.778 32.934 24.201 40.841l0.242 0.122c6.413 3.546 14.060 5.633 22.195 5.633 17.532 0 32.8-9.693 40.737-24.012l0.121-0.238c39.264-70.056 78.728-129.718 122.012-186.302l-2.732 3.72c83.658-108.792 159.558-168.681 213.737-168.681s129.955 59.888 213.551 168.619c40.547 52.817 80.010 112.417 115.276 174.707l4.005 7.689c8.049 14.593 23.336 24.314 40.893 24.314 7.997 0 15.523-2.017 22.097-5.569l-0.247 0.122c14.558-8.059 24.251-23.327 24.251-40.859 0-8.134-2.087-15.782-5.754-22.435l0.121 0.24c-41.546-74.386-83.46-137.786-129.501-197.854l2.836 3.853c-104.262-136.657-201.2-205.917-287.527-205.917z" />
<glyph unicode="&#xe909;" glyph-name="Arrow---Left" horiz-adv-x="1247" d="M0 448.038c0 31.305 25.378 56.683 56.683 56.683v0h1133.663c31.305 0 56.683-25.378 56.683-56.683s-25.378-56.683-56.683-56.683v0h-1133.663c-31.305 0-56.683 25.378-56.683 56.683v0zM0 447.887c0 105.204 84.345 223.256 250.766 350.982 68.467 52.648 145.675 103.714 226.425 149.234l9.83 5.095c7.779 4.276 17.047 6.791 26.902 6.791 21.444 0 40.107-11.908 49.736-29.472l0.148-0.295c4.318-7.81 6.859-17.123 6.859-27.029 0-21.35-11.804-39.944-29.242-49.61l-0.29-0.148c-85.314-47.815-157.971-95.875-226.879-148.586l4.53 3.326c-132.487-101.879-205.42-194.31-205.42-260.289s72.932-158.259 205.344-260.062c64.32-49.379 136.902-97.436 212.758-140.383l9.364-4.877c17.771-9.802 29.61-28.418 29.61-49.8 0-9.739-2.456-18.904-6.782-26.91l0.148 0.3c-9.814-17.728-28.407-29.533-49.758-29.533-9.906 0-19.219 2.541-27.322 7.007l0.293-0.148c-90.587 50.595-167.796 101.637-240.948 157.707l4.692-3.453c-166.422 126.97-250.766 245.022-250.766 350.151z" />
<glyph unicode="&#xe90a;" glyph-name="Arrow---Up" horiz-adv-x="841" d="M420.461 960c25.706 0 46.545-20.839 46.545-46.545v0-930.909c0-25.706-20.839-46.545-46.545-46.545s-46.545 20.839-46.545 46.545v0 930.909c0 25.706 20.839 46.545 46.545 46.545v0zM420.336 960c86.388 0 183.327-69.26 288.209-205.917 43.232-56.221 85.165-119.621 122.544-185.929l4.184-8.072c3.511-6.387 5.576-13.998 5.576-22.091 0-17.609-9.778-32.934-24.201-40.841l-0.242-0.122c-6.413-3.546-14.060-5.633-22.195-5.633-17.532 0-32.8 9.693-40.737 24.012l-0.121 0.238c-39.264 70.056-78.728 129.718-122.012 186.302l2.732-3.72c-83.658 108.792-159.558 168.681-213.737 168.681s-129.955-59.888-213.551-168.619c-40.547-52.817-80.010-112.417-115.276-174.707l-4.005-7.689c-8.049-14.593-23.336-24.314-40.893-24.314-7.997 0-15.523 2.017-22.097 5.569l0.247-0.122c-14.558 8.059-24.251 23.327-24.251 40.859 0 8.134 2.087 15.782 5.754 22.435l-0.121-0.24c41.546 74.386 83.46 137.786 129.501 197.854l-2.836-3.853c104.262 136.657 201.2 205.917 287.527 205.917z" />
<glyph unicode="&#xe90b;" glyph-name="Arrow---Right" horiz-adv-x="1247" d="M1247.029 447.962c0-31.305-25.378-56.683-56.683-56.683v0h-1133.663c-31.305 0-56.683 25.378-56.683 56.683s25.378 56.683 56.683 56.683v0h1133.663c31.305 0 56.683-25.378 56.683-56.683v0zM1247.029 448.113c0-105.204-84.345-223.256-250.766-350.982-68.467-52.648-145.675-103.714-226.425-149.234l-9.83-5.095c-7.779-4.276-17.047-6.791-26.902-6.791-21.444 0-40.107 11.908-49.736 29.472l-0.148 0.295c-4.318 7.81-6.859 17.123-6.859 27.029 0 21.35 11.804 39.944 29.242 49.61l0.29 0.148c85.314 47.815 157.971 95.875 226.879 148.586l-4.53-3.326c132.487 101.879 205.42 194.31 205.42 260.289s-72.932 158.259-205.344 260.062c-64.32 49.379-136.902 97.436-212.758 140.383l-9.364 4.877c-17.771 9.802-29.61 28.418-29.61 49.8 0 9.739 2.456 18.904 6.782 26.91l-0.148-0.3c9.814 17.728 28.407 29.533 49.758 29.533 9.906 0 19.219-2.541 27.322-7.007l-0.293 0.148c90.587-50.595 167.796-101.637 240.948-157.707l-4.692 3.453c166.422-126.97 250.766-245.022 250.766-350.151z" />
<glyph unicode="&#xe90c;" glyph-name="down-chevron-svgrepo-com" horiz-adv-x="1820" d="M33.337 926.663c20.589 20.583 49.028 33.313 80.441 33.313s59.852-12.73 80.441-33.313l716.003-716.003 716.004 716.004c20.44 19.761 48.319 31.939 79.043 31.939 62.838 0 113.778-50.94 113.778-113.778 0-30.724-12.178-58.603-31.969-79.075l0.031 0.032-796.444-796.444c-20.589-20.583-49.028-33.313-80.441-33.313s-59.852 12.73-80.441 33.313l-796.444 796.444c-20.583 20.589-33.313 49.028-33.313 80.441s12.73 59.852 33.313 80.441v0z" />
<glyph unicode="&#xe90d;" glyph-name="Arrow---Down-Square" d="M512 200.397c-21.208 0-38.4 17.192-38.4 38.4v0 418.406c0 21.208 17.192 38.4 38.4 38.4s38.4-17.192 38.4-38.4v0-418.406c0-21.208-17.192-38.4-38.4-38.4v0zM512 200.397c-26.624 0-67.584 12.544-148.941 110.182-40.96 49.254-73.677 97.536-74.854 99.533-4.083 6.008-6.519 13.422-6.519 21.405 0 13.233 6.694 24.903 16.88 31.808l0.135 0.086c6.008 4.083 13.422 6.519 21.405 6.519 13.233 0 24.903-6.694 31.808-16.88l0.086-0.135c0.307-0.461 30.413-45.21 67.584-90.163 61.389-74.598 88.218-84.275 92.416-85.453 4.25 1.178 31.13 11.11 92.928 85.862 37.171 45.005 67.021 89.344 67.277 89.754 7.004 10.221 18.617 16.839 31.776 16.839 8.033 0 15.49-2.467 21.655-6.684l-0.132 0.085c10.221-7.004 16.839-18.617 16.839-31.776 0-8.033-2.467-15.49-6.684-21.655l0.085 0.132c-0.922-1.792-33.69-50.022-74.701-99.277-81.459-97.638-122.419-110.182-149.043-110.182zM512 960c195.226 0 317.696-35.43 397.158-114.842s114.842-201.933 114.842-397.158-35.43-317.696-114.842-397.158-201.933-114.842-397.158-114.842-317.696 35.43-397.158 114.842-114.842 201.933-114.842 397.158 35.43 317.696 114.842 397.158 201.933 114.842 397.158 114.842zM512 12.8c333.517 0 435.2 101.683 435.2 435.2s-101.683 435.2-435.2 435.2-435.2-101.683-435.2-435.2 101.683-435.2 435.2-435.2z" />
<glyph unicode="&#xe90e;" glyph-name="Arrow---Left-Square" d="M264.397 448c0 21.208 17.192 38.4 38.4 38.4v0h418.406c21.208 0 38.4-17.192 38.4-38.4s-17.192-38.4-38.4-38.4v0h-418.406c-21.208 0-38.4 17.192-38.4 38.4v0zM264.397 448c0 26.624 12.544 67.584 110.182 148.941 49.254 40.96 97.536 73.677 99.533 74.854 6.008 4.083 13.422 6.519 21.405 6.519 13.233 0 24.903-6.694 31.808-16.88l0.086-0.135c4.083-6.008 6.519-13.422 6.519-21.405 0-13.233-6.694-24.903-16.88-31.808l-0.135-0.086c-0.461-0.307-45.21-30.413-90.163-67.584-74.598-61.389-84.275-88.218-85.453-92.416 1.178-4.25 11.11-31.13 85.862-92.928 45.005-37.171 89.344-67.021 89.754-67.277 10.221-7.004 16.839-18.617 16.839-31.776 0-8.033-2.467-15.49-6.684-21.655l0.085 0.132c-7.004-10.221-18.617-16.839-31.776-16.839-8.033 0-15.49 2.467-21.655 6.684l0.132-0.085c-1.792 0.922-50.022 33.69-99.277 74.701-97.638 81.459-110.182 122.419-110.182 149.043zM1024 448c0-195.226-35.43-317.696-114.842-397.158s-201.933-114.842-397.158-114.842-317.696 35.43-397.158 114.842-114.842 201.933-114.842 397.158 35.43 317.696 114.842 397.158 201.933 114.842 397.158 114.842 317.696-35.43 397.158-114.842 114.842-201.933 114.842-397.158zM76.8 448c0-333.517 101.683-435.2 435.2-435.2s435.2 101.683 435.2 435.2-101.683 435.2-435.2 435.2-435.2-101.683-435.2-435.2z" />
<glyph unicode="&#xe90f;" glyph-name="Arrow---Up-Square" d="M512 695.603c21.208 0 38.4-17.192 38.4-38.4v0-418.406c0-21.208-17.192-38.4-38.4-38.4s-38.4 17.192-38.4 38.4v0 418.406c0 21.208 17.192 38.4 38.4 38.4v0zM512 695.603c26.624 0 67.584-12.544 148.941-110.182 40.96-49.254 73.677-97.536 74.854-99.533 4.083-6.008 6.519-13.422 6.519-21.405 0-13.233-6.694-24.903-16.88-31.808l-0.135-0.086c-6.008-4.083-13.422-6.519-21.405-6.519-13.233 0-24.903 6.694-31.808 16.88l-0.086 0.135c-0.307 0.461-30.413 45.21-67.584 90.163-61.389 74.598-88.218 84.275-92.416 85.453-4.25-1.178-31.13-11.11-92.928-85.862-37.171-45.005-67.021-89.344-67.277-89.754-7.004-10.221-18.617-16.839-31.776-16.839-8.033 0-15.49 2.467-21.655 6.684l0.132-0.085c-10.221 7.004-16.839 18.617-16.839 31.776 0 8.033 2.467 15.49 6.684 21.655l-0.085-0.132c0.922 1.792 33.69 50.022 74.701 99.277 81.459 97.638 122.419 110.182 149.043 110.182zM512-64c-195.226 0-317.696 35.43-397.158 114.842s-114.842 201.933-114.842 397.158 35.43 317.696 114.842 397.158 201.933 114.842 397.158 114.842 317.696-35.43 397.158-114.842 114.842-201.933 114.842-397.158-35.43-317.696-114.842-397.158-201.933-114.842-397.158-114.842zM512 883.2c-333.517 0-435.2-101.683-435.2-435.2s101.683-435.2 435.2-435.2 435.2 101.683 435.2 435.2-101.683 435.2-435.2 435.2z" />
<glyph unicode="&#xe910;" glyph-name="Arrow---Right-Square" d="M759.603 448c0-21.208-17.192-38.4-38.4-38.4v0h-418.406c-21.208 0-38.4 17.192-38.4 38.4s17.192 38.4 38.4 38.4v0h418.406c21.208 0 38.4-17.192 38.4-38.4v0zM759.603 448c0-26.624-12.544-67.584-110.182-148.941-49.254-40.96-97.536-73.677-99.533-74.854-6.008-4.083-13.422-6.519-21.405-6.519-13.233 0-24.903 6.694-31.808 16.88l-0.086 0.135c-4.083 6.008-6.519 13.422-6.519 21.405 0 13.233 6.694 24.903 16.88 31.808l0.135 0.086c0.461 0.307 45.21 30.413 90.163 67.584 74.598 61.389 84.275 88.218 85.453 92.416-1.178 4.25-11.11 31.13-85.862 92.928-45.005 37.171-89.344 67.021-89.754 67.277-10.221 7.004-16.839 18.617-16.839 31.776 0 8.033 2.467 15.49 6.684 21.655l-0.085-0.132c7.004 10.221 18.617 16.839 31.776 16.839 8.033 0 15.49-2.467 21.655-6.684l-0.132 0.085c1.792-0.922 50.022-33.69 99.277-74.701 97.638-81.459 110.182-122.419 110.182-149.043zM0 448c0 195.226 35.43 317.696 114.842 397.158s201.933 114.842 397.158 114.842 317.696-35.43 397.158-114.842 114.842-201.933 114.842-397.158-35.43-317.696-114.842-397.158-201.933-114.842-397.158-114.842-317.696 35.43-397.158 114.842-114.842 201.933-114.842 397.158zM947.2 448c0 333.517-101.683 435.2-435.2 435.2s-435.2-101.683-435.2-435.2 101.683-435.2 435.2-435.2 435.2 101.683 435.2 435.2z" />
<glyph unicode="&#xe911;" glyph-name="Arrow---Down-Circle" d="M512 960c195.226 0 317.696-35.43 397.158-114.842s114.842-201.933 114.842-397.158-35.43-317.696-114.842-397.158-201.933-114.842-397.158-114.842-317.696 35.43-397.158 114.842-114.842 201.933-114.842 397.158 35.43 317.696 114.842 397.158 201.933 114.842 397.158 114.842zM512 12.8c333.517 0 435.2 101.683 435.2 435.2s-101.683 435.2-435.2 435.2-435.2-101.683-435.2-435.2 101.683-435.2 435.2-435.2zM512.051 304.947c-24.166 0-62.259 11.674-139.008 102.912-38.298 45.568-69.12 90.368-70.4 92.262-4.207 6.071-6.72 13.593-6.72 21.702 0 13.079 6.539 24.632 16.527 31.565l0.127 0.083c6.071 4.207 13.593 6.72 21.702 6.72 13.079 0 24.632-6.539 31.565-16.527l0.083-0.127c0.461-0.666 28.109-40.96 62.106-81.92 53.555-64.461 77.926-77.312 84.019-79.667 6.093 2.406 30.464 15.36 83.968 79.667 34.048 40.96 61.747 81.306 62.054 81.92 7.017 10.114 18.569 16.653 31.649 16.653 8.109 0 15.631-2.514 21.829-6.804l-0.128 0.084c10.134-7.015 16.688-18.578 16.688-31.673 0-8.099-2.507-15.612-6.788-21.806l0.084 0.128c-1.28-1.894-32.102-46.694-70.349-92.16-76.749-91.29-114.586-103.014-139.008-103.014z" />
<glyph unicode="&#xe912;" glyph-name="Arrow---Left-Circle" d="M1024 448c0-195.226-35.43-317.696-114.842-397.158s-201.933-114.842-397.158-114.842-317.696 35.43-397.158 114.842-114.842 201.933-114.842 397.158 35.43 317.696 114.842 397.158 201.933 114.842 397.158 114.842 317.696-35.43 397.158-114.842 114.842-201.933 114.842-397.158zM76.8 448c0-333.517 101.683-435.2 435.2-435.2s435.2 101.683 435.2 435.2-101.683 435.2-435.2 435.2-435.2-101.683-435.2-435.2zM368.947 447.949c0 24.166 11.674 62.259 102.912 139.008 45.568 38.298 90.368 69.12 92.262 70.4 6.071 4.207 13.593 6.72 21.702 6.72 13.079 0 24.632-6.539 31.565-16.527l0.083-0.127c4.207-6.071 6.72-13.593 6.72-21.702 0-13.079-6.539-24.632-16.527-31.565l-0.127-0.083c-0.666-0.461-40.96-28.109-81.92-62.106-64.461-53.555-77.312-77.926-79.667-84.019 2.406-6.093 15.36-30.464 79.667-83.968 40.96-34.048 81.306-61.747 81.92-62.054 10.114-7.017 16.653-18.569 16.653-31.649 0-8.109-2.514-15.631-6.804-21.829l0.084 0.128c-7.015-10.134-18.578-16.688-31.673-16.688-8.099 0-15.612 2.507-21.806 6.788l0.128-0.084c-1.894 1.28-46.694 32.102-92.16 70.349-91.29 76.749-103.014 114.586-103.014 139.008z" />
<glyph unicode="&#xe913;" glyph-name="Arrow---Up-Circle" d="M512-64c-195.226 0-317.696 35.43-397.158 114.842s-114.842 201.933-114.842 397.158 35.43 317.696 114.842 397.158 201.933 114.842 397.158 114.842 317.696-35.43 397.158-114.842 114.842-201.933 114.842-397.158-35.43-317.696-114.842-397.158-201.933-114.842-397.158-114.842zM512 883.2c-333.517 0-435.2-101.683-435.2-435.2s101.683-435.2 435.2-435.2 435.2 101.683 435.2 435.2-101.683 435.2-435.2 435.2zM511.949 591.053c24.166 0 62.259-11.674 139.008-102.912 38.298-45.568 69.12-90.368 70.4-92.262 4.207-6.071 6.72-13.593 6.72-21.702 0-13.079-6.539-24.632-16.527-31.565l-0.127-0.083c-6.071-4.207-13.593-6.72-21.702-6.72-13.079 0-24.632 6.539-31.565 16.527l-0.083 0.127c-0.461 0.666-28.109 40.96-62.106 81.92-53.555 64.461-77.926 77.312-84.019 79.667-6.093-2.406-30.464-15.36-83.968-79.667-34.048-40.96-61.747-81.306-62.054-81.92-7.017-10.114-18.569-16.653-31.649-16.653-8.109 0-15.631 2.514-21.829 6.804l0.128-0.084c-10.134 7.015-16.688 18.578-16.688 31.673 0 8.099 2.507 15.612 6.788 21.806l-0.084-0.128c1.28 1.894 32.102 46.694 70.349 92.16 76.749 91.29 114.586 103.014 139.008 103.014z" />
<glyph unicode="&#xe914;" glyph-name="Arrow---Right-Circle" d="M0 448c0 195.226 35.43 317.696 114.842 397.158s201.933 114.842 397.158 114.842 317.696-35.43 397.158-114.842 114.842-201.933 114.842-397.158-35.43-317.696-114.842-397.158-201.933-114.842-397.158-114.842-317.696 35.43-397.158 114.842-114.842 201.933-114.842 397.158zM947.2 448c0 333.517-101.683 435.2-435.2 435.2s-435.2-101.683-435.2-435.2 101.683-435.2 435.2-435.2 435.2 101.683 435.2 435.2zM655.053 448.051c0-24.166-11.674-62.259-102.912-139.008-45.568-38.298-90.368-69.12-92.262-70.4-6.071-4.207-13.593-6.72-21.702-6.72-13.079 0-24.632 6.539-31.565 16.527l-0.083 0.127c-4.207 6.071-6.72 13.593-6.72 21.702 0 13.079 6.539 24.632 16.527 31.565l0.127 0.083c0.666 0.461 40.96 28.109 81.92 62.106 64.461 53.555 77.312 77.926 79.667 84.019-2.406 6.093-15.36 30.464-79.667 83.968-40.96 34.048-81.306 61.747-81.92 62.054-10.114 7.017-16.653 18.569-16.653 31.649 0 8.109 2.514 15.631 6.804 21.829l-0.084-0.128c7.015 10.134 18.578 16.688 31.673 16.688 8.099 0 15.612-2.507 21.806-6.788l-0.128 0.084c1.894-1.28 46.694-32.102 92.16-70.349 91.29-76.749 103.014-114.586 103.014-139.008z" />
<glyph unicode="&#xe915;" glyph-name="Unlock" horiz-adv-x="856" d="M195.923 545.147c-21.084 0-38.177 17.092-38.177 38.177v0 110.254s0 0.458 0 0.662c2.704 147.249 122.708 265.581 270.35 265.581 60.7 0 116.728-20.001 161.854-53.773l-0.706 0.505c45.675-34.276 79.848-81.653 97.107-136.526l0.523-1.928c1.036-3.305 1.633-7.106 1.633-11.046 0-21.087-17.094-38.181-38.181-38.181-17.147 0-31.653 11.303-36.476 26.864l-0.072 0.27c-24.947 80.344-98.615 137.678-185.673 137.678-105.908 0-191.998-84.848-194.003-190.276l-0.003-0.188v-110.051c-0.087-21.019-17.146-38.024-38.176-38.024 0 0 0 0 0 0v0zM428.088 190.002c-21.084 0-38.177 17.092-38.177 38.177v0 113.054c0 21.084 17.092 38.177 38.177 38.177s38.177-17.092 38.177-38.177v0-113.054c0-21.084-17.092-38.177-38.177-38.177v0zM428.088 650.82c161.156 0 262.554-24.179 328.828-78.491 68.667-55.992 99.31-142.221 99.31-278.893s-30.541-222.748-99.31-278.944c-66.173-54.262-167.723-78.491-328.828-78.491s-262.655 24.179-328.828 78.491c-68.667 55.992-99.259 142.272-99.259 278.944s30.643 222.494 99.259 278.893c66.173 54.313 167.723 78.491 328.828 78.491zM428.088 12.353c140.337 0 229.467 19.445 280.471 61.083 49.324 40.365 71.263 108.167 71.263 219.898s-21.99 179.481-71.263 219.847c-50.902 41.74-140.134 61.083-280.471 61.083s-229.416-19.445-280.42-61.083c-49.324-40.264-71.314-108.065-71.314-219.745s21.99-179.481 71.263-219.898c51.055-41.74 139.981-61.184 280.471-61.184z" />
<glyph unicode="&#xe916;" glyph-name="Upload" horiz-adv-x="974" d="M529.259 923.437v-586.221c0-20.166-16.348-36.514-36.514-36.514s-36.514 16.348-36.514 36.514v0 586.221c0 20.166 16.348 36.514 36.514 36.514s36.514-16.348 36.514-36.514v0zM671.226 780.935c0-0.003 0-0.006 0-0.009 0-10.102-4.114-19.244-10.757-25.841l-0.002-0.002c-6.609-6.613-15.74-10.703-25.828-10.703s-19.219 4.090-25.827 10.703v0l-116.066 116.65-116.115-116.553c-6.609-6.613-15.74-10.703-25.828-10.703s-19.219 4.090-25.827 10.703v0c-6.613 6.609-10.703 15.74-10.703 25.828s4.090 19.219 10.703 25.827v0l141.918 142.405c6.613 6.642 15.765 10.752 25.876 10.752s19.263-4.11 25.875-10.751l141.919-142.552c6.588-6.59 10.662-15.692 10.662-25.746 0-0.003 0-0.006 0-0.009v0zM973.708 318.229c0-186.416-33.593-283.057-115.871-333.592-79.162-48.685-195.228-48.685-370.983-48.685s-291.82 0-370.983 48.685c-82.278 50.535-115.871 147.176-115.871 333.592 0 141.188 18.111 226.095 60.613 283.446 50.731 57.593 124.641 93.737 206.993 93.737 1.101 0 2.201-0.006 3.3-0.019l-0.167 0.002c1.009 0.099 2.182 0.156 3.367 0.156 18.987 0 34.589-14.492 36.349-33.017l0.011-0.147c0.099-1.009 0.156-2.182 0.156-3.367 0-18.987-14.492-34.589-33.017-36.349l-0.147-0.011c-84.177-7.741-129.99-26.436-158.179-64.508-31.986-43.135-46.251-117.137-46.251-239.922 0-157.4 23.466-236.027 81.061-271.372 61.538-37.829 169.425-37.829 332.765-37.829s271.226 0 332.765 37.829c57.595 35.346 81.061 113.973 81.061 271.372 0 122.785-14.265 196.786-46.251 239.922-28.189 38.072-74.002 56.718-158.179 64.508-18.673 1.771-33.164 17.373-33.164 36.36 0 1.186 0.057 2.358 0.167 3.515l-0.011-0.147c1.771 18.673 17.373 33.164 36.36 33.164 1.186 0 2.358-0.057 3.515-0.167l-0.147 0.011c0.931 0.011 2.031 0.018 3.133 0.018 82.352 0 156.262-36.144 206.732-93.434l0.262-0.303c42.502-57.351 60.613-142.259 60.613-283.446z" />
<glyph unicode="&#xe917;" glyph-name="Tick-Square" d="M451.277 287.898c-0.003 0-0.006 0-0.009 0-10.599 0-20.192 4.306-27.126 11.263l-0.001 0.001-121.549 121.856c-6.954 6.95-11.256 16.553-11.256 27.162s4.302 20.212 11.256 27.161v0c6.95 6.954 16.553 11.256 27.162 11.256s20.212-4.302 27.161-11.256l94.362-94.515 215.859 215.808c6.95 6.954 16.553 11.256 27.162 11.256s20.212-4.302 27.161-11.256v0c6.924-6.945 11.205-16.528 11.205-27.11 0-10.608-4.302-20.212-11.256-27.161l-243.2-242.995c-6.863-6.989-16.376-11.355-26.91-11.469h-0.021zM512 960c195.226 0 317.696-35.43 397.158-114.842s114.842-201.933 114.842-397.158-35.43-317.696-114.842-397.158-201.933-114.842-397.158-114.842-317.696 35.43-397.158 114.842-114.842 201.933-114.842 397.158 35.43 317.696 114.842 397.158 201.933 114.842 397.158 114.842zM512 12.8c333.517 0 435.2 101.683 435.2 435.2s-101.683 435.2-435.2 435.2-435.2-101.683-435.2-435.2 101.683-435.2 435.2-435.2z" />
<glyph unicode="&#xe918;" glyph-name="Work" horiz-adv-x="990" d="M495.077 186.297c-20.587 0-37.276 16.689-37.276 37.276v0 130.616c0 20.587 16.689 37.276 37.276 37.276s37.276-16.689 37.276-37.276v0-130.616c0-20.587-16.689-37.276-37.276-37.276v0zM494.828 316.813c-3.617-0.052-7.887-0.081-12.163-0.081-169.314 0-327.818 46.284-463.549 126.89l4.194-2.306-1.839 1.193-1.491 1.044c-9.652 6.83-15.877 17.949-15.877 30.522 0 8 2.52 15.412 6.81 21.484l-0.078-0.117c6.83 9.652 17.949 15.877 30.522 15.877 8 0 15.412-2.52 21.484-6.81l-0.117 0.078 0.596-0.398c120.141-70.978 264.743-112.914 419.141-112.914 4.349 0 8.689 0.033 13.022 0.1l-0.654-0.008c3.787-0.062 8.256-0.097 12.733-0.097 154.322 0 298.877 41.823 422.946 114.753l-3.922-2.132h0.298c6.051 4.418 13.637 7.069 21.842 7.069 12.375 0 23.342-6.031 30.122-15.313l0.074-0.106c4.346-6.018 6.951-13.543 6.951-21.677 0-12.237-5.897-23.097-15.003-29.893l-0.098-0.070-1.441-1.044-2.485-1.59c-131.633-78.272-290.226-124.537-459.625-124.537-4.357 0-8.706 0.031-13.048 0.092l0.658-0.007zM495.077 825.955c187.921 0 305.863-30.417 382.702-98.608 77.882-69.582 112.624-176.192 112.624-346.37s-34.791-276.986-112.624-346.37c-76.59-68.19-194.532-98.608-382.702-98.608s-305.863 30.417-382.453 98.608c-77.882 69.383-112.624 176.192-112.624 346.519s34.791 276.986 112.624 346.37c76.59 68.041 194.532 98.459 382.453 98.459zM495.077 10.552c168.289 0 270.973 24.602 333 79.522 60.636 53.976 87.624 143.637 87.624 290.654s-27.038 236.679-87.624 290.654c-62.027 55.417-164.562 80.019-333 80.019s-270.923-24.602-333-79.522c-60.487-54.224-87.524-143.886-87.524-290.754s27.038-236.679 87.673-290.654c61.928-55.318 164.562-79.92 332.851-79.92zM657.253 740.369c-20.587 0-37.276 16.689-37.276 37.276v0 31.312c0.12 1.555 0.189 3.367 0.189 5.196 0 37.319-28.563 67.967-65.020 71.274l-0.278 0.020h-119.532c-36.735-3.328-65.298-33.976-65.298-71.295 0-1.828 0.069-3.641 0.203-5.435l-0.014 0.239v-31.312c0-20.587-16.689-37.276-37.276-37.276v0c-20.587 0-37.276 16.689-37.276 37.276v0 31.312c-0.061 1.58-0.096 3.434-0.096 5.297 0 78.413 61.869 142.375 139.454 145.735l0.303 0.010h119.532c77.889-3.37 139.757-67.333 139.757-145.746 0-1.863-0.035-3.718-0.104-5.564l0.008 0.266v-31.312c0-20.587-16.689-37.276-37.276-37.276v0z" />
<glyph unicode="&#xe919;" glyph-name="Lock" horiz-adv-x="856" d="M660.253 545.147c-21.084 0-38.177 17.092-38.177 38.177v0 108.982c-1.494 105.991-87.765 191.338-193.97 191.338-105.883 0-191.952-84.83-193.953-190.235l-0.003-0.187v-110.051c-0.087-21.019-17.146-38.024-38.176-38.024 0 0 0 0 0 0v0c-21.084 0-38.177 17.092-38.177 38.177v0 110.254s0 0.458 0 0.662c2.564 147.332 122.601 265.783 270.303 265.783 73.478 0 140.11-29.314 188.838-76.886l-0.054 0.052c49.786-48.336 80.883-115.685 81.544-190.301l0.001-0.124s0-0.305 0-0.458v-109.134c-0.087-21.019-17.146-38.024-38.176-38.024 0 0 0 0 0 0v0zM428.088 190.002c-21.084 0-38.177 17.092-38.177 38.177v0 113.054c0 21.084 17.092 38.177 38.177 38.177s38.177-17.092 38.177-38.177v0-113.054c0-21.084-17.092-38.177-38.177-38.177v0zM428.088 650.82c161.106 0 262.503-24.179 328.828-78.491 68.667-55.992 99.31-142.221 99.31-278.893s-30.541-222.748-99.31-278.944c-66.173-54.262-167.723-78.491-328.828-78.491s-262.655 24.179-328.828 78.491c-68.667 55.992-99.259 142.272-99.259 278.944s30.643 222.494 99.259 278.893c66.173 54.313 167.723 78.491 328.828 78.491zM428.088 12.353c140.337 0 229.467 19.445 280.471 61.083 49.324 40.365 71.263 108.218 71.263 219.898s-21.99 179.481-71.263 219.847c-50.902 41.74-140.134 61.083-280.471 61.083s-229.416-19.445-280.42-61.083c-49.324-40.264-71.314-108.065-71.314-219.745s21.99-179.481 71.263-219.898c51.055-41.74 139.981-61.184 280.471-61.184z" />
<glyph unicode="&#xe91a;" glyph-name="Download" horiz-adv-x="1018" d="M503.063 270.459c-21.093 0-38.192 17.099-38.192 38.192v0 613.157c0 21.093 17.099 38.192 38.192 38.192s38.192-17.099 38.192-38.192v0-613.157c0-21.093-17.099-38.192-38.192-38.192v0zM503.063 270.408c-10.568 0.010-20.13 4.31-27.038 11.252l-0.001 0.002-148.49 149.101c-6.917 6.912-11.195 16.464-11.195 27.014s4.278 20.102 11.195 27.014v0c6.912 6.917 16.464 11.195 27.014 11.195s20.102-4.278 27.014-11.195v0l121.501-122.061 121.399 121.908c6.912 6.917 16.464 11.195 27.014 11.195s20.102-4.278 27.014-11.195v0c6.917-6.912 11.195-16.464 11.195-27.014s-4.278-20.102-11.195-27.014v0l-148.388-148.948c-6.91-6.944-16.472-11.244-27.038-11.254h-0.002zM509.225-64c-183.83 0-305.28 0-388.029 50.922-86.11 52.807-121.195 153.888-121.195 348.819 0 147.675 18.943 236.484 63.398 296.471 53.062 60.239 130.369 98.044 216.505 98.044 1.152 0 2.302-0.007 3.451-0.020l-0.175 0.002c1.056 0.104 2.282 0.163 3.522 0.163 19.859 0 36.178-15.157 38.019-34.535l0.012-0.154c0.104-1.056 0.163-2.282 0.163-3.522 0-19.859-15.157-36.178-34.535-38.019l-0.154-0.012c-88.045-8.097-135.963-27.651-165.447-67.472-33.456-45.117-48.376-122.519-48.376-250.946 0-164.581 24.545-246.821 84.786-283.791 64.366-39.567 177.261-39.567 348.055-39.567s283.638 0 348.055 39.567c60.241 36.97 84.786 119.21 84.786 283.791 0 128.426-14.92 205.829-48.376 250.946-29.535 39.821-77.453 59.376-165.447 67.472-19.531 1.853-34.688 18.172-34.688 38.031 0 1.24 0.059 2.466 0.175 3.676l-0.012-0.154c1.853 19.531 18.172 34.688 38.031 34.688 1.24 0 2.466-0.059 3.676-0.175l-0.154 0.012c0.899 0.010 1.961 0.016 3.024 0.016 86.135 0 163.44-37.804 216.229-97.725l0.274-0.317c44.71-59.987 63.653-148.795 63.653-296.471 0-194.931-35.137-296.012-121.195-348.921-82.8-50.821-204.25-50.821-388.029-50.821z" />
<glyph unicode="&#xe91b;" glyph-name="Close-Square" d="M389.222 287.386c-0.003 0-0.006 0-0.009 0-10.599 0-20.192 4.306-27.126 11.263l-0.001 0.001c-6.954 6.95-11.256 16.553-11.256 27.162s4.302 20.212 11.256 27.161l245.351 245.299c6.95 6.954 16.553 11.256 27.162 11.256s20.212-4.302 27.161-11.256v0c6.954-6.95 11.256-16.553 11.256-27.162s-4.302-20.212-11.256-27.161l-245.402-245.299c-6.935-6.958-16.528-11.264-27.127-11.264-0.003 0-0.006 0-0.009 0v0zM634.88 287.078c-0.003 0-0.006 0-0.009 0-10.599 0-20.192 4.306-27.126 11.263l-245.761 245.761c-6.939 6.947-11.23 16.541-11.23 27.136s4.291 20.189 11.231 27.136v0c6.947 6.939 16.541 11.23 27.136 11.23s20.189-4.291 27.136-11.231v0l245.76-245.76c6.939-6.947 11.23-16.541 11.23-27.136 0-21.196-17.173-38.381-38.364-38.4h-0.002zM512 960c195.226 0 317.696-35.43 397.158-114.842s114.842-201.933 114.842-397.158-35.43-317.696-114.842-397.158-201.933-114.842-397.158-114.842-317.696 35.43-397.158 114.842-114.842 201.933-114.842 397.158 35.43 317.696 114.842 397.158 201.933 114.842 397.158 114.842zM512 12.8c333.517 0 435.2 101.683 435.2 435.2s-101.683 435.2-435.2 435.2-435.2-101.683-435.2-435.2 101.683-435.2 435.2-435.2z" />
<glyph unicode="&#xe91c;" glyph-name="Swap" horiz-adv-x="1228" d="M302.848 74.536c-25.977 0-47.036 21.059-47.036 47.036v0 791.33c0 25.977 21.059 47.036 47.036 47.036s47.036-21.059 47.036-47.036v0-791.33c0-25.977-21.059-47.036-47.036-47.036v0zM558.597 608.8c-0.013 0-0.027 0-0.042 0-17.948 0-33.548 10.052-41.477 24.834l-0.123 0.252c-49.732 93.507-152.020 232.043-214.17 232.043s-164.562-138.473-214.17-232.106c-8.060-15.007-23.646-25.038-41.575-25.038-8.056 0-15.639 2.025-22.268 5.595l0.25-0.123c-15.007 8.060-25.038 23.646-25.038 41.575 0 8.056 2.025 15.639 5.595 22.268l-0.123-0.25c28.453 51.677 57.315 95.733 89.115 137.427l-1.942-2.654c75.383 99.277 144.118 147.379 210.156 147.379s134.773-48.102 210.156-147.379c29.858-39.119 58.722-83.279 84.33-129.494l2.843-5.593c3.424-6.361 5.436-13.921 5.436-21.95 0-25.948-21.011-46.988-46.948-47.036h-0.004zM925.413-64c-25.977 0-47.036 21.059-47.036 47.036v0 791.33c0 25.977 21.059 47.036 47.036 47.036s47.036-21.059 47.036-47.036v0-791.33c0-25.977-21.059-47.036-47.036-47.036v0zM925.476-64c-65.976 0-134.773 48.102-210.156 147.379-29.852 39.039-58.713 83.094-84.331 129.2l-2.842 5.573c-3.446 6.378-5.471 13.961-5.471 22.017 0 17.929 10.031 33.515 24.788 41.452l0.251 0.123c6.378 3.446 13.961 5.471 22.017 5.471 17.929 0 33.515-10.031 41.452-24.788l0.123-0.251c49.67-93.57 152.082-232.043 214.17-232.043s164.437 138.411 214.17 232.043c8.060 15.007 23.646 25.038 41.575 25.038 8.056 0 15.639-2.025 22.268-5.595l-0.25 0.123c15.007-8.060 25.038-23.646 25.038-41.575 0-8.056-2.025-15.639-5.595-22.268l0.123 0.25c-28.46-51.679-57.321-95.734-89.118-137.431l1.945 2.658c-75.383-99.277-144.18-147.379-210.156-147.379z" />
<glyph unicode="&#xe91d;" glyph-name="Call-Silent" d="M215.184 327.872c-0.020 0-0.045 0-0.069 0-11.209 0-21.251 4.995-28.022 12.882l-0.041 0.049c-102.41 119.733-163.412 226.536-181.377 317.446-4.275 15.634-6.731 33.585-6.731 52.11 0 41.593 12.383 80.293 33.663 112.616l-0.477-0.772c37.055 58.69 93.342 102.353 159.854 122.464l2.027 0.527c8.187 1.509 17.608 2.372 27.23 2.372 40.080 0 76.663-14.972 104.462-39.629l-0.163 0.142c58.982-40.504 104.586-96.626 131.304-162.43l0.866-2.413c2.382-10.265 3.748-22.053 3.748-34.16 0-30.637-8.745-59.231-23.875-83.422l0.386 0.661c-10.751-15.502-17.175-34.714-17.175-55.425 0-8.055 0.972-15.883 2.804-23.374l-0.139 0.671c0.948-3.118 1.494-6.702 1.494-10.414 0-20.451-16.579-37.029-37.029-37.029-16.739 0-30.884 11.107-35.467 26.354l-0.068 0.262c-3.66 13.076-5.763 28.092-5.763 43.6 0 32.561 9.274 62.955 25.324 88.687l-0.412-0.708c10.020 14.185 16.016 31.834 16.016 50.883 0 5.16-0.44 10.218-1.284 15.137l0.075-0.527c-24.574 51.998-61.348 94.74-106.768 125.755l-1.071 0.69c-14.936 13.924-35.044 22.472-57.148 22.472-4.215 0-8.357-0.311-12.406-0.911l0.458 0.056c-48.737-16.159-88.632-47.933-114.723-89.289l-0.519-0.881q-0.839-1.431-1.777-2.764c-19.446-27.589-65.987-137.007 150.876-390.589 5.536-6.432 8.907-14.865 8.907-24.085 0-20.443-16.572-37.016-37.016-37.016-0.008 0-0.017 0-0.025 0h0.001zM777.081-64c-30.037 0.343-58.859 4.991-86.055 13.352l2.153-0.57c-110.652 31.784-242.131 122.152-390.885 269.276-6.807 6.716-11.024 16.043-11.024 26.355 0 10.14 4.077 19.328 10.682 26.013l-0.004-0.004c6.716 6.807 16.043 11.024 26.355 11.024 10.14 0 19.328-4.077 26.013-10.682l-0.004 0.004c139.87-138.142 260.689-222.538 358.953-250.867 16.687-7.222 36.119-11.423 56.531-11.423 26.915 0 52.124 7.303 73.754 20.036l-0.682-0.371c0.892 0.662 1.923 1.346 2.988 1.979l0.171 0.094c42.362 26.396 74.283 66.133 90.175 113.247l0.439 1.501c0.556 3.638 0.873 7.836 0.873 12.107 0 22.328-8.671 42.631-22.829 57.725l0.042-0.046c-31.662 46.288-74.342 82.872-124.361 106.447l-1.887 0.799c-4.391 0.769-9.446 1.209-14.605 1.209-18.988 0-36.585-5.957-51.024-16.105l0.283 0.189c-26.143-15.609-57.66-24.838-91.332-24.838-5.603 0-11.146 0.255-16.618 0.755l0.704-0.052c-62.606 13.905-116.104 46.476-155.836 91.486l-0.271 0.313c-6.988 6.743-11.328 16.19-11.328 26.652 0 9.97 3.942 19.020 10.352 25.675l-0.011-0.012c6.743 6.988 16.19 11.328 26.652 11.328 9.97 0 19.020-3.942 25.675-10.352l-0.012 0.011c29.537-33.904 68.344-59.029 112.468-71.465l1.639-0.395c1.533-0.075 3.33-0.118 5.137-0.118 22.33 0 43.134 6.539 60.599 17.806l-0.441-0.266c23.558 14.729 52.174 23.464 82.831 23.464 12.080 0 23.844-1.356 35.147-3.925l-1.058 0.202c68.113-27.494 124.144-73.022 163.756-130.705l0.791-1.219c24.682-27.739 39.761-64.497 39.761-104.777 0-9.592-0.855-18.985-2.493-28.105l0.143 0.959c-20.643-68.442-64.245-124.651-121.668-160.99l-1.174-0.694c-29.011-20.107-64.96-32.121-103.714-32.121-2.023 0-4.039 0.033-6.046 0.098l0.292-0.008zM74.081-27.083c-0.002 0-0.005 0-0.008 0-10.217 0-19.464 4.15-26.148 10.857l-0.001 0.001c-6.704 6.699-10.85 15.957-10.85 26.182s4.146 19.483 10.85 26.182l913.052 913.003c6.699 6.704 15.957 10.85 26.182 10.85s19.483-4.146 26.182-10.85v0c6.704-6.699 10.85-15.957 10.85-26.182s-4.146-19.483-10.85-26.182l-913.101-913.003c-6.685-6.708-15.933-10.858-26.149-10.858-0.003 0-0.006 0-0.009 0v0z" />
<glyph unicode="&#xe91e;" glyph-name="Logout" horiz-adv-x="1077" d="M1038.438 403.405h-616.499c-21.208 0-38.4 17.192-38.4 38.4s17.192 38.4 38.4 38.4v0h616.499c21.208 0 38.4-17.192 38.4-38.4s-17.192-38.4-38.4-38.4v0zM888.576 254.106c-0.003 0-0.006 0-0.009 0-10.624 0-20.238 4.326-27.176 11.313l-0.002 0.002c-6.954 6.95-11.256 16.553-11.256 27.162s4.302 20.212 11.256 27.161v0l122.675 122.061-122.573 122.112c-6.954 6.95-11.256 16.553-11.256 27.162s4.302 20.212 11.256 27.161v0c6.95 6.954 16.553 11.256 27.162 11.256s20.212-4.302 27.161-11.256v0l149.76-149.248c6.985-6.955 11.307-16.579 11.307-27.213s-4.322-20.258-11.306-27.211l-149.915-149.249c-6.93-6.928-16.503-11.213-27.076-11.213-0.003 0-0.006 0-0.009 0v0zM401.971-64c-196.045 0-297.677 35.328-350.822 121.856-51.2 83.251-51.2 205.312-51.2 390.144s0 306.893 51.2 390.144c53.146 86.528 154.778 121.856 350.822 121.856 148.48 0 237.773-19.046 298.086-63.744 60.568-53.352 98.579-131.079 98.579-217.685 0-1.158-0.007-2.315-0.020-3.47l0.002 0.176c0.104-1.061 0.164-2.294 0.164-3.541 0-19.967-15.24-36.375-34.723-38.226l-0.154-0.012c-1.061-0.104-2.294-0.164-3.541-0.164-19.967 0-36.375 15.24-38.226 34.723l-0.012 0.154c-8.141 88.525-27.802 136.704-67.84 166.349-45.363 33.638-123.187 48.64-252.314 48.64-165.53 0-248.218-24.678-285.389-85.248-39.782-64.717-39.782-178.176-39.782-349.952s0-285.235 39.782-349.952c37.171-60.57 119.859-85.248 285.389-85.248 129.126 0 206.95 15.002 252.314 48.64 40.038 29.645 59.648 77.824 67.84 166.349 1.863 19.637 18.271 34.877 38.238 34.877 1.247 0 2.48-0.059 3.696-0.176l-0.155 0.012c19.637-1.863 34.877-18.271 34.877-38.238 0-1.247-0.059-2.48-0.176-3.696l0.012 0.155c0.012-0.98 0.019-2.136 0.019-3.295 0-86.606-38.011-164.333-98.26-217.41l-0.318-0.275c-60.314-44.698-149.606-63.744-298.086-63.744z" />
<glyph unicode="&#xe91f;" glyph-name="Danger-Triangle" horiz-adv-x="1077" d="M538.256-64c-21.408-1.054-46.494-1.655-71.719-1.655-108.522 0-214.448 11.118-316.7 32.278l10.064-1.741c-93.42 25.364-143.307 73.203-157.013 150.554-19.85 112.325 66.376 283.569 153.39 436.119 4.096 7.194 7.824 13.706 10.975 19.325 57.77 108.976 121.095 202.909 193.025 289.434l-2.193-2.714c41.44 57.306 105.729 95.887 179.236 102.334l0.936 0.066c74.442-6.513 138.732-45.094 179.673-101.677l0.498-0.723c69.744-83.866 133.072-177.87 186.469-277.972l4.362-8.958c3.151-5.619 6.827-12.078 10.975-19.325 87.014-152.602 173.292-323.794 153.39-436.119-13.653-77.351-63.541-125.191-156.961-150.554-91.939-19.311-197.584-30.367-305.812-30.367-25.533 0-50.923 0.615-76.155 1.832l3.56-0.137zM538.256 881.231c-74.358 0-164.785-104.395-302.369-349.21-3.203-5.724-6.984-12.341-11.185-19.692-44.268-77.456-161.845-283.727-144.253-383.239 15.754-88.694 118.364-114.32 457.807-114.32s442.158 25.626 457.807 114.32c17.592 99.512-99.774 305.782-144.253 383.344-4.201 7.352-7.982 13.968-11.185 19.692-137.584 244.71-228.011 349.105-302.369 349.105zM538.256 387.873c-21.752 0-39.385 17.633-39.385 39.385v0 204.537c0 21.752 17.633 39.385 39.385 39.385s39.385-17.633 39.385-39.385v0-204.537c0-21.752-17.633-39.385-39.385-39.385v0zM538.256 204.078v0c-21.752 0-39.385 17.633-39.385 39.385s17.633 39.385 39.385 39.385v0 0c21.752 0 39.385-17.633 39.385-39.385s-17.633-39.385-39.385-39.385v0z" />
<glyph unicode="&#xe920;" glyph-name="Password" d="M350.054 581.222v0c73.476-0.058 133.018-59.636 133.018-133.12 0-73.52-59.6-133.12-133.12-133.12-73.484 0-133.062 59.541-133.12 133.012v0.006c0.088 73.595 59.768 133.222 133.376 133.222 0 0 0 0 0 0v0zM768.512 314.88c-21.208 0-38.4 17.192-38.4 38.4v0 56.32h-285.082c-21.208 0-38.4 17.192-38.4 38.4v0c0 21.208 17.192 38.4 38.4 38.4v0h323.482c21.208 0 38.4-17.192 38.4-38.4v0-94.822c-0.058-21.164-17.228-38.298-38.4-38.298 0 0 0 0 0 0v0zM623.718 314.88c-21.208 0-38.4 17.192-38.4 38.4v0 94.72c0 21.208 17.192 38.4 38.4 38.4s38.4-17.192 38.4-38.4v0-94.822c-0.058-21.164-17.228-38.298-38.4-38.298 0 0 0 0 0 0v0zM512 960c195.226 0 317.696-35.43 397.158-114.842s114.842-201.933 114.842-397.158-35.43-317.696-114.842-397.158-201.933-114.842-397.158-114.842-317.696 35.43-397.158 114.842-114.842 201.933-114.842 397.158 35.43 317.696 114.842 397.158 201.933 114.842 397.158 114.842zM512 12.8c333.517 0 435.2 101.683 435.2 435.2s-101.683 435.2-435.2 435.2-435.2-101.683-435.2-435.2 101.683-435.2 435.2-435.2z" />
<glyph unicode="&#xe921;" glyph-name="Call-Missed" horiz-adv-x="1028" d="M694.642 589.88c-0.002 0-0.005 0-0.008 0-10.216 0-19.462 4.15-26.146 10.856l-0.001 0.001c-6.703 6.699-10.849 15.955-10.849 26.18s4.146 19.481 10.849 26.18l296.097 296.097c6.699 6.703 15.955 10.849 26.18 10.849s19.481-4.146 26.18-10.849v0c6.688-6.696 10.824-15.943 10.824-26.155 0-10.237-4.156-19.503-10.873-26.204l-296.097-296.097c-6.684-6.707-15.931-10.857-26.147-10.857-0.003 0-0.006 0-0.009 0v0zM990.739 589.88c-0.002 0-0.005 0-0.008 0-10.216 0-19.462 4.15-26.146 10.856l-296.097 296.097c-6.688 6.696-10.824 15.943-10.824 26.155s4.136 19.459 10.825 26.156v0c6.696 6.688 15.943 10.824 26.155 10.824s19.459-4.136 26.156-10.825v0l296.096-296.096c6.688-6.696 10.824-15.943 10.824-26.155 0-20.43-16.552-36.993-36.978-37.012h-0.002zM777.154-64c-127.914 0-291.161 98.304-484.957 292.198-151.651 151.552-245.415 285.437-278.627 397.805-9.579 23.714-15.136 51.216-15.136 80.015 0 43.187 12.497 83.454 34.072 117.384l-0.529-0.89c13.374 20.135 87.842 125.15 190.143 125.15 39.788-0.538 76.005-15.398 103.827-39.644l-0.193 0.165c58.921-40.482 104.46-96.586 131.098-162.367l0.863-2.411c2.382-10.264 3.748-22.051 3.748-34.156 0-30.634-8.744-59.225-23.873-83.414l0.386 0.661c-22.849-46.931-40.911-83.894 63.759-188.663 54.975-54.975 98.304-81.673 132.404-81.673 20.944 1.739 40.068 8.193 56.739 18.289l-0.58-0.326c23.843 13.937 52.225 22.745 82.534 24.214l0.423 0.016c59.515 0 120.709-42.095 198.483-136.55 24.503-27.689 39.465-64.316 39.465-104.437 0-9.498-0.838-18.8-2.445-27.836l0.141 0.954c-20.567-68.606-64.028-125.024-121.332-161.718l-1.153-0.691c-29.142-20.127-65.225-32.149-104.115-32.149-1.809 0-3.612 0.026-5.409 0.078l0.264-0.006zM94.109 782.342q-0.839-1.48-1.875-2.862c-12.4-21.231-19.722-46.74-19.722-73.96 0-21.158 4.423-41.282 12.396-59.499l-0.373 0.956c29.61-100.377 117.106-223.701 259.874-366.469 223.602-223.602 358.721-270.484 432.745-270.484 1.464-0.069 3.18-0.108 4.905-0.108 22.867 0 44.128 6.876 61.828 18.672l-0.408-0.256q1.332 0.938 2.764 1.777c42.225 26.618 74.025 66.456 89.869 113.62l0.441 1.512c0.548 3.611 0.861 7.777 0.861 12.017 0 22.256-8.626 42.498-22.718 57.564l0.044-0.048c-60.65 73.629-106.891 109.506-141.287 109.506-18.889-1.929-36.048-7.9-51.073-17.034l0.539 0.304c-25.537-14.864-55.967-24.15-88.452-25.452l-0.377-0.012c-55.518 0-114.244 32.867-184.764 103.387-48.908 41.456-84.673 97.048-101.037 160.438l-0.475 2.168c-0.739 6.084-1.16 13.128-1.16 20.271 0 33.434 9.236 64.712 25.295 91.42l-0.448-0.802c10.019 14.183 16.014 31.831 16.014 50.878 0 5.16-0.44 10.217-1.284 15.135l0.075-0.527c-24.483 51.952-61.176 94.661-106.516 125.647l-1.066 0.688c-14.954 13.607-34.718 22.161-56.467 22.845l-0.137 0.003c-59.565 0-116.119-71.803-128.012-91.296z" />
<glyph unicode="&#xe922;" glyph-name="Login" horiz-adv-x="1030" d="M654.899 403.405h-616.499c-21.208 0-38.4 17.192-38.4 38.4s17.192 38.4 38.4 38.4v0h616.499c21.208 0 38.4-17.192 38.4-38.4s-17.192-38.4-38.4-38.4v0zM505.037 254.106c-0.003 0-0.006 0-0.009 0-10.624 0-20.238 4.326-27.176 11.313l-0.002 0.002c-6.954 6.95-11.256 16.553-11.256 27.162s4.302 20.212 11.256 27.161v0l122.675 122.061-122.573 122.112c-6.954 6.95-11.256 16.553-11.256 27.162s4.302 20.212 11.256 27.161v0c6.95 6.954 16.553 11.256 27.162 11.256s20.212-4.302 27.161-11.256v0l149.76-149.248c6.985-6.955 11.307-16.579 11.307-27.213s-4.322-20.258-11.306-27.211l-149.915-149.249c-6.93-6.928-16.503-11.213-27.076-11.213-0.003 0-0.006 0-0.009 0v0zM627.661-64c-148.48 0-237.773 19.046-298.086 63.744-60.568 53.352-98.579 131.079-98.579 217.685 0 1.158 0.007 2.315 0.020 3.47l-0.002-0.176c-0.104 1.061-0.164 2.294-0.164 3.541 0 19.967 15.24 36.375 34.723 38.226l0.154 0.012c1.061 0.104 2.294 0.164 3.541 0.164 19.967 0 36.375-15.24 38.226-34.723l0.012-0.154c8.141-88.474 27.802-136.704 67.84-166.349 45.414-33.638 123.238-48.64 252.314-48.64 165.53 0 248.218 24.678 285.389 85.248 39.782 64.717 39.782 178.176 39.782 349.952s0 285.235-39.782 349.952c-37.171 60.57-119.859 85.248-285.389 85.248-129.126 0-206.95-15.002-252.314-48.64-40.038-29.645-59.699-77.824-67.84-166.349-1.863-19.637-18.271-34.877-38.238-34.877-1.247 0-2.48 0.059-3.696 0.176l0.155-0.012c-19.637 1.863-34.877 18.271-34.877 38.238 0 1.247 0.059 2.48 0.176 3.696l-0.012-0.155c-0.012 0.98-0.019 2.136-0.019 3.295 0 86.606 38.011 164.333 98.26 217.41l0.318 0.275c60.314 44.698 149.606 63.744 298.086 63.744 196.045 0 297.677-35.328 350.822-121.856 51.2-83.251 51.2-205.312 51.2-390.144s0-306.893-51.2-390.144c-53.146-86.528-154.778-121.856-350.822-121.856z" />
<glyph unicode="&#xe923;" glyph-name="Send" d="M930.228 960c2.495 0.159 5.411 0.25 8.348 0.25 20.792 0 40.523-4.543 58.254-12.691l-0.869 0.358c6.818-3.685 12.271-9.138 15.854-15.751l0.101-0.204c10.327-19.88 20.293-57.729 1.188-175.564-18.706-106.717-39.678-195.831-65.045-283.074l4.631 18.593c-48.746-188.364-110.152-351.747-186.419-506.492l6.828 15.327c-15.24-35.713-48.494-61.053-88.034-64.721l-0.419-0.031c-64.545 0-118.35 77.454-174.479 251.262-26.696 82.618-46.215 164.152-55.148 203.809-38.521 8.675-116.801 27.419-197.199 53.031-62.033 18.868-114.963 40.47-165.413 66.236l5.65-2.62c-60.311 31.963-91.138 64.029-97.076 100.846-4.286 26.644 3.305 65.681 63.564 100.588 161.415 93.049 679.689 250.849 865.683 250.849zM945.719 881.926c-4.079 0.361-9.243 0.62-15.491 0.62-153.86-14.547-295.22-45.080-429.842-90.29l13.395 3.902c-157.903-42.997-294.233-95.586-423.571-160.103l13.217 5.968c-20.655-11.773-25.044-19.725-25.818-21.481 1.601-4.234 21.326-44.459 203.344-102.498 106.784-34.080 213.465-56.335 214.497-56.335 15.124-3.219 26.834-14.928 30.007-29.799l0.045-0.254c0-1.084 22.462-107.713 56.542-214.549 58.039-181.966 98.109-201.743 102.498-203.344 1.807 0.826 9.708 5.473 21.532 25.818 66.292 133.111 124.718 289.018 167.017 451.435l3.796 17.165c20.009 65.996 40.468 152.192 56.538 239.923l2.431 15.987c6.586 30.753 10.357 66.085 10.357 102.298 0 5.463-0.086 10.907-0.256 16.328l0.020-0.792zM487.602 384.875c-0.003 0-0.006 0-0.009 0-10.689 0-20.364 4.342-27.357 11.359l-0.001 0.001c-7.013 7.009-11.352 16.694-11.352 27.393s4.338 20.384 11.351 27.393l490.132 490.081c7.009 7.013 16.694 11.352 27.393 11.352s20.384-4.338 27.393-11.351v0c7.013-7.009 11.352-16.694 11.352-27.393s-4.338-20.384-11.351-27.393l-490.184-490.132c-6.989-6.987-16.643-11.308-27.307-11.308-0.021 0-0.042 0-0.064 0h0.003z" />
<glyph unicode="&#xe924;" glyph-name="Danger-Circle" d="M512 960c195.226 0 317.696-35.43 397.158-114.842s114.842-201.933 114.842-397.158-35.43-317.696-114.842-397.158-201.933-114.842-397.158-114.842-317.696 35.43-397.158 114.842-114.842 201.933-114.842 397.158 35.43 317.696 114.842 397.158 201.933 114.842 397.158 114.842zM512 12.8c333.517 0 435.2 101.683 435.2 435.2s-101.683 435.2-435.2 435.2-435.2-101.683-435.2-435.2 101.683-435.2 435.2-435.2zM512 409.6c-21.208 0-38.4 17.192-38.4 38.4v0 199.424c0 21.208 17.192 38.4 38.4 38.4s38.4-17.192 38.4-38.4v0-199.424c0-21.208-17.192-38.4-38.4-38.4v0zM512 230.4v0c-21.208 0-38.4 17.192-38.4 38.4s17.192 38.4 38.4 38.4v0 0c21.208 0 38.4-17.192 38.4-38.4s-17.192-38.4-38.4-38.4v0z" />
<glyph unicode="&#xe925;" glyph-name="Info-Square" d="M512-64c-195.226 0-317.696 35.43-397.158 114.842s-114.842 201.933-114.842 397.158 35.43 317.696 114.842 397.158 201.933 114.842 397.158 114.842 317.696-35.43 397.158-114.842 114.842-201.933 114.842-397.158-35.43-317.696-114.842-397.158-201.933-114.842-397.158-114.842zM512 883.2c-333.517 0-435.2-101.683-435.2-435.2s101.683-435.2 435.2-435.2 435.2 101.683 435.2 435.2-101.683 435.2-435.2 435.2zM512 486.4c21.208 0 38.4-17.192 38.4-38.4v0-199.424c0-21.208-17.192-38.4-38.4-38.4s-38.4 17.192-38.4 38.4v0 199.424c0 21.208 17.192 38.4 38.4 38.4v0zM512 665.6v0c21.208 0 38.4-17.192 38.4-38.4s-17.192-38.4-38.4-38.4v0 0c-21.208 0-38.4 17.192-38.4 38.4s17.192 38.4 38.4 38.4v0z" />
<glyph unicode="&#xe926;" glyph-name="Calling" horiz-adv-x="1031" d="M993.897 538.951c-18.871 0.137-34.374 14.376-36.502 32.694l-0.016 0.172c-18.45 165.888-149.035 296.271-313.415 314.264l-1.583 0.141c-18.592 2.142-32.895 17.792-32.895 36.782 0 1.437 0.082 2.855 0.241 4.249l-0.016-0.17c2.142 18.592 17.792 32.895 36.782 32.895 1.437 0 2.855-0.082 4.249-0.241l-0.17 0.016c100.946-11.685 189.683-56.614 256.626-123.383l-0.009 0.009c66.756-66.936 111.684-155.671 123.183-254.604l0.19-2.012c0.147-1.239 0.231-2.673 0.231-4.128 0-18.993-14.305-34.644-32.729-36.767l-0.171-0.016c-0.32-0.010-0.697-0.015-1.075-0.015-1.028 0-2.047 0.041-3.054 0.123l0.133-0.009zM819.2 538.408c-17.919 0.031-32.85 12.791-36.232 29.719l-0.039 0.236c-14.305 72.76-70.74 129.178-142.363 143.271l-1.145 0.188c-17.178 3.432-29.941 18.391-29.941 36.33 0 2.493 0.247 4.929 0.716 7.284l-0.039-0.236c3.432 17.178 18.391 29.941 36.33 29.941 2.493 0 4.929-0.247 7.284-0.716l-0.236 0.039c102.424-20.137 181.85-99.563 201.722-200.373l0.265-1.614c0.425-2.107 0.669-4.529 0.669-7.008 0-20.443-16.552-37.021-36.986-37.061h-0.004zM777.154-64c-127.914 0-291.161 98.304-485.006 292.198-151.601 151.552-245.365 285.388-278.577 397.806-9.571 23.706-15.124 51.197-15.124 79.984 0 43.179 12.492 83.44 34.060 117.366l-0.529-0.89c13.226 19.937 87.99 125.199 190.143 125.199 39.789-0.529 76.009-15.39 103.826-39.644l-0.192 0.164c58.919-40.484 104.458-96.588 131.097-162.367l0.863-2.411c2.382-10.264 3.748-22.051 3.748-34.156 0-30.634-8.744-59.225-23.873-83.414l0.386 0.661c-22.849-46.931-40.911-83.894 63.71-188.663 54.975-54.975 98.304-81.673 132.454-81.673 20.944 1.737 40.068 8.191 56.739 18.289l-0.579-0.326c23.828 13.931 52.193 22.738 82.482 24.214l0.425 0.016c59.515 0 120.709-42.095 198.483-136.55 24.517-27.693 39.488-64.33 39.488-104.463 0-9.647-0.865-19.092-2.522-28.261l0.144 0.961c-20.467-68.496-63.921-124.798-121.227-161.275l-1.16-0.69c-29.132-20.127-65.205-32.15-104.086-32.15-1.819 0-3.632 0.026-5.439 0.079l0.265-0.006zM94.060 782.342q-0.839-1.431-1.826-2.813c-49.695-69.681-9.524-237.272 252.175-499.021 223.553-223.602 358.721-270.484 432.745-270.484 1.476-0.070 3.207-0.11 4.947-0.11 22.854 0 44.101 6.877 61.786 18.674l-0.407-0.255q1.382 0.987 2.862 1.875c42.206 26.57 73.982 66.384 89.773 113.526l0.438 1.508c0.552 3.624 0.867 7.805 0.867 12.060 0 22.26-8.629 42.504-22.724 57.571l0.044-0.048c-60.65 73.629-106.891 109.506-141.287 109.506-18.872-1.934-36.013-7.905-51.023-17.034l0.538 0.304c-25.537-14.864-55.967-24.15-88.452-25.452l-0.377-0.012c-55.518 0-114.244 32.867-184.814 103.387-48.9 41.444-84.663 97.017-101.036 160.388l-0.476 2.169c-0.739 6.084-1.16 13.128-1.16 20.271 0 33.434 9.236 64.712 25.295 91.42l-0.448-0.802c10.063 14.057 16.090 31.599 16.090 50.549 0 5.278-0.468 10.447-1.364 15.467l0.078-0.529c-24.485 51.951-61.178 94.659-106.516 125.647l-1.066 0.688c-14.952 13.611-34.717 22.166-56.468 22.845l-0.136 0.003c-59.515 0-116.119-71.853-128.062-91.296z" />
<glyph unicode="&#xe927;" glyph-name="User" horiz-adv-x="1240" d="M620.12-64c-9.089-0.361-19.758-0.567-30.475-0.567-78.812 0-155.026 11.125-227.157 31.891l5.786-1.426c-107.385 36.002-129.992 102.016-129.992 151.074 6.213 79.291 53.127 146.36 119.654 180.84l1.239 0.584c72.703 43.019 160.231 68.439 253.695 68.439 2.549 0 5.094-0.019 7.634-0.057l-0.384 0.004c2.124 0.032 4.631 0.050 7.142 0.050 93.261 0 180.636-25.202 255.685-69.167l-2.391 1.294c67.933-34.72 115.053-101.639 121.351-180.077l0.050-0.782c0-49.001-22.607-115.071-129.427-151.469-66.696-19.792-143.328-31.181-222.62-31.181-10.477 0-20.907 0.199-31.288 0.593l1.497-0.045zM620.12 282.006c-169.894 0-297.061-87.151-297.061-165.034 0-13.904 0-46.458 72.174-70.704 58.888-16.529 126.512-26.030 196.356-26.030 10.033 0 20.021 0.196 29.959 0.585l-1.429-0.044c8.466-0.345 18.404-0.542 28.387-0.542 70 0 137.742 9.669 201.963 27.743l-5.238-1.259c71.948 24.472 71.948 58.44 71.948 71.213 0 77.43-127.053 164.073-297.061 164.073zM620.12 440.087h-1.526c-143.694 0.434-260.013 117.020-260.013 260.775 0 144.022 116.753 260.776 260.776 260.776s260.776-116.753 260.776-260.776c0-143.754-116.319-260.341-259.971-260.775h-0.042zM620.12 875.279c-0.21 0.001-0.458 0.001-0.706 0.001-96.765 0-175.208-78.443-175.208-175.208 0-96.517 78.041-174.806 174.464-175.207h1.451c96.764 0 175.207 78.443 175.207 175.207s-78.443 175.207-175.207 175.207v0zM981.272 499.827c-0.033 0-0.073 0-0.112 0-23.411 0-42.389 18.978-42.389 42.389 0 19.552 13.238 36.012 31.239 40.907l0.297 0.069c52.243 14.411 89.983 61.486 90.034 117.383v0.006c-0.101 58.377-41.256 107.113-96.129 118.884l-0.8 0.144c-19.492 4.078-33.921 21.121-33.921 41.534 0 3.003 0.312 5.934 0.906 8.76l-0.049-0.276c4.078 19.492 21.121 33.921 41.534 33.921 3.003 0 5.934-0.312 8.76-0.906l-0.276 0.049c94.595-20.179 164.545-102.946 164.751-202.087v-0.023c-0.064-94.936-64.159-174.884-151.431-198.998l-1.451-0.342c-3.258-0.897-6.999-1.413-10.861-1.413-0.036 0-0.073 0-0.109 0h0.006zM1124.32 110.246c-23.385 0.034-42.33 18.999-42.33 42.389 0 19.961 13.797 36.7 32.376 41.199l0.29 0.059c21.342 4.199 37.711 21.294 40.774 42.682l0.032 0.272c-0.057 29.785-58.27 84.834-141.352 84.834-23.411 0-42.389 18.978-42.389 42.389v0c0 23.411 18.978 42.389 42.389 42.389v0c118.406 0 226.074-80.821 226.074-169.555-3.278-61.629-47.228-112.122-105.346-125.298l-0.908-0.173c-2.876-0.725-6.184-1.156-9.588-1.187h-0.020zM259.080 499.827c-3.904 0.010-7.679 0.546-11.263 1.54l0.298-0.071c-88.625 24.472-152.626 104.378-152.626 199.233 0 99.125 69.893 181.925 163.086 201.806l1.352 0.242c2.557 0.548 5.495 0.862 8.507 0.862 20.374 0 37.391-14.374 41.463-33.535l0.049-0.277c0.545-2.551 0.858-5.481 0.858-8.484 0-20.413-14.429-37.456-33.645-41.486l-0.276-0.048c-55.727-11.835-96.931-60.63-96.931-119.048 0-55.947 37.791-103.067 89.239-117.225l0.854-0.2c18.191-5.037 31.325-21.444 31.325-40.919 0-23.376-18.922-42.332-42.284-42.389h-0.005zM115.863 110.246c-3.449 0.001-6.801 0.413-10.011 1.19l0.29-0.059c-58.979 13.393-102.877 63.871-106.127 125.133l-0.014 0.338c0 88.79 107.781 169.555 226.074 169.555 0 0 0 0 0 0 23.391 0 42.357-18.946 42.389-42.329v-0.003c0-23.411-18.978-42.389-42.389-42.389v0c-83.082 0-141.296-55.049-141.296-84.778 3.102-21.675 19.497-38.777 40.541-42.901l0.322-0.053c18.992-4.466 32.913-21.265 32.913-41.316 0-23.411-18.978-42.389-42.389-42.389-0.106 0-0.212 0-0.318 0.001h0.016z" />
<glyph unicode="&#xe928;" glyph-name="Paper-Upload" horiz-adv-x="936" d="M467.968 960c1.703 0.011 3.717 0.017 5.732 0.017 44.047 0 87.409-2.927 129.905-8.598l-4.975 0.543c8.315-1.175 15.611-4.861 21.263-10.254l-0.015 0.014 290.304-276.48c5.735-5.466 9.775-12.665 11.279-20.755l0.037-0.237c9.572-54.691 15.043-117.666 15.043-181.919 0-5.039-0.034-10.070-0.101-15.092l0.008 0.762c0-194.56-32.102-316.621-104.038-395.878-72.96-80.333-185.344-116.122-364.442-116.122s-291.123 35.84-363.981 116.122c-71.936 79.258-103.987 201.37-103.987 395.878s32.051 316.365 103.987 395.674c72.96 80.435 185.293 116.326 363.981 116.326zM576 877.414c-31.102 3.69-67.127 5.796-103.644 5.796-1.542 0-3.084-0.004-4.625-0.011l0.237 0.001c-155.238 0-249.958-28.109-307.2-91.136-58.061-64.102-83.968-170.24-83.968-344.064s25.907-280.166 84.070-344.269c57.088-62.925 151.808-90.931 307.2-90.931s250.419 28.058 307.558 90.982c58.163 64.051 84.122 170.189 84.122 344.218 0.046 3.682 0.072 8.033 0.072 12.389 0 55.756-4.251 110.519-12.448 163.983l0.754-5.978zM888.269 570.522h-151.091c-116.267 0.116-210.491 94.323-210.637 210.571v136.257c0 21.208 17.192 38.4 38.4 38.4v0c21.208 0 38.4-17.192 38.4-38.4v0-136.243c0.087-73.871 59.962-133.727 133.831-133.786h151.097c21.208 0 38.4-17.192 38.4-38.4s-17.192-38.4-38.4-38.4v0zM448.512 203.93c-21.208 0-38.4 17.192-38.4 38.4v0 309.299c0 21.208 17.192 38.4 38.4 38.4s38.4-17.192 38.4-38.4v0-309.299c0-21.208-17.192-38.4-38.4-38.4v0zM568.576 392.602c-0.003 0-0.006 0-0.009 0-10.624 0-20.238 4.326-27.176 11.313l-0.002 0.002-92.877 93.235-92.877-93.235c-6.95-6.954-16.553-11.256-27.162-11.256s-20.212 4.302-27.161 11.256v0c-6.954 6.95-11.256 16.553-11.256 27.162s4.302 20.212 11.256 27.161v0l120.013 120.422c6.955 6.985 16.579 11.307 27.213 11.307s20.258-4.322 27.211-11.306l120.014-120.577c6.908-6.942 11.179-16.515 11.179-27.085 0-21.196-17.173-38.381-38.365-38.4h-0.002z" />
<glyph unicode="&#xe929;" glyph-name="Call" d="M786.632-64c-129.474 0-294.712 99.503-490.921 295.761-153.45 153.4-248.357 288.868-281.975 402.657-9.688 23.995-15.309 51.821-15.309 80.96 0 43.705 12.645 84.457 34.476 118.797l-0.535-0.901c13.387 20.18 89.063 126.726 192.462 126.726 40.275-0.535 76.936-15.578 105.092-40.127l-0.195 0.166c59.637-40.978 105.731-97.766 132.696-164.347l0.873-2.44c2.411-10.39 3.793-22.32 3.793-34.573 0-31.007-8.851-59.947-24.164-84.431l0.39 0.669c-23.127-47.504-41.41-84.917 64.487-190.964 55.646-55.646 99.503-82.669 134.069-82.669 21.217 1.752 40.592 8.286 57.481 18.512l-0.587-0.33c24.122 14.082 52.834 22.98 83.491 24.46l0.427 0.016c60.241 0 122.181-42.608 200.904-138.215 24.812-28.030 39.963-65.11 39.963-105.729 0-9.75-0.873-19.296-2.545-28.564l0.146 0.973c-20.728-69.337-64.73-126.327-122.753-163.241l-1.176-0.699c-29.487-20.372-66-32.542-105.355-32.542-1.841 0-3.676 0.027-5.505 0.080l0.268-0.006zM95.207 792.663q-0.849-1.449-1.848-2.847c-50.301-70.531-9.641-240.165 255.251-505.107 226.279-226.329 363.095-273.783 438.022-273.783 1.494-0.071 3.246-0.111 5.007-0.111 23.132 0 44.639 6.961 62.539 18.902l-0.412-0.259q1.399 0.999 2.897 1.898c42.721 26.894 74.884 67.193 90.867 114.91l0.443 1.526c0.559 3.668 0.878 7.9 0.878 12.207 0 22.531-8.734 43.022-23.001 58.273l0.045-0.048c-61.39 74.527-108.194 110.842-143.010 110.842-19.102-1.96-36.452-8.003-51.646-17.242l0.545 0.308c-25.849-15.043-56.65-24.443-89.531-25.763l-0.382-0.012c-56.195 0-115.637 33.268-187.067 104.648-49.496 41.949-85.695 98.2-102.268 162.344l-0.481 2.195c-0.748 6.158-1.174 13.288-1.174 20.518 0 33.842 9.349 65.501 25.604 92.534l-0.453-0.812c10.185 14.228 16.286 31.984 16.286 51.165 0 5.342-0.473 10.574-1.38 15.656l0.079-0.536c-24.784 52.585-61.924 95.814-107.815 127.179l-1.079 0.696c-15.135 13.777-35.141 22.436-57.156 23.124l-0.138 0.003c-60.241 0-117.535-72.729-129.623-92.41z" />
<glyph unicode="&#xe92a;" glyph-name="User1" horiz-adv-x="998" d="M379.302-64c-9.142-0.365-19.874-0.573-30.655-0.573-78.762 0-154.933 11.093-227.036 31.803l5.793-1.424c-105.275 35.326-127.404 99.605-127.404 147.275 0 135.383 173.719 249.79 379.302 249.79s379.252-113.906 379.252-248.787c0-47.67-22.029-112.049-126.852-147.676-66.508-19.665-142.92-30.979-221.975-30.979-10.7 0-21.351 0.207-31.951 0.618l1.526-0.047zM379.302 287.603c-174.020 0-304.034-92.128-304.034-174.522 0-67.541 102.315-101.813 304.034-101.813 8.516-0.345 18.512-0.542 28.554-0.542 71.031 0 139.765 9.834 204.915 28.214l-5.305-1.279c75.82 25.792 75.82 62.573 75.82 76.422-7.137 51.129-39.074 93.484-83.061 115.019l-0.888 0.393c-61.615 36.541-135.819 58.136-215.066 58.136-1.747 0-3.491-0.010-5.233-0.031l0.265 0.003zM379.302 446.771h-1.556c-140.97 0.484-255.061 114.874-255.061 255.911 0 0.3 0.001 0.601 0.002 0.901v-0.046c0.086 141.66 114.943 256.464 256.615 256.464 141.724 0 256.615-114.89 256.615-256.615s-114.89-256.615-256.615-256.615v0zM379.302 884.732c-100.109-0.114-181.232-81.238-181.346-181.335v-0.011c-0.001-0.209-0.001-0.456-0.001-0.704 0-99.52 80.478-180.244 179.905-180.642h1.493c100.155 0 181.346 81.192 181.346 181.346s-81.192 181.346-181.346 181.346v0zM742.747 506.935c-0.029 0-0.064 0-0.099 0-20.785 0-37.634 16.849-37.634 37.634 0 17.359 11.753 31.973 27.735 36.319l0.264 0.061c54.766 15.067 94.338 64.4 94.386 122.983v0.006c-0.112 61.188-43.255 112.266-100.774 124.594l-0.838 0.15c-17.286 3.636-30.078 18.758-30.078 36.868 0 2.687 0.282 5.309 0.817 7.837l-0.044-0.246c3.636 17.286 18.758 30.078 36.868 30.078 2.687 0 5.309-0.282 7.837-0.817l-0.246 0.044c92.87-19.857 161.531-101.136 161.726-198.486v-0.022c-0.083-93.223-63.047-171.717-148.761-195.362l-1.425-0.335c-2.917-0.82-6.268-1.296-9.729-1.305h-0.005zM886.711 116.945c-20.762 0.030-37.582 16.868-37.582 37.634 0 17.722 12.25 32.583 28.744 36.578l0.257 0.053c23.495 3.852 41.726 22.355 45.126 45.671l0.035 0.293c-0.151 35.677-66.136 90.372-147.476 90.372-20.785 0-37.634 16.849-37.634 37.634v0c0 20.785 16.849 37.634 37.634 37.634v0c0.116 0 0.253 0 0.39 0 56.855 0 109.463-18.184 152.325-49.053l-0.773 0.53c39.876-25.223 66.898-67.659 70.621-116.607l0.031-0.51c-3.147-59.205-45.984-107.553-102.24-119.083l-0.828-0.142c-2.592-0.637-5.568-1.002-8.63-1.004h-0.001z" />
<glyph unicode="&#xe92b;" glyph-name="Buy" horiz-adv-x="934" d="M520.196 135.584c-64.38 0-245.614 6.185-337.983 72.163-115.719 82.215-99.586 271.129-85.359 437.775 5.298 47.627 8.385 102.99 8.505 159.049v0.175q0 0.979 0 1.959c0.112 1.425 0.176 3.086 0.176 4.761 0 24.234-13.401 45.339-33.196 56.307l-0.33 0.168c-11.236 6.904-24.326 12.161-38.289 15.020l-0.782 0.134c-18.755 2.877-32.953 18.898-32.953 38.236 0 2.023 0.155 4.010 0.455 5.949l-0.027-0.216c2.877 18.755 18.898 32.953 38.236 32.953 2.023 0 4.010-0.155 5.949-0.455l-0.216 0.027c77.933-8.909 137.954-74.324 138.296-153.828v-0.035q0-9.948 0-20.206c104.937 23.65 225.452 37.202 349.132 37.202 11.92 0 23.811-0.126 35.671-0.376l-1.77 0.030c106.235-2.99 244.892-20.257 301.953-85.256 44.020-50.102 68.762-149.482 66.287-265.459-2.526-118.554-34.123-216.49-84.534-261.541-75.462-67.473-265.613-74.174-322.107-74.586zM179.275 705.521c-1.546-21.598-3.454-43.814-5.155-66.545-12.474-146.080-26.597-311.643 53.195-368.446 50.566-36.082 168.296-58.607 299.891-57.576 145.358 1.134 242.263 29.226 271.129 54.896 33.659 30.102 56.7 110.771 58.762 205.563 0.966 9.858 1.517 21.31 1.517 32.89 0 66.279-18.044 128.345-49.487 181.551l0.909-1.662c-22.628 25.773-99.173 54.793-246.078 58.968-9.492 0.205-20.677 0.322-31.891 0.322-125.098 0-246.795-14.564-363.488-42.088l10.695 2.127zM723.13 477.020h-142.935c-21.351 0-38.659 17.308-38.659 38.659s17.308 38.659 38.659 38.659v0h142.935c21.351 0 38.659-17.308 38.659-38.659s-17.308-38.659-38.659-38.659v0zM224.944 30.792c15.515 0 28.092-12.577 28.092-28.092s-12.577-28.092-28.092-28.092c-15.515 0-28.092 12.577-28.092 28.092 0 0.018 0 0.036 0 0.054v-0.003c0.029 15.493 12.595 28.041 28.092 28.041 0 0 0 0 0 0v0zM224.944 69.451c36.866 0 66.751-29.886 66.751-66.751s-29.886-66.751-66.751-66.751c-36.866 0-66.751 29.886-66.751 66.751 0 0.018 0 0.036 0 0.054v-0.003c0.175 36.785 29.962 66.554 66.737 66.7h0.014zM757.459 30.792c0.015 0 0.033 0 0.051 0 15.515 0 28.092-12.577 28.092-28.092s-12.577-28.092-28.092-28.092c-15.515 0-28.092 12.577-28.092 28.092 0 0.018 0 0.036 0 0.054v-0.003c0.029 15.475 12.566 28.011 28.038 28.041h0.003zM757.459 69.451c0.015 0 0.033 0 0.052 0 36.866 0 66.751-29.886 66.751-66.751s-29.886-66.751-66.751-66.751c-36.866 0-66.751 29.886-66.751 66.751 0 0.018 0 0.036 0 0.054v-0.003c0.175 36.767 29.933 66.525 66.683 66.7h0.017z" />
<glyph unicode="&#xe92c;" glyph-name="Paper-Download" horiz-adv-x="936" d="M467.968 960c1.703 0.011 3.717 0.017 5.732 0.017 44.047 0 87.409-2.927 129.905-8.598l-4.975 0.543c8.315-1.175 15.611-4.861 21.263-10.254l-0.015 0.014 290.304-276.48c5.735-5.466 9.775-12.665 11.279-20.755l0.037-0.237c9.572-54.691 15.043-117.666 15.043-181.919 0-5.039-0.034-10.070-0.101-15.092l0.008 0.762c0-194.56-32.102-316.621-104.038-395.878-72.96-80.333-185.344-116.122-364.442-116.122s-291.123 35.84-363.981 116.122c-71.936 79.258-103.987 201.37-103.987 395.878s32.051 316.365 103.987 395.674c72.96 80.435 185.293 116.326 363.981 116.326zM576 877.414c-31.102 3.69-67.127 5.796-103.644 5.796-1.542 0-3.084-0.004-4.625-0.011l0.237 0.001c-155.238 0-249.958-28.109-307.2-91.136-58.061-64.102-83.968-170.24-83.968-344.064s25.907-280.166 84.070-344.269c57.088-62.925 151.808-90.931 307.2-90.931s250.419 28.058 307.558 90.982c58.163 64.051 84.122 170.189 84.122 344.218 0.046 3.682 0.072 8.033 0.072 12.389 0 55.756-4.251 110.519-12.448 163.983l0.754-5.978zM888.269 570.522h-151.091c-116.267 0.116-210.491 94.323-210.637 210.571v136.257c0 21.208 17.192 38.4 38.4 38.4v0c21.208 0 38.4-17.192 38.4-38.4v0-136.243c0.087-73.871 59.962-133.727 133.831-133.786h151.097c21.208 0 38.4-17.192 38.4-38.4s-17.192-38.4-38.4-38.4v0zM448.512 203.93c-21.208 0-38.4 17.192-38.4 38.4v0 309.299c0 21.208 17.192 38.4 38.4 38.4s38.4-17.192 38.4-38.4v0-309.299c0-21.208-17.192-38.4-38.4-38.4v0zM448.512 203.93c-10.625 0.010-20.239 4.333-27.186 11.314l-0.002 0.002-120.064 120.576c-6.954 6.95-11.256 16.553-11.256 27.162s4.302 20.212 11.256 27.161v0c6.95 6.954 16.553 11.256 27.162 11.256s20.212-4.302 27.161-11.256v0l92.928-93.389 92.877 93.235c6.95 6.954 16.553 11.256 27.162 11.256s20.212-4.302 27.161-11.256v0c6.954-6.95 11.256-16.553 11.256-27.162s-4.302-20.212-11.256-27.161v0l-120.013-120.422c-6.948-6.982-16.562-11.306-27.185-11.315h-0.002z" />
<glyph unicode="&#xe92d;" glyph-name="Profile" horiz-adv-x="749" d="M374.592-64c-8.991-0.367-19.545-0.575-30.147-0.575-78.011 0-153.382 11.309-224.561 32.376l5.588-1.419c-103.722 35.758-125.472 100.319-125.472 148.407 6.024 78.663 51.108 145.603 115.699 181.994l1.143 0.592c71.511 45.602 158.683 72.682 252.18 72.682 1.959 0 3.914-0.012 5.867-0.036l-0.297 0.003c1.6 0.019 3.49 0.030 5.382 0.030 93.301 0 180.332-26.85 253.786-73.244l-1.96 1.156c65.881-36.633 111.159-103.39 117.284-181.156l0.050-0.789c0-47.989-21.652-112.748-124.93-148.85-65.951-20.132-141.754-31.723-220.264-31.723-10.322 0-20.597 0.2-30.821 0.597l1.472-0.045zM374.592 296.042c-1.202 0.013-2.622 0.020-4.045 0.020-78.849 0-152.433-22.54-214.662-61.527l1.694 0.99c-45.235-23.915-77.033-68.009-83.52-119.967l-0.078-0.771c0-69.542 101.108-104.807 300.611-104.807s300.611 35.61 300.611 105.843c-6.664 52.59-38.559 96.505-82.982 119.734l-0.864 0.411c-60.563 37.725-134.085 60.092-212.832 60.092-1.383 0-2.764-0.007-4.144-0.021l0.21 0.002zM374.197 453.277h-1.529c-139.174 0.42-251.834 113.339-251.834 252.571 0 0.313 0.001 0.625 0.002 0.937v-0.049c0.056 139.885 113.468 253.263 253.361 253.263 139.928 0 253.361-113.434 253.361-253.361s-113.434-253.361-253.361-253.361v0zM374.197 886.019c-99.024-0.112-179.268-80.356-179.38-179.369v-0.011c-0.001-0.235-0.002-0.512-0.002-0.79 0-98.426 79.622-178.254 177.969-178.59h1.413c99.069 0 179.38 80.311 179.38 179.38s-80.311 179.38-179.38 179.38v0z" />
<glyph unicode="&#xe92e;" glyph-name="Image-2" d="M512 960c195.226 0 317.696-35.43 397.158-114.842s114.842-201.933 114.842-397.158-35.43-317.696-114.842-397.158-201.933-114.842-397.158-114.842-317.696 35.43-397.158 114.842-114.842 201.933-114.842 397.158 35.43 317.696 114.842 397.158 201.933 114.842 397.158 114.842zM512 12.8c333.517 0 435.2 101.683 435.2 435.2s-101.683 435.2-435.2 435.2-435.2-101.683-435.2-435.2 101.683-435.2 435.2-435.2zM350.106 741.222c71.003 0 128.563-57.56 128.563-128.563s-57.56-128.563-128.563-128.563c-71.003 0-128.563 57.56-128.563 128.563v0c0.087 70.968 57.595 128.476 128.555 128.563h0.009zM350.106 560.896c28.588 0 51.763 23.175 51.763 51.763s-23.175 51.763-51.763 51.763c-28.588 0-51.763-23.175-51.763-51.763v0c0.029-28.576 23.187-51.734 51.76-51.763h0.003zM126.259 57.651c-5.558 0.002-10.838 1.189-15.602 3.323l0.242-0.097c-13.686 6.074-23.059 19.543-23.059 35.203 0 5.545 1.175 10.816 3.291 15.577l-0.097-0.245c7.066 16.282 71.68 160.205 160.307 201.728 20.025 8.601 43.333 13.602 67.808 13.602 29.265 0 56.859-7.15 81.133-19.798l-0.973 0.461c33.659-14.463 72.771-23.262 113.829-24.16l0.347-0.006c36.25 0 57.037 32.358 87.91 85.146 31.744 54.17 71.117 121.6 151.45 121.6 96.455-6.257 180.225-55.611 232.943-128.819l0.631-0.922c7.27-8.090 14.131-15.77 20.48-22.016 6.69-6.926 10.813-16.371 10.813-26.778 0-21.298-17.265-38.563-38.563-38.563-10.891 0-20.727 4.515-27.74 11.775l-0.011 0.011c-7.168 7.373-14.541 15.36-22.323 24.32-39.697 57.772-102.754 97.024-175.242 104.114l-0.989 0.078c-34.509 0-54.835-31.744-85.197-83.558-32.102-54.886-72.038-123.187-154.163-123.187-50.734 0.854-98.791 11.329-142.746 29.671l2.56-0.947c-42.24 15.155-61.901 21.35-89.293 8.448-52.941-24.832-107.571-128.512-122.522-162.918-6.078-13.676-19.542-23.040-35.194-23.040-0.011 0-0.022 0-0.033 0h0.002z" />
<glyph unicode="&#xe92f;" glyph-name="Add-User" horiz-adv-x="960" d="M378.567-64c-9.080-0.36-19.74-0.565-30.448-0.565-78.754 0-154.917 11.093-227.012 31.802l5.792-1.424c-105.12 35.137-126.899 98.877-126.899 146.21 0 135.514 173.361 249.781 378.567 249.781 1.827 0.024 3.984 0.038 6.144 0.038 93.571 0 181.070-25.998 255.668-71.165l-2.206 1.24c66.488-34.984 112.512-101.006 118.908-178.271l0.053-0.801c0-47.333-21.876-111.315-126.125-146.645-66.317-19.55-142.507-30.798-221.325-30.798-10.944 0-21.837 0.217-32.675 0.646l1.557-0.049zM378.567 289.304c-1.414 0.017-3.085 0.027-4.759 0.027-79.879 0-154.61-22.046-218.438-60.385l1.922 1.071c-45.448-22.651-77.681-65.911-84.609-117.202l-0.087-0.792c0-68.628 102.942-103.426 305.971-103.426 8.482-0.341 18.439-0.535 28.441-0.535 71.307 0 140.307 9.878 205.706 28.341l-5.322-1.284c68.967 23.473 76.904 55.706 76.904 77.92-7.071 51.875-39.284 94.923-83.756 116.965l-0.892 0.4c-61.909 36.971-136.547 58.83-216.29 58.83-1.684 0-3.366-0.010-5.046-0.029l0.256 0.002zM378.567 448.629h-1.597c-140.436 0.494-254.090 114.453-254.090 254.958 0 0.307 0.001 0.613 0.002 0.92v-0.047c0.083 141.149 114.525 255.54 255.685 255.54 141.211 0 255.685-114.474 255.685-255.685s-114.474-255.685-255.685-255.685v0zM378.567 887.403c-101.073-0.11-182.979-82.016-183.089-183.078v-0.011c-0.001-0.216-0.001-0.472-0.001-0.728 0-100.41 81.152-181.867 181.446-182.361h1.451c101.117 0 183.089 81.972 183.089 183.089s-81.972 183.089-183.089 183.089v0zM824.262 403.958c-20.047 0-36.298 16.251-36.298 36.298v0 194.075c0 20.047 16.251 36.298 36.298 36.298s36.298-16.251 36.298-36.298v0-194.075c0-20.047-16.251-36.298-36.298-36.298v0zM923.284 500.996h-197.947c-20.047 0-36.298 16.251-36.298 36.298s16.251 36.298 36.298 36.298v0h197.947c20.047 0 36.298-16.251 36.298-36.298s-16.251-36.298-36.298-36.298v0z" />
<glyph unicode="&#xe930;" glyph-name="Discount" d="M512 960c195.226 0 317.696-35.43 397.158-114.842s114.842-201.933 114.842-397.158-35.43-317.696-114.842-397.158-201.933-114.842-397.158-114.842-317.696 35.43-397.158 114.842-114.842 201.933-114.842 397.158 35.43 317.696 114.842 397.158 201.933 114.842 397.158 114.842zM512 12.8c333.517 0 435.2 101.683 435.2 435.2s-101.683 435.2-435.2 435.2-435.2-101.683-435.2-435.2 101.683-435.2 435.2-435.2zM380.416 278.016c-0.003 0-0.006 0-0.009 0-10.599 0-20.192 4.306-27.126 11.263l-0.001 0.001c-6.954 6.95-11.256 16.553-11.256 27.162s4.302 20.212 11.256 27.161l263.168 263.117c6.95 6.954 16.553 11.256 27.162 11.256s20.212-4.302 27.161-11.256v0c6.924-6.945 11.205-16.528 11.205-27.11 0-10.608-4.302-20.212-11.256-27.161l-263.168-263.168c-6.935-6.958-16.528-11.264-27.127-11.264-0.003 0-0.006 0-0.009 0v0zM640 268.8v0c-28.277 0-51.2 22.923-51.2 51.2s22.923 51.2 51.2 51.2v0 0c28.277 0 51.2-22.923 51.2-51.2s-22.923-51.2-51.2-51.2v0zM384 524.8v0c-28.277 0-51.2 22.923-51.2 51.2s22.923 51.2 51.2 51.2v0 0c28.277 0 51.2-22.923 51.2-51.2s-22.923-51.2-51.2-51.2v0z" />
<glyph unicode="&#xe931;" glyph-name="Paper-Fail" horiz-adv-x="936" d="M467.968 960c1.703 0.011 3.717 0.017 5.732 0.017 44.047 0 87.409-2.927 129.905-8.598l-4.975 0.543c8.315-1.175 15.611-4.861 21.263-10.254l-0.015 0.014 290.304-276.48c5.735-5.466 9.775-12.665 11.279-20.755l0.037-0.237c9.572-54.691 15.043-117.666 15.043-181.919 0-5.039-0.034-10.070-0.101-15.092l0.008 0.762c0-194.56-32.102-316.621-104.038-395.878-72.96-80.333-185.344-116.122-364.442-116.122s-291.123 35.84-363.981 116.122c-71.936 79.258-103.987 201.37-103.987 395.878s32.051 316.365 103.987 395.674c72.96 80.435 185.293 116.326 363.981 116.326zM576 877.414c-31.102 3.69-67.127 5.796-103.644 5.796-1.542 0-3.084-0.004-4.625-0.011l0.237 0.001c-155.238 0-249.958-28.109-307.2-91.136-58.061-64.102-83.968-170.24-83.968-344.064s25.907-280.166 84.070-344.269c57.088-62.925 151.808-90.931 307.2-90.931s250.419 28.058 307.558 90.982c58.163 64.051 84.122 170.189 84.122 344.218 0.046 3.682 0.072 8.033 0.072 12.389 0 55.756-4.251 110.519-12.448 163.983l0.754-5.978zM888.269 570.522h-151.091c-116.267 0.116-210.491 94.323-210.637 210.571v136.257c0 21.208 17.192 38.4 38.4 38.4v0c21.208 0 38.4-17.192 38.4-38.4v0-136.243c0.087-73.871 59.962-133.727 133.831-133.786h151.097c21.208 0 38.4-17.192 38.4-38.4s-17.192-38.4-38.4-38.4v0zM547.584 270.643c-0.063 0-0.139-0.001-0.214-0.001-10.497 0-20.008 4.223-26.926 11.063l0.004-0.004-177.459 177.664c-6.939 6.947-11.23 16.541-11.23 27.136s4.291 20.189 11.231 27.136v0c6.947 6.939 16.541 11.23 27.136 11.23s20.189-4.291 27.136-11.231l177.664-177.459c6.939-6.947 11.23-16.541 11.23-27.136 0-21.196-17.173-38.381-38.364-38.4h-0.002zM370.176 270.643c-0.063 0-0.139-0.001-0.214-0.001-10.497 0-20.008 4.223-26.926 11.063l0.004-0.004c-6.954 6.95-11.256 16.553-11.256 27.162s4.302 20.212 11.256 27.161v0l177.459 177.613c6.957 7 16.592 11.333 27.238 11.333s20.281-4.333 27.236-11.331l0.002-0.002c6.939-6.947 11.23-16.541 11.23-27.136s-4.291-20.189-11.231-27.136v0l-177.664-177.664c-6.914-6.837-16.425-11.060-26.922-11.060-0.075 0-0.15 0-0.225 0.001h0.012z" />
<glyph unicode="&#xe932;" glyph-name="Image" d="M208.435 181.299c-0.010 0-0.022 0-0.034 0-6.2 0-12.055 1.475-17.234 4.094l0.219-0.1c-12.753 6.423-21.349 19.411-21.349 34.407 0 6.211 1.475 12.078 4.093 17.269l-0.101-0.22c5.12 10.752 54.528 105.165 136.499 105.165 37.926-2.605 71.859-17.867 98.034-41.545l-0.14 0.125c15.886-15.64 36.812-26.202 60.123-29.032l0.498-0.049s7.066 0.256 24.218 16.077c16.95 16.72 32.832 34.387 47.614 52.968l0.923 1.202c43.366 52.378 88.269 106.394 145.459 106.394 97.997 0 158.72-130.304 165.53-145.203 2.104-4.6 3.33-9.977 3.33-15.642 0-21.209-17.193-38.402-38.402-38.402-15.545 0-28.932 9.236-34.974 22.52l-0.098 0.241c-14.592 32.512-57.088 99.686-95.386 99.686-21.146 0-60.416-47.258-86.374-78.541-41.83-50.381-81.357-98.099-131.84-98.099-41.177 2.333-78.143 18.669-106.603 44.274l0.158-0.14c-13.743 13.547-31.596 22.958-51.522 26.192l-0.549 0.073c-27.443 0-58.010-42.906-67.686-62.464-6.441-12.698-19.4-21.248-34.357-21.248-0.018 0-0.035 0-0.053 0h0.003zM336.947 714.394v0c0.015 0 0.033 0 0.051 0 65.263 0 118.17-52.906 118.17-118.17s-52.906-118.17-118.17-118.17c-65.263 0-118.17 52.906-118.17 118.17 0 0 0 0 0 0v0c0.116 65.216 52.953 118.053 118.158 118.17h0.011zM336.947 554.854c0.015 0 0.033 0 0.051 0 22.848 0 41.37 18.522 41.37 41.37s-18.522 41.37-41.37 41.37c-22.848 0-41.37-18.522-41.37-41.37v0c0.029-22.818 18.504-41.311 41.313-41.37h0.006zM512 960c195.226 0 317.696-35.43 397.158-114.842s114.842-201.933 114.842-397.158-35.43-317.696-114.842-397.158-201.933-114.842-397.158-114.842-317.696 35.43-397.158 114.842-114.842 201.933-114.842 397.158 35.43 317.696 114.842 397.158 201.933 114.842 397.158 114.842zM512 12.8c333.517 0 435.2 101.683 435.2 435.2s-101.683 435.2-435.2 435.2-435.2-101.683-435.2-435.2 101.683-435.2 435.2-435.2z" />
<glyph unicode="&#xe933;" glyph-name="More-Square" d="M512 960c195.226 0 317.696-35.43 397.158-114.842s114.842-201.933 114.842-397.158-35.43-317.696-114.842-397.158-201.933-114.842-397.158-114.842-317.696 35.43-397.158 114.842-114.842 201.933-114.842 397.158 35.43 317.696 114.842 397.158 201.933 114.842 397.158 114.842zM512 12.8c333.517 0 435.2 101.683 435.2 435.2s-101.683 435.2-435.2 435.2-435.2-101.683-435.2-435.2 101.683-435.2 435.2-435.2zM716.698 396.8v0c-28.277 0-51.2 22.923-51.2 51.2s22.923 51.2 51.2 51.2v0 0c28.277 0 51.2-22.923 51.2-51.2s-22.923-51.2-51.2-51.2v0zM511.949 396.8v0c-28.277 0-51.2 22.923-51.2 51.2s22.923 51.2 51.2 51.2v0 0c28.277 0 51.2-22.923 51.2-51.2s-22.923-51.2-51.2-51.2v0zM307.2 396.8v0c-28.277 0-51.2 22.923-51.2 51.2s22.923 51.2 51.2 51.2v0 0c28.277 0 51.2-22.923 51.2-51.2s-22.923-51.2-51.2-51.2v0z" />
<glyph unicode="&#xe934;" glyph-name="Paper-Negative" horiz-adv-x="936" d="M467.968 960c1.703 0.011 3.717 0.017 5.732 0.017 44.047 0 87.409-2.927 129.905-8.598l-4.975 0.543c8.315-1.175 15.611-4.861 21.263-10.254l-0.015 0.014 290.304-276.48c5.735-5.466 9.775-12.665 11.279-20.755l0.037-0.237c9.572-54.691 15.043-117.666 15.043-181.919 0-5.039-0.034-10.070-0.101-15.092l0.008 0.762c0-194.56-32.102-316.621-104.038-395.878-72.96-80.333-185.344-116.122-364.442-116.122s-291.123 35.84-363.981 116.122c-71.936 79.258-103.987 201.37-103.987 395.878s32.051 316.365 103.987 395.674c72.96 80.435 185.293 116.326 363.981 116.326zM576 877.414c-31.102 3.69-67.127 5.796-103.644 5.796-1.542 0-3.084-0.004-4.625-0.011l0.237 0.001c-155.238 0-249.958-28.109-307.2-91.136-58.061-64.102-83.968-170.24-83.968-344.064s25.907-280.166 84.070-344.269c57.088-62.925 151.808-90.931 307.2-90.931s250.419 28.058 307.558 90.982c58.163 64.051 84.122 170.189 84.122 344.218 0.046 3.682 0.072 8.033 0.072 12.389 0 55.756-4.251 110.519-12.448 163.983l0.754-5.978zM888.269 570.522h-151.091c-116.267 0.116-210.491 94.323-210.637 210.571v136.257c0 21.208 17.192 38.4 38.4 38.4v0c21.208 0 38.4-17.192 38.4-38.4v0-136.243c0.087-73.871 59.962-133.727 133.831-133.786h151.097c21.208 0 38.4-17.192 38.4-38.4s-17.192-38.4-38.4-38.4v0zM584.294 359.373h-250.88c-21.208 0-38.4 17.192-38.4 38.4s17.192 38.4 38.4 38.4v0h250.88c21.208 0 38.4-17.192 38.4-38.4s-17.192-38.4-38.4-38.4v0z" />
<glyph unicode="&#xe935;" glyph-name="Filter-2" d="M512-64c-1.955-0.108-4.243-0.17-6.545-0.17-61.852 0-113.298 44.556-123.99 103.323l-0.116 0.77c-10.127 51.075-15.921 109.797-15.921 169.873 0 17.292 0.48 34.472 1.428 51.527l-0.105-2.369c0 68.844-82.918 139.264-163.052 207.373-100.142 85.123-203.697 173.135-203.697 291.499-0.153 2.809-0.24 6.096-0.24 9.404 0 40.541 13.107 78.020 35.315 108.432l-0.363-0.522c25.648 30.446 60.422 52.466 100.079 61.869l1.271 0.254c80.152 15.937 172.303 25.057 266.584 25.057 28.641 0 57.086-0.842 85.311-2.502l-3.893 0.183h55.821c24.332 1.476 52.778 2.318 81.42 2.318 94.298 0 186.466-9.119 275.671-26.525l-9.036 1.469c40.95-9.642 75.744-31.665 101.171-61.841l0.231-0.282c21.814-29.882 34.901-67.341 34.901-107.858 0-3.326-0.088-6.632-0.262-9.914l0.019 0.458c0-118.364-103.503-206.323-203.645-291.394-80.135-68.267-162.79-138.581-162.79-207.373 0.81-14.454 1.271-31.368 1.271-48.389 0-60.326-5.795-119.298-16.858-176.391l0.936 5.801c-10.548-59.599-61.949-104.283-123.787-104.283-2.507 0-4.998 0.073-7.469 0.218l0.341-0.016zM484.063 881.231c-328.52 0-405.294-11.395-405.294-123.405 0-81.92 89.272-157.906 175.918-231.371 93.788-79.767 190.832-162.475 190.832-267.5-0.717-13.437-1.126-29.169-1.126-44.995 0-54.143 4.785-107.168 13.954-158.677l-0.802 5.436c10.503-38.859 26.782-46.001 54.666-46.001s43.901 7.089 54.456 45.896c8.294 46.088 13.036 99.138 13.036 153.295 0 15.825-0.405 31.556-1.205 47.183l0.089-2.19c0 105.026 96.991 187.681 190.779 267.395 86.489 73.518 175.865 149.451 175.865 231.371 0 112.167-76.826 123.563-405.346 123.563h-55.821z" />
<glyph unicode="&#xe936;" glyph-name="Camera" horiz-adv-x="1071" d="M535.325 613.636c118.212 0 214.042-95.83 214.042-214.042s-95.83-214.042-214.042-214.042c-118.212 0-214.042 95.83-214.042 214.042v0c0 118.212 95.83 214.042 214.042 214.042v0zM535.325 268.369c72.746 0 131.718 58.972 131.718 131.718s-58.972 131.718-131.718 131.718c-72.746 0-131.718-58.972-131.718-131.718v0c0-72.746 58.972-131.718 131.718-131.718v0zM535.106-64c-227.269 0-363.542 35.235-441.86 114.156s-93.3 190.552-93.3 345.761c-0.714 11.049-1.12 23.957-1.12 36.96 0 77.666 14.506 151.943 40.957 220.271l-1.419-4.167c36.809 72.052 103.565 124.323 183.404 140.753l1.715 0.295c10.861 3.6 20.093 9.628 27.406 17.469l0.035 0.038c5.338 7.982 10.434 17.169 14.767 26.774l0.491 1.216c17.241 45.594 49.647 82.159 90.939 104.314l1.045 0.512c48.030 12.66 103.17 19.93 160.009 19.93 6.745 0 13.467-0.102 20.163-0.306l-0.98 0.024c6.265 0.234 13.624 0.367 21.014 0.367 54.976 0 108.232-7.364 158.835-21.161l-4.224 0.981c42.22-22.836 74.528-59.446 91.314-103.695l0.45-1.351c4.775-10.604 9.814-19.609 15.524-28.125l-0.432 0.683c7.348-7.91 16.577-13.972 26.981-17.483l0.46-0.135c81.536-16.733 148.272-69.003 184.368-139.549l0.697-1.499c25.032-64.16 39.538-138.438 39.538-216.103 0-13.003-0.407-25.911-1.208-38.712l0.088 1.752c0-155.428-15.642-267.498-93.3-345.761s-214.865-114.211-442.354-114.211zM537.356 877.676c-6.79 0.294-14.757 0.462-22.762 0.462-44.434 0-87.661-5.169-129.112-14.938l3.801 0.755c-21.13-8.617-36.771-40.064-49.394-65.31-7.86-17.772-17.323-33.093-28.56-46.916l0.296 0.375c-17.076-18.597-38.751-32.707-63.231-40.546l-1.036-0.287-1.372-0.439c-58.272-10.443-106.415-46.609-132.984-96.087l-0.491-1.001c-20.072-52.986-31.693-114.245-31.693-178.219 0-13.882 0.547-27.637 1.621-41.244l-0.114 1.798c0-134.517 11.635-229.574 69.536-287.969 61.578-61.908 179.85-89.788 383.245-89.788s321.832 27.441 383.41 89.788c57.901 58.395 69.536 153.671 69.536 287.969 0.958 11.795 1.504 25.534 1.504 39.4 0 63.97-11.62 125.227-32.863 181.773l1.174-3.564c-27.012 50.601-75.189 86.874-132.389 97.191l-1.14 0.171-1.427 0.439c-25.511 8.141-47.183 22.248-64.172 40.727l-0.095 0.105c-10.863 13.361-20.239 28.596-27.484 44.984l-0.506 1.282c-13.062 26.453-27.935 56.364-49.943 65.859-36.076 8.73-77.495 13.736-120.083 13.736-8.184 0-16.325-0.185-24.419-0.551l1.149 0.041zM805.128 550.685v0c-22.733 0-41.162 18.429-41.162 41.162s18.429 41.162 41.162 41.162v0 0c22.733 0 41.162-18.429 41.162-41.162s-18.429-41.162-41.162-41.162v0z" />
<glyph unicode="&#xe937;" glyph-name="More-Circle" d="M512 960c195.226 0 317.696-35.43 397.158-114.842s114.842-201.933 114.842-397.158-35.43-317.696-114.842-397.158-201.933-114.842-397.158-114.842-317.696 35.43-397.158 114.842-114.842 201.933-114.842 397.158 35.43 317.696 114.842 397.158 201.933 114.842 397.158 114.842zM512 12.8c333.517 0 435.2 101.683 435.2 435.2s-101.683 435.2-435.2 435.2-435.2-101.683-435.2-435.2 101.683-435.2 435.2-435.2zM676.301 299.52v0c-28.277 0-51.2 22.923-51.2 51.2s22.923 51.2 51.2 51.2v0 0c28.277 0 51.2-22.923 51.2-51.2s-22.923-51.2-51.2-51.2v0zM522.701 504.32v0c-28.277 0-51.2 22.923-51.2 51.2s22.923 51.2 51.2 51.2v0 0c28.277 0 51.2-22.923 51.2-51.2s-22.923-51.2-51.2-51.2v0zM368.64 299.52v0c-28.277 0-51.2 22.923-51.2 51.2s22.923 51.2 51.2 51.2v0 0c28.277 0 51.2-22.923 51.2-51.2s-22.923-51.2-51.2-51.2v0z" />
<glyph unicode="&#xe938;" glyph-name="Paper-Plus" horiz-adv-x="936" d="M467.968 960c1.703 0.011 3.717 0.017 5.732 0.017 44.047 0 87.409-2.927 129.905-8.598l-4.975 0.543c8.315-1.175 15.611-4.861 21.263-10.254l-0.015 0.014 290.304-276.48c5.735-5.466 9.775-12.665 11.279-20.755l0.037-0.237c9.572-54.691 15.043-117.666 15.043-181.919 0-5.039-0.034-10.070-0.101-15.092l0.008 0.762c0-194.56-32.102-316.621-104.038-395.878-72.96-80.333-185.344-116.122-364.442-116.122s-291.123 35.84-363.981 116.122c-71.936 79.258-103.987 201.37-103.987 395.878s32.051 316.365 103.987 395.674c72.96 80.435 185.293 116.326 363.981 116.326zM576 877.414c-31.102 3.69-67.127 5.796-103.644 5.796-1.542 0-3.084-0.004-4.625-0.011l0.237 0.001c-155.238 0-249.958-28.109-307.2-91.136-58.061-64.102-83.968-170.24-83.968-344.064s25.907-280.166 84.070-344.269c57.088-62.925 151.808-90.931 307.2-90.931s250.419 28.058 307.558 90.982c58.163 64.051 84.122 170.189 84.122 344.218 0.046 3.682 0.072 8.033 0.072 12.389 0 55.756-4.251 110.519-12.448 163.983l0.754-5.978zM888.269 570.522h-151.091c-116.267 0.116-210.491 94.323-210.637 210.571v136.257c0 21.208 17.192 38.4 38.4 38.4v0c21.208 0 38.4-17.192 38.4-38.4v0-136.243c0.087-73.871 59.962-133.727 133.831-133.786h151.097c21.208 0 38.4-17.192 38.4-38.4s-17.192-38.4-38.4-38.4v0zM584.294 359.373h-250.88c-21.208 0-38.4 17.192-38.4 38.4s17.192 38.4 38.4 38.4v0h250.88c21.208 0 38.4-17.192 38.4-38.4s-17.192-38.4-38.4-38.4v0zM458.906 233.933c-21.208 0-38.4 17.192-38.4 38.4v0 250.88c0 21.208 17.192 38.4 38.4 38.4s38.4-17.192 38.4-38.4v0-250.88c0-21.208-17.192-38.4-38.4-38.4v0z" />
<glyph unicode="&#xe939;" glyph-name="Filter" horiz-adv-x="1027" d="M424.224 95.811h-380.175c0 0 0 0 0 0-24.328 0-44.049 19.722-44.049 44.049 0 0.062 0 0.124 0 0.186v-0.009c0.1 24.252 19.783 43.873 44.049 43.873 0 0 0 0 0 0h380.175c24.328 0 44.049-19.722 44.049-44.049s-19.722-44.049-44.049-44.049v0zM822.607 343.838c6.654 0.759 14.365 1.191 22.178 1.191 51.157 0 97.981-18.555 134.108-49.302l-0.293 0.243c30.508-35.828 49.066-82.649 49.066-133.803 0-7.838-0.436-15.574-1.284-23.185l0.085 0.936c0.764-6.675 1.199-14.411 1.199-22.249 0-51.155-18.558-97.975-49.309-134.096l0.243 0.292c-35.834-30.504-82.658-49.058-133.815-49.058-7.813 0-15.524 0.433-23.112 1.276l0.934-0.084c-6.669-0.762-14.399-1.197-22.23-1.197-51.16 0-97.986 18.557-134.115 49.307l0.293-0.243c-30.508 35.828-49.066 82.649-49.066 133.803 0 7.838 0.436 15.574 1.284 23.185l-0.085-0.936c-0.764 6.675-1.199 14.411-1.199 22.249 0 51.155 18.558 97.975 49.309 134.096l-0.243-0.292c35.835 30.507 82.662 49.064 133.822 49.064 7.831 0 15.561-0.435 23.166-1.282l-0.936 0.085zM822.607 24.099c5.283-0.721 11.389-1.132 17.591-1.132 28.48 0 54.933 8.674 76.864 23.524l-0.483-0.308c14.542 21.447 23.215 47.901 23.215 76.381 0 6.202-0.411 12.308-1.208 18.292l0.076-0.701c0.721 5.283 1.132 11.389 1.132 17.591 0 28.48-8.674 54.933-23.524 76.864l0.308-0.483c-21.321 14.3-47.561 22.823-75.792 22.823-6.411 0-12.719-0.44-18.896-1.29l0.716 0.081c-5.283 0.721-11.389 1.132-17.591 1.132-28.48 0-54.933-8.674-76.864-23.524l0.483 0.308c-14.542-21.447-23.215-47.901-23.215-76.381 0-6.202 0.411-12.308 1.208-18.292l-0.076 0.701c-0.721-5.283-1.132-11.389-1.132-17.591 0-28.48 8.674-54.933 23.524-76.864l-0.308 0.483c21.321-14.3 47.561-22.823 75.792-22.823 6.411 0 12.719 0.44 18.896 1.29l-0.716-0.081zM982.476 711.797h-380.116c0 0 0 0 0 0-24.328 0-44.049 19.722-44.049 44.049 0 0.062 0 0.124 0 0.186v-0.009c0.1 24.252 19.783 43.873 44.049 43.873 0 0 0 0 0 0h380.116c24.328 0 44.049-19.722 44.049-44.049s-19.722-44.049-44.049-44.049v0zM203.978 960c6.659 0.76 14.378 1.194 22.197 1.194 51.152 0 97.969-18.556 134.089-49.304l-0.293 0.243c30.508-35.828 49.066-82.649 49.066-133.803 0-7.838-0.436-15.574-1.284-23.185l0.085 0.936c0.764-6.675 1.199-14.411 1.199-22.249 0-51.155-18.558-97.975-49.309-134.096l0.243 0.292c-35.834-30.504-82.658-49.058-133.815-49.058-7.813 0-15.524 0.433-23.112 1.276l0.934-0.084c-6.679-0.764-14.421-1.2-22.264-1.2-51.169 0-98.004 18.558-134.14 49.31l0.293-0.243c-30.508 35.828-49.066 82.649-49.066 133.803 0 7.838 0.436 15.574 1.284 23.185l-0.085-0.936c-0.764 6.675-1.199 14.411-1.199 22.249 0 51.155 18.558 97.975 49.309 134.096l-0.243-0.292c35.844 30.509 82.678 49.067 133.847 49.067 7.843 0 15.584-0.436 23.2-1.285l-0.937 0.085zM203.978 640.261c5.283-0.721 11.389-1.132 17.591-1.132 28.48 0 54.933 8.674 76.864 23.524l-0.483-0.308c14.542 21.447 23.215 47.901 23.215 76.381 0 6.202-0.411 12.308-1.208 18.292l0.076-0.701c0.722 5.288 1.134 11.398 1.134 17.606 0 28.475-8.675 54.924-23.526 76.849l0.308-0.482c-21.315 14.301-47.551 22.825-75.777 22.825-6.416 0-12.729-0.44-18.911-1.293l0.716 0.081c-5.279 0.719-11.38 1.13-17.577 1.13-28.484 0-54.943-8.673-76.879-23.522l0.484 0.309c-14.543-21.442-23.218-47.891-23.218-76.366 0-6.207 0.412-12.318 1.211-18.307l-0.076 0.701c-0.721-5.283-1.132-11.389-1.132-17.591 0-28.48 8.674-54.933 23.524-76.864l-0.308 0.483c21.331-14.297 47.58-22.818 75.82-22.818 6.401 0 12.7 0.438 18.868 1.285l-0.716-0.080z" />
<glyph unicode="&#xe93a;" glyph-name="Ticket" horiz-adv-x="1135" d="M642.574 724.48c-22.927 0-41.514 18.586-41.514 41.514v0 146.958c0 22.927 18.586 41.514 41.514 41.514s41.514-18.586 41.514-41.514v0-146.958c0-22.927-18.586-41.514-41.514-41.514v0zM642.574-23.261c-22.927 0-41.514 18.586-41.514 41.514v0 122.88c0 22.927 18.586 41.514 41.514 41.514s41.514-18.586 41.514-41.514v0-122.88c0-22.927-18.586-41.514-41.514-41.514v0zM642.574 265.673c-22.927 0-41.514 18.586-41.514 41.514v0 292.753c0 22.927 18.586 41.514 41.514 41.514s41.514-18.586 41.514-41.514v0-292.753c0-22.927-18.586-41.514-41.514-41.514v0zM567.351-64c-275.152 0-411.759 25.185-487.092 89.835-80.259 68.802-80.259 169.43-80.259 308.694 0 22.927 18.586 41.514 41.514 41.514v0c1.034-0.057 2.244-0.090 3.462-0.090 36.959 0 66.92 29.961 66.92 66.92 0 1.804-0.071 3.592-0.212 5.36l0.015-0.233c0.125 1.535 0.197 3.322 0.197 5.127 0 36.959-29.961 66.92-66.92 66.92-1.218 0-2.428-0.033-3.63-0.097l0.168 0.007c-22.927 0-41.514 18.586-41.514 41.514v0c0 139.319 0 239.948 80.259 308.694 75.333 64.927 211.94 89.835 487.092 89.835s411.759-24.908 487.092-89.835c80.204-68.802 80.204-169.375 80.204-308.639 0-0.016 0-0.036 0-0.055 0-22.908-18.555-41.482-41.455-41.513h-0.003c-1.034 0.057-2.244 0.090-3.462 0.090-36.959 0-66.92-29.961-66.92-66.92 0-1.804 0.071-3.592 0.212-5.36l-0.015 0.233c-0.125-1.535-0.197-3.322-0.197-5.127 0-36.959 29.961-66.92 66.92-66.92 1.218 0 2.428 0.033 3.63 0.097l-0.168-0.007c22.927 0 41.514-18.586 41.514-41.514v0c0-139.264 0-239.893-80.204-308.694-75.389-64.65-211.996-89.835-487.147-89.835zM83.138 297.887c0.72-112.031 6.698-170.925 51.145-209.007 57.067-48.931 186.589-69.853 433.069-69.853s376.002 20.867 433.069 69.853c44.281 38.137 50.425 96.976 51.145 209.007-64.795 17.56-111.673 75.838-111.673 145.065 0 1.775 0.031 3.543 0.092 5.303l-0.007-0.255c-0.054 1.505-0.085 3.273-0.085 5.048 0 69.227 46.878 127.505 110.622 144.822l1.051 0.243c-0.72 112.031-6.698 170.87-51.145 209.007-57.067 48.986-186.589 69.853-433.069 69.853s-376.002-20.867-433.069-69.853c-44.447-38.082-50.425-96.92-51.145-208.951 64.796-17.559 111.675-75.838 111.675-145.066 0-1.794-0.031-3.581-0.094-5.361l0.007 0.258c0.054-1.505 0.085-3.273 0.085-5.048 0-69.227-46.878-127.505-110.622-144.822l-1.051-0.243z" />
<glyph unicode="&#xe93b;" glyph-name="Ticket-Star" horiz-adv-x="1120" d="M560.211-63.834c-271.606 0-406.388 25.223-480.899 90.020-79.313 68.605-79.313 169.388-79.313 308.309 0 22.862 18.533 41.395 41.395 41.395v0c0.838-0.038 1.82-0.060 2.808-0.060 36.579 0 66.232 29.653 66.232 66.232 0 2.1-0.098 4.178-0.289 6.228l0.020-0.263c0.171 1.788 0.269 3.865 0.269 5.965 0 36.579-29.653 66.232-66.232 66.232-0.988 0-1.97-0.022-2.947-0.064l0.139 0.005c-22.862 0-41.395 18.533-41.395 41.395v0c0 139.142 0 239.649 79.037 308.42 74.511 64.797 209.293 90.020 481.175 90.020s406.388-25.223 480.899-90.020c78.761-68.716 78.761-169.278 78.761-308.42 0-22.862-18.533-41.395-41.395-41.395v0c-0.838 0.038-1.82 0.060-2.808 0.060-36.579 0-66.232-29.653-66.232-66.232 0-2.1 0.098-4.178 0.289-6.228l-0.020 0.263c-0.171-1.788-0.269-3.865-0.269-5.965 0-36.579 29.653-66.232 66.232-66.232 0.988 0 1.97 0.022 2.947 0.064l-0.139-0.005c22.862 0 41.395-18.533 41.395-41.395v0c0-139.142 0-239.704-79.037-308.475-74.511-64.742-209.293-89.855-480.623-89.855zM82.9 298.068c0.773-109.669 6.789-171.541 50.502-209.734 56.132-48.68 183.959-69.378 426.809-69.378s370.402 20.863 426.533 69.709c43.713 38.028 49.674 99.9 50.502 209.734-64.012 18.005-110.155 75.862-110.155 144.497 0 1.921 0.036 3.834 0.108 5.738l-0.008-0.274c-0.063 1.629-0.1 3.542-0.1 5.464 0 68.635 46.143 126.492 109.099 144.242l1.056 0.254c-0.773 109.669-6.789 171.541-50.502 209.734-56.407 48.294-184.014 69.157-426.533 69.157s-370.402-20.863-426.533-69.709c-43.713-38.028-49.674-99.9-50.502-209.734 63.869-18.1 109.874-75.887 109.874-144.419 0-1.871-0.034-3.734-0.102-5.588l0.008 0.268c0.063-1.629 0.1-3.542 0.1-5.464 0-68.635-46.143-126.492-109.099-144.242l-1.056-0.254zM559.935 642.087c50.943 0 70.758-46.583 81.796-71.641 3.149-7.697 6.129-13.904 9.409-19.925l-0.523 1.049c6.051-0.83 13.25-1.406 20.545-1.595l0.263-0.005c16.248-0.097 31.938-2.307 46.866-6.367l-1.276 0.296c23.894-6.481 42.304-25.001 48.518-48.48l0.107-0.476c0.783-4.384 1.231-9.431 1.231-14.582 0-33.23-18.634-62.108-46.023-76.755l-0.467-0.228c-5.702-4.092-10.706-8.22-15.42-12.655l0.076 0.071c1.226-7.83 2.859-14.679 4.967-21.317l-0.276 1.006c5.085-10.669 8.055-23.187 8.055-36.399 0-26.963-12.369-51.036-31.743-66.855l-0.155-0.123c-11.515-8.216-25.874-13.136-41.383-13.136-0.063 0-0.125 0-0.188 0h0.010c-23.894 1.781-45.538 10.143-63.489 23.258l0.348-0.242c-6.129 4.062-13.16 7.767-20.558 10.753l-0.801 0.286c-8.2-3.271-15.231-6.976-21.806-11.316l0.447 0.277c-17.602-12.875-39.247-21.238-62.733-22.991l-0.408-0.024c-0.060 0-0.13 0-0.201 0-15.475 0-29.805 4.899-41.526 13.23l0.221-0.149c-19.538 15.962-31.913 40.057-31.913 67.042 0 13.185 2.954 25.681 8.237 36.86l-0.223-0.526c1.924 5.69 3.65 12.603 4.85 19.696l0.117 0.836c-4.641 4.387-9.646 8.533-14.911 12.341l-0.433 0.298c-27.851 14.876-46.481 43.752-46.481 76.979 0 5.133 0.445 10.163 1.298 15.052l-0.075-0.52c6.315 23.973 24.725 42.51 48.146 48.9l0.479 0.111c13.693 3.703 29.417 5.837 45.637 5.85h0.008c7.541 0.197 14.721 0.773 21.785 1.713l-1.033-0.112c2.739 4.966 5.701 11.174 8.344 17.549l0.487 1.327c10.818 25.058 31.129 71.641 81.796 71.641zM667.617 467.29c-2.093-0.146-4.535-0.229-6.997-0.229-24.743 0-47.527 8.393-65.658 22.487l0.242-0.181c-12.638 13.525-22.68 29.659-29.215 47.484l-0.313 0.976c-1.601 3.643-3.643 8.5-5.519 12.86-2.097-4.415-4.195-9.217-5.519-12.86-6.822-18.775-16.827-34.889-29.496-48.489l0.078 0.084c-17.891-13.915-40.675-22.31-65.421-22.31-2.48 0-4.94 0.084-7.378 0.25l0.33-0.018c20.13-13.037 35.202-32.401 42.518-55.237l0.202-0.729c1.159-6.365 1.821-13.691 1.821-21.172 0-15.074-2.691-29.52-7.618-42.884l0.277 0.859-1.269-4.581 7.010 4.195c17.926 13.095 39.974 21.583 63.894 23.323l0.406 0.024c24.326-1.764 46.374-10.252 64.655-23.593l-0.354 0.247 7.010-4.195-1.269 4.581c-4.648 12.496-7.338 26.932-7.338 41.997 0 7.471 0.661 14.787 1.929 21.894l-0.111-0.749c7.619 23.61 22.826 42.983 42.695 55.719l0.411 0.247z" />
<glyph unicode="&#xe93c;" glyph-name="Paper" horiz-adv-x="936" d="M583.936 232.96h-276.48c-21.208 0-38.4 17.192-38.4 38.4s17.192 38.4 38.4 38.4v0h276.48c21.208 0 38.4-17.192 38.4-38.4s-17.192-38.4-38.4-38.4v0zM479.283 438.323h-171.827c-21.208 0-38.4 17.192-38.4 38.4s17.192 38.4 38.4 38.4v0h171.827c21.208 0 38.4-17.192 38.4-38.4s-17.192-38.4-38.4-38.4v0zM467.968 960c1.703 0.011 3.717 0.017 5.732 0.017 44.047 0 87.409-2.927 129.905-8.598l-4.975 0.543c8.315-1.175 15.611-4.861 21.263-10.254l-0.015 0.014 290.304-276.48c5.735-5.466 9.775-12.665 11.279-20.755l0.037-0.237c9.572-54.691 15.043-117.666 15.043-181.919 0-5.039-0.034-10.070-0.101-15.092l0.008 0.762c0-194.56-32.102-316.621-104.038-395.878-72.96-80.333-185.344-116.122-364.442-116.122s-291.123 35.84-363.981 116.122c-71.936 79.258-103.987 201.37-103.987 395.878s32.051 316.365 103.987 395.674c72.96 80.435 185.293 116.326 363.981 116.326zM576 877.414c-31.102 3.69-67.127 5.796-103.644 5.796-1.542 0-3.084-0.004-4.625-0.011l0.237 0.001c-155.238 0-249.958-28.109-307.2-91.136-58.061-64.102-83.968-170.24-83.968-344.064s25.907-280.166 84.070-344.269c57.088-62.925 151.808-90.931 307.2-90.931s250.419 28.058 307.558 90.982c58.163 64.051 84.122 170.189 84.122 344.218 0.046 3.682 0.072 8.033 0.072 12.389 0 55.756-4.251 110.519-12.448 163.983l0.754-5.978zM888.269 570.522h-151.091c-116.267 0.116-210.491 94.323-210.637 210.571v136.257c0 21.208 17.192 38.4 38.4 38.4v0c21.208 0 38.4-17.192 38.4-38.4v0-136.243c0.087-73.871 59.962-133.727 133.831-133.786h151.097c21.208 0 38.4-17.192 38.4-38.4s-17.192-38.4-38.4-38.4v0z" />
<glyph unicode="&#xe93d;" glyph-name="Chat" d="M699.94 380.702v0c-26.304 0-47.628 21.324-47.628 47.628s21.324 47.628 47.628 47.628v0 0c26.304 0 47.628-21.324 47.628-47.628s-21.324-47.628-47.628-47.628v0zM508.999 380.702v0c-26.304 0-47.628 21.324-47.628 47.628s21.324 47.628 47.628 47.628v0 0c26.304 0 47.628-21.324 47.628-47.628s-21.324-47.628-47.628-47.628v0zM318.059 380.702v0c-26.304 0-47.628 21.324-47.628 47.628s21.324 47.628 47.628 47.628v0 0c26.304 0 47.628-21.324 47.628-47.628s-21.324-47.628-47.628-47.628v0zM512.095-64c-76.811 0.102-149.668 16.917-215.166 47.002l3.222-1.327h-1.381c-20.778-1.173-39.827-3.279-58.558-6.332l3.167 0.426c-30.582-5.036-66.634-8.461-103.284-9.499l-1.164-0.026c-3.79-0.448-8.18-0.703-12.629-0.703-27.155 0-52.088 9.517-71.645 25.397l0.21-0.165c-33.101 33.101-27.148 98.971-15.146 188.416 2.778 16.105 4.952 35.663 6.037 55.511l0.059 1.357c-29.037 62.277-45.978 135.203-45.978 212.087 0 282.849 229.294 512.143 512.143 512.143s512.143-229.294 512.143-512.143c0-282.809-229.23-512.079-512.024-512.143h-0.006zM298.77 53.117c0.723 0.027 1.573 0.043 2.426 0.043 8.463 0 16.568-1.535 24.051-4.342l-0.472 0.155 1.667-0.714c54.492-25.696 118.354-40.731 185.719-40.817h0.029c243.278 0.117 440.448 197.359 440.448 440.653 0 121.656-49.3 231.797-129.011 311.535l0.001-0.001c-79.737 79.67-189.858 128.942-311.487 128.942s-231.749-49.272-311.489-128.945l0.003 0.003c-79.613-80.064-128.825-190.432-128.825-312.294 0-67.135 14.936-130.781 41.666-187.798l-1.143 2.713 0.714-1.667c2.624-12.131 4.127-26.066 4.127-40.353 0-17.959-2.375-35.363-6.828-51.916l0.319 1.395c-3.62-26.91-7.716-57.392-8.716-83.587-0.462-3.86-0.726-8.33-0.726-12.862 0-11.3 1.64-22.217 4.694-32.526l-0.206 0.809c8.149-2.636 17.524-4.156 27.254-4.156 2.141 0 4.265 0.074 6.369 0.218l-0.284-0.016c34.556 1.135 67.316 4.332 99.418 9.497l-4.448-0.59c18.595 3.186 40.881 5.554 63.517 6.577l1.209 0.043z" />
</font>
</defs>
</svg>
