<svg xmlns="http://www.w3.org/2000/svg" width="93.608" height="105.338" viewBox="0 0 93.608 105.338">
  <g id="Empty_File_V5-3" data-name="Empty File V5-3" transform="translate(-82.2 -29.85)">
    <g id="Group_55118" data-name="Group 55118" transform="translate(82.862 35.028)">
      <g id="Group_55115" data-name="Group 55115" transform="translate(4.151 0)">
        <g id="Group_55112" data-name="Group 55112" transform="translate(9.885 4.359)">
          <path id="Path_77920" data-name="Path 77920" d="M273.886,192.964a2.089,2.089,0,0,1-2.028,2.168l-2.487.069-52.744,1.452a2.087,2.087,0,0,1-2.144-2.056l-.913-64.79-.161-11.494a2.086,2.086,0,0,1,2.021-2.115l14.551-.453,24.615-.763a2.087,2.087,0,0,1,1.314.416l14.617,10.932a2.088,2.088,0,0,1,.836,1.591l2.474,63.732.052,1.311Z" transform="translate(-213.408 -114.982)" fill="none"/>
        </g>
        <path id="Path_77921" data-name="Path 77921" d="M214.794,195.091a2.311,2.311,0,0,1-2.311-2.277l-.913-64.79-.161-11.494a2.323,2.323,0,0,1,2.238-2.342l14.551-.453,24.615-.763a2.318,2.318,0,0,1,1.455.46l14.616,10.932a2.3,2.3,0,0,1,.925,1.761l2.525,65.042a2.312,2.312,0,0,1-2.245,2.4l-2.487.069-52.744,1.452h-.064Zm38.084-81.671h-.052l-24.614.763-14.551.453a1.872,1.872,0,0,0-1.8,1.888l.161,11.494.913,64.79a1.863,1.863,0,0,0,1.914,1.835l52.744-1.452,2.487-.069a1.866,1.866,0,0,0,1.81-1.936l-2.525-65.042a1.856,1.856,0,0,0-.746-1.419L254,113.791a1.872,1.872,0,0,0-1.121-.372Z" transform="translate(-201.747 -108.838)" fill="#b1bec6"/>
        <g id="Group_55114" data-name="Group 55114" transform="translate(0.223 19.183)" opacity="0.5">
          <path id="Path_77923" data-name="Path 77923" d="M192.783,312.7a1.945,1.945,0,0,1-1.575,1.51l-50.79,8.64a1.944,1.944,0,0,1-2.249-1.617l-10.987-70.284a1.943,1.943,0,0,1,1.588-2.217l8.211-1.427.913,64.79a2.087,2.087,0,0,0,2.144,2.056Z" transform="translate(-127.158 -247.31)" fill="#adaaaa"/>
        </g>
        <path id="Path_77924" data-name="Path 77924" d="M402.92,157.36l-.009-.248L400.438,93.38a1.856,1.856,0,0,0-.746-1.419L385.075,81.029a1.886,1.886,0,0,0-1.174-.372l-24.881.771.491-3.485a2.178,2.178,0,0,1,2.413-1.852l36.263,4.473a2.172,2.172,0,0,1,1.284.636l11.906,12.16a2.157,2.157,0,0,1,.6,1.768l-6.962,60.295a2.17,2.17,0,0,1-1.856,1.9l-.245.035ZM383.952,80.209a2.321,2.321,0,0,1,1.391.462L399.959,91.6a2.3,2.3,0,0,1,.925,1.761l2.463,63.466a1.721,1.721,0,0,0,1.228-1.456l6.963-60.295a1.712,1.712,0,0,0-.481-1.4L399.153,81.515a1.724,1.724,0,0,0-1.018-.505l-36.263-4.473a1.727,1.727,0,0,0-1.915,1.47l-.417,2.959,24.35-.755h.065Z" transform="translate(-332.823 -76.074)" fill="#b1bec6"/>
        <path id="Path_77925" data-name="Path 77925" d="M138.318,321a2.17,2.17,0,0,1-2.137-1.835l-10.987-70.283a2.177,2.177,0,0,1,1.772-2.472l8.469-1.472.916,65.054a1.863,1.863,0,0,0,1.914,1.835l53.029-1.46-.059.279a2.157,2.157,0,0,1-1.757,1.684l-50.79,8.64a2.175,2.175,0,0,1-.371.031Zm-3.325-75.53-7.953,1.382a1.728,1.728,0,0,0-1.406,1.962L136.622,319.1a1.721,1.721,0,0,0,1.991,1.431l50.79-8.64a1.712,1.712,0,0,0,1.31-1.056l-52.435,1.444A2.313,2.313,0,0,1,135.9,310l-.909-64.528Z" transform="translate(-125.167 -226.023)" fill="#b1bec6"/>
      </g>
      <g id="Group_55116" data-name="Group 55116" transform="translate(33.028 20.003)">
        <path id="Path_77926" data-name="Path 77926" d="M390.587,278.993q-3.752,0-3.752-.9v-1.8q0-2.137,3.562-5.461a18.311,18.311,0,0,0,2.445-2.8,5.069,5.069,0,0,0,1.116-2.85q0-2.374-2.731-2.375a9.958,9.958,0,0,0-5.486,1.8,9.9,9.9,0,0,1-2.517-4.084,3.9,3.9,0,0,1-.285-1.353,2.65,2.65,0,0,1,.237-1.116q.38-1.235,3.538-2.327a20.268,20.268,0,0,1,6.672-1.092q5.318,0,7.978,2.28a8.226,8.226,0,0,1,1.781,9.76,12.456,12.456,0,0,1-2.137,3.039q-1.259,1.307-2.494,2.445-2.993,2.85-2.992,4.322V277.9q0,.57-1.758.831a21.746,21.746,0,0,1-3.182.261Z" transform="translate(-382.94 -254.63)" fill="#d8d8d8"/>
        <path id="Path_77927" data-name="Path 77927" d="M430.627,495.5q0,.286-3.919.285t-3.919-.237V488.09q0-.38,3.919-.38t3.919.237Z" transform="translate(-418.326 -461.599)" fill="#d8d8d8"/>
      </g>
      <g id="Group_55117" data-name="Group 55117" transform="translate(32.804 19.776)">
        <path id="Path_77928" data-name="Path 77928" d="M388.811,277.423c-2.75,0-3.976-.347-3.976-1.127v-1.8c0-1.5,1.189-3.343,3.633-5.626a18.155,18.155,0,0,0,2.416-2.768,4.883,4.883,0,0,0,1.074-2.72c0-1.447-.82-2.151-2.507-2.151a9.992,9.992,0,0,0-5.363,1.768l-.152.1-.129-.129a10.183,10.183,0,0,1-2.571-4.17,4.138,4.138,0,0,1-.3-1.426,2.908,2.908,0,0,1,.252-1.2c.286-.9,1.489-1.7,3.674-2.459a20.6,20.6,0,0,1,6.746-1.1c3.584,0,6.317.785,8.124,2.333a8.448,8.448,0,0,1,1.835,10.031,12.78,12.78,0,0,1-2.176,3.094c-.833.865-1.676,1.692-2.5,2.454-1.937,1.845-2.919,3.244-2.919,4.157V276.1c0,.684-1.112.929-1.948,1.053a22.141,22.141,0,0,1-3.215.263Zm.641-16.642c2.442,0,2.955,1.413,2.955,2.6a5.313,5.313,0,0,1-1.157,2.98,18.651,18.651,0,0,1-2.476,2.836c-2.316,2.162-3.491,3.944-3.491,5.3v1.8c0,.159.254.679,3.528.679a21.723,21.723,0,0,0,3.149-.259c1.491-.221,1.566-.547,1.566-.609v-1.425c0-1.055,1-2.522,3.062-4.484.823-.761,1.659-1.581,2.487-2.439a12.294,12.294,0,0,0,2.1-2.985,8,8,0,0,0-1.726-9.488c-1.723-1.476-4.359-2.226-7.833-2.226a20.135,20.135,0,0,0-6.6,1.08c-2.024.7-3.168,1.435-3.4,2.181l-.01.027a2.447,2.447,0,0,0-.217,1.023,3.722,3.722,0,0,0,.271,1.275l0,.012A9.665,9.665,0,0,0,384,262.523a10.132,10.132,0,0,1,5.453-1.742Z" transform="translate(-380.94 -252.61)" fill="#b1bec6"/>
        <path id="Path_77929" data-name="Path 77929" d="M424.942,494.232c-1.3,0-2.3-.02-2.952-.059-.878-.054-1.19-.122-1.19-.4v-7.456c0-.329.434-.436,1.182-.507.658-.064,1.654-.1,2.96-.1s2.3.02,2.952.059c.878.054,1.19.122,1.19.4v7.552c0,.3-.366.378-1.187.437-.655.048-1.649.072-2.955.072Zm-3.695-.588a23.448,23.448,0,0,0,3.695.14,19.554,19.554,0,0,0,3.695-.169V486.3a23.447,23.447,0,0,0-3.695-.14,13.425,13.425,0,0,0-3.695.232v7.254Z" transform="translate(-416.335 -459.597)" fill="#b1bec6"/>
      </g>
      <path id="Path_77930" data-name="Path 77930" d="M152.123,466.972h-1.7a4.466,4.466,0,0,1-.681-.053.225.225,0,0,1,.069-.444,3.969,3.969,0,0,0,.612.047h1.7a.224.224,0,0,1,0,.448Zm-4.446-1.044a.224.224,0,0,1-.149-.057,4.335,4.335,0,0,1-1.3-2.074.224.224,0,0,1,.431-.12,3.9,3.9,0,0,0,1.164,1.861.224.224,0,0,1-.149.391Zm-1.382-4.305a.225.225,0,0,1-.224-.224v-2.353a.224.224,0,1,1,.448,0V461.4A.225.225,0,0,1,146.294,461.622Zm0-4.705a.225.225,0,0,1-.224-.224v-2.353a.224.224,0,1,1,.448,0v2.353A.225.225,0,0,1,146.294,456.917Zm0-4.705a.225.225,0,0,1-.224-.224v-2.353a.224.224,0,1,1,.448,0v2.353A.225.225,0,0,1,146.294,452.212Zm0-4.705a.225.225,0,0,1-.224-.224v-2.353a.224.224,0,1,1,.448,0v2.353A.225.225,0,0,1,146.294,447.507Zm0-4.705a.225.225,0,0,1-.224-.224v-2.353a.224.224,0,1,1,.448,0v2.353A.225.225,0,0,1,146.294,442.8Zm0-4.7a.225.225,0,0,1-.224-.224v-2.353a.224.224,0,0,1,.448,0v2.353A.225.225,0,0,1,146.294,438.1Zm0-4.705a.225.225,0,0,1-.224-.224v-2.352a.224.224,0,1,1,.448,0v2.352A.225.225,0,0,1,146.294,433.392Zm0-4.705a.225.225,0,0,1-.224-.224v-2.353a.224.224,0,0,1,.448,0v2.353A.225.225,0,0,1,146.294,428.687Zm0-4.705a.225.225,0,0,1-.224-.224v-2.353a.224.224,0,0,1,.448,0v2.353A.225.225,0,0,1,146.294,423.982Zm0-4.705a.225.225,0,0,1-.224-.224V417.4a.224.224,0,1,1,.448,0v1.649A.225.225,0,0,1,146.294,419.277Z" transform="translate(-139.577 -378.968)" fill="#b1bec6"/>
      <path id="Path_77931" data-name="Path 77931" d="M576.49,176.435h-1.457a.224.224,0,0,1,0-.448h1.457a3.907,3.907,0,0,0,.84-.091.224.224,0,1,1,.1.437,4.365,4.365,0,0,1-.936.1Zm-3.81,0h-2.352a.224.224,0,1,1,0-.448h2.352a.224.224,0,1,1,0,.448Zm-4.705,0h-2.352a.224.224,0,1,1,0-.448h2.352a.224.224,0,0,1,0,.448Zm-4.705,0h-2.353a.224.224,0,1,1,0-.448h2.353a.224.224,0,0,1,0,.448Zm-4.705,0h-1.683a.224.224,0,0,1,0-.448h1.683a.224.224,0,0,1,0,.448Zm20.847-1.213a.222.222,0,0,1-.158-.065.225.225,0,0,1,0-.317,3.888,3.888,0,0,0,1.051-1.927.224.224,0,1,1,.438.1,4.329,4.329,0,0,1-1.171,2.147.224.224,0,0,1-.159.066Zm1.2-4.382a.225.225,0,0,1-.224-.224v-2.353a.224.224,0,1,1,.448,0v2.353A.225.225,0,0,1,580.615,170.839Zm0-4.7a.225.225,0,0,1-.224-.224v-2.353a.224.224,0,1,1,.448,0v2.353A.225.225,0,0,1,580.615,166.134Zm0-4.705a.225.225,0,0,1-.224-.224v-2.353a.224.224,0,1,1,.448,0v2.353A.225.225,0,0,1,580.615,161.429Zm0-4.705a.225.225,0,0,1-.224-.224v-2.353a.224.224,0,1,1,.448,0V156.5A.225.225,0,0,1,580.615,156.724Zm0-4.705a.225.225,0,0,1-.224-.224v-2.353a.224.224,0,1,1,.448,0v2.353A.225.225,0,0,1,580.615,152.019Zm0-4.705a.225.225,0,0,1-.224-.224v-2.353a.224.224,0,1,1,.448,0v2.353A.225.225,0,0,1,580.615,147.314Zm0-4.705a.225.225,0,0,1-.224-.224v-2.353a.224.224,0,1,1,.448,0v2.353A.225.225,0,0,1,580.615,142.609Zm0-4.705a.225.225,0,0,1-.224-.224v-2.353a.224.224,0,0,1,.448,0v2.353A.225.225,0,0,1,580.615,137.9Zm0-4.705a.225.225,0,0,1-.224-.224v-2.353a.224.224,0,1,1,.448,0v2.353A.225.225,0,0,1,580.615,133.2Zm0-4.705a.225.225,0,0,1-.224-.224v-2.353a.224.224,0,1,1,.448,0v2.353A.225.225,0,0,1,580.615,128.494Zm0-4.705a.225.225,0,0,1-.224-.224v-2.353a.224.224,0,1,1,.448,0v2.353A.225.225,0,0,1,580.615,123.789Zm0-4.705a.225.225,0,0,1-.224-.224v-2.353a.224.224,0,1,1,.448,0v2.353A.225.225,0,0,1,580.615,119.084Zm0-4.705a.225.225,0,0,1-.224-.224V111.8a.224.224,0,1,1,.448,0v2.353A.225.225,0,0,1,580.615,114.379Zm0-4.705a.225.225,0,0,1-.224-.224V107.1a.224.224,0,1,1,.448,0v2.353A.225.225,0,0,1,580.615,109.674Zm0-4.705a.225.225,0,0,1-.224-.224v-2.353a.224.224,0,1,1,.448,0v2.353A.225.225,0,0,1,580.615,104.969Zm0-4.705a.225.225,0,0,1-.224-.224V97.687a.224.224,0,1,1,.448,0v2.353A.225.225,0,0,1,580.615,100.264Zm0-4.705a.225.225,0,0,1-.224-.224V94.34a3.865,3.865,0,0,0-.208-1.26.224.224,0,0,1,.425-.145,4.331,4.331,0,0,1,.232,1.406v.995a.225.225,0,0,1-.224.224Zm-1.558-4.224a.221.221,0,0,1-.14-.049,3.886,3.886,0,0,0-2.031-.828.224.224,0,0,1,.045-.446,4.332,4.332,0,0,1,2.265.923.224.224,0,0,1,.036.315.222.222,0,0,1-.176.084Zm-4.5-.9H572.2a.224.224,0,1,1,0-.448h2.352a.224.224,0,0,1,0,.448Zm-4.705,0H567.5a.224.224,0,1,1,0-.448h2.352a.224.224,0,0,1,0,.448Zm-4.705,0h-2.353a.224.224,0,0,1,0-.448h2.353a.224.224,0,1,1,0,.448Zm-4.705,0h-2.352a.224.224,0,1,1,0-.448h2.352a.224.224,0,1,1,0,.448Zm-4.705,0h-2.352a.224.224,0,0,1,0-.448h2.352a.224.224,0,1,1,0,.448Zm-4.7,0h-2.353a.224.224,0,1,1,0-.448h2.353a.224.224,0,0,1,0,.448Zm-4.705,0h-2.353a.224.224,0,1,1,0-.448h2.353a.224.224,0,0,1,0,.448Z" transform="translate(-492.707 -88.431)" fill="#b1bec6"/>
      <path id="Path_77932" data-name="Path 77932" d="M146.294,109.129a.225.225,0,0,1-.224-.224v-2.353a.224.224,0,0,1,.448,0v2.353A.225.225,0,0,1,146.294,109.129Zm0-4.705a.225.225,0,0,1-.224-.224v-2.353a.224.224,0,0,1,.448,0V104.2A.225.225,0,0,1,146.294,104.424Zm0-4.705a.225.225,0,0,1-.224-.224V97.143a.224.224,0,0,1,.448,0V99.5A.225.225,0,0,1,146.294,99.719Zm0-4.705a.225.225,0,0,1-.224-.224v-.459a4.308,4.308,0,0,1,.449-1.927.224.224,0,1,1,.4.2,3.869,3.869,0,0,0-.4,1.727v.459a.225.225,0,0,1-.224.224Zm2-3.995a.221.221,0,0,1-.192-.109.224.224,0,0,1,.076-.308,4.343,4.343,0,0,1,2.245-.623h.115a.224.224,0,0,1,0,.448h-.115a3.889,3.889,0,0,0-2.013.559.228.228,0,0,1-.115.032Zm21.064-.59H167a.224.224,0,1,1,0-.448h2.352a.224.224,0,1,1,0,.448Zm-4.705,0H162.3a.224.224,0,1,1,0-.448h2.353a.224.224,0,1,1,0,.448Zm-4.705,0h-2.353a.224.224,0,0,1,0-.448h2.353a.224.224,0,1,1,0,.448Zm-4.705,0h-2.352a.224.224,0,1,1,0-.448h2.352a.224.224,0,1,1,0,.448Z" transform="translate(-139.577 -88.422)" fill="#b1bec6"/>
      <path id="Path_77933" data-name="Path 77933" d="M801.766,748.451a2.856,2.856,0,1,1,2.856-2.856A2.859,2.859,0,0,1,801.766,748.451Zm0-5.263a2.407,2.407,0,1,0,2.407,2.407A2.41,2.41,0,0,0,801.766,743.188Z" transform="translate(-719.283 -668.057)" fill="#b1bec6"/>
      <path id="Path_77934" data-name="Path 77934" d="M89.649,745.819a1.54,1.54,0,1,1,1.539-1.54A1.541,1.541,0,0,1,89.649,745.819Zm0-2.631a1.092,1.092,0,1,0,1.091,1.091A1.092,1.092,0,0,0,89.649,743.188Z" transform="translate(-88.11 -668.057)" fill="#b1bec6"/>
      <path id="Path_77935" data-name="Path 77935" d="M805.455,125.69a1.425,1.425,0,1,1,1.425-1.425A1.426,1.426,0,0,1,805.455,125.69Zm0-2.4a.977.977,0,1,0,.977.977A.978.978,0,0,0,805.455,123.287Z" transform="translate(-723.83 -117.601)" fill="#b1bec6"/>
      <path id="Path_77936" data-name="Path 77936" d="M328.333,633.982a.224.224,0,0,1-.007-.448l34.322-1.086a.224.224,0,0,1,.013.448l-34.322,1.086Z" transform="translate(-301.223 -570.121)" fill="#b1bec6"/>
      <path id="Path_77937" data-name="Path 77937" d="M328.333,695.57a.224.224,0,0,1-.007-.448l34.322-1.085a.224.224,0,1,1,.013.448L328.34,695.57Z" transform="translate(-301.223 -624.809)" fill="#b1bec6"/>
    </g>
    <g id="Group_55123" data-name="Group 55123" transform="translate(82.2 29.85)">
      <g id="Group_55119" data-name="Group 55119" opacity="0.25">
        <path id="Path_77938" data-name="Path 77938" d="M92.734,50.918h4.28l-.115-8.2A2.086,2.086,0,0,1,98.92,40.6l14.551-.453.454-3.222a1.944,1.944,0,0,1,2.164-1.661l36.263,4.473a1.946,1.946,0,0,1,1.152.57l10.384,10.606h1.387a10.534,10.534,0,0,0,0-21.067H92.734a10.534,10.534,0,1,0,0,21.067Z" transform="translate(-82.2 -29.85)" fill="#b5b5b5"/>
      </g>
      <g id="Group_55120" data-name="Group 55120" transform="translate(0 42.625)" opacity="0.25">
        <path id="Path_77939" data-name="Path 77939" d="M92.734,430.927h.029L89.547,410.35a10.535,10.535,0,0,0,3.187,20.576Z" transform="translate(-82.2 -410.35)" fill="#b5b5b5"/>
      </g>
      <g id="Group_55121" data-name="Group 55121" transform="translate(79.248 42.135)" opacity="0.25">
        <path id="Path_77940" data-name="Path 77940" d="M793.446,405.97h-1.393l-2.433,21.067h3.826a10.534,10.534,0,0,0,0-21.067Z" transform="translate(-789.62 -405.97)" fill="#b5b5b5"/>
      </g>
      <g id="Group_55122" data-name="Group 55122" transform="translate(0 83.864)" opacity="0.25">
        <path id="Path_77941" data-name="Path 77941" d="M165.274,778.877h-6.258l-.027.233a1.95,1.95,0,0,1-1.665,1.705l.052,1.311a2.089,2.089,0,0,1-2.028,2.168l-2.487.069a1.945,1.945,0,0,1-1.575,1.51l-50.79,8.64a1.944,1.944,0,0,1-2.249-1.616L95.993,778.47a10.518,10.518,0,0,1-2.908.408h-.351a10.533,10.533,0,1,0,0,21.066h72.54a10.533,10.533,0,1,0,0-21.066Z" transform="translate(-82.2 -778.47)" fill="#b5b5b5"/>
      </g>
    </g>
  </g>
</svg>
