<svg xmlns="http://www.w3.org/2000/svg" width="202.247" height="48.671" viewBox="0 0 202.247 48.671">
  <g id="svgviewer-output_5_" data-name="svgviewer-output (5)" transform="translate(-2.4)">
    <path id="Path_1" data-name="Path 1" d="M471.632,68.3l-5-5-5.13,5.13a15.14,15.14,0,0,1-6.2,10.617l11.364,11.364L480.2,76.872l-6.266-6.266-2.273,1.234V68.3Z" transform="translate(-305.85 -42.747)" fill="#ed3c8a"/>
    <path id="Path_2" data-name="Path 2" d="M538.5,45.765V60.344h27.144V33.2H547.461l7.046,3.831Z" transform="translate(-362.036 -22.42)" fill="#ffc200"/>
    <path id="Path_3" data-name="Path 3" d="M506.9,3.6V30.484l24.611-13.442Z" transform="translate(-340.696 -2.431)" fill="#faff1e"/>
    <path id="Path_4" data-name="Path 4" d="M400.891,31.5a14.091,14.091,0,1,0,14.091,14.091A14.12,14.12,0,0,0,400.891,31.5Z" transform="translate(-259.591 -21.272)" fill="#79aafa"/>
    <path id="Path_5" data-name="Path 5" d="M442.053,9.741,424.195,0V24.351l-4.87-4.87-4.9,4.9v-.065A14.611,14.611,0,1,0,399.811,38.93a14.391,14.391,0,0,0,7.6-2.143l11.884,11.884L433.9,34.06,427.344,27.5l6.591-3.6V38.962h29.222V9.741Zm-42.242,28.15a13.572,13.572,0,1,1,13.572-13.572A13.587,13.587,0,0,1,399.811,37.891Zm32.663-3.8-13.15,13.15L408.318,36.235a14.53,14.53,0,0,0,6.039-10.293l4.968-4.968,4.87,4.87v3.377l2.208-1.2Zm-7.24-6.624V1.721l23.572,12.89Zm36.884,10.455H434.974V23.345l16.007-8.734-7.046-3.831h18.182Z" transform="translate(-258.51)"/>
    <g id="Group_1" data-name="Group 1" transform="translate(2.4 11.299)">
      <path id="Path_6" data-name="Path 6" d="M4.544,48.242c1.883,0,2.987-.844,3.247-2.533h36.17V38.177c-1.364-.032-2.046-.032-3.117-.032-2.922,0-3.864,1.558-3.864,3.312v.195a3.356,3.356,0,0,0,.455,1.883v.1H27.792v-1.4c0-2.695-1.169-4.091-3.994-4.091h-.357a6.393,6.393,0,0,0-2.6.519V34.8H18.7v8.8H7.856v-5H5.681v6.266c0,1.007-.422,1.494-1.429,1.494H3.7v1.883h.844ZM56.137,43.6c-1.753,0-2.89-.487-2.89-2.662V39.768H51.3c-.065.649-.1,1.3-.1,1.591,0,3.214,1.721,4.351,4.578,4.351h6.331a11.714,11.714,0,0,0,3.117-.39,10.345,10.345,0,0,0,2.987.39H82.079V42.2c0-2.695-1.169-4.091-3.961-4.091a5.278,5.278,0,0,0-2.89.844l.844,1.591a4.35,4.35,0,0,1,1.981-.455c1.331,0,1.948.584,1.948,1.981v1.558H67.728v-.065A2.808,2.808,0,0,0,68.8,41.261v-.227c0-2.143-1.753-3.085-3.572-3.085-1.721,0-3.572.844-3.572,3.085v.227a2.667,2.667,0,0,0,1.007,2.305v.065H56.137Zm55.164-5c-2.922,0-3.994,1.4-3.994,4.091v.1c0,.292.032.584.032.844h-8.9v-5h-2.11v5H87.079V34.8H84.937V45.709h23.248a4.34,4.34,0,0,0,2.565.714h.357a3.183,3.183,0,0,0,3.409-3.507V38.631c-1.364-.032-2.143-.032-3.214-.032Zm-87.8,1.494c1.331,0,2.175.584,2.175,2.046v1.494h-4.87V40.644a4.546,4.546,0,0,1,2.24-.519h.455Zm87.276,4.318c-.877,0-1.364-.52-1.364-1.688V42.43c0-1.4.487-1.883,1.916-1.883h1.071v2.175c0,1.169-.422,1.688-1.4,1.688h-.227Zm-70.2-.812c-1.039,0-1.591-.487-1.591-1.851v-.162c0-1.169.617-1.623,1.818-1.623h1.1v3.669H40.584ZM63.6,41.1c0-1.007.617-1.461,1.591-1.461A1.389,1.389,0,0,1,66.754,41.1v.227A1.653,1.653,0,0,1,65.2,43.242,1.711,1.711,0,0,1,63.6,41.326Zm.649-4.156H66.4V34.8H64.254Zm-26.04,0h1.981V34.8H38.214v2.143Zm56.658,0h1.981V34.8H94.872Zm-53.638,0h1.981V34.8H41.234Zm56.658,0h1.981V34.8H97.892Z" transform="translate(-3.278 -34.8)"/>
      <path id="Path_7" data-name="Path 7" d="M2.4,89c0,2.435,1.3,3.734,3.636,3.734a3.927,3.927,0,0,0,1.883-.422l1.039.909,1.558-1.3L9.446,90.915a4.492,4.492,0,0,0,.617-2.468V86.434c0-2.435-1.4-3.734-3.831-3.734A3.551,3.551,0,0,0,2.4,86.434V89Zm50,3.572V87.375h.1l1.526,3.085h1.4l1.526-3.117h.065V92.57H59.09V82.862H57.207l-2.435,4.9-2.533-4.9H50.356V92.57H52.4Zm46.105,0V87.375h.065l1.558,3.085h1.4l1.526-3.117h.1V92.57h2.078V82.862h-1.883l-2.435,4.9-2.533-4.9H96.494V92.57h2.013ZM43.57,92.6,41.59,88.642a2.831,2.831,0,0,0,1.753-2.792,2.977,2.977,0,0,0-3.279-2.955H36.232V92.6h2.175V88.934h1.169L41.265,92.6Zm25.163-9.741H66.558v5.909c0,1.4-.52,1.948-1.591,1.948-1.039,0-1.591-.552-1.591-1.948V82.862h-2.24v6.1c0,2.435,1.364,3.734,3.831,3.734a3.5,3.5,0,0,0,3.766-3.734v-6.1Zm25.683,0H92.241v5.909c0,1.4-.552,1.948-1.591,1.948s-1.591-.552-1.591-1.948V82.862H86.851v6.1c0,2.435,1.364,3.734,3.831,3.734a3.5,3.5,0,0,0,3.766-3.734v-6.1ZM28.245,92.6l.584-1.721h2.987l.552,1.721h2.4L31.33,82.895H29.511L25.972,92.6Zm-14.838,0,.584-1.721h2.987L17.53,92.6h2.4l-3.442-9.708H14.673L11.134,92.6h2.273Zm71.106-5.877H81.072V84.713H85.13V82.862h-6.3V92.57H85.39V90.72H81.072v-2.11h3.442ZM69.9,91.531a5.305,5.305,0,0,0,3.7,1.2c1.981,0,3.636-1.039,3.636-3.052,0-1.526-.649-2.565-2.662-2.922L73.539,86.6c-.649-.1-.974-.39-.974-.942s.422-.974,1.266-.974a3.18,3.18,0,0,1,2.046.649l1.2-1.591a4.769,4.769,0,0,0-3.214-1.007c-2.143,0-3.474,1.2-3.474,2.955,0,1.656.812,2.565,2.63,2.89l1.136.227c.617.1.909.39.909.909,0,.617-.552,1.007-1.494,1.007a3.449,3.449,0,0,1-2.4-.779Zm36.592,0a5.305,5.305,0,0,0,3.7,1.2c1.981,0,3.636-1.039,3.636-3.052,0-1.526-.649-2.565-2.662-2.922l-1.039-.162c-.649-.1-.974-.39-.974-.942s.422-.974,1.266-.974a3.18,3.18,0,0,1,2.046.649l1.2-1.591a4.825,4.825,0,0,0-3.214-1.007c-2.143,0-3.442,1.2-3.442,2.955,0,1.656.812,2.565,2.63,2.89l1.136.227c.617.1.909.39.909.909,0,.617-.552,1.007-1.494,1.007a3.449,3.449,0,0,1-2.4-.779l-1.3,1.591ZM26.784,82.895h-7.6V84.94h2.695V92.6h2.24V84.94h2.695V82.895ZM4.608,86.564c0-1.4.552-1.948,1.623-1.948,1.039,0,1.623.552,1.623,1.948V88.9c0,.26-.032.487-.032.682l-.617-.617L5.907,90.2l.714.617a1.332,1.332,0,0,1-.357.032C5.257,90.85,4.64,90.3,4.64,88.9V86.564Zm33.767.617V84.648h1.331c.909,0,1.461.39,1.461,1.234s-.552,1.3-1.461,1.3ZM15.55,86.044h.065l.909,3.052H14.511Zm14.806,0h.065L31.33,89.1H29.317Z" transform="translate(-2.4 -67.148)"/>
    </g>
  </g>
</svg>
