<svg xmlns="http://www.w3.org/2000/svg" width="19.897" height="20.407" viewBox="0 0 19.897 20.407">
  <g id="_2_User" data-name="2 User" transform="translate(0.75 0.75)">
    <path id="Stroke_1" data-name="Stroke 1" d="M6.809,7.757a16.358,16.358,0,0,1-5.02-.594C-.309,6.459-.75,5.178-.75,4.228-.75,1.53,2.712-.75,6.809-.75s7.558,2.27,7.558,4.958c0,.95-.439,2.233-2.528,2.943A16.157,16.157,0,0,1,6.809,7.757Zm0-7.007C3.341.75.75,2.586.75,4.228c0,1.346,2.039,2.029,6.059,2.029a15.008,15.008,0,0,0,4.547-.526c1.511-.514,1.511-1.247,1.511-1.523a3,3,0,0,0-1.673-2.3A8.507,8.507,0,0,0,6.809.75Z" transform="translate(0 11.9)"/>
    <path id="Stroke_3" data-name="Stroke 3" d="M4.364,9.478H4.333A5.1,5.1,0,0,1-.75,4.361,5.114,5.114,0,1,1,4.364,9.478Zm0-8.728A3.618,3.618,0,0,0,.75,4.364,3.6,3.6,0,0,0,4.336,7.978h.029a3.614,3.614,0,1,0,0-7.228Z" transform="translate(2.445 0)"/>
    <path id="Stroke_5" data-name="Stroke 5" d="M.187,7.147A.75.75,0,0,1-.007,5.672,2.54,2.54,0,0,0,1.874,3.221,2.544,2.544,0,0,0-.151.735.75.75,0,0,1-.735-.151.75.75,0,0,1,.151-.735,4.049,4.049,0,0,1,3.374,3.221a4.042,4.042,0,0,1-2.993,3.9A.751.751,0,0,1,.187,7.147Z" transform="translate(13.865 1.132)"/>
    <path id="Stroke_7" data-name="Stroke 7" d="M2.21,4.947a.75.75,0,0,1-.171-1.48,1.081,1.081,0,0,0,.9-.916C2.936,1.84,1.621.75,0,.75A.75.75,0,0,1-.75,0,.75.75,0,0,1,0-.75,5.2,5.2,0,0,1,3.028.217,3.014,3.014,0,0,1,4.436,2.551,2.557,2.557,0,0,1,2.382,4.927.752.752,0,0,1,2.21,4.947Z" transform="translate(14.711 11.104)"/>
  </g>
</svg>
