<svg xmlns="http://www.w3.org/2000/svg" width="20.64" height="20.703" viewBox="0 0 20.64 20.703">
  <g id="Activity" transform="translate(0.75 0.75)">
    <path id="Stroke_1" data-name="Stroke 1" d="M0,5.739a.747.747,0,0,1-.457-.156A.75.75,0,0,1-.594,4.532L2.4.643A.75.75,0,0,1,3.456.51l2.82,2.214L8.743-.459A.75.75,0,0,1,9.8-.593.75.75,0,0,1,9.929.459L7,4.239a.75.75,0,0,1-1.056.131L3.126,2.158.594,5.446A.749.749,0,0,1,0,5.739Z" transform="translate(4.468 7.515)"/>
    <path id="Stroke_2" data-name="Stroke 2" d="M1.922-.75A2.672,2.672,0,1,1-.75,1.922,2.675,2.675,0,0,1,1.922-.75Zm0,3.844A1.172,1.172,0,1,0,.75,1.922,1.173,1.173,0,0,0,1.922,3.094Z" transform="translate(15.296 0)"/>
    <path id="Stroke_4" data-name="Stroke 4" d="M9.25,19.25c-3.813,0-6.205-.692-7.757-2.243S-.75,13.063-.75,9.25s.692-6.205,2.243-7.757S5.437-.75,9.25-.75a21.537,21.537,0,0,1,3.091.195A.75.75,0,1,1,12.125.929,20.074,20.074,0,0,0,9.25.75C2.736.75.75,2.736.75,9.25s1.986,8.5,8.5,8.5c3.384,0,5.449-.556,6.7-1.8s1.8-3.313,1.8-6.7a19.956,19.956,0,0,0-.186-2.924.75.75,0,0,1,1.484-.22,21.418,21.418,0,0,1,.2,3.144c0,3.814-.692,6.206-2.243,7.757S13.064,19.25,9.25,19.25Z" transform="translate(0 0.703)"/>
  </g>
</svg>
