<svg xmlns="http://www.w3.org/2000/svg" width="19.827" height="21.158" viewBox="0 0 19.827 21.158">
  <g id="Add_User" data-name="Add User" transform="translate(0.75 0.75)">
    <path id="Stroke_1" data-name="Stroke 1" d="M7.072,8.048a16.957,16.957,0,0,1-5.2-.616C-.3,6.706-.75,5.389-.75,4.411c0-2.8,3.582-5.161,7.822-5.161A10.214,10.214,0,0,1,12.436.694a4.58,4.58,0,0,1,2.458,3.7c0,.978-.452,2.3-2.606,3.03A16.75,16.75,0,0,1,7.072,8.048Zm0-7.3A8.778,8.778,0,0,0,2.5,1.973,3.175,3.175,0,0,0,.75,4.411c0,1.418,2.127,2.137,6.322,2.137A15.611,15.611,0,0,0,11.8,6c1.425-.485,1.589-1.151,1.589-1.61A3.159,3.159,0,0,0,11.64,1.965,8.823,8.823,0,0,0,7.072.75Z" transform="translate(0 12.36)"/>
    <path id="Stroke_3" data-name="Stroke 3" d="M4.533,9.816H4.5A5.268,5.268,0,0,1-.75,4.53,5.283,5.283,0,1,1,4.533,9.816Zm0-9.066A3.787,3.787,0,0,0,.75,4.533,3.768,3.768,0,0,0,4.5,8.316h.029a3.783,3.783,0,0,0,0-7.566Z" transform="translate(2.539 0)"/>
    <path id="Stroke_5" data-name="Stroke 5" d="M.5,4.76a.75.75,0,0,1-.75-.75V0a.75.75,0,0,1,1.5,0V4.01A.75.75,0,0,1,.5,4.76Z" transform="translate(15.781 5.979)"/>
    <path id="Stroke_7" data-name="Stroke 7" d="M4.09,1.25H0A.75.75,0,1,1,0-.25H4.09a.75.75,0,0,1,0,1.5Z" transform="translate(14.237 7.484)"/>
  </g>
</svg>
