<svg xmlns="http://www.w3.org/2000/svg" width="8.5" height="15.5" viewBox="0 0 8.5 15.5">
  <g id="Arrow_-_Right_2" data-name="Arrow - Right 2" transform="translate(0.75 14.75) rotate(-90)">
    <path id="Stroke_1" data-name="Stroke 1" d="M7,7.75c-1.444,0-3.131-1.237-5.157-3.783A35.375,35.375,0,0,1-.645.382.75.75,0,0,1-.382-.645.75.75,0,0,1,.645-.382a34.482,34.482,0,0,0,2.38,3.427C5.331,5.938,6.573,6.25,7,6.25s1.673-.313,3.984-3.217a34.366,34.366,0,0,0,2.37-3.415.75.75,0,0,1,1.027-.263A.75.75,0,0,1,14.645.382a35.359,35.359,0,0,1-2.488,3.585C10.132,6.513,8.444,7.75,7,7.75Z"/>
  </g>
</svg>
