<svg xmlns="http://www.w3.org/2000/svg" width="20" height="20" viewBox="0 0 20 20">
  <g id="Arrow_-_Left_Square" data-name="Arrow - Left Square" transform="translate(20 0) rotate(90)">
    <path id="Stroke_1" data-name="Stroke 1" d="M.5,8.922a.75.75,0,0,1-.75-.75V0a.75.75,0,1,1,1.5,0V8.172A.75.75,0,0,1,.5,8.922Z" transform="translate(9.5 5.914)"/>
    <path id="Stroke_2" data-name="Stroke 2" d="M3.748,4.514c-.52,0-1.32-.245-2.909-2.152C.039,1.4-.6.457-.623.418A.75.75,0,0,1-.418-.623.75.75,0,0,1,.623-.418c.006.009.594.883,1.32,1.761C3.142,2.8,3.666,2.989,3.748,3.012c.083-.023.608-.217,1.815-1.677C6.289.456,6.872-.41,6.877-.418a.75.75,0,0,1,1.041-.2.75.75,0,0,1,.2,1.041C8.1.458,7.46,1.4,6.659,2.362,5.068,4.269,4.268,4.514,3.748,4.514Z" transform="translate(6.252 10.322)"/>
    <path id="Stroke_4" data-name="Stroke 4" d="M9.25-.75c3.813,0,6.205.692,7.757,2.243S19.25,5.437,19.25,9.25s-.692,6.205-2.243,7.757S13.063,19.25,9.25,19.25s-6.205-.692-7.757-2.243S-.75,13.063-.75,9.25s.692-6.205,2.243-7.757S5.437-.75,9.25-.75Zm0,18.5c6.514,0,8.5-1.986,8.5-8.5S15.764.75,9.25.75.75,2.736.75,9.25,2.736,17.75,9.25,17.75Z" transform="translate(0.75 0.75)"/>
  </g>
</svg>
