<svg xmlns="http://www.w3.org/2000/svg" width="16.5" height="13.549" viewBox="0 0 16.5 13.549">
  <g id="Arrow_-_Right" data-name="Arrow - Right" transform="translate(0 13.549) rotate(-90)">
    <path id="Stroke_1" data-name="Stroke 1" d="M.5,15.75A.75.75,0,0,1-.25,15V0a.75.75,0,0,1,1.5,0V15A.75.75,0,0,1,.5,15.75Z" transform="translate(6.274 0.75)"/>
    <path id="Stroke_3" data-name="Stroke 3" d="M6.026,6.8c-1.392,0-2.954-1.116-4.644-3.318A25.994,25.994,0,0,1-.66.356.75.75,0,0,1-.356-.66a.75.75,0,0,1,1.016.3A24.91,24.91,0,0,0,2.582,2.582C3.93,4.335,5.153,5.3,6.026,5.3S8.12,4.335,9.467,2.583A24.921,24.921,0,0,0,11.389-.356.75.75,0,0,1,12.4-.66a.75.75,0,0,1,.3,1.016,26,26,0,0,1-2.041,3.126C8.979,5.684,7.417,6.8,6.026,6.8Z" transform="translate(0.75 9.7)"/>
  </g>
</svg>
