<svg xmlns="http://www.w3.org/2000/svg" width="20" height="20" viewBox="0 0 20 20">
  <g id="Arrow_-_Left_Circle" data-name="Arrow - Left Circle" transform="translate(20 0) rotate(90)">
    <path id="Stroke_1" data-name="Stroke 1" d="M9.25-.75c3.813,0,6.205.692,7.757,2.243S19.25,5.437,19.25,9.25s-.692,6.205-2.243,7.757S13.063,19.25,9.25,19.25s-6.205-.692-7.757-2.243S-.75,13.063-.75,9.25s.692-6.205,2.243-7.757S5.437-.75,9.25-.75Zm0,18.5c6.514,0,8.5-1.986,8.5-8.5S15.764.75,9.25.75.75,2.736.75,9.25,2.736,17.75,9.25,17.75Z" transform="translate(0.75 0.75)"/>
    <path id="Stroke_3" data-name="Stroke 3" d="M3.472,4.236C3,4.236,2.256,4.008.757,2.226.009,1.336-.593.461-.618.424A.75.75,0,0,1-.424-.618.75.75,0,0,1,.618-.424c.009.013.549.8,1.213,1.6,1.046,1.259,1.522,1.51,1.641,1.556.119-.047.595-.3,1.64-1.556.665-.8,1.206-1.588,1.212-1.6A.75.75,0,0,1,7.366-.618.75.75,0,0,1,7.561.424c-.025.037-.627.912-1.374,1.8C4.688,4.007,3.949,4.236,3.472,4.236Z" transform="translate(6.529 8.558)"/>
  </g>
</svg>
