<svg xmlns="http://www.w3.org/2000/svg" width="19.538" height="20.116" viewBox="0 0 19.538 20.116">
  <g id="Bag_2" data-name="Bag 2" transform="translate(0.75 0.75)">
    <path id="Stroke_1" data-name="Stroke 1" d="M7.562,7.572a.75.75,0,0,1-.75-.75V3.79A3.031,3.031,0,1,0,.75,3.775V6.822a.75.75,0,0,1-.75.75.75.75,0,0,1-.75-.75V3.773a4.531,4.531,0,1,1,9.062.019v3.03A.75.75,0,0,1,7.562,7.572Z" transform="translate(5.238 0)"/>
    <path id="Stroke_3" data-name="Stroke 3" d="M9.019,14.867c-3.687,0-6-.525-7.508-1.7A5.308,5.308,0,0,1-.25,10.642a10.907,10.907,0,0,1-.5-3.583c0-3,.7-4.882,2.261-6.105C3.016-.225,5.332-.75,9.019-.75s6,.525,7.508,1.7c1.563,1.224,2.261,3.107,2.261,6.105a10.907,10.907,0,0,1-.5,3.583,5.308,5.308,0,0,1-1.761,2.522C15.022,14.342,12.706,14.867,9.019,14.867ZM9.019.75c-3.33,0-5.36.427-6.584,1.385C1.27,3.047.75,4.566.75,7.059s.52,4.011,1.685,4.923c1.224.958,3.254,1.385,6.584,1.385s5.36-.427,6.584-1.385c1.165-.912,1.685-2.43,1.685-4.923s-.52-4.012-1.685-4.924C14.379,1.177,12.349.75,9.019.75Z" transform="translate(0 4.499)"/>
  </g>
</svg>
