<svg xmlns="http://www.w3.org/2000/svg" width="19.671" height="20.44" viewBox="0 0 19.671 20.44">
  <g id="Bag" transform="translate(0.751 0.75)">
    <path id="Stroke_1" data-name="Stroke 1" d="M8.659,5.07a.75.75,0,0,1-.75-.75A3.58,3.58,0,0,0,.75,4.3V4.32A.75.75,0,0,1,0,5.07a.75.75,0,0,1-.75-.75V4.3A5.08,5.08,0,0,1,9.409,4.32.75.75,0,0,1,8.659,5.07Z" transform="translate(4.755 0)"/>
    <path id="Stroke_3" data-name="Stroke 3" d="M.523,1.25H.477a.75.75,0,0,1,0-1.5H.523a.75.75,0,1,1,0,1.5Z" transform="translate(11.5 8.324)"/>
    <path id="Stroke_5" data-name="Stroke 5" d="M.523,1.25H.477a.75.75,0,0,1,0-1.5H.523a.75.75,0,1,1,0,1.5Z" transform="translate(5.669 8.324)"/>
    <path id="Stroke_7" data-name="Stroke 7" d="M9.084,15.684c-3.459,0-5.425-.557-6.783-1.923-1.3-1.3-1.87-3.174-2.659-6.1C-1.03,5.17-.842,3.285.219,1.9,1.6.092,4.421-.75,9.084-.75S16.565.092,17.95,1.9c1.06,1.384,1.249,3.269.576,5.762-.789,2.924-1.361,4.794-2.659,6.1C14.509,15.127,12.543,15.684,9.084,15.684ZM9.084.75c-4.1,0-6.612.675-7.675,2.063C.652,3.8.548,5.26,1.09,7.272c.724,2.685,1.239,4.39,2.274,5.431s2.743,1.481,5.72,1.481,4.687-.443,5.72-1.481,1.55-2.746,2.274-5.431c.543-2.012.438-3.47-.319-4.459C15.7,1.425,13.185.75,9.084.75Z" transform="translate(0 4.006)"/>
  </g>
</svg>
