<svg xmlns="http://www.w3.org/2000/svg" width="16.44" height="20.5" viewBox="0 0 16.44 20.5">
  <g id="Bookmark" transform="translate(0.75 0.75)">
    <path id="Stroke_1" data-name="Stroke 1" d="M6.855,1.25H0A.75.75,0,1,1,0-.25H6.855a.75.75,0,0,1,0,1.5Z" transform="translate(4.042 6.218)"/>
    <path id="Stroke_2" data-name="Stroke 2" d="M7.47-.75c3.358,0,5.418.263,6.682,1.647,1.283,1.405,1.534,3.826,1.534,7.532q0,1.1,0,2.063c.01,5.858.014,7.831-.918,8.765a1.729,1.729,0,0,1-1.273.493c-1.047,0-2.143-.937-3.3-1.928-.916-.782-2.055-1.756-2.723-1.756s-1.807.974-2.723,1.756c-1.161.992-2.257,1.928-3.3,1.928A1.729,1.729,0,0,1,.17,19.257c-.932-.934-.928-2.907-.918-8.765q0-.963,0-2.063C-.746,4.723-.495,2.3.788.9,2.052-.487,4.112-.75,7.47-.75Zm6.027,19c.159,0,.193-.034.212-.053.134-.135.313-.578.4-1.925.085-1.284.082-3.169.077-5.777q0-.964,0-2.066c0-3.253-.191-5.479-1.142-6.52C12.155.935,10.4.75,7.47.75S2.785.935,1.9,1.909C.945,2.95.754,5.176.754,8.429q0,1.1,0,2.066c0,2.608-.008,4.493.077,5.777.089,1.348.268,1.791.4,1.925.018.018.053.053.212.053.494,0,1.555-.907,2.33-1.569,1.217-1.04,2.476-2.115,3.7-2.115s2.48,1.075,3.7,2.115C11.942,17.343,13,18.25,13.5,18.25Z" transform="translate(0)"/>
  </g>
</svg>
