<svg xmlns="http://www.w3.org/2000/svg" width="20.751" height="20.748" viewBox="0 0 20.751 20.748">
  <g id="Call_Silent" data-name="Call Silent" transform="translate(0.751 0)">
    <path id="Stroke_1" data-name="Stroke 1" d="M3.609,11.808a.748.748,0,0,1-.57-.262C.964,9.12-.272,6.956-.636,5.114A4.155,4.155,0,0,1-.1,1.792h0A5.8,5.8,0,0,1,3.18-.7,3.191,3.191,0,0,1,5.845.052a7.3,7.3,0,0,1,2.678,3.34,3.192,3.192,0,0,1-.4,2.369,1.986,1.986,0,0,0-.294,1.583.75.75,0,0,1-1.44.422A3.4,3.4,0,0,1,6.777,5.1a1.8,1.8,0,0,0,.3-1.327A6.3,6.3,0,0,0,4.892,1.211a1.7,1.7,0,0,0-1.4-.438A4.326,4.326,0,0,0,1.157,2.6q-.017.029-.036.056C.727,3.215-.216,5.432,4.178,10.57a.75.75,0,0,1-.57,1.238Z" transform="translate(0 1)"/>
    <path id="Stroke_3" data-name="Stroke 3" d="M9.093,9.434a6.157,6.157,0,0,1-1.7-.259C5.151,8.531,2.487,6.7-.527,3.719A.75.75,0,0,1-.534,2.658.75.75,0,0,1,.527,2.651C3.361,5.45,5.809,7.16,7.8,7.734a2.95,2.95,0,0,0,2.626-.167.749.749,0,0,1,.064-.042A4.316,4.316,0,0,0,12.326,5.2a1.71,1.71,0,0,0-.444-1.414A6.268,6.268,0,0,0,9.324,1.613,1.8,1.8,0,0,0,8,1.911,3.654,3.654,0,0,1,5.827,2.4,5.871,5.871,0,0,1,2.664.54a.75.75,0,0,1-.02-1.06.75.75,0,0,1,1.06-.02A4.714,4.714,0,0,0,6.016.916,2.268,2.268,0,0,0,7.339.563a3.2,3.2,0,0,1,2.369-.4,7.273,7.273,0,0,1,3.334,2.673A3.2,3.2,0,0,1,13.8,5.509a5.8,5.8,0,0,1-2.489,3.276A3.718,3.718,0,0,1,9.093,9.434Z" transform="translate(5.901 11.314)"/>
    <path id="Stroke_5" data-name="Stroke 5" d="M0,19.25a.748.748,0,0,1-.53-.22.75.75,0,0,1,0-1.061L17.97-.53a.75.75,0,0,1,1.061,0,.75.75,0,0,1,0,1.061L.53,19.03A.748.748,0,0,1,0,19.25Z" transform="translate(0.75 0.75)"/>
  </g>
</svg>
