<svg xmlns="http://www.w3.org/2000/svg" width="20.826" height="20.75" viewBox="0 0 20.826 20.75">
  <g id="Call_Missed" data-name="Call Missed" transform="translate(0.748 0)">
    <path id="Stroke_1" data-name="Stroke 1" d="M0,6.75a.748.748,0,0,1-.53-.22.75.75,0,0,1,0-1.061l6-6a.75.75,0,0,1,1.061,0A.75.75,0,0,1,6.53.53l-6,6A.748.748,0,0,1,0,6.75Z" transform="translate(13.328 0.75)"/>
    <path id="Stroke_3" data-name="Stroke 3" d="M6,6.75a.748.748,0,0,1-.53-.22l-6-6A.75.75,0,0,1-.53-.53.75.75,0,0,1,.53-.53l6,6A.75.75,0,0,1,6,6.75Z" transform="translate(13.328 0.75)"/>
    <path id="Stroke_5" data-name="Stroke 5" d="M15,19.75c-2.592,0-5.9-1.992-9.827-5.921C2.1,10.758.2,8.045-.473,5.768A4.439,4.439,0,0,1-.1,1.786h0C.171,1.378,1.68-.75,3.753-.75a3.269,3.269,0,0,1,2.1.8A7.286,7.286,0,0,1,8.527,3.389a3.192,3.192,0,0,1-.4,2.369c-.463.951-.829,1.7,1.292,3.823,1.114,1.114,1.992,1.655,2.683,1.655a2.633,2.633,0,0,0,1.138-.364,3.726,3.726,0,0,1,1.681-.491c1.206,0,2.446.853,4.022,2.767a3.2,3.2,0,0,1,.753,2.661A5.84,5.84,0,0,1,17.214,19.1h0A3.742,3.742,0,0,1,15,19.75ZM1.159,2.6q-.017.03-.038.058A3.01,3.01,0,0,0,.965,5.343c.6,2.034,2.373,4.533,5.266,7.426C10.762,17.3,13.5,18.25,15,18.25a2.262,2.262,0,0,0,1.344-.371q.027-.019.056-.036a4.344,4.344,0,0,0,1.83-2.333,1.708,1.708,0,0,0-.442-1.409c-1.229-1.492-2.166-2.219-2.863-2.219a2.466,2.466,0,0,0-1.024.339,3.933,3.933,0,0,1-1.8.516c-1.125,0-2.315-.666-3.744-2.095A6.33,6.33,0,0,1,6.3,7.347,3.6,3.6,0,0,1,6.78,5.1a1.8,1.8,0,0,0,.3-1.327A6.283,6.283,0,0,0,4.9,1.213,1.788,1.788,0,0,0,3.753.75C2.546.75,1.4,2.205,1.159,2.6Z" transform="translate(0 1)"/>
  </g>
</svg>
