<svg xmlns="http://www.w3.org/2000/svg" width="20.891" height="20.75" viewBox="0 0 20.891 20.75">
  <g id="Calling" transform="translate(0.748)">
    <path id="Stroke_1" data-name="Stroke 1" d="M7.04,7.782A.75.75,0,0,1,6.3,7.116,7.183,7.183,0,0,0-.083.745.75.75,0,0,1-.745-.083.75.75,0,0,1,.083-.745a8.752,8.752,0,0,1,5.2,2.5,8.753,8.753,0,0,1,2.5,5.2.75.75,0,0,1-.662.829A.759.759,0,0,1,7.04,7.782Z" transform="translate(12.352 0.75)"/>
    <path id="Stroke_3" data-name="Stroke 3" d="M3.5,4.25a.75.75,0,0,1-.735-.607A3.661,3.661,0,0,0-.143.736.75.75,0,0,1-.736-.143.75.75,0,0,1,.143-.736,5.155,5.155,0,0,1,4.236,3.357.751.751,0,0,1,3.5,4.25Z" transform="translate(12.352 4.293)"/>
    <path id="Stroke_5" data-name="Stroke 5" d="M15,19.75c-2.592,0-5.9-1.992-9.828-5.921C2.1,10.758.2,8.046-.473,5.768A4.439,4.439,0,0,1-.1,1.787h0C.168,1.383,1.683-.75,3.753-.75a3.267,3.267,0,0,1,2.1.8A7.287,7.287,0,0,1,8.527,3.389a3.192,3.192,0,0,1-.4,2.369c-.463.951-.829,1.7,1.291,3.823,1.114,1.114,1.992,1.655,2.684,1.655a2.632,2.632,0,0,0,1.138-.364,3.725,3.725,0,0,1,1.68-.491c1.206,0,2.446.853,4.022,2.767a3.2,3.2,0,0,1,.752,2.67A5.8,5.8,0,0,1,17.214,19.1h0A3.74,3.74,0,0,1,15,19.75ZM1.158,2.6q-.017.029-.037.057C.114,4.069.928,7.465,6.231,12.769,10.761,17.3,13.5,18.25,15,18.25a2.259,2.259,0,0,0,1.344-.371q.028-.02.058-.038a4.331,4.331,0,0,0,1.828-2.331,1.708,1.708,0,0,0-.442-1.41c-1.229-1.492-2.166-2.219-2.863-2.219a2.465,2.465,0,0,0-1.023.339,3.933,3.933,0,0,1-1.8.516c-1.125,0-2.315-.666-3.745-2.095A6.33,6.33,0,0,1,6.3,7.347,3.6,3.6,0,0,1,6.78,5.1a1.772,1.772,0,0,0,.3-1.327A6.284,6.284,0,0,0,4.9,1.213,1.787,1.787,0,0,0,3.753.75C2.547.75,1.4,2.206,1.158,2.6Z" transform="translate(0 1)"/>
  </g>
</svg>
