<svg xmlns="http://www.w3.org/2000/svg" width="20.497" height="20.5" viewBox="0 0 20.497 20.5">
  <g id="Call" transform="translate(0.748 0.75)">
    <path id="Stroke_1" data-name="Stroke 1" d="M15,19.75c-2.592,0-5.9-1.992-9.828-5.921C2.1,10.758.2,8.046-.473,5.768A4.439,4.439,0,0,1-.1,1.787h0C.168,1.383,1.683-.75,3.753-.75a3.267,3.267,0,0,1,2.1.8A7.287,7.287,0,0,1,8.527,3.389a3.192,3.192,0,0,1-.4,2.369c-.463.951-.829,1.7,1.291,3.823,1.114,1.114,1.992,1.655,2.684,1.655a2.633,2.633,0,0,0,1.139-.364,3.726,3.726,0,0,1,1.68-.49c1.206,0,2.446.853,4.022,2.767a3.2,3.2,0,0,1,.752,2.669A5.8,5.8,0,0,1,17.214,19.1h0A3.74,3.74,0,0,1,15,19.75ZM1.158,2.6q-.017.029-.037.057C.114,4.069.928,7.465,6.231,12.769,10.761,17.3,13.5,18.25,15,18.25a2.259,2.259,0,0,0,1.344-.371q.028-.02.058-.038a4.331,4.331,0,0,0,1.828-2.331,1.708,1.708,0,0,0-.442-1.41c-1.229-1.492-2.166-2.219-2.863-2.219a2.466,2.466,0,0,0-1.023.339,3.934,3.934,0,0,1-1.8.516c-1.125,0-2.315-.666-3.745-2.095A6.33,6.33,0,0,1,6.3,7.347,3.6,3.6,0,0,1,6.78,5.1a1.772,1.772,0,0,0,.3-1.327A6.284,6.284,0,0,0,4.9,1.213,1.787,1.787,0,0,0,3.753.75C2.547.75,1.4,2.206,1.158,2.6Z"/>
  </g>
</svg>
