<svg xmlns="http://www.w3.org/2000/svg" width="19.506" height="18.658" viewBox="0 0 19.506 18.658">
  <g id="Camera" transform="translate(-0.039 0.75)">
    <path id="Stroke_2" data-name="Stroke 2" d="M3.145-.75a3.9,3.9,0,1,1-3.9,3.9A3.9,3.9,0,0,1,3.145-.75Zm0,6.291a2.4,2.4,0,1,0-2.4-2.4A2.4,2.4,0,0,0,3.145,5.541Z" transform="translate(6.648 6.311)"/>
    <path id="Stroke_4" data-name="Stroke 4" d="M9,17.908c-4.141,0-6.624-.642-8.051-2.08s-1.7-3.472-1.7-6.3a11.121,11.121,0,0,1,.7-4.611,4.838,4.838,0,0,1,3.373-2.57,1.183,1.183,0,0,0,.5-.319A3.515,3.515,0,0,0,4.1,1.518,3.56,3.56,0,0,1,5.776-.392,11.885,11.885,0,0,1,9.041-.75a10.976,10.976,0,0,1,3.2.361,3.58,3.58,0,0,1,1.672,1.914,3.455,3.455,0,0,0,.275.5,1.189,1.189,0,0,0,.5.321,4.837,4.837,0,0,1,3.372,2.57,11.121,11.121,0,0,1,.7,4.611c0,2.832-.285,4.874-1.7,6.3S13.145,17.908,9,17.908ZM9.041.75A10.216,10.216,0,0,0,6.343,1c-.385.157-.67.73-.9,1.19a3.717,3.717,0,0,1-.515.848,2.666,2.666,0,0,1-1.171.744l-.025.008A3.415,3.415,0,0,0,1.3,5.559,9.419,9.419,0,0,0,.75,9.525c0,2.451.212,4.183,1.267,5.247C3.139,15.9,5.294,16.408,9,16.408s5.864-.5,6.986-1.636c1.055-1.064,1.267-2.8,1.267-5.247a9.419,9.419,0,0,0-.55-3.965,3.415,3.415,0,0,0-2.433-1.774l-.026-.008a2.672,2.672,0,0,1-1.171-.744,3.655,3.655,0,0,1-.51-.843c-.238-.482-.509-1.027-.91-1.2A9.689,9.689,0,0,0,9.041.75Z" transform="translate(0.789 0)"/>
    <path id="Stroke_11" data-name="Stroke 11" d="M.5,1.25H.5a.75.75,0,0,1,0-1.5H.5a.75.75,0,1,1,0,1.5Z" transform="translate(14.209 5.458)"/>
  </g>
</svg>
