<svg xmlns="http://www.w3.org/2000/svg" width="19.5" height="19.435" viewBox="0 0 19.5 19.435">
  <g id="Category" transform="translate(0.75 0.75)">
    <path id="Stroke_1" data-name="Stroke 1" d="M3.673-.75A4.424,4.424,0,1,1-.75,3.674,4.429,4.429,0,0,1,3.673-.75Zm0,7.348A2.924,2.924,0,1,0,.75,3.674,2.927,2.927,0,0,0,3.673,6.6Z" transform="translate(10.654 0)"/>
    <path id="Stroke_3" data-name="Stroke 3" d="M3.673-.75A4.424,4.424,0,1,1-.75,3.674,4.429,4.429,0,0,1,3.673-.75Zm0,7.348A2.924,2.924,0,1,0,.75,3.674,2.927,2.927,0,0,0,3.673,6.6Z" transform="translate(0 0)"/>
    <path id="Stroke_5" data-name="Stroke 5" d="M3.673,8.1A4.423,4.423,0,1,1,8.1,3.674,4.428,4.428,0,0,1,3.673,8.1Zm0-7.347A2.923,2.923,0,1,0,6.6,3.674,2.927,2.927,0,0,0,3.673.75Z" transform="translate(10.654 10.588)"/>
    <path id="Stroke_7" data-name="Stroke 7" d="M3.673,8.1A4.423,4.423,0,1,1,8.1,3.674,4.428,4.428,0,0,1,3.673,8.1Zm0-7.347A2.923,2.923,0,1,0,6.6,3.674,2.927,2.927,0,0,0,3.673.75Z" transform="translate(0 10.588)"/>
  </g>
</svg>
