<svg xmlns="http://www.w3.org/2000/svg" width="20.974" height="20.974" viewBox="0 0 20.974 20.974">
  <g id="Chart" transform="translate(0.75 0.75)">
    <path id="Stroke_1" data-name="Stroke 1" d="M.526,7.444a.75.75,0,0,1-.75-.75V0a.75.75,0,0,1,.75-.75.75.75,0,0,1,.75.75V6.694A.75.75,0,0,1,.526,7.444Z" transform="translate(4.657 7.961)"/>
    <path id="Stroke_2" data-name="Stroke 2" d="M.526,10.648a.75.75,0,0,1-.75-.75V0a.75.75,0,0,1,1.5,0V9.9A.75.75,0,0,1,.526,10.648Z" transform="translate(9.211 4.757)"/>
    <path id="Stroke_3" data-name="Stroke 3" d="M.526,3.907a.75.75,0,0,1-.75-.75V0a.75.75,0,0,1,1.5,0V3.157A.75.75,0,0,1,.526,3.907Z" transform="translate(13.689 11.498)"/>
    <path id="Stroke_4" data-name="Stroke 4" d="M9.737-.75c4,0,6.512.725,8.137,2.35s2.35,4.135,2.35,8.137-.725,6.512-2.35,8.137-4.135,2.35-8.137,2.35S3.225,19.5,1.6,17.874-.75,13.739-.75,9.737-.025,3.225,1.6,1.6,5.734-.75,9.737-.75Zm0,19.474c6.887,0,8.987-2.1,8.987-8.987S16.624.75,9.737.75.75,2.85.75,9.737,2.85,18.724,9.737,18.724Z" transform="translate(0 0)"/>
  </g>
</svg>
