<svg xmlns="http://www.w3.org/2000/svg" width="21.497" height="21.5" viewBox="0 0 21.497 21.5">
  <g id="Chat" transform="translate(0.752 0.75)">
    <path id="Stroke_11" data-name="Stroke 11" d="M.5,1.5H.5a1,1,0,0,1,0-2H.5a1,1,0,1,1,0,2Z" transform="translate(13.444 9.913)"/>
    <path id="Stroke_13" data-name="Stroke 13" d="M.5,1.5H.5a1,1,0,0,1,0-2H.5a1,1,0,1,1,0,2Z" transform="translate(9.435 9.913)"/>
    <path id="Stroke_15" data-name="Stroke 15" d="M.5,1.5H.5a1,1,0,0,1,0-2H.5a1,1,0,1,1,0,2Z" transform="translate(5.426 9.913)"/>
    <path id="Stroke_4" data-name="Stroke 4" d="M10,20.75a10.869,10.869,0,0,1-4.45-.959H5.521a11.527,11.527,0,0,0-1.163.124,17.351,17.351,0,0,1-2.193.2A2.388,2.388,0,0,1,.4,19.6c-.695-.695-.57-2.078-.318-3.956A11.152,11.152,0,0,0,.21,14.45,10.753,10.753,0,1,1,10,20.75ZM5.521,18.291a1.438,1.438,0,0,1,.546.087l.035.015a9.355,9.355,0,0,0,3.9.857A9.252,9.252,0,0,0,16.541,3.457a9.253,9.253,0,0,0-13.08,0A9.3,9.3,0,0,0,1.607,13.9l.015.035a4.185,4.185,0,0,1-.05,1.908c-.076.565-.162,1.205-.183,1.755a2.4,2.4,0,0,0,.079.936,1.92,1.92,0,0,0,.7.083,16.306,16.306,0,0,0,1.994-.187A11.75,11.75,0,0,1,5.521,18.291Z"/>
  </g>
</svg>
