<svg xmlns="http://www.w3.org/2000/svg" width="20" height="20" viewBox="0 0 20 20">
  <g id="Discovery" transform="translate(0 0)">
    <path id="Stroke_1" data-name="Stroke 1" d="M9.25-.75c3.813,0,6.205.692,7.757,2.243S19.25,5.437,19.25,9.25s-.692,6.205-2.243,7.757S13.063,19.25,9.25,19.25s-6.205-.692-7.757-2.243S-.75,13.063-.75,9.25s.692-6.205,2.243-7.757S5.437-.75,9.25-.75Zm0,18.5c6.514,0,8.5-1.986,8.5-8.5S15.764.75,9.25.75.75,2.736.75,9.25,2.736,17.75,9.25,17.75Z" transform="translate(0.75 0.75)"/>
    <path id="Stroke_3" data-name="Stroke 3" d="M0,7.354a.75.75,0,0,1-.53-.22A.75.75,0,0,1-.716,6.38L.858,1.35A.75.75,0,0,1,1.35.858L6.38-.716a.75.75,0,0,1,.754.185A.75.75,0,0,1,7.32.224L5.746,5.253a.75.75,0,0,1-.492.492L.224,7.32A.749.749,0,0,1,0,7.354ZM2.173,2.173,1.144,5.46,4.431,4.431,5.46,1.144Z" transform="translate(6.698 6.698)"/>
  </g>
</svg>
