<svg xmlns="http://www.w3.org/2000/svg" width="18.282" height="20" viewBox="0 0 18.282 20">
  <g id="Document" transform="translate(0.75 0.75)">
    <path id="Stroke_1" data-name="Stroke 1" d="M7.22,1.25H0A.75.75,0,1,1,0-.25H7.22a.75.75,0,0,1,0,1.5Z" transform="translate(4.766 12.446)"/>
    <path id="Stroke_2" data-name="Stroke 2" d="M7.22,1.25H0A.75.75,0,1,1,0-.25H7.22a.75.75,0,0,1,0,1.5Z" transform="translate(4.766 8.686)"/>
    <path id="Stroke_3" data-name="Stroke 3" d="M2.755,1.25H0A.75.75,0,0,1,0-.25H2.755a.75.75,0,0,1,0,1.5Z" transform="translate(4.766 4.927)"/>
    <path id="Stroke_4" data-name="Stroke 4" d="M8.391-.75c3.494,0,5.687.7,7.111,2.27,1.4,1.548,2.03,3.932,2.03,7.73s-.626,6.183-2.03,7.73c-1.424,1.57-3.617,2.27-7.111,2.27S2.7,18.55,1.28,16.98c-1.4-1.548-2.03-3.932-2.03-7.73s.626-6.183,2.03-7.73C2.7-.05,4.9-.75,8.391-.75Zm0,18.5c3.035,0,4.885-.548,6-1.778,1.135-1.251,1.641-3.324,1.641-6.722s-.506-5.471-1.641-6.722C13.276,1.3,11.426.75,8.391.75s-4.885.548-6,1.778C1.256,3.779.75,5.852.75,9.25s.506,5.471,1.641,6.722C3.506,17.2,5.357,17.75,8.391,17.75Z" transform="translate(0)"/>
  </g>
</svg>
