<svg xmlns="http://www.w3.org/2000/svg" width="20" height="20" viewBox="0 0 20 20">
  <g id="Edit_Square" data-name="Edit Square" transform="translate(0 0)">
    <path id="Stroke_1" data-name="Stroke 1" d="M9.25,19.25c-3.813,0-6.205-.692-7.757-2.243S-.75,13.063-.75,9.25s.692-6.205,2.243-7.757S5.437-.75,9.25-.75A.75.75,0,0,1,10,0a.75.75,0,0,1-.75.75C2.736.75.75,2.736.75,9.25s1.986,8.5,8.5,8.5,8.5-1.986,8.5-8.5a.75.75,0,0,1,1.5,0c0,3.813-.692,6.205-2.243,7.757S13.063,19.25,9.25,19.25Z" transform="translate(0.75 0.75)"/>
    <path id="Stroke_3" data-name="Stroke 3" d="M8.48-.75a3.151,3.151,0,0,1,2.359,5.24L4.952,11.137a4.122,4.122,0,0,1-3.2,1.334,5.667,5.667,0,0,1-1.59-.221.75.75,0,0,1-.452-.4c-.054-.115-1.3-2.836.522-4.894C1.751,5.248,6.12.312,6.12.312A3.153,3.153,0,0,1,8.48-.75ZM1.756,10.971a2.634,2.634,0,0,0,2.073-.828L9.715,3.5A1.651,1.651,0,0,0,8.48.75h0a1.652,1.652,0,0,0-1.236.557S2.875,6.241,1.36,7.954a2.594,2.594,0,0,0-.592,2.061,4.313,4.313,0,0,0,.185.881A4.5,4.5,0,0,0,1.756,10.971Z" transform="translate(7.457 1.7)"/>
    <path id="Stroke_5" data-name="Stroke 5" d="M3.595,3.933a.747.747,0,0,1-.5-.188L-.5.562A.75.75,0,0,1-.562-.5.75.75,0,0,1,.5-.562l3.6,3.183a.75.75,0,0,1-.5,1.312Z" transform="translate(13.009 3.801)"/>
  </g>
</svg>
