<svg xmlns="http://www.w3.org/2000/svg" width="16.966" height="17.017" viewBox="0 0 16.966 17.017">
  <g id="Edit" transform="translate(0.004 0)">
    <path id="Stroke_1" data-name="Stroke 1" d="M6.377,1.25H0A.75.75,0,0,1,0-.25H6.377a.75.75,0,0,1,0,1.5Z" transform="translate(9.835 15.508)"/>
    <path id="Stroke_3" data-name="Stroke 3" d="M9.985-.75a3.79,3.79,0,0,1,3.75,3.257,3.767,3.767,0,0,1-.721,2.81l-6.752,9a5.228,5.228,0,0,1-4.333,1.955,6.794,6.794,0,0,1-1.392-.135.75.75,0,0,1-.483-.358c-.077-.135-1.867-3.331.145-6.013l6.752-9A3.762,3.762,0,0,1,9.985-.75ZM1.928,14.767a3.79,3.79,0,0,0,3.134-1.355l6.752-9A2.291,2.291,0,1,0,8.15,1.666L1.4,10.661a4.1,4.1,0,0,0-.191,4.062A5.962,5.962,0,0,0,1.928,14.767Z" transform="translate(0.75 0.75)"/>
    <path id="Stroke_5" data-name="Stroke 5" d="M4.863,4.4a.747.747,0,0,1-.45-.15L-.45.6A.75.75,0,0,1-.6-.45.75.75,0,0,1,.45-.6L5.314,3.051A.75.75,0,0,1,4.863,4.4Z" transform="translate(7.004 3.711)"/>
  </g>
</svg>
