<svg xmlns="http://www.w3.org/2000/svg" width="17.478" height="17.435" viewBox="0 0 17.478 17.435">
  <g id="Filter" transform="translate(0.079 0.079)">
    <path id="Stroke_1" data-name="Stroke 1" d="M6.473,1.2H0A.75.75,0,0,1-.75.447.75.75,0,0,1,0-.3H6.473a.75.75,0,1,1,0,1.5Z" transform="translate(0.671 13.435)"/>
    <path id="Stroke_3" data-name="Stroke 3" d="M2.722-.75A3.525,3.525,0,0,1,5.378.065a3.524,3.524,0,0,1,.815,2.657,3.524,3.524,0,0,1-.815,2.657,3.525,3.525,0,0,1-2.656.815A3.525,3.525,0,0,1,.065,5.379,3.524,3.524,0,0,1-.75,2.722,3.524,3.524,0,0,1,.065.065,3.525,3.525,0,0,1,2.722-.75Zm0,5.444a2.337,2.337,0,0,0,1.6-.376,2.337,2.337,0,0,0,.376-1.6,2.337,2.337,0,0,0-.376-1.6A2.337,2.337,0,0,0,2.722.75a2.337,2.337,0,0,0-1.6.376,2.337,2.337,0,0,0-.376,1.6,2.337,2.337,0,0,0,.376,1.6A2.337,2.337,0,0,0,2.722,4.694Z" transform="translate(11.205 11.162)"/>
    <path id="Stroke_5" data-name="Stroke 5" d="M6.472,1.2H0A.75.75,0,0,1-.75.447.75.75,0,0,1,0-.3H6.472a.75.75,0,1,1,0,1.5Z" transform="translate(10.177 2.947)"/>
    <path id="Stroke_7" data-name="Stroke 7" d="M2.723-.75A3.524,3.524,0,0,1,5.379.065a3.524,3.524,0,0,1,.815,2.657,3.524,3.524,0,0,1-.815,2.657,3.525,3.525,0,0,1-2.656.815A3.526,3.526,0,0,1,.065,5.379,3.524,3.524,0,0,1-.75,2.722,3.524,3.524,0,0,1,.065.065,3.526,3.526,0,0,1,2.723-.75Zm0,5.444a2.337,2.337,0,0,0,1.6-.376,2.337,2.337,0,0,0,.376-1.6,2.336,2.336,0,0,0-.376-1.6A2.336,2.336,0,0,0,2.723.75a2.338,2.338,0,0,0-1.6.376,2.336,2.336,0,0,0-.376,1.6,2.337,2.337,0,0,0,.376,1.6A2.339,2.339,0,0,0,2.723,4.694Z" transform="translate(0.671 0.671)"/>
  </g>
</svg>
