<svg xmlns="http://www.w3.org/2000/svg" width="20.72" height="20.199" viewBox="0 0 20.72 20.199">
  <g id="Folder" transform="translate(0.75 0.75)">
    <path id="Stroke_1" data-name="Stroke 1" d="M9.593,1.226H0a.75.75,0,1,1,0-1.5H9.593a.75.75,0,1,1,0,1.5Z" transform="translate(4.806 11.598)"/>
    <path id="Stroke_2" data-name="Stroke 2" d="M6.054-.75A7.383,7.383,0,0,1,9.648.1a3.675,3.675,0,0,1,1.593,1.716,2.439,2.439,0,0,0,1.03,1.167,2.949,2.949,0,0,0,1.4.242c.16,0,.322,0,.493-.006s.356-.007.538-.007a4.224,4.224,0,0,1,3.379,1.219c1.885,2.034,1.885,5.082,1.885,6.9v.028c0,3.481-.953,5.662-3,6.863-1.742,1.022-4.018,1.222-7.361,1.222-2.8,0-5.461-.091-7.358-1.2-2.048-1.191-3-3.381-3-6.89V5.3A6.456,6.456,0,0,1,.3,1.629,4.972,4.972,0,0,1,3.471-.462,12.768,12.768,0,0,1,6.054-.75Zm7.622,5.476a4.227,4.227,0,0,1-2.146-.438A3.886,3.886,0,0,1,9.919,2.526a2.218,2.218,0,0,0-.983-1.1A5.924,5.924,0,0,0,6.054.75a11.3,11.3,0,0,0-2.281.257C1.544,1.465.75,3.524.75,5.3v6.066c0,2.961.7,4.686,2.256,5.594s4.022.992,6.6.992c6.023,0,8.86-.65,8.86-6.585v-.028c0-1.7,0-4.282-1.485-5.884a2.807,2.807,0,0,0-2.279-.739c-.168,0-.341,0-.509.007S13.849,4.726,13.675,4.726Z" transform="translate(0 0)"/>
  </g>
</svg>
