<svg xmlns="http://www.w3.org/2000/svg" width="19.668" height="19.804" viewBox="0 0 19.668 19.804">
  <g id="Graph" transform="translate(0 0)">
    <path id="Stroke_1" data-name="Stroke 1" d="M2.091-.75A6.735,6.735,0,0,1,5.992.92,8.161,8.161,0,0,1,8.651,4.356a2.572,2.572,0,0,1-.728,3.067c-1.054.829-3.683,1.13-5.194,1.13-2.1,0-2.593-.5-2.756-.66-.684-.685-.764-2.523-.71-3.944C-.7,3.046-.553.863.1.107A2.544,2.544,0,0,1,2.091-.75Zm.637,7.8a9.623,9.623,0,0,0,4.266-.809c.155-.122.568-.447.238-1.4C6.583,2.971,3.8.75,2.091.75h0a1.064,1.064,0,0,0-.851.336A8.107,8.107,0,0,0,.763,3.972,6.938,6.938,0,0,0,1.034,6.83,4.152,4.152,0,0,0,2.729,7.053Z" transform="translate(10.809 0.75)"/>
    <path id="Stroke_3" data-name="Stroke 3" d="M7.7,16A8.461,8.461,0,0,1-.75,7.547,8.97,8.97,0,0,1,1.537,1.609,6.246,6.246,0,0,1,5.75-.75a2.076,2.076,0,0,1,1.509.576c.578.578.614,1.61.66,2.918.045,1.282.1,2.877.779,3.555a3.848,3.848,0,0,0,2.42.544c.358,0,.73-.012,1.089-.023s.705-.023,1.04-.023a3.457,3.457,0,0,1,2.472.657c.58.58.591,1.686.032,3.036a9.463,9.463,0,0,1-2.784,3.636A8.376,8.376,0,0,1,7.7,16ZM5.75.75A4.922,4.922,0,0,0,2.66,2.6,7.51,7.51,0,0,0,.75,7.547,6.959,6.959,0,0,0,7.7,14.5a7.422,7.422,0,0,0,6.172-3.629,3.72,3.72,0,0,0,.767-2.37c-.09-.071-.393-.2-1.394-.2-.311,0-.642.011-.992.022-.371.012-.754.024-1.137.024a4.84,4.84,0,0,1-3.481-.984C6.542,6.264,6.474,4.341,6.419,2.8A6.372,6.372,0,0,0,6.194.883.625.625,0,0,0,5.75.75Z" transform="translate(0.75 3.806)"/>
  </g>
</svg>
