<svg xmlns="http://www.w3.org/2000/svg" width="20.495" height="18.472" viewBox="0 0 20.495 18.472">
  <g id="Heart" transform="translate(0.749 0.75)">
    <path id="Stroke_1" data-name="Stroke 1" d="M9.5,17.722c-2.055,0-8.049-3.012-9.843-8.6A8.641,8.641,0,0,1-.2,3.47,6.441,6.441,0,0,1,3.841-.465,5.764,5.764,0,0,1,5.614-.741,5.523,5.523,0,0,1,9.48.777,5.3,5.3,0,0,1,13.314-.75a6,6,0,0,1,1.836.285A6.45,6.45,0,0,1,19.194,3.47a8.632,8.632,0,0,1,.148,5.655,12.906,12.906,0,0,1-4.852,6.408A10.563,10.563,0,0,1,9.5,17.722ZM5.614.759A4.268,4.268,0,0,0,4.3.963C1.119,1.987.155,5.76,1.086,8.667a11.546,11.546,0,0,0,4.327,5.674A9.434,9.434,0,0,0,9.5,16.222a9.512,9.512,0,0,0,4.107-1.9,11.426,11.426,0,0,0,4.3-5.647c.931-2.911-.036-6.683-3.22-7.708A4.5,4.5,0,0,0,13.314.75a3.712,3.712,0,0,0-3.187,1.6.75.75,0,0,1-1.233.027A3.986,3.986,0,0,0,5.614.759Z" transform="translate(0 0)"/>
    <path id="Stroke_3" data-name="Stroke 3" d="M1.917,3.172H1.892A.75.75,0,0,1,1.167,2.4,1.412,1.412,0,0,0-.077.746.75.75,0,0,1-.746-.077.75.75,0,0,1,.077-.746a2.889,2.889,0,0,1,2.59,3.193A.75.75,0,0,1,1.917,3.172Z" transform="translate(13.238 4.014)"/>
  </g>
</svg>
