<svg xmlns="http://www.w3.org/2000/svg" width="20.01" height="17.274" viewBox="0 0 20.01 17.274">
  <g id="Hide" transform="translate(0 0)">
    <path id="Stroke_1" data-name="Stroke 1" d="M3.669,13.64a.746.746,0,0,1-.41-.123C.824,11.923-.75,9.482-.75,7.3A7.587,7.587,0,0,1,2.225,1.847,10.909,10.909,0,0,1,9.25-.75a10.8,10.8,0,0,1,6.006,1.836.75.75,0,0,1-.832,1.248A9.308,9.308,0,0,0,9.25.75C4.672.75.75,4.352.75,7.3c0,1.664,1.339,3.658,3.331,4.963a.75.75,0,0,1-.412,1.378Z" transform="translate(0.75 1.34)"/>
    <path id="Stroke_3" data-name="Stroke 3" d="M2.63,11.58A10.612,10.612,0,0,1-.2,11.193a.75.75,0,0,1-.523-.923A.75.75,0,0,1,.2,9.747a9.113,9.113,0,0,0,2.43.333c4.583,0,8.51-3.6,8.51-6.55A5.169,5.169,0,0,0,9.891.464a.75.75,0,0,1,.125-1.053.75.75,0,0,1,1.053.125A6.65,6.65,0,0,1,12.64,3.53,7.585,7.585,0,0,1,9.66,8.983,10.927,10.927,0,0,1,2.63,11.58Z" transform="translate(7.37 5.11)"/>
    <path id="Stroke_5" data-name="Stroke 5" d="M.925,6.145A.748.748,0,0,1,.4,5.928,3.912,3.912,0,0,1,.389.4,3.884,3.884,0,0,1,3.153-.75,3.933,3.933,0,0,1,5.924.395.75.75,0,1,1,4.864,1.455,2.423,2.423,0,0,0,3.156.75a2.411,2.411,0,0,0-1.7,4.112A.75.75,0,0,1,.925,6.145Z" transform="translate(6.841 5.472)"/>
    <path id="Stroke_7" data-name="Stroke 7" d="M0,3.292a.75.75,0,0,1-.737-.615.75.75,0,0,1,.6-.873A2.419,2.419,0,0,0,1.8-.134a.75.75,0,0,1,.872-.6.75.75,0,0,1,.6.872A3.926,3.926,0,0,1,.135,3.28.755.755,0,0,1,0,3.292Z" transform="translate(10.573 9.199)"/>
    <path id="Stroke_9" data-name="Stroke 9" d="M0,16.524a.748.748,0,0,1-.53-.22.75.75,0,0,1,0-1.061L15.244-.53a.75.75,0,0,1,1.061,0A.75.75,0,0,1,16.3.53L.53,16.3A.748.748,0,0,1,0,16.524Z" transform="translate(2.118 0.75)"/>
  </g>
</svg>
