<svg xmlns="http://www.w3.org/2000/svg" width="20.672" height="21.5" viewBox="0 0 20.672 21.5">
  <g id="Home" transform="translate(0.75 0.75)">
    <path id="Stroke_1" data-name="Stroke 1" d="M5.815,1.25H0A.75.75,0,1,1,0-.25H5.815a.75.75,0,0,1,0,1.5Z" transform="translate(6.679 13.635)"/>
    <path id="Stroke_2" data-name="Stroke 2" d="M9.586,20.75c-4.023,0-6.451,0-8.09-1.177-1.87-1.342-2.246-4-2.246-7.86,0-2.655.146-3.951.559-4.954A7.6,7.6,0,0,1,2.171,3.972c.364-.32.776-.683,1.238-1.112l.04-.034c.233-.188.494-.41.771-.645C5.754.875,7.664-.75,9.558-.75,11.473-.75,13.431.9,15,2.226c.258.217.5.423.721.6l.04.034c.463.429.874.792,1.238,1.112a7.6,7.6,0,0,1,2.362,2.787c.413,1,.559,2.3.559,4.955,0,3.858-.376,6.518-2.246,7.86C16.037,20.75,13.609,20.75,9.586,20.75ZM4.41,3.978c-.469.435-.883.8-1.248,1.12C1.025,6.98.75,7.222.75,11.713c0,3.943.454,5.8,1.62,6.642,1.247.9,3.622.9,7.216.9s5.969,0,7.216-.9c1.166-.837,1.62-2.7,1.62-6.642,0-4.492-.275-4.734-2.412-6.616-.365-.322-.778-.685-1.247-1.12-.227-.183-.47-.388-.726-.6C12.724,2.266,10.925.75,9.558.75c-1.343,0-3.09,1.487-4.366,2.573C4.915,3.558,4.653,3.781,4.41,3.978Z" transform="translate(0)"/>
  </g>
</svg>
