<svg xmlns="http://www.w3.org/2000/svg" width="20" height="20" viewBox="0 0 20 20">
  <g id="Image" transform="translate(0 0)">
    <path id="Stroke_1" data-name="Stroke 1" d="M0,4.46a.747.747,0,0,1-.333-.078A.75.75,0,0,1-.672,3.377c.1-.21,1.065-2.054,2.666-2.054a3.17,3.17,0,0,1,1.912.809A2.026,2.026,0,0,0,5.09,2.7s.138-.005.473-.314a11.5,11.5,0,0,0,.948-1.058C7.358.305,8.235-.75,9.352-.75c1.914,0,3.1,2.545,3.233,2.836a.75.75,0,0,1-1.37.611C10.93,2.062,10.1.75,9.352.75c-.413,0-1.18.923-1.687,1.534C6.848,3.268,6.076,4.2,5.09,4.2a3.393,3.393,0,0,1-2.079-.862,1.862,1.862,0,0,0-1.017-.513c-.536,0-1.133.838-1.322,1.22A.75.75,0,0,1,0,4.46Z" transform="translate(4.071 10.749)"/>
    <path id="Stroke_3" data-name="Stroke 3" d="M1.557-.75h0A2.308,2.308,0,1,1-.75,1.558,2.312,2.312,0,0,1,1.558-.75Zm0,3.116A.808.808,0,1,0,.75,1.558.809.809,0,0,0,1.557,2.366Z" transform="translate(5.024 5.547)"/>
    <path id="Stroke_5" data-name="Stroke 5" d="M9.25-.75c3.813,0,6.205.692,7.757,2.243S19.25,5.437,19.25,9.25s-.692,6.205-2.243,7.757S13.063,19.25,9.25,19.25s-6.205-.692-7.757-2.243S-.75,13.063-.75,9.25s.692-6.205,2.243-7.757S5.437-.75,9.25-.75Zm0,18.5c6.514,0,8.5-1.986,8.5-8.5S15.764.75,9.25.75.75,2.736.75,9.25,2.736,17.75,9.25,17.75Z" transform="translate(0.75 0.75)"/>
  </g>
</svg>
