<svg xmlns="http://www.w3.org/2000/svg" width="20" height="20" viewBox="0 0 20 20">
  <g id="Image_2" data-name="Image 2" transform="translate(0 0)">
    <path id="Stroke_1" data-name="Stroke 1" d="M9.25-.75c3.813,0,6.205.692,7.757,2.243S19.25,5.437,19.25,9.25s-.692,6.205-2.243,7.757S13.063,19.25,9.25,19.25s-6.205-.692-7.757-2.243S-.75,13.063-.75,9.25s.692-6.205,2.243-7.757S5.437-.75,9.25-.75Zm0,18.5c6.514,0,8.5-1.986,8.5-8.5S15.764.75,9.25.75.75,2.736.75,9.25,2.736,17.75,9.25,17.75Z" transform="translate(0.75 0.75)"/>
    <path id="Stroke_3" data-name="Stroke 3" d="M1.761-.75A2.511,2.511,0,1,1-.75,1.761,2.514,2.514,0,0,1,1.761-.75Zm0,3.522A1.011,1.011,0,1,0,.75,1.761,1.012,1.012,0,0,0,1.761,2.772Z" transform="translate(5.077 5.023)"/>
    <path id="Stroke_5" data-name="Stroke 5" d="M0,7.694a.747.747,0,0,1-.3-.063.75.75,0,0,1-.388-.987c.138-.318,1.4-3.129,3.131-3.94a3.434,3.434,0,0,1,2.89.112,6.118,6.118,0,0,0,2.23.472c.708,0,1.114-.632,1.717-1.663C9.9.567,10.669-.75,12.238-.75A6.073,6.073,0,0,1,16.8,1.784c.142.158.276.308.4.43A.75.75,0,0,1,16.116,3.26c-.14-.144-.284-.3-.436-.475A4.7,4.7,0,0,0,12.238.75c-.674,0-1.071.62-1.664,1.632C9.947,3.454,9.167,4.788,7.563,4.788a7.566,7.566,0,0,1-2.738-.561C4,3.931,3.616,3.81,3.081,4.062,2.047,4.547.98,6.572.688,7.244A.75.75,0,0,1,0,7.694Z" transform="translate(2.466 9.93)"/>
  </g>
</svg>
