<svg xmlns="http://www.w3.org/2000/svg" width="17.127" height="15.524" viewBox="0 0 17.127 15.524">
  <g id="Group_55599" data-name="Group 55599" transform="translate(-0.02 -23.976)">
    <path id="Path_77176" data-name="Path 77176" d="M17.1,36.259l-.842-2.409A6.615,6.615,0,0,0,5.41,26.362,6.616,6.616,0,0,0,.87,36.145L.028,38.554a.5.5,0,0,0,.571.658l2.816-.557a6.611,6.611,0,0,0,8.291-1.573,6.933,6.933,0,0,0,2.005-.722l2.816.557a.5.5,0,0,0,.571-.658ZM6.614,38.476A5.6,5.6,0,0,1,3.758,37.7a.5.5,0,0,0-.353-.061l-2.14.423.63-1.8a.5.5,0,0,0-.048-.431,5.611,5.611,0,1,1,4.768,2.652Zm8.618-4.517.63,1.8-2.14-.423a.5.5,0,0,0-.353.061,5.651,5.651,0,0,1-.829.4,6.612,6.612,0,0,0-5.623-9.543,5.613,5.613,0,0,1,8.362,7.271A.5.5,0,0,0,15.232,33.96Z" transform="translate(0.02 0.02)"/>
    <path id="Path_77177" data-name="Path 77177" d="M68.642,253.742a.5.5,0,0,0-.5.5v1.443a.5.5,0,1,0,1,0v-1.443A.5.5,0,0,0,68.642,253.742Z" transform="translate(-65.841 -222.08)"/>
    <path id="Path_77178" data-name="Path 77178" d="M125.94,222.23a.5.5,0,0,0-.5.5v3.551a.5.5,0,1,0,1,0v-3.551A.5.5,0,0,0,125.94,222.23Z" transform="translate(-121.222 -191.622)"/>
    <path id="Path_77179" data-name="Path 77179" d="M183.237,253.742a.5.5,0,0,0-.5.5v1.443a.5.5,0,1,0,1,0v-1.443A.5.5,0,0,0,183.237,253.742Z" transform="translate(-176.602 -222.08)"/>
    <path id="Path_77180" data-name="Path 77180" d="M240.535,237.118a.5.5,0,0,0-.5.5v2.555a.5.5,0,1,0,1,0V237.62A.5.5,0,0,0,240.535,237.118Z" transform="translate(-231.984 -206.012)"/>
    <path id="Path_77181" data-name="Path 77181" d="M297.831,265.689a.5.5,0,0,0-.5.5v.644a.5.5,0,0,0,1,0v-.644A.5.5,0,0,0,297.831,265.689Z" transform="translate(-287.363 -233.627)"/>
  </g>
</svg>
