<svg xmlns="http://www.w3.org/2000/svg" width="16.5" height="19.5" viewBox="0 0 16.5 19.5">
  <g id="Location" transform="translate(0.75 0.75)">
    <path id="Stroke_1" data-name="Stroke 1" d="M2.5,5.75A3.25,3.25,0,1,1,5.75,2.5,3.253,3.253,0,0,1,2.5,5.75Zm0-5A1.75,1.75,0,1,0,4.25,2.5,1.752,1.752,0,0,0,2.5.75Z" transform="translate(5.01 5.21)"/>
    <path id="Stroke_3" data-name="Stroke 3" d="M7.5,18.75c-1.666,0-3.746-1.333-5.427-3.478A12.8,12.8,0,0,1-.75,7.6,8.309,8.309,0,0,1,7.5-.75,8.309,8.309,0,0,1,15.75,7.6a12.8,12.8,0,0,1-2.823,7.673C11.246,17.417,9.166,18.75,7.5,18.75Zm0-18A6.807,6.807,0,0,0,.75,7.6a11.274,11.274,0,0,0,2.5,6.748c1.361,1.737,3.067,2.9,4.246,2.9s2.886-1.167,4.247-2.9A11.273,11.273,0,0,0,14.25,7.6,6.808,6.808,0,0,0,7.5.75Z"/>
  </g>
</svg>
