<svg xmlns="http://www.w3.org/2000/svg" width="20.11" height="20" viewBox="0 0 20.11 20">
  <g id="Login" transform="translate(0 0)">
    <path id="Stroke_1" data-name="Stroke 1" d="M12.041,1.25H0A.75.75,0,1,1,0-.25H12.041a.75.75,0,0,1,0,1.5Z" transform="translate(0.75 9.621)"/>
    <path id="Stroke_3" data-name="Stroke 3" d="M0,6.582a.748.748,0,0,1-.531-.221.75.75,0,0,1,0-1.061L1.865,2.916-.529.531a.75.75,0,0,1,0-1.061.75.75,0,0,1,1.061,0L3.457,2.385a.75.75,0,0,1,0,1.063L.529,6.363A.748.748,0,0,1,0,6.582Z" transform="translate(9.864 7.205)"/>
    <path id="Stroke_4" data-name="Stroke 4" d="M7,19.25c-2.9,0-4.644-.372-5.822-1.245A5.657,5.657,0,0,1-.747,13.689a.75.75,0,0,1,.678-.816.75.75,0,0,1,.816.678c.159,1.728.543,2.67,1.325,3.249.887.657,2.407.95,4.928.95,3.233,0,4.848-.482,5.574-1.665.777-1.264.777-3.48.777-6.835s0-5.571-.777-6.835C11.848,1.232,10.233.75,7,.75c-2.522,0-4.042.293-4.928.95C1.29,2.279.906,3.22.747,4.949a.75.75,0,0,1-.816.678.75.75,0,0,1-.678-.816A5.657,5.657,0,0,1,1.178.495C2.356-.378,4.1-.75,7-.75c3.829,0,5.814.69,6.852,2.38,1,1.626,1,4.01,1,7.62s0,5.994-1,7.62C12.814,18.56,10.829,19.25,7,19.25Z" transform="translate(5.259 0.75)"/>
  </g>
</svg>
