<svg xmlns="http://www.w3.org/2000/svg" width="21.033" height="20" viewBox="0 0 21.033 20">
  <g id="Logout" transform="translate(0.491 0)">
    <path id="Stroke_1" data-name="Stroke 1" d="M12.041,1.25H0A.75.75,0,1,1,0-.25H12.041a.75.75,0,0,1,0,1.5Z" transform="translate(7.75 9.621)"/>
    <path id="Stroke_3" data-name="Stroke 3" d="M0,6.582a.748.748,0,0,1-.531-.221.75.75,0,0,1,0-1.061L1.865,2.916-.529.531a.75.75,0,0,1,0-1.061.75.75,0,0,1,1.061,0L3.457,2.385a.75.75,0,0,1,0,1.063L.529,6.363A.748.748,0,0,1,0,6.582Z" transform="translate(16.864 7.205)"/>
    <path id="Stroke_4" data-name="Stroke 4" d="M-7,19.25c-3.829,0-5.814-.69-6.852-2.38-1-1.626-1-4.01-1-7.62s0-5.994,1-7.62C-12.814-.06-10.829-.75-7-.75c2.9,0,4.644.372,5.822,1.245A5.657,5.657,0,0,1,.747,4.811a.75.75,0,0,1-.678.816.75.75,0,0,1-.816-.678C-.906,3.22-1.29,2.279-2.072,1.7-2.958,1.043-4.478.75-7,.75c-3.233,0-4.848.482-5.574,1.665-.777,1.264-.777,3.48-.777,6.835s0,5.571.777,6.835c.726,1.183,2.341,1.665,5.574,1.665,2.522,0,4.042-.293,4.928-.95.782-.579,1.165-1.52,1.325-3.249a.75.75,0,0,1,.816-.678.75.75,0,0,1,.678.816,5.657,5.657,0,0,1-1.925,4.316C-2.356,18.878-4.1,19.25-7,19.25Z" transform="translate(14.36 0.75)"/>
  </g>
</svg>
