<svg xmlns="http://www.w3.org/2000/svg" width="20.548" height="19.734" viewBox="0 0 20.548 19.734">
  <g id="Message" transform="translate(0.75 0.75)">
    <path id="Stroke_1" data-name="Stroke 1" d="M5.593,4.6c-1.16,0-2.563-.71-4.169-2.111a20.455,20.455,0,0,1-2-2.008A.75.75,0,0,1-.483-.574a.75.75,0,0,1,1.057.09C1.743.9,4.141,3.1,5.593,3.1S9.419.9,10.575-.48a.75.75,0,0,1,1.056-.1.75.75,0,0,1,.1,1.056,20.178,20.178,0,0,1-1.98,2.01C8.152,3.892,6.754,4.6,5.593,4.6Z" transform="translate(3.942 6.167)"/>
    <path id="Stroke_3" data-name="Stroke 3" d="M9.524-.75c3.913,0,6.368.679,7.959,2.2S19.8,5.348,19.8,9.117s-.714,6.132-2.315,7.664-4.046,2.2-7.959,2.2-6.368-.679-7.959-2.2S-.75,12.885-.75,9.117s.714-6.132,2.315-7.664S5.611-.75,9.524-.75Zm0,18.234c6.724,0,8.774-1.955,8.774-8.367S16.248.75,9.524.75.75,2.7.75,9.117,2.8,17.484,9.524,17.484Z" transform="translate(0 0)"/>
  </g>
</svg>
