<svg xmlns="http://www.w3.org/2000/svg" width="16.261" height="20.589" viewBox="0 0 16.261 20.589">
  <g id="Notification" transform="translate(0.749 0.75)">
    <path id="Stroke_1" data-name="Stroke 1" d="M7.382-.75a6.643,6.643,0,0,1,5.436,2.63,8.1,8.1,0,0,1,1.675,4.79c0,.425-.013.733-.023.98-.032.772-.032.772.766,2.53l.016.038a3.166,3.166,0,0,1-.289,3.054,6.609,6.609,0,0,1-3.472,2.2,14.428,14.428,0,0,1-4.109.628,14.432,14.432,0,0,1-4.11-.628A6.608,6.608,0,0,1-.2,13.272a3.166,3.166,0,0,1-.289-3.054l.016-.038c.8-1.758.8-1.758.766-2.53C.283,7.4.271,7.094.271,6.67A8.1,8.1,0,0,1,1.946,1.88,6.643,6.643,0,0,1,7.382-.75Zm6.479,11.53c-.87-1.917-.935-2.093-.89-3.191.01-.234.021-.525.021-.919,0-1.931-1.372-5.92-5.611-5.92S1.771,4.738,1.771,6.67c0,.394.012.685.021.919.045,1.1-.02,1.274-.89,3.191a1.658,1.658,0,0,0,.136,1.645c.93,1.36,3.956,2.173,6.344,2.173s5.413-.813,6.343-2.173A1.658,1.658,0,0,0,13.861,10.78Z" transform="translate(0 0)"/>
    <path id="Stroke_3" data-name="Stroke 3" d="M2.307,1.841A3.831,3.831,0,0,1-.559.5.75.75,0,0,1-.5-.559.75.75,0,0,1,.559-.5a2.352,2.352,0,0,0,1.748.84A2.361,2.361,0,0,0,4.061-.5.75.75,0,0,1,5.12-.559.75.75,0,0,1,5.179.5,3.84,3.84,0,0,1,2.307,1.841Z" transform="translate(5.071 17.998)"/>
  </g>
</svg>
