<svg xmlns="http://www.w3.org/2000/svg" width="22.632" height="19.54" viewBox="0 0 22.632 19.54">
  <g id="Scan" transform="translate(0.75 0.75)">
    <path id="Stroke_1" data-name="Stroke 1" d="M21.132,1.25H0A.75.75,0,0,1,0-.25H21.132a.75.75,0,0,1,0,1.5Z" transform="translate(0 9.35)"/>
    <path id="Stroke_3" data-name="Stroke 3" d="M0,6.52a.755.755,0,0,1-.122-.01A.75.75,0,0,1-.74,5.649C-.118,1.852,1.852-.118,5.649-.74a.75.75,0,0,1,.861.619A.75.75,0,0,1,5.891.74C2.747,1.255,1.255,2.747.74,5.891A.75.75,0,0,1,0,6.52Z" transform="translate(1.546 0)"/>
    <path id="Stroke_5" data-name="Stroke 5" d="M5.982,8.936a.755.755,0,0,1-.124-.01C2.079,8.3.11,6.341-.52,2.592q-.005-.023-.009-.047A17.838,17.838,0,0,1-.75.017.75.75,0,0,1-.017-.75.75.75,0,0,1,.75-.017,16.5,16.5,0,0,0,.941,2.245q.006.025.01.05c.52,3.176,1.965,4.62,5.153,5.151a.75.75,0,0,1-.122,1.49Z" transform="translate(1.335 9.854)"/>
    <path id="Stroke_7" data-name="Stroke 7" d="M0,8.936A.75.75,0,0,1-.74,8.309a.75.75,0,0,1,.617-.863c3.172-.529,4.619-1.961,5.146-5.1q0-.022.006-.045a16.484,16.484,0,0,0,.2-2.314A.75.75,0,0,1,6-.75a.75.75,0,0,1,.733.767,18.1,18.1,0,0,1-.212,2.477q0,.022-.006.044C5.89,6.323,3.92,8.293.123,8.926A.756.756,0,0,1,0,8.936Z" transform="translate(13.816 9.854)"/>
    <path id="Stroke_9" data-name="Stroke 9" d="M5.769,6.52a.75.75,0,0,1-.739-.629C4.515,2.747,3.023,1.255-.121.74A.75.75,0,0,1-.74-.121.75.75,0,0,1,.121-.74c3.8.622,5.767,2.592,6.389,6.389a.751.751,0,0,1-.741.871Z" transform="translate(13.816 0)"/>
  </g>
</svg>
