<svg xmlns="http://www.w3.org/2000/svg" width="19.832" height="19.831" viewBox="0 0 19.832 19.831">
  <g id="Send" transform="translate(0.75 0.75)">
    <path id="Stroke_1" data-name="Stroke 1" d="M17.265-.75a2.705,2.705,0,0,1,1.273.234.75.75,0,0,1,.309.309c.2.385.393,1.118.023,3.4A50.96,50.96,0,0,1,17.7,8.315a50.62,50.62,0,0,1-3.478,9.512,2.057,2.057,0,0,1-1.713,1.254c-1.25,0-2.292-1.5-3.379-4.866-.517-1.6-.895-3.179-1.068-3.947C7.316,10.1,5.8,9.737,4.243,9.241A19.34,19.34,0,0,1,1.149,8.009C-.019,7.39-.616,6.769-.731,6.056-.814,5.54-.667,4.784.5,4.108,3.626,2.306,13.663-.75,17.265-.75Zm.3,1.512c-.079-.007-.179-.012-.3-.012A36.772,36.772,0,0,0,9.2,2.423,44.158,44.158,0,0,0,1.253,5.408c-.4.228-.485.382-.5.416.031.082.413.861,3.938,1.985C6.759,8.469,8.825,8.9,8.845,8.9a.75.75,0,0,1,.582.582c0,.021.435,2.086,1.095,4.155,1.124,3.524,1.9,3.907,1.985,3.938.035-.016.188-.106.417-.5A47.8,47.8,0,0,0,16.232,8a50.51,50.51,0,0,0,1.142-4.956A9.884,9.884,0,0,0,17.57.762Z" transform="translate(0 0)"/>
    <path id="Stroke_3" data-name="Stroke 3" d="M0,10.242a.748.748,0,0,1-.53-.22.75.75,0,0,1,0-1.061L8.962-.53a.75.75,0,0,1,1.061,0,.75.75,0,0,1,0,1.061L.53,10.023A.748.748,0,0,1,0,10.242Z" transform="translate(8.693 0.146)"/>
  </g>
</svg>
