<svg xmlns="http://www.w3.org/2000/svg" width="18.498" height="20.5" viewBox="0 0 18.498 20.5">
  <g id="Setting" transform="translate(0.749 0.75)">
    <path id="Stroke_1" data-name="Stroke 1" d="M2.5-.75A3.25,3.25,0,1,1-.75,2.5,3.254,3.254,0,0,1,2.5-.75Zm0,5A1.75,1.75,0,1,0,.75,2.5,1.752,1.752,0,0,0,2.5,4.25Z" transform="translate(6 7)"/>
    <path id="Stroke_3" data-name="Stroke 3" d="M8.5-.75a3.237,3.237,0,0,1,3.224,3.242.8.8,0,0,0,.8.807.773.773,0,0,0,.392-.109,3.208,3.208,0,0,1,1.611-.436h0A3.244,3.244,0,0,1,16.14,8.8a.81.81,0,0,0-.017,1.385l.018.01a3.245,3.245,0,0,1-1.618,6.049,3.21,3.21,0,0,1-1.611-.436.773.773,0,0,0-.393-.109.8.8,0,0,0-.795.806,3.224,3.224,0,1,1-6.449,0,.785.785,0,0,0-.241-.579.805.805,0,0,0-.553-.227.77.77,0,0,0-.392.109l-.027.015a3.212,3.212,0,0,1-4.381-1.2A3.257,3.257,0,0,1,.861,10.2a.81.81,0,0,0,0-1.4A3.244,3.244,0,0,1,2.476,2.754a3.212,3.212,0,0,1,1.613.436A.77.77,0,0,0,4.48,3.3a.8.8,0,0,0,.8-.807A3.237,3.237,0,0,1,8.5-.75ZM12.52,4.8a2.3,2.3,0,0,1-2.3-2.307,1.724,1.724,0,1,0-3.449,0,2.288,2.288,0,0,1-3.44,1.995,1.71,1.71,0,0,0-.859-.233,1.728,1.728,0,0,0-1.494.869,1.753,1.753,0,0,0,.632,2.382,2.31,2.31,0,0,1,0,3.988,1.753,1.753,0,0,0-.633,2.383,1.729,1.729,0,0,0,1.495.869,1.708,1.708,0,0,0,.857-.232l.028-.015a2.281,2.281,0,0,1,1.119-.3,2.318,2.318,0,0,1,1.6.648,2.283,2.283,0,0,1,.7,1.658,1.724,1.724,0,1,0,3.449,0,2.288,2.288,0,0,1,3.442-1.994,1.708,1.708,0,0,0,.857.232,1.729,1.729,0,0,0,1.495-.87,1.753,1.753,0,0,0-.613-2.372l-.02-.011a2.31,2.31,0,0,1,0-3.988,1.752,1.752,0,0,0,.632-2.383,1.728,1.728,0,0,0-1.494-.869h0a1.707,1.707,0,0,0-.857.233A2.285,2.285,0,0,1,12.52,4.8Z"/>
  </g>
</svg>
