<svg xmlns="http://www.w3.org/2000/svg" width="16.969" height="20.355" viewBox="0 0 16.969 20.355">
  <g id="Shield_Done" data-name="Shield Done" transform="translate(0 -0.001)">
    <path id="Stroke_1" data-name="Stroke 1" d="M7.735,19.6a8.639,8.639,0,0,1-5.2-2.14A9.25,9.25,0,0,1-.687,10.128c0-1.916-.025-3.306-.043-4.321A23.237,23.237,0,0,1-.714,3.391,1.958,1.958,0,0,1-.13,2.077,13.326,13.326,0,0,1,7.735-.75,13.34,13.34,0,0,1,15.6,2.077a1.959,1.959,0,0,1,.583,1.314A23.234,23.234,0,0,1,16.2,5.8c-.018,1.015-.043,2.406-.043,4.324a9.25,9.25,0,0,1-3.225,7.337A8.639,8.639,0,0,1,7.735,19.6ZM7.735.75a12.032,12.032,0,0,0-6.8,2.387c-.194.194-.2.512-.162,2.644C.787,6.8.813,8.2.813,10.128a7.792,7.792,0,0,0,2.7,6.194A7.194,7.194,0,0,0,7.735,18.1a7.194,7.194,0,0,0,4.226-1.783,7.792,7.792,0,0,0,2.7-6.194c0-1.931.025-3.33.044-4.351.038-2.129.031-2.447-.161-2.64A12.047,12.047,0,0,0,7.735.75Z" transform="translate(0.75 0.751)"/>
    <path id="Stroke_3" data-name="Stroke 3" d="M1.892,4.65a.75.75,0,0,1-.531-.22l-1.892-1.9a.75.75,0,0,1,0-1.061.75.75,0,0,1,1.061,0L1.892,2.839,5.26-.53a.75.75,0,0,1,1.061,0A.75.75,0,0,1,6.32.53l-3.9,3.9A.75.75,0,0,1,1.892,4.65Z" transform="translate(5.886 7.87)"/>
  </g>
</svg>
