<svg xmlns="http://www.w3.org/2000/svg" width="16.97" height="20.355" viewBox="0 0 16.97 20.355">
  <g id="Shield_Fail" data-name="Shield Fail" transform="translate(0 -0.001)">
    <path id="Stroke_1" data-name="Stroke 1" d="M7.736,19.6a8.641,8.641,0,0,1-5.2-2.14A9.249,9.249,0,0,1-.687,10.128c0-1.916-.025-3.306-.043-4.321A23.237,23.237,0,0,1-.714,3.391,1.958,1.958,0,0,1-.13,2.077,13.34,13.34,0,0,1,7.736-.75,13.338,13.338,0,0,1,15.6,2.077a1.958,1.958,0,0,1,.584,1.314A23.238,23.238,0,0,1,16.2,5.807c-.018,1.015-.043,2.4-.043,4.321a9.25,9.25,0,0,1-3.225,7.337A8.639,8.639,0,0,1,7.736,19.6ZM7.736.75a12.046,12.046,0,0,0-6.8,2.387c-.193.193-.2.512-.162,2.643C.787,6.8.813,8.2.813,10.128a7.791,7.791,0,0,0,2.7,6.194A7.2,7.2,0,0,0,7.736,18.1a7.194,7.194,0,0,0,4.226-1.783,7.792,7.792,0,0,0,2.7-6.194c0-1.929.025-3.327.044-4.348.038-2.131.031-2.45-.162-2.643A12.045,12.045,0,0,0,7.736.75Z" transform="translate(0.75 0.751)"/>
    <path id="Stroke_3" data-name="Stroke 3" d="M3.759,4.508a.748.748,0,0,1-.53-.22L-.53.53A.75.75,0,0,1-.53-.53.75.75,0,0,1,.53-.53L4.289,3.228a.75.75,0,0,1-.53,1.28Z" transform="translate(6.605 8.066)"/>
    <path id="Stroke_5" data-name="Stroke 5" d="M0,4.508a.748.748,0,0,1-.53-.22.75.75,0,0,1,0-1.061L3.229-.53a.75.75,0,0,1,1.061,0,.75.75,0,0,1,0,1.061L.53,4.288A.748.748,0,0,1,0,4.508Z" transform="translate(6.605 8.066)"/>
  </g>
</svg>
