<svg xmlns="http://www.w3.org/2000/svg" width="20.004" height="16.104" viewBox="0 0 20.004 16.104">
  <g id="Show" transform="translate(0 0)">
    <path id="Stroke_1" data-name="Stroke 1" d="M3.162-.75A3.912,3.912,0,1,1-.75,3.162,3.916,3.916,0,0,1,3.162-.75Zm0,6.324A2.412,2.412,0,1,0,.75,3.162,2.415,2.415,0,0,0,3.162,5.574Z" transform="translate(6.84 4.89)"/>
    <path id="Stroke_3" data-name="Stroke 3" d="M9.252-.75a10.912,10.912,0,0,1,7.026,2.6A7.588,7.588,0,0,1,19.254,7.3a7.588,7.588,0,0,1-2.976,5.455,10.8,10.8,0,0,1-14.052,0A7.589,7.589,0,0,1-.75,7.3,7.589,7.589,0,0,1,2.226,1.848,10.91,10.91,0,0,1,9.252-.75Zm0,14.6c4.579,0,8.5-3.6,8.5-6.552S13.831.75,9.252.75.75,4.353.75,7.3,4.673,13.854,9.252,13.854Z" transform="translate(0.75 0.75)"/>
  </g>
</svg>
