<svg xmlns="http://www.w3.org/2000/svg" width="19.585" height="16.328" viewBox="0 0 19.585 16.328">
  <g id="Swap" transform="translate(0.75 0.75)">
    <path id="Stroke_1" data-name="Stroke 1" d="M.5,13.368a.75.75,0,0,1-.75-.75V0a.75.75,0,1,1,1.5,0V12.618A.75.75,0,0,1,.5,13.368Z" transform="translate(3.579 0.001)"/>
    <path id="Stroke_3" data-name="Stroke 3" d="M8.157,4.85a.75.75,0,0,1-.664-.4C6.7,2.959,5.069.75,4.078.75S1.454,2.958.663,4.451a.75.75,0,0,1-1.014.312A.75.75,0,0,1-.663,3.749,17.382,17.382,0,0,1,.727,1.6C1.929.017,3.025-.75,4.078-.75S6.227.017,7.429,1.6a17.4,17.4,0,0,1,1.39,2.154.75.75,0,0,1-.662,1.1Z" transform="translate(0 0)"/>
    <path id="Stroke_5" data-name="Stroke 5" d="M.5,13.368a.75.75,0,0,1-.75-.75V0a.75.75,0,1,1,1.5,0V12.618A.75.75,0,0,1,.5,13.368Z" transform="translate(13.506 2.21)"/>
    <path id="Stroke_7" data-name="Stroke 7" d="M4.078,4.85C3.026,4.85,1.929,4.083.727,2.5A17.4,17.4,0,0,1-.663.351.75.75,0,0,1-.351-.663.75.75,0,0,1,.663-.351c.792,1.492,2.425,3.7,3.415,3.7S6.7,1.142,7.493-.351A.75.75,0,0,1,8.507-.663.75.75,0,0,1,8.819.351,17.4,17.4,0,0,1,7.429,2.5C6.227,4.083,5.13,4.85,4.078,4.85Z" transform="translate(9.929 10.728)"/>
  </g>
</svg>
