<svg xmlns="http://www.w3.org/2000/svg" width="20" height="20" viewBox="0 0 20 20">
  <g id="Tick_Square" data-name="Tick Square" transform="translate(0 0)">
    <path id="Stroke_1" data-name="Stroke 1" d="M2.374,5.5a.748.748,0,0,1-.53-.22L-.53,2.9a.75.75,0,0,1,0-1.061.75.75,0,0,1,1.061,0L2.374,3.685,6.59-.53a.75.75,0,0,1,1.061,0A.75.75,0,0,1,7.65.53L2.9,5.276A.748.748,0,0,1,2.374,5.5Z" transform="translate(6.44 7.627)"/>
    <path id="Stroke_2" data-name="Stroke 2" d="M9.25-.75c3.813,0,6.205.692,7.757,2.243S19.25,5.437,19.25,9.25s-.692,6.205-2.243,7.757S13.063,19.25,9.25,19.25s-6.205-.692-7.757-2.243S-.75,13.063-.75,9.25s.692-6.205,2.243-7.757S5.437-.75,9.25-.75Zm0,18.5c6.514,0,8.5-1.986,8.5-8.5S15.764.75,9.25.75.75,2.736.75,9.25,2.736,17.75,9.25,17.75Z" transform="translate(0.75 0.75)"/>
  </g>
</svg>
