<svg xmlns="http://www.w3.org/2000/svg" width="20.29" height="18.553" viewBox="0 0 20.29 18.553">
  <g id="Ticket_Star" data-name="Ticket Star" transform="translate(0.75 0.75)">
    <path id="Stroke_1" data-name="Stroke 1" d="M9.4,17.8c-4.921,0-7.363-.457-8.713-1.631C-.75,14.926-.75,13.1-.75,10.583A.75.75,0,0,1,0,9.833,1.2,1.2,0,0,0,1.246,8.526,1.2,1.2,0,0,0,0,7.219a.75.75,0,0,1-.75-.75c0-2.521,0-4.342,1.432-5.588C2.032-.293,4.474-.75,9.4-.75s7.363.457,8.713,1.631C19.54,2.126,19.54,3.948,19.54,6.469a.75.75,0,0,1-.75.75,1.2,1.2,0,0,0-1.246,1.307A1.2,1.2,0,0,0,18.79,9.833a.75.75,0,0,1,.75.75c0,2.521,0,4.343-1.432,5.589C16.758,17.345,14.316,17.8,9.4,17.8ZM.752,11.243c.014,1.987.123,3.108.915,3.8C2.684,15.925,5,16.3,9.4,16.3s6.711-.378,7.728-1.263c.792-.689.9-1.81.915-3.8a2.715,2.715,0,0,1-1.994-2.717,2.715,2.715,0,0,1,1.994-2.717c-.014-1.987-.123-3.108-.915-3.8C16.106,1.128,13.794.75,9.4.75s-6.711.378-7.728,1.263c-.792.689-.9,1.81-.915,3.8A2.715,2.715,0,0,1,2.746,8.526,2.715,2.715,0,0,1,.752,11.243Z" transform="translate(0 0)"/>
    <path id="Stroke_3" data-name="Stroke 3" d="M3.018-.75C3.941-.75,4.3.094,4.5.548A3.625,3.625,0,0,0,4.661.89a3.664,3.664,0,0,0,.377.029,3.3,3.3,0,0,1,.826.11,1.237,1.237,0,0,1,.881.887,1.576,1.576,0,0,1-.82,1.659,2.68,2.68,0,0,0-.278.228,2.574,2.574,0,0,0,.085.368A1.563,1.563,0,0,1,5.3,6.044a1.3,1.3,0,0,1-.753.238,2.225,2.225,0,0,1-1.144-.417,2.162,2.162,0,0,0-.387-.2,2.161,2.161,0,0,0-.387.2,2.224,2.224,0,0,1-1.144.417,1.3,1.3,0,0,1-.752-.237A1.565,1.565,0,0,1,.3,4.172,2.573,2.573,0,0,0,.39,3.8a2.679,2.679,0,0,0-.278-.229,1.576,1.576,0,0,1-.82-1.658,1.238,1.238,0,0,1,.881-.888A3.3,3.3,0,0,1,1,.919,3.664,3.664,0,0,0,1.376.89,3.625,3.625,0,0,0,1.536.548C1.732.094,2.1-.75,3.018-.75ZM4.969,2.417a1.94,1.94,0,0,1-1.312-.4,2.547,2.547,0,0,1-.535-.878c-.029-.066-.066-.154-.1-.233-.038.08-.076.167-.1.233a2.547,2.547,0,0,1-.533.877,1.94,1.94,0,0,1-1.313.4A1.865,1.865,0,0,1,1.85,3.43a2.246,2.246,0,0,1-.1,1.145l-.023.083.127-.076a2.259,2.259,0,0,1,1.165-.423,2.259,2.259,0,0,1,1.165.423l.127.076-.023-.083a2.244,2.244,0,0,1-.1-1.144A1.866,1.866,0,0,1,4.969,2.417Z" transform="translate(6.377 5.76)"/>
  </g>
</svg>
