<svg xmlns="http://www.w3.org/2000/svg" width="20.5" height="18.5" viewBox="0 0 20.5 18.5">
  <g id="Ticket" transform="translate(0.75 0.25)">
    <path id="Stroke_1" data-name="Stroke 1" d="M.475,3.405a.75.75,0,0,1-.75-.75V0a.75.75,0,1,1,1.5,0V2.655A.75.75,0,0,1,.475,3.405Z" transform="translate(10.384 0.6)"/>
    <path id="Stroke_3" data-name="Stroke 3" d="M.475,2.97a.75.75,0,0,1-.75-.75V0a.75.75,0,0,1,1.5,0V2.22A.75.75,0,0,1,.475,2.97Z" transform="translate(10.384 14.544)"/>
    <path id="Stroke_6" data-name="Stroke 6" d="M.475,6.039a.75.75,0,0,1-.75-.75V0a.75.75,0,0,1,1.5,0V5.289A.75.75,0,0,1,.475,6.039Z" transform="translate(10.384 6.255)"/>
    <path id="Stroke_7" data-name="Stroke 7" d="M9.5,17.75c-4.971,0-7.439-.455-8.8-1.623C-.75,14.884-.75,13.066-.75,10.55A.75.75,0,0,1,0,9.8,1.209,1.209,0,0,0,1.268,8.5,1.209,1.209,0,0,0,0,7.2a.75.75,0,0,1-.75-.75C-.75,3.933-.75,2.115.7.873,2.061-.3,4.529-.75,9.5-.75S16.939-.3,18.3.873c1.449,1.243,1.449,3.06,1.449,5.576A.75.75,0,0,1,19,7.2a1.209,1.209,0,0,0-1.268,1.3A1.209,1.209,0,0,0,19,9.8a.75.75,0,0,1,.75.75c0,2.516,0,4.334-1.449,5.577C16.939,17.295,14.471,17.75,9.5,17.75ZM.752,11.212c.013,2.024.121,3.088.924,3.776,1.031.884,3.371,1.262,7.824,1.262s6.793-.377,7.824-1.262c.8-.689.911-1.752.924-3.776A2.711,2.711,0,0,1,16.232,8.5a2.711,2.711,0,0,1,2.016-2.712c-.013-2.024-.121-3.087-.924-3.776C16.293,1.127,13.953.75,9.5.75s-6.793.377-7.824,1.262C.873,2.7.765,3.763.752,5.787A2.711,2.711,0,0,1,2.768,8.5,2.711,2.711,0,0,1,.752,11.212Z" transform="translate(0 0.5)"/>
  </g>
</svg>
