<svg xmlns="http://www.w3.org/2000/svg" width="20" height="20" viewBox="0 0 20 20">
  <g id="Time_Square" data-name="Time Square" transform="translate(0 0)">
    <path id="Stroke_1" data-name="Stroke 1" d="M9.25-.75c3.813,0,6.205.692,7.757,2.243S19.25,5.437,19.25,9.25s-.692,6.205-2.243,7.757S13.063,19.25,9.25,19.25s-6.205-.692-7.757-2.243S-.75,13.063-.75,9.25s.692-6.205,2.243-7.757S5.437-.75,9.25-.75Zm0,18.5c6.514,0,8.5-1.986,8.5-8.5S15.764.75,9.25.75.75,2.736.75,9.25,2.736,17.75,9.25,17.75Z" transform="translate(0.75 0.75)"/>
    <path id="Stroke_3" data-name="Stroke 3" d="M3.39,7.134a.746.746,0,0,1-.384-.106L-.384,5.005A.75.75,0,0,1-.75,4.361V0A.75.75,0,0,1,0-.75.75.75,0,0,1,.75,0V3.935l3.025,1.8A.75.75,0,0,1,3.39,7.134Z" transform="translate(9.999 5.634)"/>
  </g>
</svg>
