<svg xmlns="http://www.w3.org/2000/svg" width="20.462" height="15.346" viewBox="0 0 20.462 15.346">
  <g id="Video" transform="translate(0.75 0.75)">
    <path id="Stroke_1" data-name="Stroke 1" d="M4.5,10.411a4.648,4.648,0,0,1-1.93-.653A21.571,21.571,0,0,1-.461,7.772.75.75,0,0,1-.592,6.72a.75.75,0,0,1,1.053-.13,15.034,15.034,0,0,0,3.8,2.279,20.406,20.406,0,0,0,.311-4.026A18.563,18.563,0,0,0,4.268.784,6.1,6.1,0,0,0,2.913,1.4,19.646,19.646,0,0,0,.466,3.054.75.75,0,0,1-.588,2.932.75.75,0,0,1-.466,1.879,20.083,20.083,0,0,1,2.553-.115c.954-.5,2.131-.979,2.769-.289.218.235.464.675.62,2.154a30.2,30.2,0,0,1,.133,3.12c0,1.139-.058,2.241-.152,3.1-.158,1.455-.383,1.875-.6,2.11A1.061,1.061,0,0,1,4.5,10.411Z" transform="translate(13.637 2.092)"/>
    <path id="Stroke_3" data-name="Stroke 3" d="M6.9-.75c2.9,0,4.726.535,5.922,1.735s1.728,3.03,1.728,5.938-.533,4.738-1.728,5.938S9.8,14.6,6.9,14.6,2.174,14.061.978,12.861-.75,9.83-.75,6.923-.217,2.184.978.985,4-.75,6.9-.75ZM6.9,13.1c2.469,0,3.968-.4,4.859-1.294s1.291-2.4,1.291-4.879-.4-3.984-1.29-4.879S9.37.75,6.9.75s-3.968.4-4.86,1.294S.75,4.444.75,6.923s.4,3.983,1.291,4.879S4.432,13.1,6.9,13.1Z" transform="translate(0 0)"/>
  </g>
</svg>
