<svg xmlns="http://www.w3.org/2000/svg" width="15.768" height="20.5" viewBox="0 0 15.768 20.5">
  <g id="Voice" transform="translate(0.75 0.75)">
    <path id="Stroke_1" data-name="Stroke 1" d="M5.669,6.419A6.426,6.426,0,0,1-.75,0,.75.75,0,0,1,0-.75.75.75,0,0,1,.75,0,4.925,4.925,0,0,0,5.669,4.919,4.925,4.925,0,0,0,10.589,0a.75.75,0,1,1,1.5,0A6.427,6.427,0,0,1,5.669,6.419Z" transform="translate(1.465 11.178)"/>
    <path id="Stroke_3" data-name="Stroke 3" d="M11.339,8.673a.75.75,0,0,1-.75-.75V5.669a4.919,4.919,0,0,0-9.839,0V7.923a.75.75,0,0,1-.75.75.75.75,0,0,1-.75-.75V5.669a6.419,6.419,0,0,1,12.839,0V7.923A.75.75,0,0,1,11.339,8.673Z" transform="translate(1.465 0)"/>
    <path id="Stroke_5" data-name="Stroke 5" d="M.5,2.9a.75.75,0,0,1-.75-.75V0a.75.75,0,0,1,1.5,0V2.152A.75.75,0,0,1,.5,2.9Z" transform="translate(6.634 16.848)"/>
    <path id="Stroke_7" data-name="Stroke 7" d="M14.268,1.25H0A.75.75,0,1,1,0-.25H14.268a.75.75,0,0,1,0,1.5Z" transform="translate(0 10.678)"/>
  </g>
</svg>
