<svg xmlns="http://www.w3.org/2000/svg" width="15.056" height="19.55" viewBox="0 0 15.056 19.55">
  <g id="Voice_2" data-name="Voice 2" transform="translate(0.038 0.037)">
    <path id="Stroke_1" data-name="Stroke 1" d="M5.386,6.136A6.143,6.143,0,0,1-.75,0,.75.75,0,0,1,0-.75.75.75,0,0,1,.75,0,4.641,4.641,0,0,0,5.386,4.636,4.641,4.641,0,0,0,10.022,0a.75.75,0,0,1,.75-.75.75.75,0,0,1,.75.75A6.143,6.143,0,0,1,5.386,6.136Z" transform="translate(2.104 11.332)"/>
    <path id="Stroke_3" data-name="Stroke 3" d="M10.772,8.277a.75.75,0,0,1-.75-.75V5.386a4.636,4.636,0,0,0-9.272,0V7.527a.75.75,0,0,1-.75.75.75.75,0,0,1-.75-.75V5.386a6.136,6.136,0,0,1,12.272,0V7.527A.75.75,0,0,1,10.772,8.277Z" transform="translate(2.104 0.713)"/>
    <path id="Stroke_5" data-name="Stroke 5" d="M.475,2.794a.75.75,0,0,1-.75-.75V0a.75.75,0,0,1,1.5,0V2.044A.75.75,0,0,1,.475,2.794Z" transform="translate(7.015 16.718)"/>
    <path id="Stroke_7" data-name="Stroke 7" d="M13.556,1.225H0A.75.75,0,0,1-.75.475.75.75,0,0,1,0-.275H13.556a.75.75,0,0,1,0,1.5Z" transform="translate(0.712 10.857)"/>
    <path id="Stroke_9" data-name="Stroke 9" d="M2.985,1.225H0a.75.75,0,0,1,0-1.5H2.985a.75.75,0,0,1,0,1.5Z" transform="translate(5.997 7.477)"/>
    <path id="Stroke_11" data-name="Stroke 11" d="M1,1.225H0a.75.75,0,1,1,0-1.5H1a.75.75,0,0,1,0,1.5Z" transform="translate(6.988 4.707)"/>
  </g>
</svg>
