<svg xmlns="http://www.w3.org/2000/svg" width="20.126" height="15.043" viewBox="0 0 20.126 15.043">
  <g id="Volume_Up" data-name="Volume Up" transform="translate(0.068 0.068)">
    <path id="Stroke_1" data-name="Stroke 1" d="M0,13.107a.747.747,0,0,1-.417-.127.75.75,0,0,1-.205-1.041A10.442,10.442,0,0,0-.623.418.75.75,0,0,1-.418-.623.75.75,0,0,1,.623-.418a11.807,11.807,0,0,1,2,6.593,11.8,11.8,0,0,1-2,6.6A.749.749,0,0,1,0,13.107Z" transform="translate(17.436 1.274)"/>
    <path id="Stroke_3" data-name="Stroke 3" d="M0,8.222a.747.747,0,0,1-.363-.094A.75.75,0,0,1-.656,7.108a7.026,7.026,0,0,0,0-6.746A.75.75,0,0,1-.362-.657.75.75,0,0,1,.657-.362a8.51,8.51,0,0,1,1.055,4.1,8.474,8.474,0,0,1-1.055,4.1A.75.75,0,0,1,0,8.222Z" transform="translate(14.989 3.717)"/>
    <path id="Stroke_5" data-name="Stroke 5" d="M8.367-.75a2.876,2.876,0,0,1,1.484.419q.027.016.052.034c1.462,1.038,1.956,2.822,1.956,7.069,0,4.193-.512,6.043-1.956,7.069q-.025.018-.052.034a2.88,2.88,0,0,1-1.484.419,5.617,5.617,0,0,1-3.217-1.5,5.4,5.4,0,0,0-1.177-.772,5.764,5.764,0,0,0-1.185-.232,3.719,3.719,0,0,1-2.244-.86c-1.3-1.1-1.3-2.867-1.294-4.155S-.756,3.722.544,2.618a3.721,3.721,0,0,1,2.242-.859,5.757,5.757,0,0,0,1.187-.233A5.388,5.388,0,0,0,5.15.753,5.616,5.616,0,0,1,8.367-.75ZM9.06.944A1.389,1.389,0,0,0,8.367.75a4.527,4.527,0,0,0-2.3,1.194A6.016,6.016,0,0,1,4.442,2.95a7.085,7.085,0,0,1-1.478.3,2.3,2.3,0,0,0-1.45.514C.745,4.415.748,5.666.75,6.77s-.005,2.358.764,3.012a2.3,2.3,0,0,0,1.451.514,7.092,7.092,0,0,1,1.477.3A6.022,6.022,0,0,1,6.062,11.6a4.529,4.529,0,0,0,2.3,1.194,1.371,1.371,0,0,0,.693-.194c.8-.587,1.3-1.785,1.3-5.828S9.862,1.531,9.06.944Z" transform="translate(0.682 0.682)"/>
  </g>
</svg>
