<svg xmlns="http://www.w3.org/2000/svg" width="17.115" height="16.845" viewBox="0 0 17.115 16.845">
  <g id="Volume_Off" data-name="Volume Off" transform="translate(0.079 0.079)">
    <path id="Stroke_1" data-name="Stroke 1" d="M3.733,11.759a.752.752,0,0,1-.17-.019,7.358,7.358,0,0,0-.819-.129,3.687,3.687,0,0,1-2.214-.842c-1.3-1.1-1.287-2.833-1.278-4.1-.009-1.266-.02-3,1.275-4.1A3.688,3.688,0,0,1,2.745,1.72a5.787,5.787,0,0,0,1.167-.229A5.289,5.289,0,0,0,5.06.735,8.528,8.528,0,0,1,7.03-.5,2.907,2.907,0,0,1,9.7-.339q.026.016.052.033c1.084.766,1.611,1.97,1.817,4.157a.75.75,0,0,1-1.493.141c-.2-2.066-.672-2.7-1.164-3.054-.883-.5-1.737.067-2.935.987a5.9,5.9,0,0,1-1.6.992,7.118,7.118,0,0,1-1.454.292A2.268,2.268,0,0,0,1.5,3.715c-.706.6-.756,1.69-.747,2.948q0,.005,0,.011C.742,7.933.792,9.023,1.5,9.623a2.266,2.266,0,0,0,1.422.5,8.684,8.684,0,0,1,.982.158.75.75,0,0,1-.168,1.481Z" transform="translate(0.671 1.545)"/>
    <path id="Stroke_3" data-name="Stroke 3" d="M1.84,5.951A4.131,4.131,0,0,1-.42,5.131a.75.75,0,0,1-.2-1.041.75.75,0,0,1,1.041-.2c.891.6,1.5.713,2.087.376C3.18,3.773,3.649,2.841,3.76-.029a.75.75,0,0,1,.778-.72.75.75,0,0,1,.72.778c-.118,3.05-.653,4.585-1.908,5.477L3.3,5.539A2.815,2.815,0,0,1,1.84,5.951Z" transform="translate(7.07 9.672)"/>
    <path id="Stroke_5" data-name="Stroke 5" d="M0,16.095a.748.748,0,0,1-.53-.22.75.75,0,0,1,0-1.061L14.814-.53a.75.75,0,0,1,1.061,0,.75.75,0,0,1,0,1.061L.53,15.875A.748.748,0,0,1,0,16.095Z" transform="translate(0.941 0.671)"/>
  </g>
</svg>
