<svg xmlns="http://www.w3.org/2000/svg" width="16.429" height="14.742" viewBox="0 0 16.429 14.742">
  <g id="Volume_Down" data-name="Volume Down" transform="translate(0.083 0.083)">
    <path id="Stroke_1" data-name="Stroke 1" d="M0,8.056a.747.747,0,0,1-.363-.094A.75.75,0,0,1-.656,6.942a6.853,6.853,0,0,0,0-6.58A.75.75,0,0,1-.362-.657.75.75,0,0,1,.657-.362,8.337,8.337,0,0,1,1.69,3.656,8.3,8.3,0,0,1,.656,7.669.75.75,0,0,1,0,8.056Z" transform="translate(14.656 3.635)"/>
    <path id="Stroke_3" data-name="Stroke 3" d="M8.181-.75A2.84,2.84,0,0,1,9.64-.338q.027.016.052.034c1.435,1.019,1.919,2.766,1.919,6.925,0,4.106-.5,5.919-1.919,6.925q-.025.018-.052.034a2.832,2.832,0,0,1-1.46.412,5.5,5.5,0,0,1-3.156-1.474,5.274,5.274,0,0,0-1.146-.752,5.623,5.623,0,0,0-1.156-.226,3.648,3.648,0,0,1-2.2-.845C-.758,9.609-.753,7.88-.75,6.619S-.758,3.633.521,2.547a3.65,3.65,0,0,1,2.2-.844,5.616,5.616,0,0,0,1.157-.227A5.265,5.265,0,0,0,5.026.723,5.5,5.5,0,0,1,8.181-.75ZM8.849.937A1.332,1.332,0,0,0,8.181.75,4.418,4.418,0,0,0,5.938,1.914a5.893,5.893,0,0,1-1.59.987A6.942,6.942,0,0,1,2.9,3.192a2.233,2.233,0,0,0-1.408.5C.744,4.326.747,5.544.75,6.619s-.007,2.3.742,2.933a2.231,2.231,0,0,0,1.409.5,6.949,6.949,0,0,1,1.447.291,5.9,5.9,0,0,1,1.589.986,4.419,4.419,0,0,0,2.244,1.164,1.324,1.324,0,0,0,.668-.187c.78-.571,1.263-1.74,1.263-5.684S9.629,1.508,8.849.937Z" transform="translate(0.667 0.666)"/>
  </g>
</svg>
