<svg xmlns="http://www.w3.org/2000/svg" width="20.101" height="18.578" viewBox="0 0 20.101 18.578">
  <g id="Wallet" transform="translate(0.036 0.036)">
    <path id="Stroke_1" data-name="Stroke 1" d="M6.45,5.877H2.563a3.313,3.313,0,0,1,0-6.627H6.419a.75.75,0,0,1,.75.75.75.75,0,0,1-.75.75H2.563a1.813,1.813,0,0,0,0,3.627H6.45a.75.75,0,0,1,0,1.5Z" transform="translate(12.722 6.549)"/>
    <path id="Stroke_3" data-name="Stroke 3" d="M.625,1.226h-.3a.75.75,0,1,1,0-1.5h.3a.75.75,0,0,1,0,1.5Z" transform="translate(15.097 8.577)"/>
    <path id="Stroke_5" data-name="Stroke 5" d="M4.06,1.226H0a.75.75,0,0,1,0-1.5H4.06a.75.75,0,1,1,0,1.5Z" transform="translate(5.606 4.668)"/>
    <path id="Stroke_7" data-name="Stroke 7" d="M9.3-.75c3.82,0,6.217.637,7.773,2.065,1.575,1.446,2.277,3.674,2.277,7.224s-.7,5.777-2.277,7.223c-1.556,1.429-3.953,2.066-7.773,2.066s-6.218-.637-7.774-2.066C-.048,14.316-.75,12.089-.75,8.539s.7-5.778,2.277-7.224C3.083-.113,5.48-.75,9.3-.75Zm0,17.078c3.416,0,5.5-.515,6.758-1.671,1.239-1.138,1.792-3.025,1.792-6.119S17.3,3.558,16.059,2.42C14.8,1.265,12.717.75,9.3.75s-5.5.515-6.759,1.67C1.3,3.558.75,5.445.75,8.539S1.3,13.52,2.542,14.658C3.8,15.813,5.885,16.328,9.3,16.328Z" transform="translate(0.714 0.714)"/>
  </g>
</svg>
