<svg xmlns="http://www.w3.org/2000/svg" width="19.922" height="20.603" viewBox="0 0 19.922 20.603">
  <g id="Work" transform="translate(0.75 0.75)">
    <path id="Stroke_1" data-name="Stroke 1" d="M.5,3.378a.75.75,0,0,1-.75-.75V0a.75.75,0,1,1,1.5,0V2.628A.75.75,0,0,1,.5,3.378Z" transform="translate(8.711 11.439)"/>
    <path id="Stroke_2" data-name="Stroke 2" d="M9.124,3.164A18.292,18.292,0,0,1-.363.659L-.4.635-.43.614A.75.75,0,0,1-.614-.43.75.75,0,0,1,.43-.614l.012.008a16.788,16.788,0,0,0,8.682,2.27A16.817,16.817,0,0,0,17.811-.6l.006,0a.75.75,0,0,1,1.047.168A.75.75,0,0,1,18.7.607l-.029.021L18.621.66A18.318,18.318,0,0,1,9.124,3.164Z" transform="translate(0.082 9.027)"/>
    <path id="Stroke_4" data-name="Stroke 4" d="M9.211-.75c3.781,0,6.154.612,7.7,1.984,1.567,1.4,2.266,3.545,2.266,6.969s-.7,5.573-2.266,6.969c-1.541,1.372-3.914,1.984-7.7,1.984s-6.154-.612-7.695-1.984C-.051,13.776-.75,11.627-.75,8.2s.7-5.573,2.266-6.969C3.057-.138,5.43-.75,9.211-.75Zm0,16.406c3.386,0,5.452-.495,6.7-1.6,1.22-1.086,1.763-2.89,1.763-5.848s-.544-4.762-1.763-5.848C14.663,1.245,12.6.75,9.211.75s-5.451.495-6.7,1.6C1.294,3.441.75,5.245.75,8.2s.544,4.762,1.764,5.848C3.76,15.161,5.825,15.656,9.211,15.656Z" transform="translate(0 2.697)"/>
    <path id="Stroke_6" data-name="Stroke 6" d="M6.525,3.669a.75.75,0,0,1-.75-.75v-.63A1.44,1.44,0,0,0,4.465.75H2.06A1.44,1.44,0,0,0,.75,2.289v.63a.75.75,0,0,1-.75.75.75.75,0,0,1-.75-.75v-.63A2.935,2.935,0,0,1,2.06-.75H4.465a2.935,2.935,0,0,1,2.81,3.039v.63A.75.75,0,0,1,6.525,3.669Z" transform="translate(5.949 0)"/>
  </g>
</svg>
