<svg xmlns="http://www.w3.org/2000/svg" width="32.456" height="30.117" viewBox="0 0 32.456 30.117">
  <g id="Achievements" transform="translate(0.003 -2.3)">
    <path id="Path_77784" data-name="Path 77784" d="M32.124,28.2a2.156,2.156,0,0,0-1.836-1V14.3a.489.489,0,0,0-.492-.492H27a.489.489,0,0,0-.492.492V28.7l-1.932.877V17.588a.489.489,0,0,0-.492-.492h-2.8a.489.489,0,0,0-.492.492V28.521c-.056-.005-.112-.015-.172-.015H18.853V20.174a.489.489,0,0,0-.492-.492H15.567a.489.489,0,0,0-.492.492v7.982l-1.937-1.019V23.126a.489.489,0,0,0-.492-.492H9.852a.489.489,0,0,0-.492.492v2.911H7.392v-.862a.489.489,0,0,0-.492-.492H1.353a.493.493,0,0,0-.492.456L0,36.478a.48.48,0,0,0,.132.37.483.483,0,0,0,.36.157H6.9a.489.489,0,0,0,.492-.492v-.9H9.6a1.419,1.419,0,0,1,.5.091l5.964,2.155a3.938,3.938,0,0,0,1.339.233,3.843,3.843,0,0,0,1.841-.461l12.064-6.374a2.157,2.157,0,0,0,1.146-1.907,2.111,2.111,0,0,0-.33-1.146ZM27.489,14.794H29.3V27.426l-1.815.827Zm-5.71,3.286h1.815V30.032l-1.09.5a1.256,1.256,0,0,0,.015-.137,1.891,1.891,0,0,0-.735-1.486V18.08Zm-3.9,2.586V28.5H16.1c-.015,0-.03-.005-.041-.005v-7.83Zm-7.531,2.951h1.81v3l-.568-.3a2.458,2.458,0,0,0-1.146-.284h-.1Zm-3.935,12.4H1.023l.786-10.355h4.6Zm24.443-5.639L18.782,36.757a2.951,2.951,0,0,1-2.388.167l-5.959-2.155a2.485,2.485,0,0,0-.837-.147H7.392V27.015H10.44a1.494,1.494,0,0,1,.69.172L14.953,29.2a2.537,2.537,0,0,0,1.146.284h4.523a.906.906,0,0,1,.908.9.919.919,0,0,1-.264.644,1.059,1.059,0,0,1-.2.152l-.061.03a.9.9,0,0,1-.375.086H14.8a1.726,1.726,0,0,0-1.724,1.724.492.492,0,1,0,.984,0,.741.741,0,0,1,.74-.74h5.832a1.926,1.926,0,0,0,.786-.172l.1-.046a0,0,0,0,0,.005-.005l2.754-1.253c.005,0,.005-.005.01-.005L27.19,29.48a.018.018,0,0,0,.01-.005l2.617-1.192a1.178,1.178,0,0,1,1.481.446,1.16,1.16,0,0,1,.177.624,1.182,1.182,0,0,1-.624,1.029Z" transform="translate(0 -5.673)"/>
    <path id="Path_77785" data-name="Path 77785" d="M21.7,15.546a.491.491,0,0,0,.35-.142l5.573-5.573h5.517a.5.5,0,0,0,.35-.142l5.649-5.659L39.1,5.3a.488.488,0,0,0,.472.507h.02a.492.492,0,0,0,.492-.472l.091-2.52V2.8a.531.531,0,0,0-.025-.152.1.1,0,0,1-.005-.041.586.586,0,0,0-.106-.167.427.427,0,0,0-.167-.106c-.015-.005-.025-.005-.041-.01a.531.531,0,0,0-.152-.025h-.01l-2.525.1a.49.49,0,0,0,.02.979h.02l1.268-.046L32.937,8.847H27.425a.5.5,0,0,0-.35.142L21.36,14.7a.494.494,0,0,0,.345.842Z" transform="translate(-10.458)"/>
  </g>
</svg>
