<svg xmlns="http://www.w3.org/2000/svg" width="30.247" height="30.247" viewBox="0 0 30.247 30.247">
  <g id="Department_Location" data-name="Department Location" transform="translate(0 -0.001)">
    <path id="Path_77796" data-name="Path 77796" d="M30.218,29.648,25.788,17.976a.443.443,0,0,0-.2-.229l-4.719-2.659L22.249,12.9A8.419,8.419,0,1,0,8,12.9l1.377,2.185-4.72,2.659a.443.443,0,0,0-.2.229L.029,29.648a.443.443,0,0,0,.632.543l7.123-4.013,7.123,4.013a.443.443,0,0,0,.435,0l7.123-4.013,7.123,4.013a.443.443,0,0,0,.632-.543ZM15.567,22.964a1.325,1.325,0,0,0,.681-.545L20.042,16.4l1.921,9.039-6.4,3.6ZM8.748,12.431a7.532,7.532,0,1,1,12.752,0c-.059.094-5.9,9.352-6,9.512l0,0a.442.442,0,0,1-.75,0l-6-9.513,0,0ZM5.231,18.44l4.13-2.327L8.642,19.5a.443.443,0,1,0,.867.184l.7-3.279L14,22.421a1.331,1.331,0,0,0,.681.543v6.082l-6.4-3.6.856-4.027a.443.443,0,0,0-.867-.184l-.882,4.149-6.1,3.437Zm17.624,6.941-1.97-9.268,4.13,2.327,3.94,10.378Z" transform="translate(0)"/>
    <path id="Path_77797" data-name="Path 77797" d="M183.249,64.874a4.874,4.874,0,1,0-4.874,4.874A4.879,4.879,0,0,0,183.249,64.874Zm-8.861,0a3.988,3.988,0,1,1,3.988,3.988A3.992,3.992,0,0,1,174.387,64.874Z" transform="translate(-163.251 -56.454)"/>
    <path id="Path_77798" data-name="Path 77798" d="M209.7,93.1a3.1,3.1,0,1,0-3.1,3.1A3.105,3.105,0,0,0,209.7,93.1Zm-5.317,0a2.215,2.215,0,1,1,2.215,2.215A2.218,2.218,0,0,1,204.387,93.1Z" transform="translate(-191.479 -84.682)"/>
  </g>
</svg>
