<svg id="Intranet_Guidelines" data-name="Intranet  Guidelines" xmlns="http://www.w3.org/2000/svg" width="31.082" height="31.082" viewBox="0 0 31.082 31.082">
  <path id="Path_77813" data-name="Path 77813" d="M19.418,27.836a8.418,8.418,0,1,1,8.418-8.418A8.428,8.428,0,0,1,19.418,27.836Zm0-15.541a7.123,7.123,0,1,0,7.123,7.123A7.131,7.131,0,0,0,19.418,12.3Z" transform="translate(3.246 3.246)"/>
  <path id="Path_77814" data-name="Path 77814" d="M17.648,22.475A.648.648,0,0,1,17,21.828v-5.18a.648.648,0,1,1,1.3,0v5.18A.648.648,0,0,1,17.648,22.475Z" transform="translate(5.016 4.721)"/>
  <circle id="Ellipse_8" data-name="Ellipse 8" cx="0.5" cy="0.5" r="0.5" transform="translate(22 18)"/>
  <path id="Path_77815" data-name="Path 77815" d="M12.3,26.311H3.238A3.241,3.241,0,0,1,0,23.074V6.238A3.241,3.241,0,0,1,3.238,3h2.59a.648.648,0,1,1,0,1.3H3.238A1.945,1.945,0,0,0,1.3,6.238V23.074a1.945,1.945,0,0,0,1.943,1.943H12.3a.648.648,0,1,1,0,1.3Z" transform="translate(0 0.885)"/>
  <path id="Path_77816" data-name="Path 77816" d="M13.713,7.77H5.943A1.945,1.945,0,0,1,4,5.828V3.238a.648.648,0,0,1,.648-.648H6.655A3.238,3.238,0,0,1,13,2.59h2.007a.648.648,0,0,1,.648.648v2.59A1.945,1.945,0,0,1,13.713,7.77ZM5.3,3.885V5.828a.649.649,0,0,0,.648.648h7.77a.649.649,0,0,0,.648-.648V3.885H12.418a.648.648,0,0,1-.648-.648,1.943,1.943,0,0,0-3.885,0,.648.648,0,0,1-.648.648Z" transform="translate(1.18)"/>
  <path id="Path_77817" data-name="Path 77817" d="M16.6,9.3H3.648a.648.648,0,0,1,0-1.3H16.6a.648.648,0,1,1,0,1.3Z" transform="translate(0.885 2.361)"/>
  <path id="Path_77818" data-name="Path 77818" d="M12.713,12.3H3.648a.648.648,0,1,1,0-1.3h9.066a.648.648,0,0,1,0,1.3Z" transform="translate(0.885 3.246)"/>
  <path id="Path_77819" data-name="Path 77819" d="M10.123,15.3H3.648a.648.648,0,0,1,0-1.3h6.475a.648.648,0,0,1,0,1.3Z" transform="translate(0.885 4.131)"/>
  <path id="Path_77820" data-name="Path 77820" d="M17.828,10.77a.648.648,0,0,1-.648-.648V6.238A1.945,1.945,0,0,0,15.238,4.3h-2.59a.648.648,0,0,1,0-1.3h2.59a3.241,3.241,0,0,1,3.238,3.238v3.885A.648.648,0,0,1,17.828,10.77Z" transform="translate(3.541 0.885)"/>
</svg>
