<svg xmlns="http://www.w3.org/2000/svg" width="30.242" height="30.242" viewBox="0 0 30.242 30.242">
  <g id="Photo_Video_Gallery" data-name="Photo/Video  Gallery" transform="translate(-4 -4)">
    <path id="Path_77802" data-name="Path 77802" d="M41.281,4H26.16A2.162,2.162,0,0,0,24,6.16V18.041a2.162,2.162,0,0,0,2.16,2.16H41.281a2.162,2.162,0,0,0,2.16-2.16V6.16A2.162,2.162,0,0,0,41.281,4Zm1.08,14.041a1.081,1.081,0,0,1-1.08,1.08H26.16a1.081,1.081,0,0,1-1.08-1.08V6.16a1.081,1.081,0,0,1,1.08-1.08H41.281a1.081,1.081,0,0,1,1.08,1.08Z" transform="translate(-9.199)"/>
    <path id="Path_77803" data-name="Path 77803" d="M22.9,31.4a.542.542,0,0,0-.54.54v4.866L19.58,33.28a2.08,2.08,0,0,0-3.213.076l-3.408,4.034a.226.226,0,0,1-.27.076l-3.019-2.4a2.065,2.065,0,0,0-2.576.221L5.08,37.335V28.16a1.083,1.083,0,0,1,1.08-1.08h7.021a.54.54,0,0,0,0-1.08H6.16A2.16,2.16,0,0,0,4,28.16V42.2a2.16,2.16,0,0,0,2.16,2.16H21.281a2.16,2.16,0,0,0,2.16-2.16V31.94a.542.542,0,0,0-.54-.54Zm-.54,10.8a1.083,1.083,0,0,1-1.08,1.08H6.16A1.083,1.083,0,0,1,5.08,42.2V38.875l2.77-2.814a.967.967,0,0,1,1.183-.119l3.024,2.392a1.282,1.282,0,0,0,1.744-.275l3.413-4.034a.991.991,0,0,1,1.528-.059l3.618,4.59Z" transform="translate(0 -10.119)"/>
    <path id="Path_77804" data-name="Path 77804" d="M8.407,32.307a1.9,1.9,0,1,0,1.9-1.9,1.9,1.9,0,0,0-1.9,1.9Zm2.72,0a.82.82,0,1,1-.82-.82.82.82,0,0,1,.82.82Z" transform="translate(-2.027 -12.146)"/>
    <path id="Path_77805" data-name="Path 77805" d="M42.59,14.284c-.041-.027-5.813-3.322-5.972-3.414a1.109,1.109,0,0,0-1.08,0,1.07,1.07,0,0,0-.538.935v6.779a1.087,1.087,0,0,0,1.08,1.082,1.076,1.076,0,0,0,.49-.119c.057-.028,5.805-3.319,5.976-3.414a1.094,1.094,0,0,0,.044-1.851Zm-6.51,4.3,0-6.781L42.012,15.2Z" transform="translate(-14.259 -3.096)"/>
  </g>
</svg>
