<svg xmlns="http://www.w3.org/2000/svg" width="30.43" height="30.43" viewBox="0 0 30.43 30.43">
  <g id="Policies_and_Procedures" data-name="Policies and  Procedures" transform="translate(-3 -3)">
    <path id="Path_77787" data-name="Path 77787" d="M24.011,33.43H6.623A3.627,3.627,0,0,1,3,29.807V6.623A3.627,3.627,0,0,1,6.623,3h11.2a3.639,3.639,0,0,1,2.592,1.087L26.6,10.418a3.615,3.615,0,0,1,1.032,2.537v5.4a.725.725,0,0,1-1.449,0v-5.4a2.174,2.174,0,0,0-.62-1.521L19.378,5.1a2.178,2.178,0,0,0-1.554-.652H6.623A2.174,2.174,0,0,0,4.449,6.623V29.807a2.174,2.174,0,0,0,2.174,2.174H24.011a2.075,2.075,0,0,0,.8-.156.725.725,0,1,1,.551,1.34,3.527,3.527,0,0,1-1.348.264Z"/>
    <path id="Path_77788" data-name="Path 77788" d="M32.4,12.5H27.623A3.627,3.627,0,0,1,24,8.882V4.035a.725.725,0,1,1,1.449,0V8.882a2.174,2.174,0,0,0,2.174,2.174H32.4a.725.725,0,1,1,0,1.449Z" transform="translate(-5.785 -0.085)"/>
    <path id="Path_77789" data-name="Path 77789" d="M30.97,38.6a1.443,1.443,0,0,1-.8-.243L27.84,36.8A10.844,10.844,0,0,1,23,27.764v-1.24a1.456,1.456,0,0,1,1.116-1.409,21.681,21.681,0,0,0,6.069-2.738,1.449,1.449,0,0,1,1.569,0,21.67,21.67,0,0,0,6.069,2.738,1.456,1.456,0,0,1,1.116,1.409v1.24a10.844,10.844,0,0,1-4.84,9.043l-2.326,1.551A1.444,1.444,0,0,1,30.97,38.6Zm0-15a23.112,23.112,0,0,1-6.5,2.928l-.017,1.242A9.4,9.4,0,0,0,28.643,35.6l2.326,1.548L33.3,35.6a9.4,9.4,0,0,0,4.194-7.834v-1.24a23.185,23.185,0,0,1-6.521-2.929h0Z" transform="translate(-5.51 -5.274)"/>
    <path id="Path_77790" data-name="Path 77790" d="M32.174,34.347a.724.724,0,0,1-.512-.212l-1.449-1.449a.724.724,0,1,1,1.025-1.025l.937.937,2.386-2.386a.724.724,0,1,1,1.025,1.025l-2.9,2.9A.725.725,0,0,1,32.174,34.347Z" transform="translate(-7.438 -7.438)"/>
    <path id="Path_77791" data-name="Path 77791" d="M15.521,12.449h-5.8a.725.725,0,1,1,0-1.449h5.8a.725.725,0,0,1,0,1.449Z" transform="translate(-1.653 -2.204)"/>
    <path id="Path_77792" data-name="Path 77792" d="M19.868,18.449H9.725a.725.725,0,1,1,0-1.449H19.868a.725.725,0,0,1,0,1.449Z" transform="translate(-1.653 -3.857)"/>
    <path id="Path_77793" data-name="Path 77793" d="M21.317,24.449H9.725a.725.725,0,1,1,0-1.449H21.317a.725.725,0,0,1,0,1.449Z" transform="translate(-1.653 -5.51)"/>
    <path id="Path_77794" data-name="Path 77794" d="M16.97,30.449H9.725a.725.725,0,0,1,0-1.449H16.97a.725.725,0,0,1,0,1.449Z" transform="translate(-1.653 -7.163)"/>
    <path id="Path_77795" data-name="Path 77795" d="M16.97,36.449H9.725a.725.725,0,1,1,0-1.449H16.97a.725.725,0,1,1,0,1.449Z" transform="translate(-1.653 -8.815)"/>
  </g>
</svg>
