<svg xmlns="http://www.w3.org/2000/svg" width="30.682" height="30.307" viewBox="0 0 30.682 30.307">
  <g id="QM_Important_Links" data-name="QM Important  Links" transform="translate(-9.66 -8.056)">
    <path id="Path_77799" data-name="Path 77799" d="M18,24.889h6.1V36.68A17.787,17.787,0,0,1,18,24.889Zm-6.656,0h5.074a19.339,19.339,0,0,0,5.01,11.379A13.4,13.4,0,0,1,11.344,24.889ZM21.43,10.15a19.329,19.329,0,0,0-5.093,13.07c0,.032,0,.065,0,.1h-5.1A13.423,13.423,0,0,1,21.432,10.15ZM24.1,9.741V23.319H17.917c0-.035,0-.067,0-.1A17.771,17.771,0,0,1,24.1,9.741Zm.79-1.685c-.024,0-.045,0-.067,0A15.25,15.25,0,0,0,11.7,15.633a15.091,15.091,0,0,0,0,15.154,15.253,15.253,0,0,0,13.138,7.573.424.424,0,0,0,.056,0,15.271,15.271,0,0,0,11.585-5.317.78.78,0,0,0-.061-1.136.79.79,0,0,0-1.137.119,13.669,13.669,0,0,1-7.009,4.337,19.373,19.373,0,0,0,3.059-4.311.789.789,0,0,0-1.4-.72,17.843,17.843,0,0,1-4.245,5.336V24.889h1.736a.785.785,0,1,0,0-1.57H25.682V9.691A17.8,17.8,0,0,1,30.6,16.475a.789.789,0,1,0,1.461-.595,19.41,19.41,0,0,0-3.705-5.8,13.621,13.621,0,0,1,9.3,8.3.788.788,0,1,0,1.473-.557A15.238,15.238,0,0,0,24.894,8.056Z" transform="translate(0)"/>
    <path id="Path_77800" data-name="Path 77800" d="M59.61,33.086a.5.5,0,0,1,.222.061L66.1,36.8l-2.415.5a.784.784,0,0,0-.519,1.163L64.9,41.453a.253.253,0,0,1-.1.366l-1.153.661a.255.255,0,0,1-.369-.1L61.547,39.4a.79.79,0,0,0-1.272-.132l-1.633,1.821L58.6,33.859a.764.764,0,0,1,.44-.6.026.026,0,0,0,.013-.009.072.072,0,0,0,.024-.012,1.022,1.022,0,0,1,.537-.15Zm.087-1.57a2.655,2.655,0,0,0-2.68,2.353l.045,7.266A1.789,1.789,0,0,0,57.85,42.8a1.434,1.434,0,0,0,1.7-.361l1.176-1.318,1.188,2.042a1.863,1.863,0,0,0,2.523.675l1.154-.664a1.844,1.844,0,0,0,.676-2.509l-1.189-2.046,1.749-.359a1.414,1.414,0,0,0,1.161-1.282,1.79,1.79,0,0,0-1.057-1.51l-6.3-3.677v0a1.857,1.857,0,0,0-.932-.279Z" transform="translate(-27.645 -13.695)"/>
  </g>
</svg>
