<svg xmlns="http://www.w3.org/2000/svg" width="30.787" height="28.036" viewBox="0 0 30.787 28.036">
  <g id="QM_Important_Contacts" data-name="QM Important  Contacts" transform="translate(-5.88 -8.138)">
    <path id="Path_77801" data-name="Path 77801" d="M16.344,14.57h18.1l-9.89,7.766a1.323,1.323,0,0,1-.685.267,1.347,1.347,0,0,1-.69-.267l-7.068-5.552a.755.755,0,0,0-.252-.135A2.758,2.758,0,0,0,16.376,15a3.963,3.963,0,0,0-.032-.431Zm-4.6-4.995a.689.689,0,0,1,.142.056,2.526,2.526,0,0,1,.667.548,8.805,8.805,0,0,1,1.27,1.932c.008.016.017.034.024.052a6.632,6.632,0,0,1,1.073,2.86,1.11,1.11,0,0,1-.675,1.178l-1.343.774a2.945,2.945,0,0,0-1.391,2.249,3.725,3.725,0,0,0,.423,2.308l3.315,5.714a3.765,3.765,0,0,0,1.8,1.52,2.971,2.971,0,0,0,2.652-.075l1.343-.773a1.126,1.126,0,0,1,1.363.01,6.66,6.66,0,0,1,1.958,2.351c.01.019.02.035.032.053a8.847,8.847,0,0,1,1.046,2.058,2.507,2.507,0,0,1,.143.848c-.016.177-.02.159-.066.187L24.5,34.01a7.826,7.826,0,0,1-7.024-.228,13.209,13.209,0,0,1-5.215-5.4s-.006-.01-.01-.014l-2.8-4.82a.074.074,0,0,1-.01-.015,13.119,13.119,0,0,1-2.089-7.192,7.725,7.725,0,0,1,3.313-6.164L11.686,9.6c.024-.014.031-.024.053-.022Zm.01-1.436a1.524,1.524,0,0,0-.795.2l-1.081.622L9.806,9A9.309,9.309,0,0,0,5.89,16.284a14.481,14.481,0,0,0,2.3,8.012l2.787,4.8-.007-.014a14.551,14.551,0,0,0,5.822,5.986,9.41,9.41,0,0,0,8.3.269.554.554,0,0,0,.071-.036l1.083-.622a1.689,1.689,0,0,0,.793-1.323,3.58,3.58,0,0,0-.206-1.415A9.663,9.663,0,0,0,25.61,29.53a7.669,7.669,0,0,0-2.454-2.852,2.8,2.8,0,0,0-2.847-.022l-1.343.774a1.474,1.474,0,0,1-1.349,0,2.577,2.577,0,0,1-1.1-.909L13.2,20.8a2.563,2.563,0,0,1-.24-1.408,1.45,1.45,0,0,1,.672-1.159l1.3-.75a.722.722,0,0,0,.276.44l7.068,5.553a2.776,2.776,0,0,0,1.553.594.771.771,0,0,0,.085,0,2.773,2.773,0,0,0,1.551-.594L35.2,15.831V28.466c0,.192-.219.445-.649.445H27.814a.728.728,0,1,0,0,1.456h6.739a2.021,2.021,0,0,0,2.114-1.9V15.015a2.021,2.021,0,0,0-2.114-1.9H15.943a12.97,12.97,0,0,0-.821-1.655A9.694,9.694,0,0,0,13.63,9.2,3.607,3.607,0,0,0,12.5,8.313v0a1.877,1.877,0,0,0-.753-.177Z"/>
  </g>
</svg>
