<svg xmlns="http://www.w3.org/2000/svg" width="30.004" height="30.004" viewBox="0 0 30.004 30.004">
  <path id="Sustainability" d="M38,23A15,15,0,0,1,14.142,35.108l.313,1.1a.484.484,0,1,1-.931.266l-.735-2.576a.484.484,0,0,1,.448-.616l2.677-.1a.484.484,0,1,1,.035.967l-1.407.051a14.035,14.035,0,0,0,20.6-18.25.484.484,0,0,1,.836-.487A14.991,14.991,0,0,1,38,23ZM8.968,23a14.033,14.033,0,0,1,22.493-11.2l-1.406.051a.484.484,0,0,0,.017.968h.018l2.677-.1a.484.484,0,0,0,.448-.616L32.48,9.535a.484.484,0,1,0-.931.266l.313,1.1A15,15,0,0,0,10.031,30.544a.484.484,0,0,0,.836-.487A14.025,14.025,0,0,1,8.968,23Zm16.689.087a.484.484,0,0,1,.484.484,3.139,3.139,0,0,1-6.277,0,.484.484,0,0,1,.484-.484Zm-.538.968H20.886a2.171,2.171,0,0,0,4.233,0ZM12.775,25.385a.484.484,0,0,1-.31-.452V23.573a.484.484,0,0,1,.484-.484h5.308a.484.484,0,0,1,.484.484,4.262,4.262,0,0,0,8.523,0,.484.484,0,0,1,.484-.484h5.308a.484.484,0,0,1,.484.484v1.36a.484.484,0,0,1-.31.452l-1.432.551a9.045,9.045,0,0,1-.905,2.183l.623,1.4a.484.484,0,0,1-.1.539l-1.924,1.924a.484.484,0,0,1-.539.1l-1.4-.623a9.043,9.043,0,0,1-2.184.905L24.814,33.8a.484.484,0,0,1-.452.31H21.641a.484.484,0,0,1-.452-.31l-.551-1.432a9.045,9.045,0,0,1-2.183-.905l-1.4.623a.484.484,0,0,1-.539-.1l-1.924-1.924a.484.484,0,0,1-.1-.539l.623-1.4a9.045,9.045,0,0,1-.905-2.184Zm.658-.784,1.355.522a.484.484,0,0,1,.3.34,8.083,8.083,0,0,0,.983,2.371.484.484,0,0,1,.03.45l-.59,1.328,1.454,1.454,1.329-.59a.484.484,0,0,1,.45.03,8.083,8.083,0,0,0,2.371.983.484.484,0,0,1,.34.3l.522,1.356H24.03l.522-1.356a.484.484,0,0,1,.34-.3,8.081,8.081,0,0,0,2.371-.983.484.484,0,0,1,.45-.03l1.328.59L30.5,29.612l-.59-1.329a.484.484,0,0,1,.03-.45,8.085,8.085,0,0,0,.983-2.371.484.484,0,0,1,.3-.34l1.356-.522v-.544H28.209a5.23,5.23,0,0,1-10.415,0H13.433Zm20.1-4.185a.484.484,0,0,1-.481.535H27.47c.017.1.033.2.044.3a.484.484,0,0,1-.481.535H18.971a.484.484,0,0,1-.481-.535c.011-.1.026-.2.044-.3H12.949a.484.484,0,0,1-.481-.535,3.889,3.889,0,0,1,2.32-3.16,2.212,2.212,0,1,1,3.115,0,3.94,3.94,0,0,1,1.717,1.451,4.531,4.531,0,0,1,1.7-1.186,2.534,2.534,0,1,1,3.373,0,4.531,4.531,0,0,1,1.7,1.186A3.94,3.94,0,0,1,28.1,17.261a2.212,2.212,0,1,1,3.115,0,3.89,3.89,0,0,1,2.32,3.16Zm-3.88-3.483h0a1.244,1.244,0,1,0-1.245-1.244A1.246,1.246,0,0,0,29.657,16.934ZM23,17.2h0a1.566,1.566,0,1,0-1.566-1.566A1.568,1.568,0,0,0,23,17.2Zm-6.655-.27h0A1.244,1.244,0,1,0,15.1,15.689,1.246,1.246,0,0,0,16.348,16.934Zm2.469,3.05q.085-.2.188-.395A2.952,2.952,0,0,0,16.348,17.9h0a2.927,2.927,0,0,0-2.809,2.082Zm7.637.838A3.562,3.562,0,0,0,23,18.172h0a3.562,3.562,0,0,0-3.451,2.65Zm6.013-.838A2.927,2.927,0,0,0,29.657,17.9h0A2.952,2.952,0,0,0,27,19.589q.1.192.188.395Z" transform="translate(-8 -8)"/>
</svg>
