<svg id="Employee_Testimonials" data-name="Employee Testimonials" xmlns="http://www.w3.org/2000/svg" xmlns:xlink="http://www.w3.org/1999/xlink" width="191.273" height="146.19" viewBox="0 0 191.273 146.19">
  <defs>
    <clipPath id="clip-path">
      <path id="Path_77575" data-name="Path 77575" d="M319.478,192.963V235.04a1.8,1.8,0,0,1-1.844,1.844H277.852a1.913,1.913,0,0,1-1.981-1.844v-27.8l-11.231-5.8,11.231-.069v-8.415a2.031,2.031,0,0,1,1.981-1.981h39.782a1.912,1.912,0,0,1,1.844,1.993Z" transform="translate(-264.64 -190.97)" fill="none"/>
    </clipPath>
    <clipPath id="clip-path-2">
      <path id="Path_77612" data-name="Path 77612" d="M274.884,47.712V87.494a1.934,1.934,0,0,1-1.721,2.1H244.431l-8.706,11.586L235.664,89.6h-4.59a2.257,2.257,0,0,1-2.1-2.1V47.712a1.934,1.934,0,0,1,2.1-1.721h42.077a1.6,1.6,0,0,1,1.733,1.721Z" transform="translate(-228.97 -45.985)" fill="none"/>
    </clipPath>
  </defs>
  <g id="freepik--background-complete--inject-3" transform="translate(0 4.211)">
    <rect id="Rectangle_6133" data-name="Rectangle 6133" width="191.273" transform="translate(0 124.67)" fill="#ebebeb"/>
    <rect id="Rectangle_6134" data-name="Rectangle 6134" width="12.669" height="0.096" transform="translate(159.043 131.391)" fill="#ebebeb"/>
    <rect id="Rectangle_6135" data-name="Rectangle 6135" width="3.324" height="0.096" transform="translate(122.991 132.431)" fill="#ebebeb"/>
    <rect id="Rectangle_6136" data-name="Rectangle 6136" width="7.341" height="0.096" transform="translate(151.32 127.841)" fill="#ebebeb"/>
    <rect id="Rectangle_6137" data-name="Rectangle 6137" width="16.521" height="0.096" transform="translate(19.684 128.484)" fill="#ebebeb"/>
    <rect id="Rectangle_6138" data-name="Rectangle 6138" width="2.421" height="0.096" transform="translate(39.613 128.484)" fill="#ebebeb"/>
    <rect id="Rectangle_6139" data-name="Rectangle 6139" width="35.834" height="0.096" transform="translate(49.907 130.098)" fill="#ebebeb"/>
    <path id="Path_77525" data-name="Path 77525" d="M113.251,163.176H39.39a2.184,2.184,0,0,1-2.18-2.184V57.165A2.184,2.184,0,0,1,39.39,55h73.86a2.184,2.184,0,0,1,2.184,2.184V160.992A2.184,2.184,0,0,1,113.251,163.176ZM39.39,55.076a2.089,2.089,0,0,0-2.085,2.089V160.992a2.089,2.089,0,0,0,2.085,2.089h73.86a2.092,2.092,0,0,0,2.089-2.089V57.165a2.092,2.092,0,0,0-2.089-2.089Z" transform="translate(-22.977 -55)" fill="#ebebeb"/>
    <path id="Path_77526" data-name="Path 77526" d="M329.548,163.176H255.684a2.188,2.188,0,0,1-2.184-2.184V57.165A2.188,2.188,0,0,1,255.684,55h73.864a2.184,2.184,0,0,1,2.177,2.165V160.992A2.184,2.184,0,0,1,329.548,163.176Zm-73.864-108.1a2.092,2.092,0,0,0-2.089,2.089V160.992a2.092,2.092,0,0,0,2.089,2.089h73.864a2.092,2.092,0,0,0,2.089-2.089V57.165a2.092,2.092,0,0,0-2.089-2.089Z" transform="translate(-156.532 -55)" fill="#ebebeb"/>
    <path id="Path_77527" data-name="Path 77527" d="M63.13,200.82a6.541,6.541,0,0,1,4.208,4.254c1.327,3.588,5.424,5.814,8.056,5.684a6.061,6.061,0,0,1,3.221,1.125c.325.184.658.383,1.014.589-.046-.356-.08-.727-.1-1.105-.283-.218-.562-.451-.834-.7l-.187-.176c-3.171-3.06-3.263-6.254-6.962-9.138C67.793,198.4,63.13,200.82,63.13,200.82Z" transform="translate(-38.982 -144.464)" fill="#f0f0f0"/>
    <path id="Path_77528" data-name="Path 77528" d="M119.721,193.3a6.583,6.583,0,0,0-3.58,4.808c-.822,3.741-4.548,6.522-7.172,6.763a6.094,6.094,0,0,0-3.033,1.568l-.918.727c0-.36-.023-.731-.057-1.109.249-.256.493-.524.727-.815l.161-.2c2.708-3.466,2.349-6.652,5.6-10.03C114.764,191.57,119.721,193.3,119.721,193.3Z" transform="translate(-64.811 -140.129)" fill="#f0f0f0"/>
    <path id="Path_77529" data-name="Path 77529" d="M92.67,184.181a20.207,20.207,0,0,1-.62,5.963c-1.779,6.92-.987.1-.987.1a17.508,17.508,0,0,0,.689-5.332c0-.36-.023-.731-.057-1.109a16.169,16.169,0,0,0-.83-4.039c-1.878-5.439-5.634-7.119-7.119-12.952S87.4,156.82,87.4,156.82a8.285,8.285,0,0,0,2.773,7.023c3.462,3.362,3.951,9.18,2.467,12.16-.864,1.729-.314,3.9-.061,6.782C92.62,183.233,92.655,183.7,92.67,184.181Z" transform="translate(-51.545 -117.872)" fill="#f0f0f0"/>
    <path id="Path_77530" data-name="Path 77530" d="M101.7,242l-.413,3.236-.153,1.174-.149,1.182-.784,6.128-15.354-.061-.784-6.074-.31-2.349L83.33,242Z" transform="translate(-51.455 -170.469)" fill="#e6e6e6"/>
    <path id="Path_77531" data-name="Path 77531" d="M101.955,250l-.153,1.148H84.577L84.42,250Z" transform="translate(-52.128 -175.409)" fill="#f0f0f0"/>
    <rect id="Rectangle_6140" data-name="Rectangle 6140" width="4.59" height="42.459" transform="translate(29.584 83.006)" fill="#f0f0f0"/>
    <rect id="Rectangle_6141" data-name="Rectangle 6141" width="4.59" height="42.459" transform="translate(47.945 83.006)" fill="#f0f0f0"/>
    <rect id="Rectangle_6142" data-name="Rectangle 6142" width="4.59" height="4.973" transform="translate(29.584 85.301)" fill="#e6e6e6"/>
    <rect id="Rectangle_6143" data-name="Rectangle 6143" width="4.59" height="4.973" transform="translate(47.945 85.301)" fill="#e6e6e6"/>
    <rect id="Rectangle_6144" data-name="Rectangle 6144" width="23.716" height="4.973" transform="translate(29.201 83.006)" fill="#f0f0f0"/>
    <rect id="Rectangle_6145" data-name="Rectangle 6145" width="47.669" height="52.512" transform="translate(124.582 72.831)" fill="#f5f5f5"/>
    <path id="Path_77532" data-name="Path 77532" d="M411.656,319v22.569H391V319h4.391s.574,0,.715.765a1.607,1.607,0,0,0,1.836,1.53H404.9a1.622,1.622,0,0,0,1.836-1.53.833.833,0,0,1,.715-.765Z" transform="translate(-241.436 -218.015)" fill="#e0e0e0"/>
    <path id="Path_77533" data-name="Path 77533" d="M350.656,319v22.569H330V319h4.391s.574,0,.715.765a1.607,1.607,0,0,0,1.836,1.53H343.9a1.622,1.622,0,0,0,1.836-1.53.833.833,0,0,1,.715-.765Z" transform="translate(-203.769 -218.015)" fill="#e0e0e0"/>
    <path id="Path_77534" data-name="Path 77534" d="M411.656,252v22.569H391V252h4.391s.574,0,.715.765a1.607,1.607,0,0,0,1.836,1.53H404.9a1.622,1.622,0,0,0,1.836-1.53.833.833,0,0,1,.715-.765Z" transform="translate(-241.436 -176.644)" fill="#e0e0e0"/>
    <path id="Path_77535" data-name="Path 77535" d="M350.656,252v22.569H330V252h4.391s.574,0,.715.765a1.607,1.607,0,0,0,1.836,1.53H343.9a1.622,1.622,0,0,0,1.836-1.53.833.833,0,0,1,.715-.765Z" transform="translate(-203.769 -176.644)" fill="#e0e0e0"/>
    <rect id="Rectangle_6146" data-name="Rectangle 6146" width="15.137" height="17.889" transform="translate(64.675 7.704)" fill="#f5f5f5"/>
    <rect id="Rectangle_6147" data-name="Rectangle 6147" width="5.504" height="1.376" transform="translate(74.308 22.841)" fill="#fafafa"/>
    <rect id="Rectangle_6148" data-name="Rectangle 6148" width="5.504" transform="translate(74.308 21.465)" fill="#fafafa"/>
    <rect id="Rectangle_6149" data-name="Rectangle 6149" width="5.504" height="1.376" transform="translate(74.308 9.08)" fill="#fafafa"/>
    <rect id="Rectangle_6150" data-name="Rectangle 6150" width="5.504" height="1.376" transform="translate(74.308 10.457)" fill="#fafafa"/>
    <rect id="Rectangle_6151" data-name="Rectangle 6151" width="15.137" height="17.889" transform="translate(60.547 7.704)" fill="#e6e6e6"/>
    <rect id="Rectangle_6152" data-name="Rectangle 6152" width="17.889" height="23.393" transform="translate(53.667 2.2)" fill="#f0f0f0"/>
    <rect id="Rectangle_6153" data-name="Rectangle 6153" width="4.128" height="2.752" transform="translate(67.427 21.465)" fill="#fafafa"/>
    <rect id="Rectangle_6154" data-name="Rectangle 6154" width="4.128" height="1.376" transform="translate(67.427 20.089)" fill="#fafafa"/>
    <rect id="Rectangle_6155" data-name="Rectangle 6155" width="4.128" height="1.376" transform="translate(67.427 6.328)" fill="#fafafa"/>
    <rect id="Rectangle_6156" data-name="Rectangle 6156" width="4.128" transform="translate(67.427 9.08)" fill="#fafafa"/>
    <rect id="Rectangle_6157" data-name="Rectangle 6157" width="17.889" height="23.393" transform="translate(50.914 2.2)" fill="#e6e6e6"/>
    <rect id="Rectangle_6158" data-name="Rectangle 6158" width="53.667" height="2.752" transform="translate(31.649 25.593)" fill="#f0f0f0"/>
    <path id="Path_77536" data-name="Path 77536" d="M101.51,75h15.3l3.435,17.978h-15.3Z" transform="translate(-62.681 -67.35)" fill="#f5f5f5"/>
    <rect id="Rectangle_6159" data-name="Rectangle 6159" width="13.761" height="2.752" transform="translate(31.649 25.593)" fill="#e0e0e0"/>
    <path id="Path_77537" data-name="Path 77537" d="M106.46,80H118.7l2.708,14.153H109.168Z" transform="translate(-65.737 -70.437)" fill="#fafafa"/>
    <path id="Path_77538" data-name="Path 77538" d="M104,88.04v12.99h2.483Z" transform="translate(-64.218 -75.402)" fill="#e6e6e6"/>
    <path id="Path_77539" data-name="Path 77539" d="M370.739,65.245c-2.414-1.339-3.351,1.465-3.351,1.465s.765-2.85-1.97-3.083-3.443,4.755.731,7.153C370.949,71.109,373.152,66.58,370.739,65.245Z" transform="translate(-224.265 -60.322)" fill="#e6e6e6"/>
    <path id="Path_77540" data-name="Path 77540" d="M408.355,158h-4.208A1.148,1.148,0,0,0,403,159.148v3.06a1.148,1.148,0,0,0,1.148,1.148h.639l-.325,1.209,1.147-1.209h2.747a1.147,1.147,0,0,0,1.147-1.148v-3.06A1.148,1.148,0,0,0,408.355,158Z" transform="translate(-248.846 -118.601)" fill="#e6e6e6"/>
  </g>
  <g id="freepik--Shadow--inject-3" transform="translate(21.138 137.53)">
    <ellipse id="freepik--path--inject-3" cx="74.166" cy="4.33" rx="74.166" ry="4.33" fill="#f5f5f5"/>
  </g>
  <g id="freepik--Table--inject-3" transform="translate(39.906 83.471)">
    <rect id="Rectangle_6160" data-name="Rectangle 6160" width="17.889" height="2.752" transform="translate(60.547 41.282)"/>
    <rect id="Rectangle_6161" data-name="Rectangle 6161" width="1.376" height="55.043" transform="translate(63.299 2.752)"/>
    <rect id="Rectangle_6162" data-name="Rectangle 6162" width="1.376" height="55.043" transform="translate(74.308 2.752)"/>
    <rect id="Rectangle_6163" data-name="Rectangle 6163" width="77.06" height="2.752" transform="translate(1.376)" fill="#ed3c8a" style="isolation: isolate"/>
    <rect id="Rectangle_6164" data-name="Rectangle 6164" width="77.06" height="2.752" transform="translate(1.376)" fill="#ed3c8a"/>
    <rect id="Rectangle_6165" data-name="Rectangle 6165" width="77.06" height="2.752" transform="translate(1.376)" opacity="0.6"/>
    <rect id="Rectangle_6166" data-name="Rectangle 6166" width="16.513" height="2.752" transform="translate(1.376)" opacity="0.6"/>
    <rect id="Rectangle_6167" data-name="Rectangle 6167" width="19.265" height="2.752" transform="translate(0 41.282)"/>
    <rect id="Rectangle_6168" data-name="Rectangle 6168" width="1.376" height="55.043" transform="translate(2.752 2.752)"/>
    <rect id="Rectangle_6169" data-name="Rectangle 6169" width="1.376" height="55.043" transform="translate(15.137 2.752)"/>
  </g>
  <g id="freepik--Chair--inject-3" transform="translate(49.387 105.578)">
    <rect id="Rectangle_6170" data-name="Rectangle 6170" width="1.376" height="30.273" transform="translate(34.553 5.414)" fill="#2e353a"/>
    <rect id="Rectangle_6171" data-name="Rectangle 6171" width="1.376" height="30.273" transform="translate(2.904 5.414)" fill="#2e353a"/>
    <rect id="Rectangle_6172" data-name="Rectangle 6172" width="1.376" height="30.273" transform="translate(15.288 5.414)" fill="#2e353a"/>
    <rect id="Rectangle_6173" data-name="Rectangle 6173" width="1.376" height="30.273" transform="translate(46.938 5.414)" fill="#2e353a"/>
    <rect id="Rectangle_6174" data-name="Rectangle 6174" width="52.291" height="4.128" transform="translate(0.152 5.414)" fill="#ed3c8a"/>
    <rect id="Rectangle_6175" data-name="Rectangle 6175" width="52.291" height="4.128" transform="translate(0.152 5.414)" opacity="0.849"/>
    <path id="Path_77541" data-name="Path 77541" d="M180.666,326.12H129.11a6.885,6.885,0,0,1,6.843-6.12h37.869a6.886,6.886,0,0,1,6.843,6.121Z" transform="translate(-129.11 -320)" fill="#ed3c8a"/>
    <path id="Path_77542" data-name="Path 77542" d="M180.666,326.12H129.11a6.885,6.885,0,0,1,6.843-6.12h37.869a6.886,6.886,0,0,1,6.843,6.121Z" transform="translate(-129.11 -320)" fill="#fff" opacity="0.6"/>
    <path id="Path_77543" data-name="Path 77543" d="M148.917,326.12H129.11a6.885,6.885,0,0,1,6.843-6.12h6.12a6.886,6.886,0,0,1,6.843,6.121Z" transform="translate(-129.11 -320)" fill="#fff" opacity="0.6"/>
  </g>
  <g id="freepik--character-3--inject-3" transform="translate(99.091 55.457)">
    <path id="Path_77544" data-name="Path 77544" d="M314.182,189.746a1.913,1.913,0,0,1,1.844,1.981V233.8a1.8,1.8,0,0,1-1.844,1.844H274.4a1.912,1.912,0,0,1-1.981-1.844V206l-11.231-5.8,11.231-.069v-8.415a2.031,2.031,0,0,1,1.981-1.981h39.713m.069-.765H274.4a2.8,2.8,0,0,0-2.746,2.746v7.65l-10.439.061H259.05l1.695,1.346,10.909,5.6V233.8a2.678,2.678,0,0,0,2.746,2.609h39.782a2.563,2.563,0,0,0,2.609-2.609V191.728a2.678,2.678,0,0,0-2.609-2.746Z" transform="translate(-259.05 -188.97)" fill="#ed3c8a"/>
    <path id="Path_77545" data-name="Path 77545" d="M314.182,189.746a1.913,1.913,0,0,1,1.844,1.981V233.8a1.8,1.8,0,0,1-1.844,1.844H274.4a1.912,1.912,0,0,1-1.981-1.844V206l-11.231-5.8,11.231-.069v-8.415a2.031,2.031,0,0,1,1.981-1.981h39.713m.069-.765H274.4a2.8,2.8,0,0,0-2.746,2.746v7.65l-10.439.061H259.05l1.695,1.346,10.909,5.6V233.8a2.678,2.678,0,0,0,2.746,2.609h39.782a2.563,2.563,0,0,0,2.609-2.609V191.728a2.678,2.678,0,0,0-2.609-2.746Z" transform="translate(-259.05 -188.97)" fill="#fff" opacity="0.6"/>
    <path id="Path_77546" data-name="Path 77546" d="M319.478,192.963V235.04a1.8,1.8,0,0,1-1.844,1.844H277.852a1.913,1.913,0,0,1-1.981-1.844v-27.8l-11.231-5.8,11.231-.069v-8.415a2.031,2.031,0,0,1,1.981-1.981h39.782a1.912,1.912,0,0,1,1.844,1.993Z" transform="translate(-262.502 -190.205)" fill="#fff"/>
    <g id="Group_54595" data-name="Group 54595" transform="translate(2.138 0.765)" clip-path="url(#clip-path)">
      <g id="freepik--group--inject-3" transform="translate(15.059 1.146)">
        <path id="Path_77547" data-name="Path 77547" d="M310.955,232.983l-3.382,1.262c-.252-.191,1.385-13.388,1.385-13.388l-2.54-.708s-3.339,14.046-2.157,16.448c1.53,3.121,8.285,0,8.285,0Z" transform="translate(-304.008 -210.134)" fill="#b97964"/>
        <path id="Path_77548" data-name="Path 77548" d="M329.484,248.177a3.064,3.064,0,0,0-.608,0,36.925,36.925,0,0,0-4.384.746c-3.282.692-6.885,1.622-6.885,1.622L316,245.882s10.584-6.12,12.3-5.619C328.3,240.263,331.174,248.433,329.484,248.177Z" transform="translate(-311.413 -222.535)" fill="#ffc200"/>
        <path id="Path_77549" data-name="Path 77549" d="M398.85,273.46a11.272,11.272,0,0,1,2.517,7.474c-.321,4.208-11.005,10.71-11.005,10.71l-1.362-2.1s8.511-7.172,8.7-8.607-1.767-4.59-1.767-4.59Z" transform="translate(-356.489 -243.052)" fill="#b97964"/>
        <path id="Path_77550" data-name="Path 77550" d="M385.8,313.552a14.014,14.014,0,0,1,1.656,2.632c-.084.3-1.492,1.174-1.492,1.174s.237,1.392.237,1.645c0,.624-1.113,1.4-1.4,1.213-1.029-.689-1.4-2.551-1.6-3.4S385.294,313.3,385.8,313.552Z" transform="translate(-352.902 -267.798)" fill="#ed3c8a"/>
        <path id="Path_77551" data-name="Path 77551" d="M385.8,313.552a14.014,14.014,0,0,1,1.656,2.632c-.084.3-1.492,1.174-1.492,1.174s.237,1.392.237,1.645c0,.624-1.113,1.4-1.4,1.213-1.029-.689-1.4-2.551-1.6-3.4S385.294,313.3,385.8,313.552Z" transform="translate(-352.902 -267.798)" fill="#fff" opacity="0.7" style="isolation: isolate"/>
        <path id="Path_77552" data-name="Path 77552" d="M343.667,313h16.066v1.913l-16.272-.2Z" transform="translate(-328.369 -267.467)" fill="#263238"/>
        <rect id="Rectangle_6176" data-name="Rectangle 6176" width="0.574" height="3.397" transform="translate(25.626 44.672)" fill="#ed3c8a"/>
        <rect id="Rectangle_6177" data-name="Rectangle 6177" width="0.574" height="3.397" transform="translate(17.497 44.672)" fill="#ed3c8a"/>
        <path id="Path_77553" data-name="Path 77553" d="M342.584,254.683a36.926,36.926,0,0,0-4.384.746c.593-2.563,3.749-4.659,3.749-4.659Z" transform="translate(-325.121 -229.041)" opacity="0.2" style="isolation: isolate"/>
        <rect id="Rectangle_6178" data-name="Rectangle 6178" width="2.972" height="2.142" transform="translate(19.647 45.2)" fill="#fff"/>
        <path id="Path_77554" data-name="Path 77554" d="M362.979,241.658s-.486,2.44-1.079,5.986c-.268,1.6-.555,3.443-.834,5.355v.027c-.34,2.375-.662,4.9-.9,7.363a72.352,72.352,0,0,0-.383,7.65H343.673s-.233-4-.2-9.253c0-2.406.084-5.072.256-7.742a58.918,58.918,0,0,1,1.53-10.81C345.265,240.228,355.417,239.75,362.979,241.658Z" transform="translate(-328.376 -222.5)" fill="#79aafa"/>
        <path id="Path_77555" data-name="Path 77555" d="M368.259,228.746c-1.465,1.331-5.053.838-5.053.838s-2.242-.612-1.771-1.312a2.5,2.5,0,0,0,2.222-1.622,3.824,3.824,0,0,0,.134-1.507,7.894,7.894,0,0,0-.111-.842l4.433-3.3C367.536,223.184,366.825,227.174,368.259,228.746Z" transform="translate(-339.428 -210.659)" fill="#b97964"/>
        <path id="Path_77556" data-name="Path 77556" d="M370.773,226.5a3.749,3.749,0,0,1-3.443,3.546,3.826,3.826,0,0,0,.134-1.507Z" transform="translate(-343.108 -214.055)" opacity="0.2" style="isolation: isolate"/>
        <path id="Path_77557" data-name="Path 77557" d="M358.82,202.7s-1.266,4,.658,5.914,3.125-5.7,3.125-5.7Z" transform="translate(-337.601 -199.359)" fill="#263238"/>
        <path id="Path_77558" data-name="Path 77558" d="M365.672,211.371a4.454,4.454,0,0,1-.581.734,3.76,3.76,0,0,1-4.495.765,4.207,4.207,0,0,1-2.058-2.3,3.911,3.911,0,0,1-.134-.425,8.586,8.586,0,0,1-.2-1.071c-.348-2.651.233-6.181,2.777-7.268a4.07,4.07,0,0,1,5.355,2.134,4.02,4.02,0,0,1,.325,1.871C366.541,208.353,366.564,209.993,365.672,211.371Z" transform="translate(-337.415 -198.604)" fill="#b97964"/>
        <path id="Path_77559" data-name="Path 77559" d="M367.727,214.5c0,.237-.122.44-.283.44s-.291-.2-.295-.436.126-.44.283-.44S367.72,214.247,367.727,214.5Z" transform="translate(-342.997 -206.374)" fill="#263238"/>
        <path id="Path_77560" data-name="Path 77560" d="M360.557,214.586c.019.241-.126.44-.283.44s-.287-.2-.294-.436.126-.44.283-.44S360.553,214.357,360.557,214.586Z" transform="translate(-338.569 -206.429)" fill="#263238"/>
        <path id="Path_77561" data-name="Path 77561" d="M361.918,215.57a8.626,8.626,0,0,1-1.148,2.089,1.4,1.4,0,0,0,1.17.2Z" transform="translate(-339.058 -207.306)" fill="#a24e3f"/>
        <path id="Path_77562" data-name="Path 77562" d="M368.9,211.553a.153.153,0,0,1-.138-.054,1.148,1.148,0,0,0-.918-.467.138.138,0,0,1-.153-.13.141.141,0,0,1,.126-.153h0a1.411,1.411,0,0,1,1.148.574.141.141,0,0,1-.019.2h0a.184.184,0,0,1-.046.031Z" transform="translate(-343.33 -204.33)" fill="#263238"/>
        <path id="Path_77563" data-name="Path 77563" d="M358.109,211.241a.161.161,0,0,1-.084,0,.145.145,0,0,1-.073-.187h0a1.408,1.408,0,0,1,1.014-.815.145.145,0,0,1,.161.122h0a.149.149,0,0,1-.122.161h0a1.148,1.148,0,0,0-.792.654A.152.152,0,0,1,358.109,211.241Z" transform="translate(-337.311 -204.013)" fill="#263238"/>
        <path id="Path_77564" data-name="Path 77564" d="M374.277,203.23l-.207,1.3a.979.979,0,0,1,.448,1.251,3.577,3.577,0,0,0,.93,3.534s.042-.478.44-.352.2,2.613-.624,3.775a7.752,7.752,0,0,0,1.989-3.626c.7-2.395.853-4.407.383-5.355Z" transform="translate(-347.27 -199.686)" fill="#263238"/>
        <path id="Path_77565" data-name="Path 77565" d="M379.927,216.282a2.834,2.834,0,0,1-1.607,1.454c-.937.329-1.469-.5-1.262-1.419.187-.815.9-1.993,1.87-1.913A1.262,1.262,0,0,1,379.927,216.282Z" transform="translate(-349.088 -206.583)" fill="#b97964"/>
        <path id="Path_77566" data-name="Path 77566" d="M364,222.9a9.2,9.2,0,0,1,.4,1.32h.245c1.1-.08,1.58-.482,1.783-.9a1.445,1.445,0,0,0,.126-.662,1.272,1.272,0,0,0-.061-.383,5.326,5.326,0,0,1-2.119.6C364.149,222.9,364,222.9,364,222.9Z" transform="translate(-341.052 -211.449)" fill="#263238"/>
        <path id="Path_77567" data-name="Path 77567" d="M364.53,222.969l.13.383a3.576,3.576,0,0,0,2.138-.639.723.723,0,0,0-.1-.383A5.3,5.3,0,0,1,364.53,222.969Z" transform="translate(-341.379 -211.48)" fill="#fff"/>
        <path id="Path_77568" data-name="Path 77568" d="M365.7,225.869c1.1-.08,1.58-.482,1.783-.9a3.578,3.578,0,0,0-1.2.329A1.308,1.308,0,0,0,365.7,225.869Z" transform="translate(-342.102 -213.11)" fill="#de5753"/>
        <path id="Path_77569" data-name="Path 77569" d="M366.4,198.516c.627-2.341-2.008-4.089-4.59-4.472a5.717,5.717,0,0,0-4.1.765,2.544,2.544,0,0,0-2-.532c-1.037.36-1.618,3.148,1.5,4.4a8.45,8.45,0,0,0,4.973.134S365.906,200.39,366.4,198.516Z" transform="translate(-335.419 -193.966)" fill="#263238"/>
        <path id="Path_77570" data-name="Path 77570" d="M389.271,258.416c-.268,1.61-.558,3.443-.838,5.39-1.262-2.322-.256-6.185-.256-6.185Z" transform="translate(-355.746 -233.271)" opacity="0.2" style="isolation: isolate"/>
        <path id="Path_77571" data-name="Path 77571" d="M390.988,244.05s2.261.746,10.274,13.878l-4.621,2.838s-5.784-7.937-7.3-8.32C389.339,252.446,387.438,245.9,390.988,244.05Z" transform="translate(-356.385 -224.892)" fill="#ffc200"/>
        <path id="Path_77572" data-name="Path 77572" d="M311.875,212.672s1.308-.57,1.53-1.17.359-4.437-.065-4.778-3.481-.1-3.825.643.038,4.089.2,4.4Z" transform="translate(-307.323 -201.75)" fill="#b97964"/>
        <path id="Path_77573" data-name="Path 77573" d="M361.078,270.058v.027c-.341,2.375-.662,4.9-.9,7.363-1.974-.765-6.855-2.043-16.685-1.618,0-2.406.084-5.072.256-7.742A36.519,36.519,0,0,1,361.078,270.058Z" transform="translate(-328.387 -239.551)" fill="#79aafa"/>
      </g>
    </g>
  </g>
  <g id="freepik--character-2--inject-3" transform="translate(86.831)">
    <path id="Path_77576" data-name="Path 77576" d="M271.946,44.76a1.6,1.6,0,0,1,1.721,1.721V86.263a1.934,1.934,0,0,1-1.721,2.1H243.215l-8.706,11.586-.061-11.586h-4.59a2.257,2.257,0,0,1-2.1-2.1V46.481a1.934,1.934,0,0,1,2.1-1.721h41.9m.191-.765H229.869A2.7,2.7,0,0,0,227,46.481V86.263a3.018,3.018,0,0,0,2.869,2.869h3.825l.057,10.73v2.222l1.362-1.744L243.6,89.132h28.348a2.7,2.7,0,0,0,2.486-2.869V46.481a2.364,2.364,0,0,0-2.486-2.486Z" transform="translate(-227 -43.991)" fill="#ed3c8a"/>
    <path id="Path_77577" data-name="Path 77577" d="M271.946,44.76a1.6,1.6,0,0,1,1.721,1.721V86.263a1.934,1.934,0,0,1-1.721,2.1H243.215l-8.706,11.586-.061-11.586h-4.59a2.257,2.257,0,0,1-2.1-2.1V46.481a1.934,1.934,0,0,1,2.1-1.721h41.9m.191-.765H229.869A2.7,2.7,0,0,0,227,46.481V86.263a3.018,3.018,0,0,0,2.869,2.869h3.825l.057,10.73v2.222l1.362-1.744L243.6,89.132h28.348a2.7,2.7,0,0,0,2.486-2.869V46.481a2.364,2.364,0,0,0-2.486-2.486Z" transform="translate(-227 -43.991)" fill="#fff" opacity="0.6"/>
    <path id="Path_77578" data-name="Path 77578" d="M274.884,47.712V87.494a1.934,1.934,0,0,1-1.721,2.1H244.431l-8.706,11.586L235.664,89.6h-4.59a2.257,2.257,0,0,1-2.1-2.1V47.712a1.934,1.934,0,0,1,2.1-1.721h42.077a1.6,1.6,0,0,1,1.733,1.721Z" transform="translate(-228.216 -45.222)" fill="#fff"/>
    <g id="Group_54603" data-name="Group 54603" transform="translate(0.754 0.763)" clip-path="url(#clip-path-2)">
      <path id="Path_77579" data-name="Path 77579" d="M287.511,160.709l.1,1.92-13.392-.337-.115-2.272Z" transform="translate(-256.837 -116.4)" fill="#263238"/>
      <rect id="Rectangle_6179" data-name="Rectangle 6179" width="2.884" height="2.188" transform="translate(23.214 46.24) rotate(-177.76)" fill="#fff"/>
      <rect id="Rectangle_6180" data-name="Rectangle 6180" width="0.654" height="3.324" transform="translate(26.755 47.061) rotate(-179.92)" fill="#263238"/>
      <rect id="Rectangle_6181" data-name="Rectangle 6181" width="0.654" height="3.324" transform="translate(26.755 47.061) rotate(-179.92)" fill="#fff" opacity="0.1" style="isolation: isolate"/>
      <rect id="Rectangle_6182" data-name="Rectangle 6182" width="0.654" height="3.324" transform="translate(18.695 46.583) rotate(-179.97)" fill="#263238"/>
      <rect id="Rectangle_6183" data-name="Rectangle 6183" width="0.654" height="3.324" transform="translate(18.695 46.583) rotate(-179.97)" fill="#fff" opacity="0.1" style="isolation: isolate"/>
      <path id="Path_77580" data-name="Path 77580" d="M252.131,78.179s-7.719-.765-9.108-2.8S246.2,59.635,246.2,59.635l-2-.765s-6.35,14.153-5.053,17.76S251.523,83.3,251.523,83.3Z" transform="translate(-235.147 -53.941)" fill="#ebb376"/>
      <path id="Path_77581" data-name="Path 77581" d="M287.083,64.433s-1.783-2.919-6.254-1.568c-4.919,1.484-6.216,11.453-2,20.35s12.091,7.268,12.336,2.942-1.01-9.1-.838-14S288.56,64.559,287.083,64.433Z" transform="translate(-258.192 -56.187)" fill="#263238"/>
      <path id="Path_77582" data-name="Path 77582" d="M272.728,127.916l13.185.474a46.874,46.874,0,0,1,.914-9.712c.249-1.274.574-2.7,1-4.345.226-.88.478-1.825.765-2.846.21-.765.44-1.591.7-2.46a38.632,38.632,0,0,0-5.516-1.04,42,42,0,0,0-5.925-.325c-2.551.107-5.474.543-5.474.543s-.413.119-.539,2.842A115.634,115.634,0,0,0,272.728,127.916Z" transform="translate(-255.407 -84.066)" fill="#ed3c8a"/>
      <path id="Path_77583" data-name="Path 77583" d="M272.728,127.916l13.185.474a46.874,46.874,0,0,1,.914-9.712c.249-1.274.574-2.7,1-4.345.226-.88.478-1.825.765-2.846.21-.765.44-1.591.7-2.46a38.632,38.632,0,0,0-5.516-1.04,42,42,0,0,0-5.925-.325c-2.551.107-5.474.543-5.474.543s-.413.119-.539,2.842A115.634,115.634,0,0,0,272.728,127.916Z" transform="translate(-255.407 -84.066)" fill="#ed3c8a" opacity="0.2" style="isolation: isolate"/>
      <g id="Group_54596" data-name="Group 54596" transform="translate(16.388 23.583)" opacity="0.3">
        <path id="Path_77584" data-name="Path 77584" d="M289.3,109.015l-.214.738c-.138.471-.264.926-.383,1.366-.031.119-.065.237-.1.356-.13.47-.252.926-.383,1.362s-.245.922-.356,1.358l-.034.126c-.141.555-.275,1.086-.382,1.591s-.218.922-.314,1.354-.2.952-.291,1.4c-.023.107-.1.21-.122.314a7.987,7.987,0,0,0-.3,1.354h0a12.261,12.261,0,0,1-.176,1.591v.115c-.061.467-.08.914-.122,1.354v.061c-.046.558-.069,1.1-.1,1.649-.023.448-.031.9-.042,1.35-.019.62-.027,1.255-.034,1.913l-13.181-.474c-.08-.7-.145-1.369-.21-2.016-.046-.474-.088-.937-.13-1.389-.053-.585-.1-1.148-.149-1.691-.019-.237-.038-.49-.057-.734s-.038-.448-.054-.666c-.042-.593-.08-1.148-.115-1.7-.031-.478-.057-.937-.08-1.381q-.054-.9-.08-1.7-.027-.727-.046-1.377c0-.616,0-1.178-.023-1.691s0-.96,0-1.373.019-.815.034-1.148c0-.187.019-.382.031-.528a11.582,11.582,0,0,1,.153-1.35c.161-.907.356-.964.356-.964s2.922-.436,5.474-.543a41.991,41.991,0,0,1,5.925.325A38.633,38.633,0,0,1,289.3,109.015Z" transform="translate(-271.813 -107.636)" fill="#faff1e"/>
        <path id="Path_77585" data-name="Path 77585" d="M289.3,109.015l-.214.738c-.138.471-.264.926-.383,1.366-.031.119-.065.237-.1.356-.13.47-.252.926-.383,1.362s-.245.922-.356,1.358l-.034.126c-.141.555-.275,1.086-.382,1.591s-.218.922-.314,1.354-.2.952-.291,1.4c-.023.107-.1.21-.122.314a7.987,7.987,0,0,0-.3,1.354h0a12.261,12.261,0,0,1-.176,1.591v.115c-.061.467-.08.914-.122,1.354v.061c-.046.558-.069,1.1-.1,1.649-.023.448-.031.9-.042,1.35-.019.62-.027,1.255-.034,1.913l-13.181-.474c-.08-.7-.145-1.369-.21-2.016-.046-.474-.088-.937-.13-1.389-.053-.585-.1-1.148-.149-1.691-.019-.237-.038-.49-.057-.734s-.038-.448-.054-.666c-.042-.593-.08-1.148-.115-1.7-.031-.478-.057-.937-.08-1.381q-.054-.9-.08-1.7-.027-.727-.046-1.377c0-.616,0-1.178-.023-1.691s0-.96,0-1.373.019-.815.034-1.148c0-.187.019-.382.031-.528a11.582,11.582,0,0,1,.153-1.35c.161-.907.356-.964.356-.964s2.922-.436,5.474-.543a41.991,41.991,0,0,1,5.925.325A38.633,38.633,0,0,1,289.3,109.015Z" transform="translate(-271.813 -107.636)" fill="#faff1e" opacity="0.2" style="isolation: isolate"/>
      </g>
      <path id="Path_77586" data-name="Path 77586" d="M252.417,54.558s.868-.746.891-1.255-.765-3.473-1.171-3.634-2.678.742-2.754,1.389a10.12,10.12,0,0,0,1.186,3.309Z" transform="translate(-241.573 -48.249)" fill="#ebb376"/>
      <g id="Group_54597" data-name="Group 54597" transform="translate(16.46 25.103)" opacity="0.7">
        <path id="Path_77587" data-name="Path 77587" d="M289.213,112.207c-.138.47-.264.926-.382,1.366q-2.134.046-4.02.046A105.718,105.718,0,0,1,272,112.96a11.6,11.6,0,0,1,.153-1.35A119.219,119.219,0,0,0,289.213,112.207Z" transform="translate(-272 -111.61)" fill="#fff"/>
      </g>
      <g id="Group_54598" data-name="Group 54598" transform="translate(16.376 28.132)" opacity="0.7">
        <path id="Path_77588" data-name="Path 77588" d="M288.213,120.18c-.126.471-.245.922-.356,1.358-1.117.023-2.184.031-3.2.031a106.062,106.062,0,0,1-12.879-.666V119.53A115.812,115.812,0,0,0,288.213,120.18Z" transform="translate(-271.78 -119.53)" fill="#fff"/>
      </g>
      <g id="Group_54599" data-name="Group 54599" transform="translate(16.414 31.196)" opacity="0.7">
        <path id="Path_77589" data-name="Path 77589" d="M287.491,128.2c-.115.471-.218.922-.314,1.354-.849,0-1.668.019-2.456.019a106.624,106.624,0,0,1-12.8-.658q-.027-.727-.046-1.377A114.012,114.012,0,0,0,287.491,128.2Z" transform="translate(-271.88 -127.54)" fill="#fff"/>
      </g>
      <g id="Group_54600" data-name="Group 54600" transform="translate(16.525 34.26)" opacity="0.7">
        <path id="Path_77590" data-name="Path 77590" d="M286.943,136.216a7.986,7.986,0,0,0-.3,1.354H284.9a106.908,106.908,0,0,1-12.65-.639c-.031-.478-.057-.937-.08-1.381a112.38,112.38,0,0,0,14.773.666Z" transform="translate(-272.17 -135.55)" fill="#fff"/>
      </g>
      <g id="Group_54601" data-name="Group 54601" transform="translate(16.731 37.305)" opacity="0.7">
        <path id="Path_77591" data-name="Path 77591" d="M286.84,144.08c-.057.765-.107,1.148-.149,1.53h-.031c-.486,0-.964-.023-1.427-.023a107.738,107.738,0,0,1-12.413-.627c-.038-.478-.077-1-.111-1.45a128.532,128.532,0,0,0,14.084.57Z" transform="translate(-272.71 -143.51)" fill="#fff"/>
      </g>
      <g id="Group_54602" data-name="Group 54602" transform="translate(17.007 40.396)" opacity="0.7">
        <path id="Path_77592" data-name="Path 77592" d="M287.036,152.129c-.023.383-.038,1.148-.05,1.53h0c-.436,0-.864-.023-1.281-.023a110.2,110.2,0,0,1-12.145-.593c-.046-.474-.088-1.006-.13-1.454a126.892,126.892,0,0,0,13.6.539Z" transform="translate(-273.43 -151.59)" fill="#fff"/>
      </g>
      <path id="Path_77593" data-name="Path 77593" d="M303.575,111.24s5.569,9.024,6.962,15.083-15.607-.383-15.607-.383l.539-2.245s8.928,2.372,9.976,1.607-3.565-7.8-3.565-7.8Z" transform="translate(-269.699 -86.279)" fill="#ebb376"/>
      <path id="Path_77594" data-name="Path 77594" d="M292.8,143.878s-.979.589-1.469.451-3.06-1.821-3.079-2.257,1.53-2.3,2.184-2.18a9.4,9.4,0,0,1,2.766,2.173Z" transform="translate(-265.574 -103.968)" fill="#ebb376"/>
      <path id="Path_77595" data-name="Path 77595" d="M290,139.9c-.765,0-2.919,1.675-2.395,1.966s3.152,2.41,3.622,2.089a4.207,4.207,0,0,0,.952-1.232Z" transform="translate(-265.128 -103.976)" fill="#ebb376"/>
      <path id="Path_77596" data-name="Path 77596" d="M288.937,103.349c3.213-.574,4.116-2,4.116-2-2.15-1.836-.612-5.275-.612-5.275l-3.86.922a11.871,11.871,0,0,1,.237,1.63c.145,2.364-.922,2.44-.922,2.44C287.277,102.378,288.937,103.349,288.937,103.349Z" transform="translate(-265.27 -76.912)" fill="#ebb376"/>
      <path id="Path_77597" data-name="Path 77597" d="M289.91,96.992a11.871,11.871,0,0,1,.237,1.63,4.337,4.337,0,0,0,3.622-2.551Z" transform="translate(-266.599 -76.912)" opacity="0.2" style="isolation: isolate"/>
      <path id="Path_77598" data-name="Path 77598" d="M286.331,69.73c-3.4,0-4.495,1.794-4.759,5.294-.333,4.368.623,7.478,4.873,6.564C292.214,80.349,291.969,69.753,286.331,69.73Z" transform="translate(-261.413 -60.647)" fill="#ebb376"/>
      <path id="Path_77599" data-name="Path 77599" d="M290.148,73.3s-1.572-2.8-1.323-4.95c0,0-6.713-2.777-7.077,4.047,0,0-.631-6.063,5.206-6.174s5.772,8.415,2.746,10.959C289.7,77.187,291.123,75.053,290.148,73.3Z" transform="translate(-261.547 -58.484)" fill="#263238"/>
      <path id="Path_77600" data-name="Path 77600" d="M299.73,82.332a.1.1,0,0,1-.057-.18,4.972,4.972,0,0,0,1.408-2.215c.585-1.614-.455-3.351-1.289-4.747a3.738,3.738,0,0,1-.283-3.607.1.1,0,0,1,.138-.034.1.1,0,0,1,.034.134,3.542,3.542,0,0,0,.283,3.408c.857,1.431,1.913,3.209,1.3,4.915a4.787,4.787,0,0,1-1.477,2.3A.126.126,0,0,1,299.73,82.332Z" transform="translate(-272.319 -61.762)" fill="#263238"/>
      <path id="Path_77601" data-name="Path 77601" d="M302.268,84.4a1.488,1.488,0,0,1,1.61-1.35c1.052.119,1.53,2.3-1.075,2.789C302.429,85.912,302.219,85.545,302.268,84.4Z" transform="translate(-274.226 -68.869)" fill="#ebb376"/>
      <path id="Path_77602" data-name="Path 77602" d="M285.674,83.44a7.382,7.382,0,0,1-1.044,1.408.952.952,0,0,0,.907.417Z" transform="translate(-263.339 -69.113)" fill="#d58745"/>
      <path id="Path_77603" data-name="Path 77603" d="M294.468,77.064a.092.092,0,0,0,.042-.023.145.145,0,0,0,.027-.207,1.936,1.936,0,0,0-1.618-.62.145.145,0,0,0-.13.161.149.149,0,0,0,.161.134,1.645,1.645,0,0,1,1.354.5A.145.145,0,0,0,294.468,77.064Z" transform="translate(-268.376 -64.646)" fill="#263238"/>
      <path id="Path_77604" data-name="Path 77604" d="M284.166,75.847a.134.134,0,0,0,.092-.084.149.149,0,0,0-.08-.191,1.752,1.752,0,0,0-1.53.26.146.146,0,0,0,.153.249,1.473,1.473,0,0,1,1.255-.233A.149.149,0,0,0,284.166,75.847Z" transform="translate(-262.072 -64.209)" fill="#263238"/>
      <path id="Path_77605" data-name="Path 77605" d="M288,89.9a9.2,9.2,0,0,1,.4,1.32h.245c1.1-.08,1.58-.482,1.783-.9a1.446,1.446,0,0,0,.126-.662,1.275,1.275,0,0,0-.061-.383,5.327,5.327,0,0,1-2.119.6C288.149,89.9,288,89.9,288,89.9Z" transform="translate(-265.42 -72.719)" fill="#263238"/>
      <path id="Path_77606" data-name="Path 77606" d="M288.53,89.969l.13.383a3.576,3.576,0,0,0,2.138-.639.723.723,0,0,0-.1-.382A5.3,5.3,0,0,1,288.53,89.969Z" transform="translate(-265.747 -72.75)" fill="#fff"/>
      <path id="Path_77607" data-name="Path 77607" d="M289.7,92.869c1.1-.08,1.58-.482,1.783-.9a3.577,3.577,0,0,0-1.2.329A1.308,1.308,0,0,0,289.7,92.869Z" transform="translate(-266.47 -74.38)" fill="#de5753"/>
      <path id="Path_77608" data-name="Path 77608" d="M292.757,82.591h.027a.1.1,0,0,0,.027-.142.918.918,0,0,0-.658-.451,1.071,1.071,0,0,0-.765.275.1.1,0,0,0,.138.149.864.864,0,0,1,.6-.222.727.727,0,0,1,.5.356.1.1,0,0,0,.134.034Z" transform="translate(-267.499 -68.222)" fill="#263238"/>
      <path id="Path_77609" data-name="Path 77609" d="M284.269,82.179l.034-.023a.1.1,0,0,0,0-.142,1.067,1.067,0,0,0-.7-.344.765.765,0,0,0-.581.283.1.1,0,0,0,.142.145.581.581,0,0,1,.432-.218.865.865,0,0,1,.547.275A.111.111,0,0,0,284.269,82.179Z" transform="translate(-262.328 -68.02)" fill="#263238"/>
      <path id="Path_77610" data-name="Path 77610" d="M280,71.66a4.8,4.8,0,0,1,3.825-.956,3.245,3.245,0,0,1,.826-1.213,5.467,5.467,0,0,0-.444,1.255,13.659,13.659,0,0,1,2.551.574,6.19,6.19,0,0,1,1.419-2.039C281.025,66.374,280,71.66,280,71.66Z" transform="translate(-260.48 -59.831)" fill="#263238"/>
      <path id="Path_77611" data-name="Path 77611" d="M289.866,108.583s-3.63,3.29-7.184,3.4-4.973-3.787-4.973-3.787A20.166,20.166,0,0,1,289.866,108.583Z" transform="translate(-259.066 -83.943)" fill="#ebb376"/>
    </g>
  </g>
  <g id="freepik--character-1--inject-3" transform="translate(57.129 46.45)">
    <path id="Path_77613" data-name="Path 77613" d="M222.938,239.778c-2.525.819-12.1.765-15.683.382a8.725,8.725,0,0,1-7.738-5.623c-.149-.36-.287-.719-.417-1.083a32.619,32.619,0,0,1-1.5-6.415l3.825,1.063s.7,2.46,1.411,4.426c.138.383.275.731.409,1.048a4.8,4.8,0,0,0,1.66,2.3,7.769,7.769,0,0,0,3.626,1.079c3.462.382,7.111,1.048,9.731,1.148a19.092,19.092,0,0,0,4.254-.241S225.466,238.955,222.938,239.778Z" transform="translate(-179.144 -203.471)" fill="#e4897b"/>
    <path id="Path_77614" data-name="Path 77614" d="M222.938,239.778c-2.525.819-12.1.765-15.683.382a8.725,8.725,0,0,1-7.738-5.623c-.149-.36-.287-.719-.417-1.083a32.619,32.619,0,0,1-1.5-6.415l3.825,1.063s.7,2.46,1.411,4.426c.138.383.275.731.409,1.048a4.8,4.8,0,0,0,1.66,2.3,7.769,7.769,0,0,0,3.626,1.079c3.462.382,7.111,1.048,9.731,1.148a19.092,19.092,0,0,0,4.254-.241S225.466,238.955,222.938,239.778Z" transform="translate(-179.144 -203.471)" opacity="0.1" style="isolation: isolate"/>
    <path id="Path_77615" data-name="Path 77615" d="M163.007,165.5c6.545-.65,7.979,3.095,8.033,4.885s-2.123,7.926-1.293,9.9,2.184,5.153-.268,8.255-10.248,4.487-13.5-.382-.138-5.286.536-9.877S155.2,166.272,163.007,165.5Z" transform="translate(-152.545 -165.424)" fill="#2e353a"/>
    <path id="Path_77616" data-name="Path 77616" d="M241.169,392.442l-2.574-.26-.065-3.626-.05-3.328,3.106-.187-.218,3.917Z" transform="translate(-204.387 -301.033)" fill="#e4897b"/>
    <path id="Path_77617" data-name="Path 77617" d="M237,402.787c-.031-.287,3.469-.547,3.469-.547a11.04,11.04,0,0,0,4.59,2.073c2.154.2,1.148,1.607-1.148,1.913l-5.738.8C236.5,407.27,237.332,405.725,237,402.787Z" transform="translate(-203.472 -311.654)" fill="#2e353a"/>
    <path id="Path_77618" data-name="Path 77618" d="M248.475,401.4a5.2,5.2,0,0,1-1.312-.252.077.077,0,0,1-.034,0,.039.039,0,0,1,0-.019h0a.085.085,0,0,1,0-.069,1.987,1.987,0,0,1,.631-1.148.535.535,0,0,1,.451-.05c.168.053.26.141.268.26,0,.184-.207.383-.467.589a1.431,1.431,0,0,1,.788-.023.382.382,0,0,1,.218.21.337.337,0,0,1-.031.383A.665.665,0,0,1,248.475,401.4Zm-1.017-.356c.539.145,1.2.249,1.346.092,0,0,.053-.053,0-.187a.207.207,0,0,0-.119-.107A2.361,2.361,0,0,0,247.457,401.046Zm.536-1.044a.352.352,0,0,0-.184.054,1.53,1.53,0,0,0-.494.83c.486-.268.945-.608.933-.765,0-.05-.088-.084-.142-.1a.384.384,0,0,0-.1-.019Z" transform="translate(-209.722 -310.169)" fill="#ed3c8a"/>
    <path id="Path_77619" data-name="Path 77619" d="M241.35,389.062l-2.831-.413-.05-3.362,3.11-.207Z" transform="translate(-204.38 -301.058)" opacity="0.2" style="isolation: isolate"/>
    <path id="Path_77620" data-name="Path 77620" d="M204.5,300.531c-.681-3.863-5.3-4.326-5.3-4.326h-.027a145.367,145.367,0,0,0-17.848-3.534L171,303.652S182.586,303,195.21,303c0,0,.49,15.5,1.224,27.04l3.733.069S205.182,304.39,204.5,300.531Z" transform="translate(-162.719 -243.996)" fill="#2e353a"/>
    <path id="Path_77621" data-name="Path 77621" d="M204.5,300.531c-.681-3.863-5.3-4.326-5.3-4.326h-.027a145.367,145.367,0,0,0-17.848-3.534L171,303.652S182.586,303,195.21,303c0,0,.49,15.5,1.224,27.04l3.733.069S205.182,304.39,204.5,300.531Z" transform="translate(-162.719 -243.996)" opacity="0.3" style="isolation: isolate"/>
    <path id="Path_77622" data-name="Path 77622" d="M204.615,393.2l-2.505-.643.482-3.6.448-3.3,3.1.279-.807,3.84Z" transform="translate(-181.929 -301.416)" fill="#e4897b"/>
    <path id="Path_77623" data-name="Path 77623" d="M199.651,403.156c0-.287,3.511-.019,3.511-.019a11.069,11.069,0,0,0,4.208,2.735c2.077.516.9,1.76-1.438,1.733l-5.787-.069C198.492,407.513,199.547,406.109,199.651,403.156Z" transform="translate(-180.146 -312.137)" fill="#2e353a"/>
    <path id="Path_77624" data-name="Path 77624" d="M211.93,403.042a4.346,4.346,0,0,1-1.461-.463.091.091,0,0,1-.031-.023h0v-.019a.1.1,0,0,1,0-.073c0-.034.318-.849.8-1.04a.543.543,0,0,1,.455.019c.157.077.233.176.226.295,0,.187-.264.382-.551.516a1.407,1.407,0,0,1,.765.1.382.382,0,0,1,.184.237.34.34,0,0,1-.088.382.475.475,0,0,1-.295.073Zm-1.148-.516c.516.226,1.148.425,1.32.291,0,0,.061-.046.027-.184a.2.2,0,0,0-.1-.126,2.276,2.276,0,0,0-1.239.019Zm.635-.956a.351.351,0,0,0-.138.027,1.531,1.531,0,0,0-.608.746c.52-.191,1.025-.459,1.037-.616,0-.05-.077-.1-.126-.119a.358.358,0,0,0-.168-.038Z" transform="translate(-187.067 -311.125)" fill="#ed3c8a"/>
    <path id="Path_77625" data-name="Path 77625" d="M206.069,389.916l-2.739-.834.455-3.332,3.1.26Z" transform="translate(-182.682 -301.471)" opacity="0.2" style="isolation: isolate"/>
    <path id="Path_77626" data-name="Path 77626" d="M169.922,280.307s-.287-3.974-.421-4.785a18.678,18.678,0,0,0-.493-2.379c-.884-2.651-12.623-.975-12.623-.975s-7.054,11.961-2.173,16.923c1.083,1.1,3.2,1.6,5.355,1.58,0,0,2.708,0,15.021-.558,0,0-1.84,15.4-2.846,26.922l3.684.627s8.752-24.68,8.656-28.6S184.1,283.47,169.922,280.307Z" transform="translate(-151.29 -231.013)" fill="#2e353a"/>
    <path id="Path_77627" data-name="Path 77627" d="M201.445,387.38l5.061.574-.979,1.985-4.1-.528Z" transform="translate(-181.509 -302.478)" fill="#ed3c8a"/>
    <path id="Path_77628" data-name="Path 77628" d="M235.69,387.381l5.091-.191-.669,2.108-4.127.1Z" transform="translate(-202.664 -302.361)" fill="#ed3c8a"/>
    <path id="Path_77629" data-name="Path 77629" d="M162.973,269.24l-.283,1.828,12.623.972.333-2.157Z" transform="translate(-157.588 -229.529)" fill="#2e353a"/>
    <path id="Path_77630" data-name="Path 77630" d="M162.973,269.24l-.283,1.828,12.623.972.333-2.157Z" transform="translate(-157.588 -229.529)" opacity="0.2" style="isolation: isolate"/>
    <rect id="Rectangle_6184" data-name="Rectangle 6184" width="0.627" height="3.194" transform="translate(9.074 39.525) rotate(5.88)" fill="#2e353a"/>
    <rect id="Rectangle_6185" data-name="Rectangle 6185" width="2.774" height="2.104" transform="matrix(0.998, 0.06, -0.06, 0.998, 12.917, 40.1)" fill="#fff"/>
    <rect id="Rectangle_6186" data-name="Rectangle 6186" width="0.627" height="3.194" transform="translate(16.828 39.865) rotate(5.88)" fill="#2e353a"/>
    <path id="Path_77631" data-name="Path 77631" d="M169.286,234.123l-12.673-.643a51.176,51.176,0,0,0-1.4-10.366c-.321-1.293-.727-2.739-1.247-4.41-.279-.891-.585-1.848-.93-2.88-.26-.765-.337-1.6-.643-2.475a37.21,37.21,0,0,1,5.409-1.381,42.989,42.989,0,0,1,6.067-.639c2.628-.019,5.646.275,5.646.275s.432.1.7,2.888C170.46,217.12,169.837,224.59,169.286,234.123Z" transform="translate(-151.227 -193.769)" fill="#ed3c8a"/>
    <path id="Path_77632" data-name="Path 77632" d="M169.311,234.123l-12.673-.643a66.8,66.8,0,0,0-.666-6.809c-.18-1.113-.417-2.3-.738-3.557s-.727-2.739-1.247-4.41c-.279-.891-.585-1.848-.93-2.88v-.05c-.249-.765-.329-1.568-.627-2.425a37.715,37.715,0,0,1,5.394-1.381,42.985,42.985,0,0,1,6.067-.639c2.628-.019,5.646.275,5.646.275s.432.1.7,2.888C170.485,217.12,169.861,224.59,169.311,234.123Z" transform="translate(-151.252 -193.769)" fill="#fff" opacity="0.2" style="isolation: isolate"/>
    <path id="Path_77633" data-name="Path 77633" d="M233.62,209.765c-.073,1.913-.329,7.455-.451,9.379s-.811,1.848-2.919,1.848a2.424,2.424,0,0,1-.692-.08c-1.255-.317-.765-1.61-.711-2.41,0,0,.291-4.28.36-7.012s-.142-3.087,1.71-3.087S233.689,207.856,233.62,209.765Z" transform="translate(-198.352 -191.918)" fill="#ed3c8a"/>
    <path id="Path_77634" data-name="Path 77634" d="M234.992,209.765c-.073,1.913-.329,7.455-.451,9.379s-.811,1.848-2.919,1.848a2.424,2.424,0,0,1-.692-.08,10.785,10.785,0,0,1,.153-1.553c.21-1.679.49-8.251.539-9.594s.027-1.339.666-1.362C234.135,208.4,235.061,207.856,234.992,209.765Z" transform="translate(-199.725 -191.918)" opacity="0.4"/>
    <path id="Path_77635" data-name="Path 77635" d="M174.782,173.387s2.043-7.792-6.338-7.409-6.5,13.388-1.3,12.6A11.261,11.261,0,0,0,174.782,173.387Z" transform="translate(-157.592 -165.758)" fill="#2e353a"/>
    <path id="Path_77636" data-name="Path 77636" d="M173.862,205.218a5.679,5.679,0,0,1-4.472-1.76c2.452-1.687,1.216-5.459,1.216-5.459l3.94,1.385a12.065,12.065,0,0,0-.421,1.683c-.413,2.46.7,2.655.7,2.655C175.331,205.168,174.516,205.138,173.862,205.218Z" transform="translate(-161.725 -185.539)" fill="#e4897b"/>
    <path id="Path_77637" data-name="Path 77637" d="M176.51,199.4a12.069,12.069,0,0,0-.421,1.683,10.079,10.079,0,0,1-3.519-3.06Z" transform="translate(-163.688 -185.551)" opacity="0.2" style="isolation: isolate"/>
    <path id="Path_77638" data-name="Path 77638" d="M174.292,170.913c3.561.306,4.544,2.3,4.491,6-.069,4.617-1.366,7.788-5.738,6.426C167.112,181.489,168.378,170.4,174.292,170.913Z" transform="translate(-161.593 -168.803)" fill="#e4897b"/>
    <path id="Path_77639" data-name="Path 77639" d="M188.211,185.6a7.7,7.7,0,0,0,.91,1.565.975.975,0,0,1-.972.321Z" transform="translate(-173.309 -177.882)" fill="#de5753"/>
    <path id="Path_77640" data-name="Path 77640" d="M181.541,183.454c-.019.291-.191.52-.383.5s-.34-.256-.321-.551.191-.52.383-.509S181.56,183.159,181.541,183.454Z" transform="translate(-168.792 -176.214)" fill="#2e353a"/>
    <path id="Path_77641" data-name="Path 77641" d="M181.63,182.58l.65-.21S181.932,182.886,181.63,182.58Z" transform="translate(-169.283 -175.888)" fill="#2e353a"/>
    <path id="Path_77642" data-name="Path 77642" d="M191.081,183.89c-.019.295-.191.52-.383.509s-.34-.26-.321-.555.191-.52.382-.5S191.1,183.591,191.081,183.89Z" transform="translate(-174.683 -176.486)" fill="#2e353a"/>
    <path id="Path_77643" data-name="Path 77643" d="M191.16,183.02l.654-.21S191.481,183.326,191.16,183.02Z" transform="translate(-175.167 -176.16)" fill="#2e353a"/>
    <path id="Path_77644" data-name="Path 77644" d="M178.757,178.152a.146.146,0,0,1-.107-.042.153.153,0,0,1,0-.214,2,2,0,0,1,1.733-.447.153.153,0,0,1,.119.18.145.145,0,0,1-.18.115,1.7,1.7,0,0,0-1.45.382.161.161,0,0,1-.115.027Z" transform="translate(-167.415 -172.821)" fill="#2e353a"/>
    <path id="Path_77645" data-name="Path 77645" d="M191.108,178.387a.145.145,0,0,1-.1-.034,1.53,1.53,0,0,0-1.259-.383.153.153,0,0,1-.08-.295,1.809,1.809,0,0,1,1.53.444.148.148,0,0,1-.1.268Z" transform="translate(-174.186 -172.973)" fill="#2e353a"/>
    <path id="Path_77646" data-name="Path 77646" d="M182.6,192.678a9.3,9.3,0,0,0-.52,1.2,2.146,2.146,0,0,1-.226-.042c-1.029-.191-1.442-.624-1.587-1.04a1.427,1.427,0,0,1,.05-.987,4.912,4.912,0,0,0,1.936.8C182.464,192.648,182.6,192.678,182.6,192.678Z" transform="translate(-168.4 -181.717)" fill="#2e353a"/>
    <path id="Path_77647" data-name="Path 77647" d="M182.275,192.606l-.164.352a3.106,3.106,0,0,1-1.87-.8,1.31,1.31,0,0,1,.1-.352A4.912,4.912,0,0,0,182.275,192.606Z" transform="translate(-168.424 -181.717)" fill="#fff"/>
    <path id="Path_77648" data-name="Path 77648" d="M181.957,195.43c-1.029-.191-1.442-.623-1.587-1.04a3.336,3.336,0,0,1,1.1.444A1.278,1.278,0,0,1,181.957,195.43Z" transform="translate(-168.505 -183.31)" fill="#de5753"/>
    <path id="Path_77649" data-name="Path 77649" d="M168.479,174.211s1.913-2.785,1.859-5.065c0,0,7.306-2.3,7.038,4.915,0,0,1.236-6.3-4.877-6.969s-6.855,8.293-3.921,11.235C168.59,178.327,167.3,175.952,168.479,174.211Z" transform="translate(-160.198 -166.432)" fill="#2e353a"/>
    <path id="Path_77650" data-name="Path 77650" d="M168.249,185.312a1.572,1.572,0,0,0-1.561-1.572c-1.113.027-1.836,2.245.865,3.03C167.939,186.9,168.2,186.517,168.249,185.312Z" transform="translate(-159.44 -176.734)" fill="#e4897b"/>
    <path id="Path_77651" data-name="Path 77651" d="M174.42,175.655a.107.107,0,0,1-.1-.069.111.111,0,0,1,.061-.138c2.938-1.113,2.884-5.049,2.88-5.091a.107.107,0,0,1,.1-.107h0a.1.1,0,0,1,.1.1c0,.042.057,4.127-3.014,5.294Z" transform="translate(-164.765 -168.404)" fill="#2e353a"/>
    <path id="Path_77652" data-name="Path 77652" d="M174.52,167.5c-3.01-2.528-4.781-1.733-4.781-1.733v.042c-1.17-.348-3.11-.421-5.064,1.691-3.11,3.355-.49,5.8-.49,5.8a8.869,8.869,0,0,0,6.342-5.378,10.688,10.688,0,0,0,5.386,4.479C175.931,172.394,177.534,170.023,174.52,167.5Z" transform="translate(-157.873 -165.545)" fill="#2e353a"/>
    <path id="Path_77653" data-name="Path 77653" d="M168.827,209.791s-.49,2.444,3.565,2.655c0,0-1.817,1.19-2.1,2.375a4.867,4.867,0,0,1-3.282-4.208C167.006,210.629,168.127,209.37,168.827,209.791Z" transform="translate(-160.255 -192.767)" fill="#ed3c8a" style="isolation: isolate"/>
    <path id="Path_77654" data-name="Path 77654" d="M181.279,209.565s.226,2.3-.2,2.785a3.607,3.607,0,0,1,2.027,1.817,7.642,7.642,0,0,0-.666-3.879S181.944,209.423,181.279,209.565Z" transform="translate(-168.943 -192.67)" fill="#ed3c8a"/>
    <path id="Path_77655" data-name="Path 77655" d="M168.827,209.791s-.49,2.444,3.565,2.655c0,0-1.817,1.19-2.1,2.375a4.867,4.867,0,0,1-3.282-4.208C167.006,210.629,168.127,209.37,168.827,209.791Z" transform="translate(-160.255 -192.767)" opacity="0.4" style="isolation: isolate"/>
    <path id="Path_77656" data-name="Path 77656" d="M181.279,209.565s.226,2.3-.2,2.785a3.607,3.607,0,0,1,2.027,1.817,7.642,7.642,0,0,0-.666-3.879S181.944,209.423,181.279,209.565Z" transform="translate(-168.943 -192.67)" opacity="0.4"/>
    <path id="Path_77657" data-name="Path 77657" d="M216.48,236.557l3.087-1.312s.382-1.148.868-1.419,3.791-.819,4.124-.5.409,2.911-.2,3.274a11.3,11.3,0,0,1-3.806.34L217.4,238.5Z" transform="translate(-190.802 -207.292)" fill="#e4897b"/>
    <path id="Path_77658" data-name="Path 77658" d="M197.15,212.08s2.93.176,3.9,4.208c0,0,.455,1.836.639,2.792a5.631,5.631,0,0,0-3.963,1.09Z" transform="translate(-178.866 -194.233)" fill="#ed3c8a"/>
    <path id="Path_77659" data-name="Path 77659" d="M201.677,219.08a6.186,6.186,0,0,0-2.142.172,4.533,4.533,0,0,0-1.821.918l-.329-4.625-.245-3.466s2.93.176,3.9,4.208C201.042,216.288,201.5,218.124,201.677,219.08Z" transform="translate(-178.86 -194.233)" fill="#fff" opacity="0.2" style="isolation: isolate"/>
    <path id="Path_77660" data-name="Path 77660" d="M248.3,241h-5.355a.765.765,0,0,0-.765.765v.555h-.145a2.792,2.792,0,0,0-1,.184,2.842,2.842,0,0,0,0,5.317,2.792,2.792,0,0,0,1,.184h.145v.264a.765.765,0,0,0,.765.765H248.3a.765.765,0,0,0,.765-.765v-6.5A.765.765,0,0,0,248.3,241Zm-6.12,6.1h-.145a1.913,1.913,0,0,1-1-.279,1.958,1.958,0,0,1,1-3.642h.145Z" transform="translate(-204.829 -212.091)" fill="#ed3c8a"/>
    <path id="Path_77661" data-name="Path 77661" d="M259.968,255.492a4.759,4.759,0,0,0,2.066.092c.631-.26,1.021-2,.952-2.582s-.287-1.167-1.53-1.236-1.656-.264-1.943.849S258.985,255.182,259.968,255.492Z" transform="translate(-217.218 -218.703)" fill="#e4897b"/>
    <path id="Path_77662" data-name="Path 77662" d="M245.148,244.45v.887H245a1.939,1.939,0,0,0-1,.275v-.972a2.792,2.792,0,0,1,1-.184Z" transform="translate(-207.795 -214.221)" opacity="0.4"/>
    <path id="Path_77663" data-name="Path 77663" d="M245.148,256.5v.891H245a2.794,2.794,0,0,1-1-.184v-.979a1.913,1.913,0,0,0,1,.279A.192.192,0,0,0,245.148,256.5Z" transform="translate(-207.795 -221.495)" opacity="0.4"/>
    <path id="Path_77664" data-name="Path 77664" d="M199.94,224.847a4.532,4.532,0,0,0-1.821.918l-.329-4.625A13.006,13.006,0,0,1,199.94,224.847Z" transform="translate(-179.261 -199.828)" opacity="0.2" style="isolation: isolate"/>
    <path id="Path_77665" data-name="Path 77665" d="M160.521,228.623c.061,1.61-1.783,3.55-3.577,5.045-.18-1.113-.417-2.3-.738-3.557s-.727-2.739-1.247-4.41c-.279-.891-.585-1.848-.93-2.88v-.05l2.169-.111S160.418,225.506,160.521,228.623Z" transform="translate(-152.24 -200.766)" opacity="0.2" style="isolation: isolate"/>
    <path id="Path_77666" data-name="Path 77666" d="M180.838,234.357a18.988,18.988,0,0,1-3.959,1.584c-2.517.734-6.189,1.258-9.593,1.993s-4.667.1-6.082-1.53-3.462-4.613-3.462-4.613l-3.982.21a31.4,31.4,0,0,0,4.208,6.5,8.74,8.74,0,0,0,9.123,2.884c3.512-.788,12.623-3.76,14.746-5.355S180.838,234.357,180.838,234.357Z" transform="translate(-152.073 -206.404)" fill="#e4897b"/>
    <path id="Path_77667" data-name="Path 77667" d="M157.269,223.924c-2.406-.6-5.221.593-6.013.964a16.91,16.91,0,0,1-1.373-2.93c-.792-2.341-.566-3.7-.176-4.468a1.913,1.913,0,0,1,.792-.872h0C152.277,216.407,154.893,220.623,157.269,223.924Z" transform="translate(-149.351 -197.031)" fill="#ed3c8a" style="isolation: isolate"/>
    <path id="Path_77668" data-name="Path 77668" d="M157.269,223.924c-2.406-.6-5.221.593-6.013.964a16.91,16.91,0,0,1-1.373-2.93c-.792-2.341-.566-3.7-.176-4.468a1.913,1.913,0,0,1,.792-.872h0C152.277,216.407,154.893,220.623,157.269,223.924Z" transform="translate(-149.351 -197.031)" fill="#fff" opacity="0.2" style="isolation: isolate"/>
  </g>
</svg>
