<svg xmlns="http://www.w3.org/2000/svg" width="196.787" height="182.748" viewBox="0 0 196.787 182.748">
  <g id="Employee_Testimonials" data-name="Employee Testimonials" transform="translate(-43.89 -55.921)">
    <g id="freepik--background-complete--inject-2" transform="translate(53.234 113.972)">
      <path id="Path_78645" data-name="Path 78645" d="M392.251,170.026l-5.415-5.415H360.76V143.18h36.393v21.393h-4.9Zm-31.016-5.89h25.786l4.754,4.754v-4.754h4.9V143.655H361.235Z" transform="translate(-219.054 -124.18)" fill="#ebebeb"/>
      <path id="Path_78646" data-name="Path 78646" d="M380.994,163.842a1.7,1.7,0,1,1-1.7-1.7A1.7,1.7,0,0,1,380.994,163.842Z" transform="translate(-227.883 -134.126)" fill="#ebebeb"/>
      <path id="Path_78647" data-name="Path 78647" d="M398.864,163.842a1.7,1.7,0,1,1-1.7-1.7,1.7,1.7,0,0,1,1.7,1.7Z" transform="translate(-237.258 -134.126)" fill="#ebebeb"/>
      <path id="Path_78648" data-name="Path 78648" d="M416.724,163.842a1.7,1.7,0,1,1-1.7-1.7,1.7,1.7,0,0,1,1.7,1.7Z" transform="translate(-246.627 -134.126)" fill="#ebebeb"/>
      <path id="Path_78649" data-name="Path 78649" d="M67.591,233.611v-5.42h-4.9V206.76H99.083v21.432H73.006Zm-4.426-5.9h4.9v4.754l4.754-4.754h25.8V207.235H63.165Z" transform="translate(-62.69 -176.533)" fill="#ebebeb"/>
      <path id="Path_78650" data-name="Path 78650" d="M115.25,227.422a1.7,1.7,0,1,0,1.7-1.7,1.7,1.7,0,0,0-1.7,1.7Z" transform="translate(-90.262 -186.48)" fill="#ebebeb"/>
      <path id="Path_78651" data-name="Path 78651" d="M97.38,227.422a1.7,1.7,0,1,0,1.7-1.7,1.7,1.7,0,0,0-1.7,1.7Z" transform="translate(-80.888 -186.48)" fill="#ebebeb"/>
      <path id="Path_78652" data-name="Path 78652" d="M79.52,227.422a1.7,1.7,0,1,0,1.7-1.7,1.7,1.7,0,0,0-1.7,1.7Z" transform="translate(-71.519 -186.48)" fill="#ebebeb"/>
    </g>
    <g id="freepik--Device--inject-2" transform="translate(93.423 55.921)">
      <path id="Path_78653" data-name="Path 78653" d="M236.825,61.12H156.233a8.234,8.234,0,0,0-8.153,8.305V235.344a8.239,8.239,0,0,0,8.153,8.277h80.592a8.244,8.244,0,0,0,8.163-8.305V69.4A8.239,8.239,0,0,0,236.825,61.12Zm3.066,169.08c0,4.369-3.271,7.9-7.307,7.9h-72.1c-4.046,0-7.317-3.532-7.317-7.9V75.715c0-8.895,3.271-9.332,7.317-9.332h14.438c.837,0,1.526.951,1.526,2.139v.509c0,2.772,1.517,2.781,3.38,2.781h33.4c1.878,0,3.38,0,3.38-2.781v-.509c0-1.184.68-2.139,1.531-2.139h14.443c4.036,0,7.307,1.184,7.307,9.332Z" transform="translate(-148.079 -61.12)" fill="#37474f"/>
      <path id="Path_78654" data-name="Path 78654" d="M248.9,75.108h-9.114a.561.561,0,0,1-.561-.561h0a.561.561,0,0,1,.561-.547H248.9a.561.561,0,0,1,.561.566h0A.561.561,0,0,1,248.9,75.108Z" transform="translate(-195.896 -67.877)" fill="#263238"/>
      <path id="Path_78655" data-name="Path 78655" d="M245.515,81.522V236.031c0,4.369-3.271,7.9-7.3,7.9h-72.1c-4.041,0-7.312-3.532-7.312-7.9V81.522c0-8.895,3.271-9.332,7.312-9.332H180.55c.841,0,1.526.951,1.526,2.139v.509c0,2.772,1.517,2.781,3.38,2.781h33.4c1.878,0,3.38,0,3.38-2.781v-.509c0-1.184.68-2.139,1.531-2.139h14.448C242.244,72.19,245.515,73.374,245.515,81.522Z" transform="translate(-153.703 -66.927)" fill="#fff" opacity="0"/>
      <path id="Path_78656" data-name="Path 78656" d="M245.515,81.522V96.949H158.8V81.522c0-8.895,3.271-9.332,7.312-9.332H180.55c.841,0,1.526.951,1.526,2.139v.509c0,2.767,1.517,2.776,3.38,2.776h33.4c1.878,0,3.38,0,3.38-2.776v-.509c0-1.184.675-2.139,1.531-2.139h14.443C242.244,72.19,245.515,73.374,245.515,81.522Z" transform="translate(-153.703 -66.927)" fill="#ffc200"/>
      <path id="Path_78657" data-name="Path 78657" d="M174.432,108.217l-2.562-2.4,2.562-2.4.395.423-2.106,1.973,2.106,1.978Z" transform="translate(-160.56 -83.31)" fill="#fff"/>
      <path id="Path_78658" data-name="Path 78658" d="M325.958,104.764a.5.5,0,1,1-.5-.5A.5.5,0,0,1,325.958,104.764Z" transform="translate(-240.864 -83.751)" fill="#fff"/>
      <path id="Path_78659" data-name="Path 78659" d="M325.958,108.518a.5.5,0,1,1-.143-.369A.5.5,0,0,1,325.958,108.518Z" transform="translate(-240.864 -85.713)" fill="#fff"/>
      <path id="Path_78660" data-name="Path 78660" d="M325.958,112.3a.5.5,0,1,1-.148-.359A.5.5,0,0,1,325.958,112.3Z" transform="translate(-240.864 -87.706)" fill="#fff"/>
      <g id="freepik--u5Zjqx--inject-2" transform="translate(21.232 8.101)">
        <path id="Path_78661" data-name="Path 78661" d="M195.863,78.792l-.138.138c-.029.029-.052.057-.081.081a1.9,1.9,0,0,0-2.691,0,.613.613,0,0,0-.076-.081c-.043-.048-.09-.09-.138-.138h0l.176-.157a1.93,1.93,0,0,1,.409-.261,2.168,2.168,0,0,1,.537-.181l.271-.033h.423a1.788,1.788,0,0,1,.475.119,1.812,1.812,0,0,1,.338.157,1.83,1.83,0,0,1,.319.223l.147.133Z" transform="translate(-192.74 -78.16)" fill="#fff"/>
        <path id="Path_78662" data-name="Path 78662" d="M193.879,80.118l-.219-.219a1.6,1.6,0,0,1,2.249,0l-.223.219a1.284,1.284,0,0,0-1.807,0Z" transform="translate(-193.223 -78.83)" fill="#fff"/>
        <path id="Path_78663" data-name="Path 78663" d="M195.923,81.005l-.223.219a.689.689,0,0,0-.951,0l-.219-.219a.951.951,0,0,1,1.393,0Z" transform="translate(-193.679 -79.493)" fill="#fff"/>
        <path id="Path_78664" data-name="Path 78664" d="M196,82a.2.2,0,1,1-.2-.2.2.2,0,0,1,.2.2Z" transform="translate(-194.246 -80.07)" fill="#fff"/>
      </g>
      <path id="Path_78665" data-name="Path 78665" d="M170.69,79.745a.575.575,0,1,1,.575.575A.575.575,0,0,1,170.69,79.745Z" transform="translate(-159.941 -70.589)" fill="#fff"/>
      <path id="Path_78666" data-name="Path 78666" d="M174.5,79.745a.575.575,0,1,1,.575.575A.575.575,0,0,1,174.5,79.745Z" transform="translate(-161.939 -70.589)" fill="#fff"/>
      <path id="Path_78667" data-name="Path 78667" d="M178.3,79.745a.575.575,0,1,1,.575.575A.575.575,0,0,1,178.3,79.745Z" transform="translate(-163.933 -70.589)" fill="#fff"/>
      <path id="Path_78668" data-name="Path 78668" d="M182.11,79.745a.575.575,0,1,1,.575.575A.575.575,0,0,1,182.11,79.745Z" transform="translate(-165.931 -70.589)" fill="#fff"/>
      <path id="Path_78669" data-name="Path 78669" d="M185.92,79.745a.575.575,0,1,1,.575.575A.575.575,0,0,1,185.92,79.745Z" transform="translate(-167.93 -70.589)" fill="#fff"/>
      <path id="Path_78670" data-name="Path 78670" d="M322.353,80.613H317.67V78.45h4.683Zm-4.44-.247h4.193V78.711h-4.193Z" transform="translate(-237.045 -70.211)" fill="#fff"/>
      <rect id="Rectangle_6558" data-name="Rectangle 6558" width="3.014" height="1.431" transform="translate(81.015 8.61)" fill="#fff"/>
      <rect id="Rectangle_6559" data-name="Rectangle 6559" width="0.418" height="1.16" transform="translate(85.308 8.748)" fill="#fff"/>
      <path id="Path_78671" data-name="Path 78671" d="M177.8,413.648h-.423V415.6h-.794V414.6h-1.4v.994h-.789v-1.949h-.423l1.916-1.978Z" transform="translate(-161.661 -245.015)" fill="#ebebeb"/>
      <rect id="Rectangle_6560" data-name="Rectangle 6560" width="4.621" height="0.661" transform="translate(80.159 166.655)" fill="#ebebeb"/>
      <rect id="Rectangle_6561" data-name="Rectangle 6561" width="4.621" height="0.661" transform="translate(80.159 168.286)" fill="#ebebeb"/>
      <rect id="Rectangle_6562" data-name="Rectangle 6562" width="4.621" height="0.661" transform="translate(80.159 169.921)" fill="#ebebeb"/>
      <path id="Path_78672" data-name="Path 78672" d="M250.144,415.7l-1.312,1.4-1.312-1.4.228-.219,1.084,1.155,1.084-1.155Z" transform="translate(-200.245 -247.013)" fill="#ebebeb"/>
      <path id="Path_78673" data-name="Path 78673" d="M247.657,416.694a2.377,2.377,0,1,1,2.377-2.377A2.377,2.377,0,0,1,247.657,416.694Zm0-4.459a2.073,2.073,0,1,0,2.073,2.073A2.073,2.073,0,0,0,247.657,412.235Z" transform="translate(-199.07 -245.156)" fill="#ebebeb"/>
      <path id="Path_78674" data-name="Path 78674" d="M229.624,105.873v2.482a.238.238,0,0,1-.238.228.233.233,0,0,1-.233-.228v-1.773l-.6.841a.228.228,0,0,1-.19.1h0a.233.233,0,0,1-.19-.1l-.6-.841v1.773a.238.238,0,1,1-.475,0v-2.482a.233.233,0,0,1,.233-.233h0a.214.214,0,0,1,.185.1l.837,1.16.837-1.16a.228.228,0,0,1,.19-.1h0a.242.242,0,0,1,.252.233Z" transform="translate(-189.527 -84.474)" fill="#fff"/>
      <path id="Path_78675" data-name="Path 78675" d="M234.119,108.355v-2.482a.228.228,0,0,1,.233-.233h1.374a.238.238,0,0,1,0,.475h-1.141v.77h.979a.238.238,0,0,1,.233.233.233.233,0,0,1-.233.233h-.979v.775h1.141a.238.238,0,1,1,0,.475h-1.364a.228.228,0,0,1-.242-.247Z" transform="translate(-193.214 -84.475)" fill="#fff"/>
      <path id="Path_78676" data-name="Path 78676" d="M239.107,107.788a.223.223,0,0,1,.309-.029,1.36,1.36,0,0,0,.8.323.908.908,0,0,0,.523-.152.38.38,0,0,0,.185-.28.209.209,0,0,0-.038-.133.385.385,0,0,0-.124-.128,1.612,1.612,0,0,0-.575-.195h0a2.2,2.2,0,0,1-.542-.166.879.879,0,0,1-.39-.328.613.613,0,0,1-.1-.342.789.789,0,0,1,.338-.618,1.25,1.25,0,0,1,.727-.219,1.654,1.654,0,0,1,.918.333.219.219,0,0,1,.057.3.209.209,0,0,1-.3.062,1.212,1.212,0,0,0-.675-.266.789.789,0,0,0-.475.143.338.338,0,0,0-.162.266.181.181,0,0,0,.033.114.394.394,0,0,0,.109.109,1.459,1.459,0,0,0,.528.185h0a2.772,2.772,0,0,1,.58.176.979.979,0,0,1,.418.352.651.651,0,0,1,.1.357.808.808,0,0,1-.366.651,1.293,1.293,0,0,1-.775.238,1.788,1.788,0,0,1-1.079-.418.228.228,0,0,1-.033-.333Z" transform="translate(-195.802 -84.412)" fill="#fff"/>
      <path id="Path_78677" data-name="Path 78677" d="M244.948,107.761a.219.219,0,0,1,.3-.029,1.374,1.374,0,0,0,.8.323.951.951,0,0,0,.528-.152.39.39,0,0,0,.181-.3.243.243,0,0,0-.038-.133.361.361,0,0,0-.128-.128,1.578,1.578,0,0,0-.575-.195h0a2.3,2.3,0,0,1-.547-.166.951.951,0,0,1-.39-.328.651.651,0,0,1-.1-.342.789.789,0,0,1,.338-.618,1.231,1.231,0,0,1,.727-.219,1.635,1.635,0,0,1,.913.333.219.219,0,0,1,.062.3.209.209,0,0,1-.3.062,1.212,1.212,0,0,0-.675-.266.808.808,0,0,0-.475.143.342.342,0,0,0-.157.266.214.214,0,0,0,.029.114.423.423,0,0,0,.114.109,1.459,1.459,0,0,0,.528.185h0a2.685,2.685,0,0,1,.58.176.993.993,0,0,1,.423.352.694.694,0,0,1,.1.357.813.813,0,0,1-.361.651,1.307,1.307,0,0,1-.78.238,1.773,1.773,0,0,1-1.074-.418A.223.223,0,0,1,244.948,107.761Z" transform="translate(-198.871 -84.385)" fill="#fff"/>
      <path id="Path_78678" data-name="Path 78678" d="M252.279,107.9h-1l-.2.547a.233.233,0,0,1-.219.147h-.081a.238.238,0,0,1-.138-.3l.927-2.477a.242.242,0,0,1,.223-.147.233.233,0,0,1,.223.147l.951,2.477a.242.242,0,0,1-.143.3h-.076a.228.228,0,0,1-.219-.147Zm-.171-.475-.342-.9-.338.9Z" transform="translate(-201.871 -84.49)" fill="#fff"/>
      <path id="Path_78679" data-name="Path 78679" d="M256.11,106.986a1.555,1.555,0,0,1,2.51-1.189.238.238,0,0,1,.048.338.247.247,0,0,1-.342.038,1.089,1.089,0,0,0-.661-.228,1.027,1.027,0,0,0-.756.309.989.989,0,0,0,0,1.455,1.027,1.027,0,0,0,.756.309,1.174,1.174,0,0,0,.575-.162v-.575h-.6a.243.243,0,0,1-.238-.242.233.233,0,0,1,.238-.233h.837a.238.238,0,0,1,.247.233v.951a.31.31,0,0,1,0,.071h0a.176.176,0,0,1-.081.1,1.55,1.55,0,0,1-2.505-1.179Z" transform="translate(-204.751 -84.385)" fill="#fff"/>
      <path id="Path_78680" data-name="Path 78680" d="M263.589,108.355v-2.482a.233.233,0,0,1,.233-.233h1.388a.238.238,0,0,1,0,.475h-1.136v.77h.979a.238.238,0,0,1,.228.233.233.233,0,0,1-.228.233h-.979v.775h1.136a.238.238,0,0,1,0,.475h-1.36a.233.233,0,0,1-.262-.247Z" transform="translate(-208.674 -84.475)" fill="#fff"/>
      <path id="Path_78681" data-name="Path 78681" d="M268.6,107.761a.219.219,0,0,1,.3-.029,1.36,1.36,0,0,0,.8.323.951.951,0,0,0,.528-.152.39.39,0,0,0,.181-.3.242.242,0,0,0-.038-.133.475.475,0,0,0-.128-.128,1.578,1.578,0,0,0-.575-.195h0a2.33,2.33,0,0,1-.542-.166.908.908,0,0,1-.39-.328.651.651,0,0,1-.1-.342.8.8,0,0,1,.333-.618,1.25,1.25,0,0,1,.727-.219,1.654,1.654,0,0,1,.918.333.219.219,0,0,1,.062.3.209.209,0,0,1-.3.062,1.227,1.227,0,0,0-.68-.266.8.8,0,0,0-.475.143.328.328,0,0,0-.157.266.181.181,0,0,0,.029.114.361.361,0,0,0,.114.109,1.464,1.464,0,0,0,.523.185h0a2.686,2.686,0,0,1,.58.176,1.022,1.022,0,0,1,.423.352.694.694,0,0,1,.1.357.813.813,0,0,1-.361.651,1.317,1.317,0,0,1-.78.238,1.773,1.773,0,0,1-1.074-.418.223.223,0,0,1-.029-.309Z" transform="translate(-211.275 -84.385)" fill="#fff"/>
    </g>
    <g id="freepik--Plant--inject-2" transform="translate(213.209 187.63)">
      <path id="Path_78682" data-name="Path 78682" d="M441.776,366.072c-5.12,6.941-10.464,14.99-11.776,23.69,0,.128.195.171.223.043a52.551,52.551,0,0,1,2.268-6.97c3.371-.927,6.656-1.688,8.443-5.03,1.807-3.437,1.574-7.916,1.231-11.662C442.151,365.948,441.885,365.938,441.776,366.072Z" transform="translate(-415.758 -352.756)" fill="#ed3c8a"/>
      <path id="Path_78683" data-name="Path 78683" d="M435.358,385.187a57.282,57.282,0,0,1,9.009-14.6c.029-.029.067,0,.043.043a61.839,61.839,0,0,0-6.152,9.67c1.7-1.721,3.556-3.266,5.163-5.092.029-.033.081,0,.052.052a28.357,28.357,0,0,1-5.42,5.41q-.837,1.55-1.688,3.095c.138-.081.285-.147.428-.219v.038c-.157.081-.314.162-.475.233-.271.475-.537.975-.818,1.464C435.458,385.392,435.306,385.3,435.358,385.187Z" transform="translate(-418.563 -355.166)" fill="#263238"/>
      <path id="Path_78684" data-name="Path 78684" d="M438.965,394.612a30.284,30.284,0,0,0,3.932-2.629c.033-.024.081.024.048.052a20.771,20.771,0,0,1-3.922,2.672C438.965,394.74,438.889,394.645,438.965,394.612Z" transform="translate(-420.444 -366.393)" fill="#263238"/>
      <path id="Path_78685" data-name="Path 78685" d="M428.363,373.879c0,.1.19.1.19,0,.024-2.852,0-5.743.043-8.624.737-1.483,2.31-2.3,3.409-3.49a15.117,15.117,0,0,0,2.04-2.852,20.442,20.442,0,0,0,2.377-7.906c.3-3.066-.86-13.178-2.154-12.836-.67.185-2.852,5.2-3.413,6.851a48.059,48.059,0,0,0-2.04,8.4A89.53,89.53,0,0,0,428.363,373.879Z" transform="translate(-414.706 -338.162)" fill="#ed3c8a"/>
      <path id="Path_78686" data-name="Path 78686" d="M428.689,363.482h0a65.2,65.2,0,0,1,1.735-10.806,36.152,36.152,0,0,1,3.737-10.735c.038-.062.128,0,.1.057a39.685,39.685,0,0,0-3,8.244c.133-.2.29-.4.428-.594.052-.076.176,0,.124.076a5.23,5.23,0,0,1-.609.861h-.024c-.67,2.71-1.155,5.477-1.569,8.244.033-.038.062-.076.1-.109s.057,0,.043.033l-.166.276c-.209,1.4-.4,2.8-.594,4.188a19.738,19.738,0,0,0,5.833-7.749h.024a16.124,16.124,0,0,1-5.9,8.025l-.157,1.117c0,.081-.138.057-.133,0,0-.333,0-.666.029-.994a.081.081,0,0,1,0-.133Z" transform="translate(-415.05 -340.131)" fill="#263238"/>
      <path id="Path_78687" data-name="Path 78687" d="M431.19,366.54a57.048,57.048,0,0,0,5.087-8.762.034.034,0,1,1,.062.029,28.4,28.4,0,0,1-5.054,8.809C431.242,366.668,431.152,366.6,431.19,366.54Z" transform="translate(-416.377 -348.442)" fill="#263238"/>
      <path id="Path_78688" data-name="Path 78688" d="M436.53,351.686c.789-1.4,1.621-2.757,2.377-4.184,0-.038.076,0,.057.033a21.511,21.511,0,0,1-2.306,4.222.073.073,0,1,1-.128-.071Z" transform="translate(-419.179 -343.054)" fill="#263238"/>
      <path id="Path_78689" data-name="Path 78689" d="M435.883,357.6v.029S435.869,357.6,435.883,357.6Z" transform="translate(-418.841 -348.359)" fill="#263238"/>
      <path id="Path_78690" data-name="Path 78690" d="M415.861,370.392a28.874,28.874,0,0,1-.67,5.648c.033.2.062.409.09.618a26.966,26.966,0,0,0,1.013-6.294.2.2,0,0,0,0-.195h0a41.36,41.36,0,0,0-.632-8.524c-.884-5.268-2.824-10.321-6.5-14.262a.262.262,0,0,0-.4.086c-1.483,3.77-.951,8.267.295,12.023a22.135,22.135,0,0,0,2.914,5.7C413.232,366.959,414.839,368.461,415.861,370.392Z" transform="translate(-404.143 -342.966)" fill="#ed3c8a"/>
      <path id="Path_78691" data-name="Path 78691" d="M411.36,351.1a40.378,40.378,0,0,1,6.18,19.016c0,.119-.19.152-.209.029q-.119-.9-.271-1.783h0a23.742,23.742,0,0,1-3.951-4.559c0-.029.029-.062.052-.038A46.96,46.96,0,0,0,417,367.945c-.252-1.479-.547-2.929-.894-4.36l-.276-.323c-.062-.071.038-.176.1-.1l.086.1a50.012,50.012,0,0,0-1.821-5.781,17.522,17.522,0,0,1-2.52-3.242.026.026,0,0,1,.043-.029c.523.727,1.022,1.464,1.612,2.139.233.266.475.518.737.78a44.936,44.936,0,0,0-2.852-5.938C411.175,351.1,411.308,351.04,411.36,351.1Z" transform="translate(-405.899 -344.936)" fill="#263238"/>
      <path id="Path_78692" data-name="Path 78692" d="M412.909,365.77c1.122,1.517,2.406,2.962,3.451,4.526.029.043-.038.09-.071.057a23.256,23.256,0,0,1-3.456-4.535A.045.045,0,0,1,412.909,365.77Z" transform="translate(-406.749 -352.635)" fill="#263238"/>
      <path id="Path_78693" data-name="Path 78693" d="M420.531,376.042l.048.048a.038.038,0,0,1-.052.052l-.048-.052C420.445,376.056,420.5,376.018,420.531,376.042Z" transform="translate(-410.757 -358.03)" fill="#263238"/>
      <path id="Path_78694" data-name="Path 78694" d="M400.046,373.619a17.348,17.348,0,0,0,3.675,8.614,9.109,9.109,0,0,0,2.981,2.325c1.288.642,2.639,1.374,3.974,1.9a26.376,26.376,0,0,1,1.426,5l.128-.442c-.856-7.359-5.619-13.649-11.709-17.685a.3.3,0,0,0-.475.285Z" transform="translate(-400.043 -356.582)" fill="#ed3c8a"/>
      <path id="Path_78695" data-name="Path 78695" d="M404.461,378.452a.051.051,0,0,1,.062-.081,24.921,24.921,0,0,1,7.763,9.565c.043.1-.1.19-.152.09-.285-.5-.57-.979-.865-1.455h0a8.4,8.4,0,0,1-3.741-2.168c-.024-.024,0-.067.043-.043a8.38,8.38,0,0,0,1.759,1.236,18.217,18.217,0,0,0,1.769.7c-.518-.818-1.055-1.6-1.616-2.377a16.116,16.116,0,0,1-4.174-2.349.038.038,0,1,1,.038-.067,40.691,40.691,0,0,0,3.884,2.078,34.766,34.766,0,0,0-2.743-3.195c-.475-.252-.951-.5-1.426-.77-.038,0,0-.086.029-.071a5.06,5.06,0,0,1,1.093.547C405.659,379.536,405.069,378.989,404.461,378.452Z" transform="translate(-402.351 -359.251)" fill="#263238"/>
      <path id="Path_78696" data-name="Path 78696" d="M404.687,383.893a1.639,1.639,0,0,1,.238.166s0,.048-.033.038a1.759,1.759,0,0,1-.242-.138C404.607,383.941,404.645,383.865,404.687,383.893Z" transform="translate(-402.449 -362.149)" fill="#263238"/>
      <path id="Path_78697" data-name="Path 78697" d="M427.217,424.551H410.53l1.345-15.2L412.17,406h13.407l.295,3.352Z" transform="translate(-405.544 -373.749)" fill="#455a64"/>
      <path id="Path_78698" data-name="Path 78698" d="M427.356,409.352h-14l.295-3.352h13.407Z" transform="translate(-407.029 -373.749)" fill="#263238"/>
      <rect id="Rectangle_6563" data-name="Rectangle 6563" width="14.999" height="3.318" transform="translate(5.827 29.907)" fill="#455a64"/>
    </g>
    <g id="freepik--speech-bubbles--inject-2" transform="translate(43.89 81.17)">
      <g id="Group_55345" data-name="Group 55345" transform="translate(83.696 75.567)" opacity="0.9">
        <path id="Path_78699" data-name="Path 78699" d="M332.48,234.236H220.44V210.66H320.633v16.007Z" transform="translate(-220.202 -210.422)" fill="#fff"/>
        <path id="Path_78700" data-name="Path 78700" d="M332.218,234.211H219.94V210.16H320.608v16.116l12.422,7.935Zm-111.8-.475H331.4l-11.272-7.2v-15.9H220.415Z" transform="translate(-219.94 -210.16)" fill="#ed3c8a"/>
      </g>
      <rect id="Rectangle_6564" data-name="Rectangle 6564" width="80.316" height="0.951" transform="translate(91.526 81.357)" fill="#ed3c8a"/>
      <rect id="Rectangle_6565" data-name="Rectangle 6565" width="60.672" height="0.951" transform="translate(91.526 86.734)" fill="#ed3c8a"/>
      <rect id="Rectangle_6566" data-name="Rectangle 6566" width="75.063" height="0.951" transform="translate(91.526 92.106)" fill="#ed3c8a"/>
      <g id="Group_55346" data-name="Group 55346" transform="translate(83.696)" opacity="0.9">
        <path id="Path_78701" data-name="Path 78701" d="M332.48,75.286H220.44V51.71H320.633V67.717Z" transform="translate(-220.202 -51.472)" fill="#fff"/>
        <path id="Path_78702" data-name="Path 78702" d="M333.031,75.261H219.94V51.21H320.608V67.322Zm-112.615-.475H331.4l-11.272-7.2v-15.9H220.415Z" transform="translate(-219.94 -51.21)" fill="#ed3c8a"/>
      </g>
      <rect id="Rectangle_6567" data-name="Rectangle 6567" width="80.316" height="0.951" transform="translate(91.526 5.786)" fill="#ed3c8a"/>
      <rect id="Rectangle_6568" data-name="Rectangle 6568" width="60.672" height="0.951" transform="translate(91.526 11.163)" fill="#ed3c8a"/>
      <rect id="Rectangle_6569" data-name="Rectangle 6569" width="75.063" height="0.951" transform="translate(91.526 16.54)" fill="#ed3c8a"/>
      <path id="Path_78703" data-name="Path 78703" d="M68.81,313.248h87.975V280.64H68.81Z" transform="translate(-56.963 -171.567)" fill="#ffc200" opacity="0.8"/>
      <path id="Path_78704" data-name="Path 78704" d="M43.89,336.157,55.737,324.31v11.847Z" transform="translate(-43.89 -194.475)" fill="#ffc200" opacity="0.8"/>
      <rect id="Rectangle_6570" data-name="Rectangle 6570" width="76.784" height="0.951" transform="translate(17.443 114.156)" fill="#fff"/>
      <rect id="Rectangle_6571" data-name="Rectangle 6571" width="58.01" height="0.951" transform="translate(17.443 119.528)" fill="#fff"/>
      <rect id="Rectangle_6572" data-name="Rectangle 6572" width="71.763" height="0.951" transform="translate(17.443 124.905)" fill="#fff"/>
      <rect id="Rectangle_6573" data-name="Rectangle 6573" width="43.752" height="0.951" transform="translate(17.443 130.282)" fill="#fff"/>
      <rect id="Rectangle_6574" data-name="Rectangle 6574" width="76.784" height="0.951" transform="translate(17.443 135.654)" fill="#fff"/>
      <path id="Path_78705" data-name="Path 78705" d="M68.81,154.3H170.928V121.69H68.81Z" transform="translate(-56.963 -88.183)" fill="#ffc200" opacity="0.8"/>
      <path id="Path_78706" data-name="Path 78706" d="M43.89,177.2,55.737,165.35V177.2Z" transform="translate(-43.89 -111.087)" fill="#ffc200" opacity="0.8"/>
      <rect id="Rectangle_6575" data-name="Rectangle 6575" width="89.13" height="0.951" transform="translate(18.341 38.584)" fill="#fff"/>
      <rect id="Rectangle_6576" data-name="Rectangle 6576" width="67.332" height="0.951" transform="translate(18.341 43.961)" fill="#fff"/>
      <rect id="Rectangle_6577" data-name="Rectangle 6577" width="83.301" height="0.951" transform="translate(18.341 49.333)" fill="#fff"/>
      <rect id="Rectangle_6578" data-name="Rectangle 6578" width="50.788" height="0.951" transform="translate(18.341 54.71)" fill="#fff"/>
      <rect id="Rectangle_6579" data-name="Rectangle 6579" width="89.13" height="0.951" transform="translate(18.341 60.087)" fill="#fff"/>
    </g>
    <g id="freepik--Floor--inject-2" transform="translate(43.89 238.194)">
      <path id="Path_78707" data-name="Path 78707" d="M43.89,444.758l24.5-.114,24.493-.043,49-.081,49,.081,24.493.038,24.5.119-24.5.114-24.493.043-49,.081-49-.081-24.493-.043Z" transform="translate(-43.89 -444.52)" fill="#263238"/>
    </g>
  </g>
</svg>
